TITLE:   079_HA_V06
FCM: NON-DROP FRAME
000001  N005_C020_11099E                 V     C        06:32:34:01 06:32:40:09 06:00:00:00 06:00:06:08
*079_HA_0010
*FROM CLIP NAME:  V8033-14_SC65 NB MOS*
*SOURCE FILE: N005_C020_11099E
000002  A099_C005_08281C                 V     C        09:31:30:00 09:31:40:01 06:00:06:08 06:00:16:09
*079_HA_0030
*FROM CLIP NAME:  V502-5_SC79
*SOURCE FILE: A099_C005_08281C
000003  B080_C001_0827FQ                 V     C        12:02:28:15 12:02:39:14 06:00:16:09 06:00:27:08
*079_HA_0040
*FROM CLIP NAME:  V490-1B_SC79 EB SERIES
*SOURCE FILE: B080_C001_0827FQ
000004  A097_C001_0827HM                 V     C        12:02:34:15 12:02:39:00 06:00:27:08 06:00:31:17
*079_HA_0050
*FROM CLIP NAME:  V490-1A_SC79 EB SERIES
*SOURCE FILE: A097_C001_0827HM
000005  B080_C003_08272P                 V     C        12:40:38:21 12:40:40:23 06:00:31:17 06:00:33:19
*079_HA_0060
*FROM CLIP NAME:  V492-1B_SC79 EB SERIES*
*SOURCE FILE: B080_C003_08272P
000006  A098_C015_08271Q                 V     C        17:08:51:01 17:08:54:14 06:00:33:19 06:00:37:08
*FROM CLIP NAME:  V499-2A_SC79*
*SOURCE FILE: A098_C015_08271Q
000007  A098_C001_0827ZC                 V     C        13:34:20:19 13:34:25:00 06:00:37:08 06:00:41:13
*FROM CLIP NAME:  V493-1A_SC79 EB SERIES*
*SOURCE FILE: A098_C001_0827ZC
000008  A098_C015_08271Q                 V     C        17:08:59:02 17:09:08:03 06:00:41:13 06:00:50:14
*FROM CLIP NAME:  V499-2A_SC79*
*SOURCE FILE: A098_C015_08271Q
000009  A098_C004_0827P8                 V     C        13:47:07:18 13:47:10:06 06:00:50:14 06:00:53:02
*079_HA_0080
*FROM CLIP NAME:  V493-4A_SC79 EB
*SOURCE FILE: A098_C004_0827P8
000010  A098_C006_0827Q2                 V     C        14:55:42:21 14:55:47:07 06:00:53:02 06:00:57:12
*079_HA_0090
*FROM CLIP NAME:  V494-2_SC79 SERIES*
*SOURCE FILE: A098_C006_0827Q2
000011  A098_C015_08271Q                 V     C        17:09:17:08 17:09:20:19 06:00:57:12 06:01:00:23
*FROM CLIP NAME:  V499-2A_SC79*
*SOURCE FILE: A098_C015_08271Q
000012  B081_C008_0827QY                 V     C        15:16:27:03 15:16:28:13 06:01:00:23 06:01:02:09
*079_HA_0105
*FROM CLIP NAME:  495-3_SC79 EB SERIES*
*SOURCE FILE: B081_C008_0827QY
000013  A097_C001_0827HM                 V     C        11:58:45:23 11:58:47:14 06:01:02:09 06:01:04:00
*FROM CLIP NAME:  V490-1A_SC79 EB SERIES
*SOURCE FILE: A097_C001_0827HM
000014  A098_C016_08278R                 V     C        18:06:16:16 18:06:17:11 06:01:04:00 06:01:04:19
*079_HA_0110
*FROM CLIP NAME:  500-1_SC79
*SOURCE FILE: A098_C016_08278R
000015  C096_C002_1021M1                 V     C        04:40:50:12 04:40:50:13 06:01:04:19 06:01:05:07
M2      C096_C002_1021M1                         -024.0 04:40:50:12
*FROM CLIP NAME:  985-2_SC79 NB MOS*
*SOURCE FILE: C096_C002_1021M1
000016  W061_C007_0926WO                 V     C        13:08:56:00 13:08:56:09 06:01:05:07 06:01:05:16
*FROM CLIP NAME:  X306-7W_SC79 EB*
*SOURCE FILE: W061_C007_0926WO
000017  A147_C010_0929Q3                 V     C        11:49:39:12 11:49:40:01 06:01:05:16 06:01:06:05
*079_HA_0120
*FROM CLIP NAME:  V809-2_SC79 SERIES*
*SOURCE FILE: A147_C010_0929Q3
000018  Z071_C021_0926YY                 V     C        16:49:57:03 16:49:58:15 06:01:06:05 06:01:07:17
*079_HA_0130
*FROM CLIP NAME:  XV311-3Z_SC79*
*SOURCE FILE: Z071_C021_0926YY
000019  A147_C010_0929Q3                 V     C        11:49:40:03 11:49:40:21 06:01:07:17 06:01:08:11
*079_HA_0140
*FROM CLIP NAME:  V809-2_SC79 SERIES*
*SOURCE FILE: A147_C010_0929Q3
000020  Z071_C027_0926OK                 V     C        17:54:07:04 17:54:09:04 06:01:08:11 06:01:10:11
*FROM CLIP NAME:  X312-4_SC79 SERIES
*SOURCE FILE: Z071_C027_0926OK
000021  A098_C017_0827Q5                 V     C        18:13:52:16 18:13:53:19 06:01:10:11 06:01:11:14
*079_HA_0150
*FROM CLIP NAME:  500-2_SC79 SERIES*
*SOURCE FILE: A098_C017_0827Q5
000022  B081_C009_0827HU                 V     C        15:58:41:05 15:58:42:21 06:01:11:14 06:01:13:06
*079_HA_0160
*FROM CLIP NAME:  V496-1B_SC79*
*SOURCE FILE: B081_C009_0827HU
000023  A147_C011_0929XJ                 V     C        12:13:47:08 12:13:48:19 06:01:13:06 06:01:14:17
*FROM CLIP NAME:  V810-1A_SC79 EB*
*SOURCE FILE: A147_C011_0929XJ
000024  D084_C003_0929RA                 V     C        12:13:50:17 12:13:52:10 06:01:14:17 06:01:16:10
*079_HA_0170
*FROM CLIP NAME:  V810-1D_SC79 EB*
*SOURCE FILE: D084_C003_0929RA
000025  A099_C007_0828J9                 V     C        09:54:25:22 09:54:28:15 06:01:16:10 06:01:19:03
*079_HA_0180
*FROM CLIP NAME:  503-2_SC79 EB SERIES*
*SOURCE FILE: A099_C007_0828J9
000026  A099_C016_082885                 V     C        13:38:09:14 13:38:11:11 06:01:19:03 06:01:21:00
*FROM CLIP NAME:  507-3_SC79 EB SERIES*
*SOURCE FILE: A099_C016_082885
000027  Z070_C011_0926L5                 V     C        11:52:08:10 11:52:11:21 06:01:21:00 06:01:24:11
*079_HA_0200
*FROM CLIP NAME:  XV305-3Z_SC79 EB SERIES*
*SOURCE FILE: Z070_C011_0926L5
000028  Z071_C013_0926RQ                 V     C        14:15:59:14 14:16:01:13 06:01:24:11 06:01:26:10
*FROM CLIP NAME:  XV307-4Z_SC79_81 EB*
*SOURCE FILE: Z071_C013_0926RQ
000029  A099_C009_0828BW                 V     C        12:36:51:06 12:36:55:13 06:01:26:10 06:01:30:17
*FROM CLIP NAME:  504-2_SC79 EB*
*SOURCE FILE: A099_C009_0828BW
000030  Z071_C013_0926RQ                 V     C        14:16:50:05 14:16:53:04 06:01:30:17 06:01:33:16
*FROM CLIP NAME:  XV307-4Z_SC79_81 EB*
*SOURCE FILE: Z071_C013_0926RQ
000031  A099_C013_082893                 V     C        13:10:47:23 13:10:51:11 06:01:33:16 06:01:37:04
*FROM CLIP NAME:  506-1_SC79-85 EB SERIES*
*SOURCE FILE: A099_C013_082893
000032  Z056_C004_0901WR                 V     C        17:10:09:21 17:10:12:14 06:01:37:04 06:01:39:21
*079_HA_0220
*FROM CLIP NAME:  X239-3Z_SC81 EB
*SOURCE FILE: Z056_C004_0901WR
000033  A147_C013_0929QI                 V     C        12:57:39:13 12:57:41:23 06:01:39:21 06:01:42:07
*079_HA_0240
*FROM CLIP NAME:  V812-2_SC79 SERIES*
*SOURCE FILE: A147_C013_0929QI
000034  D084_C009_0929D4                 V     C        13:18:38:08 13:18:41:12 06:01:42:07 06:01:45:11
*079_HA_0250
*FROM CLIP NAME:  V812-4D_SC79 EB*
*SOURCE FILE: D084_C009_0929D4
000035  A100_C002_08285L                 V     C        16:17:27:14 16:17:30:16 06:01:45:11 06:01:48:13
*079_HA_0255
*FROM CLIP NAME:  V511-1_SC85 PLATE EB
*SOURCE FILE: A100_C002_08285L
000036  A099_C023_0828CZ                 V     C        14:26:55:03 14:26:56:14 06:01:48:13 06:01:50:00
*FROM CLIP NAME:  509-3A_SC79-85 PU
*SOURCE FILE: A099_C023_0828CZ
000037  A099_C011_0828ME                 V     C        12:48:51:01 12:48:55:03 06:01:50:00 06:01:54:02
*FROM CLIP NAME:  505-2_SC79 NSB EB SERIES
*SOURCE FILE: A099_C011_0828ME
000038  A100_C004_0828VG                 V     C        17:09:49:04 17:09:52:00 06:01:54:02 06:01:56:22
*079_HA_0265
*FROM CLIP NAME:  V512-1_SC79 EB*
*SOURCE FILE: A100_C004_0828VG
000039  Y052_C015_0901B3                 V     C        18:48:00:14 18:48:03:05 06:01:56:22 06:01:59:13
*079_HA_0272
*FROM CLIP NAME:  XV242-2Y_SC81 EB*
*SOURCE FILE: Y052_C015_0901B3
000040  D085_C006_0929HX                 V     C        16:20:45:16 16:20:47:23 06:01:59:13 06:02:01:20
*079_HA_0275
*FROM CLIP NAME:  V816-1D_SC83-89 EB
*SOURCE FILE: D085_C006_0929HX
000041  A148_C008_09298Z                 V     C        16:20:46:14 16:20:48:04 06:02:01:20 06:02:03:10
*079_HA_0285
*FROM CLIP NAME:  V816-1A_SC83-89 EB
*SOURCE FILE: A148_C008_09298Z
000042  A100_C005_08280K                 V     C        17:12:44:13 17:12:46:18 06:02:03:10 06:02:05:15
*079_HA_0290
*FROM CLIP NAME:  V512-2_SC79 EB
*SOURCE FILE: A100_C005_08280K
000043  Z054_C007_09016Z                 V     C        11:42:45:16 11:42:47:06 06:02:05:15 06:02:07:05
*079_HA_0300
*FROM CLIP NAME:  XV231-2_SC79_81 PLATE EB
*SOURCE FILE: Z054_C007_09016Z
000044  Y051_C001_09019F                 V     C        14:09:23:05 14:09:24:08 06:02:07:05 06:02:08:08
*079_HA_0310
*FROM CLIP NAME:  XV234-1Y_SC79 EB
*SOURCE FILE: Y051_C001_09019F
000045  A100_C003_082815                 V     C        16:22:14:00 16:22:17:23 06:02:08:08 06:02:12:07
*079_HA_0320
*FROM CLIP NAME:  V511-2A_SC85 EB*
*SOURCE FILE: A100_C003_082815
000046  D085_C010_0929FS                 V     C        16:27:51:02 16:27:52:14 06:02:12:07 06:02:13:19
*079_HA_0390
*FROM CLIP NAME:  V817-1_SC83-89 TAKE PLATE NB*
*SOURCE FILE: D085_C010_0929FS
000047  D085_C013_0929FQ                 V     C        16:42:20:08 16:42:22:10 06:02:13:19 06:02:15:21
*079_HA_0420
*FROM CLIP NAME:  V817-4_SC83-89 NB*
*SOURCE FILE: D085_C013_0929FQ
000048  B082_C015_0828RP                 V     C        14:21:09:07 14:21:10:12 06:02:15:21 06:02:17:02
*FROM CLIP NAME:  509-2B_SC79-85 EB
*SOURCE FILE: B082_C015_0828RP
000049  A100_C006_0828GA                 V     C        17:17:04:08 17:17:05:03 06:02:17:02 06:02:17:21
*079_HA_0350
*FROM CLIP NAME:  V512-3_SC79 EB
*SOURCE FILE: A100_C006_0828GA
000050  A099_C013_082893                 V     C        13:07:42:01 13:07:45:13 06:02:17:21 06:02:21:09
*FROM CLIP NAME:  506-1_SC79-85 EB SERIES*
*SOURCE FILE: A099_C013_082893
000051  B114_C018_0929C1                 V     C        16:37:49:21 16:37:52:02 06:02:21:09 06:02:23:14
*079_HA_0430
*FROM CLIP NAME:  V818-2_SC83-89 NB*
*SOURCE FILE: B114_C018_0929C1
000052  D085_C004_0929GE                 V     C        16:10:46:10 16:10:47:16 06:02:23:14 06:02:24:20
*079_HA_0480
*FROM CLIP NAME:  V815-2D_SC83-89 EB*
*SOURCE FILE: D085_C004_0929GE
000053  B114_C018_0929C1                 V     C        16:37:52:04 16:37:53:05 06:02:24:20 06:02:25:21
*079_HA_0490
*FROM CLIP NAME:  V818-2_SC83-89 NB*
*SOURCE FILE: B114_C018_0929C1
000054  A099_C013_082893                 V     C        13:15:41:14 13:15:45:05 06:02:25:21 06:02:29:12
*FROM CLIP NAME:  506-1_SC79-85 EB SERIES*
*SOURCE FILE: A099_C013_082893
000055  B083_C004_0828SA                 V     C        18:26:07:00 18:26:09:07 06:02:29:12 06:02:31:19
*FROM CLIP NAME:  V513-2B_SC89 EB
*SOURCE FILE: B083_C004_0828SA
000056  B083_C009_08280R                 V     C        18:39:37:17 18:39:41:06 06:02:31:19 06:02:35:08
*FROM CLIP NAME:  514-3B_SC89 EB*
*SOURCE FILE: B083_C009_08280R
