TITLE:   090PC_091MJ_100TC_V05_TURNOVER_20150123
FCM: NON-DROP FRAME
000001  B072_C036_0819GN                 V     C        14:25:39:19 14:25:42:22 06:02:15:17 06:02:18:20
*FROM CLIP NAME:  440-6B_SC91 EB
*SOURCE FILE: B072_C036_0819GN
000002  A088_C017_0819NE                 V     C        18:32:48:19 18:32:54:13 06:02:18:20 06:02:24:14
*091_MJ_0020
*FROM CLIP NAME:  442-7A_SC91
*SOURCE FILE: A088_C017_0819NE
000003  N010_C018_1121CZ                 V     C        16:29:15:15 16:29:22:20 06:02:24:14 06:02:31:19
*091_MJ_0040
*FROM CLIP NAME:  V8102-14_SC56 NB MOS*
*SOURCE FILE: N010_C018_1121CZ
000004  B077_C006_0821FH                 V     C        17:48:46:08 17:48:50:14 06:02:31:19 06:02:36:01
*FROM CLIP NAME:  470-1B_SC91_93 EB SERIES
*SOURCE FILE: B077_C006_0821FH
000005  A092_C002_08219D                 V     C        15:34:53:01 15:35:02:17 06:02:36:01 06:02:45:17
*FROM CLIP NAME:  465-2_SC91_93 SERIES*
*SOURCE FILE: A092_C002_08219D
000006  B077_C006_0821FH                 V     C        17:49:37:16 17:49:39:17 06:02:45:17 06:02:47:18
*FROM CLIP NAME:  470-1B_SC91_93 EB SERIES
*SOURCE FILE: B077_C006_0821FH
000007  B077_C006_0821FH                 V     C        17:49:42:02 17:49:44:09 06:02:47:18 06:02:50:01
*FROM CLIP NAME:  470-1B_SC91_93 EB SERIES
*SOURCE FILE: B077_C006_0821FH
000008  B063_C006_0813K1                 V     C        12:13:16:01 12:13:18:19 06:02:50:01 06:02:52:19
*FROM CLIP NAME:  V381-6B_SC95_97 EB NSB SERIES*
*SOURCE FILE: B063_C006_0813K1
000009  C044_C005_0814RM                 V     C        18:34:30:16 18:34:33:22 06:02:52:19 06:02:56:01
*091_MJ_0060
*FROM CLIP NAME:  V399-3_SC97 PLATE
*SOURCE FILE: C044_C005_0814RM
000010  B063_C006_0813K1                 V     C        12:13:18:15 12:13:22:21 06:02:56:01 06:03:00:07
*FROM CLIP NAME:  V381-6B_SC95_97 EB NSB SERIES*
*SOURCE FILE: B063_C006_0813K1
000011  091_MJ_0080_V1023_TEMP_FS.MOV    V     C        01:00:00:05 01:00:04:05 06:03:00:07 06:03:04:07
*FROM CLIP NAME:  091_MJ_0080_V1023_TEMP_FS.MOV
*SOURCE FILE: 091_MJ_0080_V1023_TEMP_FS.MOV
000012  A076_C007_0813NJ                 V     C        12:13:23:20 12:13:32:16 06:03:04:07 06:03:13:03
*091_MJ_0100
*FROM CLIP NAME:  V381-6A_SC95-97 NSB SERIES*
*SOURCE FILE: A076_C007_0813NJ
000013  D047_C002_08142Y                 V     C        09:33:13:20 09:33:22:03 06:03:13:03 06:03:21:10
*091_MJ_0120
*FROM CLIP NAME:  V387-2_SC95_97 EB SERIES*
*SOURCE FILE: D047_C002_08142Y
000014  A077_C002_0813EH                 V     C        16:57:20:21 16:57:24:07 06:03:21:10 06:03:24:20
*091_MJ_0140
*FROM CLIP NAME:  V385-2_SC95-97*
*SOURCE FILE: A077_C002_0813EH
000015  A078_C002_0814XF                 V     C        11:06:40:07 11:06:43:08 06:03:24:20 06:03:27:21
*FROM CLIP NAME:  388-2A_SC97 SERIES*
*SOURCE FILE: A078_C002_0814XF
000016  A079_C011_08142X                 V     C        18:13:57:18 18:14:00:02 06:03:27:21 06:03:30:05
*091_MJ_0160
*FROM CLIP NAME:  V398-1_SC97 EB SERIES*
*SOURCE FILE: A079_C011_08142X
000017  D047_C002_08142Y                 V     C        09:32:41:15 09:32:45:19 06:03:30:05 06:03:34:09
*FROM CLIP NAME:  V387-2_SC95_97 EB SERIES*
*SOURCE FILE: D047_C002_08142Y
000018  B064_C002_0814V4                 V     C        11:09:47:01 11:09:56:12 06:03:34:09 06:03:43:20
*FROM CLIP NAME:  388-2B_SC97 SERIES*
*SOURCE FILE: B064_C002_0814V4
000019  C044_C003_0814PM                 V     C        18:24:17:17 18:24:21:08 06:03:43:20 06:03:47:11
*091_MJ_0180
*FROM CLIP NAME:  V399-1_SC97 PLATE
*SOURCE FILE: C044_C003_0814PM
000020  A079_C006_0814UF                 V     C        17:37:49:05 17:37:58:16 06:03:47:11 06:03:56:22
*091_MJ_0200
*FROM CLIP NAME:  V394-2_SC97 EB*
*SOURCE FILE: A079_C006_0814UF
000021  B064_C005_0814G3                 V     C        11:40:11:00 11:40:15:19 06:03:56:22 06:04:01:17
*FROM CLIP NAME:  389-2B_SC97 SERIES*
*SOURCE FILE: B064_C005_0814G3
000022  A076_C014_0813X0                 V     C        14:21:46:05 14:21:51:11 06:04:01:17 06:04:06:23
*091_MJ_0240
*FROM CLIP NAME:  V384-2_SC95-97*
*SOURCE FILE: A076_C014_0813X0
000023  A079_C014_0814HE                 V     C        18:47:01:21 18:47:05:06 06:04:06:23 06:04:10:08
*091_MJ_0260
*FROM CLIP NAME:  V400-2_SC97 PLATE EB
*SOURCE FILE: A079_C014_0814HE
000024  A076_C012_0813C0                 V     C        13:19:38:00 13:19:41:16 06:04:10:08 06:04:14:00
*091_MJ_0280
*FROM CLIP NAME:  V382-4_SC95-97*
*SOURCE FILE: A076_C012_0813C0
000025  D047_C003_0814JC                 V     C        09:41:38:02 09:41:41:18 06:04:14:00 06:04:17:16
*FROM CLIP NAME:  V387-3_SC95_97 EB SERIES
*SOURCE FILE: D047_C003_0814JC
000026  A079_C014_0814HE                 V     C        18:46:39:07 18:46:41:17 06:04:17:16 06:04:20:02
*091_MJ_0300
*FROM CLIP NAME:  V400-2_SC97 PLATE EB
*SOURCE FILE: A079_C014_0814HE
000027  D046_C002_08132K                 V     C        17:34:17:11 17:34:27:05 06:04:20:02 06:04:29:20
*FROM CLIP NAME:  386-2_SC95_97 EB SERIES
*SOURCE FILE: D046_C002_08132K
000028  D047_C003_0814JC                 V     C        09:42:47:05 09:42:49:11 06:04:29:20 06:04:32:02
*FROM CLIP NAME:  V387-3_SC95_97 EB SERIES
*SOURCE FILE: D047_C003_0814JC
000029  C044_C005_0814RM                 V     C        18:35:21:17 18:35:24:21 06:04:32:02 06:04:35:06
*091_MJ_0320
*FROM CLIP NAME:  V399-3_SC97 PLATE
*SOURCE FILE: C044_C005_0814RM
000030  A077_C002_0813EH                 V     C        16:58:49:22 16:58:56:11 06:04:35:06 06:04:41:19
*091_MJ_0340
*FROM CLIP NAME:  V385-2_SC95-97*
*SOURCE FILE: A077_C002_0813EH
000031  C044_C005_0814RM                 V     C        18:35:27:20 18:35:29:06 06:04:41:19 06:04:43:05
*091_MJ_0360
*FROM CLIP NAME:  V399-3_SC97 PLATE
*SOURCE FILE: C044_C005_0814RM
000032  B064_C006_08140F                 V     C        11:51:26:06 11:51:27:01 06:04:43:05 06:04:44:00
*FROM CLIP NAME:  389-3B_SC97 SERIES
*SOURCE FILE: B064_C006_08140F
000033  A077_C002_0813EH                 V     C        16:59:07:20 16:59:08:13 06:04:44:00 06:04:44:17
*091_MJ_0380
*FROM CLIP NAME:  V385-2_SC95-97*
*SOURCE FILE: A077_C002_0813EH
000034  A076_C014_0813X0                 V     C        14:22:39:07 14:22:40:11 06:04:44:17 06:04:45:21
*091_MJ_0400
*FROM CLIP NAME:  V384-2_SC95-97*
*SOURCE FILE: A076_C014_0813X0
000035  A141_C011_0925UD                 V     C        12:30:04:04 12:30:08:07 06:04:45:21 06:04:50:00
*090_PC_0010
*FROM CLIP NAME:  V770-4_SC87*
*SOURCE FILE: A141_C011_0925UD
000036  A141_C004_0925FG                 V     C        11:42:21:11 11:42:27:17 06:04:50:00 06:04:56:06
*090_PC_0020
*FROM CLIP NAME:  V771-1_SC87
*SOURCE FILE: A141_C004_0925FG
000037  A142_C011_09256O                 V     C        15:56:24:06 15:56:29:03 06:04:56:06 06:05:01:03
*090_PC_0030
*FROM CLIP NAME:  V776-7_SC87_90 PLATE
*SOURCE FILE: A142_C011_09256O
000038  D080_C002_0925LB                 V     C        12:09:50:22 12:09:50:23 06:05:01:03 06:05:04:12
M2      D080_C002_0925LB                         -024.0 12:09:50:22
*090_PC_0040
*FROM CLIP NAME:  V772-2_SC87 EB
*SOURCE FILE: D080_C002_0925LB
000039  A141_C007_0925PI                 V     C        11:50:21:04 11:50:21:18 06:05:04:12 06:05:05:02
*090_PC_0050
*FROM CLIP NAME:  V771-4_SC87*
*SOURCE FILE: A141_C007_0925PI
000040  A141_C009_0925NF                 V     C        12:20:59:20 12:21:00:18 06:05:05:02 06:05:06:00
*090_PC_0060
*FROM CLIP NAME:  V773-2_SC87
*SOURCE FILE: A141_C009_0925NF
000041  A142_C003_0925CD                 V     C        15:39:13:19 15:39:15:05 06:05:06:00 06:05:07:10
*090_PC_0070
*FROM CLIP NAME:  V775-3_SC87_90*
*SOURCE FILE: A142_C003_0925CD
000042  B112_C004_0925Q6                 V     C        13:55:03:14 13:55:05:02 06:05:07:10 06:05:08:22
*090_PC_0080
*FROM CLIP NAME:  V774-4B_SC90 SERIES*
*SOURCE FILE: B112_C004_0925Q6
000043  B144_C024_1023MK                 V     C        12:11:39:09 12:11:44:14 06:05:08:22 06:05:14:03
*090_PC_0090
*FROM CLIP NAME:  V989-24_SC90 EB*
*SOURCE FILE: B144_C024_1023MK
000044  C055_C005_0830V0                 V     C        15:58:36:19 15:58:38:18 06:05:14:03 06:05:16:02
*FROM CLIP NAME:  V542-5_SC101 PLATE
*SOURCE FILE: C055_C005_0830V0
000045  B064_C009_0814GP                 V     C        13:25:57:23 13:25:59:22 06:05:16:02 06:05:18:01
*FROM CLIP NAME:  390-2B_SC97_99 SERIES*
*SOURCE FILE: B064_C009_0814GP
000046  C044_C001_0814OU                 V     C        15:54:07:04 15:54:08:04 06:05:18:01 06:05:19:01
*FROM CLIP NAME:  393-1-1_SC97 NB*
*SOURCE FILE: C044_C001_0814OU
000047  A079_C004_0814NP                 V     C        15:16:12:05 15:16:13:08 06:05:19:01 06:05:20:04
*FROM CLIP NAME:  392-1A_SC97*
*SOURCE FILE: A079_C004_0814NP
000048  A079_C001_0814X8                 V     C        14:42:15:01 14:42:16:06 06:05:20:04 06:05:21:09
*FROM CLIP NAME:  391-1A_SC97
*SOURCE FILE: A079_C001_0814X8
000049  A078_C008_0814RH                 V     C        13:27:07:03 13:27:07:21 06:05:21:09 06:05:22:03
*FROM CLIP NAME:  390-2A_SC97_99 SERIES*
*SOURCE FILE: A078_C008_0814RH
000050  090_PC_SEQ_2014_05_13.MOV        V     C        01:00:05:17 01:00:09:22 06:05:22:03 06:05:26:08
*FROM CLIP NAME:  090_PC_SEQ_2014_05_13.MOV
*SOURCE FILE: 090_PC_SEQ_2014_05_13.MOV
000051  A078_C008_0814RH                 V     C        13:27:08:20 13:27:10:05 06:05:26:08 06:05:27:17
*FROM CLIP NAME:  390-2A_SC97_99 SERIES*
*SOURCE FILE: A078_C008_0814RH
000052  A079_C003_0814BZ                 V     C        14:57:51:06 14:57:51:19 06:05:27:17 06:05:28:06
*FROM CLIP NAME:  391-3A_SC97*
*SOURCE FILE: A079_C003_0814BZ
000053  C044_C002_081477                 V     C        15:56:04:05 15:56:04:20 06:05:28:06 06:05:28:21
*FROM CLIP NAME:  393-1-2_SC97 EB
*SOURCE FILE: C044_C002_081477
000054  C055_C007_0830YF                 V     C        18:07:11:17 18:07:12:13 06:05:28:21 06:05:29:17
*FROM CLIP NAME:  V544-2_SC100-101 MOS
*SOURCE FILE: C055_C007_0830YF
000055  C052_C005_0107AH                 V     C        07:51:23:18 07:51:28:05 06:05:29:17 06:05:34:04
*091_MJ_0420
*FROM CLIP NAME:  V471-5_SC96 TAKE PLATE
*SOURCE FILE: C052_C005_0107AH
000056  TARZAN_V1006_FS.MOV              V     C        01:00:09:07 01:00:10:14 06:05:34:04 06:05:35:11
*FROM CLIP NAME:  TARZAN_V1006_FS.MOV
*SOURCE FILE: TARZAN_V1006_FS.MOV
000057  TARZAN_V1005_FS.MOV              V     C        01:00:10:14 01:00:16:13 06:05:35:11 06:05:41:10
*FROM CLIP NAME:  TARZAN_V1005_FS.MOV
*SOURCE FILE: TARZAN_V1005_FS.MOV
000058  A078_C008_0814RH                 V     C        13:28:41:12 13:28:43:18 06:05:41:10 06:05:43:16
*FROM CLIP NAME:  390-2A_SC97_99 SERIES*
*SOURCE FILE: A078_C008_0814RH
000059  C055_C004_0830WZ                 V     C        15:54:02:08 15:54:04:17 06:05:43:16 06:05:46:01
*100_TC_0080
*FROM CLIP NAME:  V542-4_SC101 PLATE
*SOURCE FILE: C055_C004_0830WZ
000060  B064_C009_0814GP                 V     C        13:26:10:02 13:26:12:11 06:05:46:01 06:05:48:10
*FROM CLIP NAME:  390-2B_SC97_99 SERIES*
*SOURCE FILE: B064_C009_0814GP
000061  TARZAN_V1005_FS.MOV              V     C        01:00:26:00 01:00:30:20 06:05:48:10 06:05:53:06
*FROM CLIP NAME:  TARZAN_V1005_FS.MOV
*SOURCE FILE: TARZAN_V1005_FS.MOV
000062  090_PC_0124_V1029_TEMP_FS.MOV    V     C        01:00:00:08 01:00:02:20 06:05:53:06 06:05:55:18
*FROM CLIP NAME:  090_PC_0124_V1029_TEMP_FS.MOV
*SOURCE FILE: 090_PC_0124_V1029_TEMP_FS.MOV
000063  B109_C006_0922TG                 V     C        10:51:59:07 10:52:01:03 06:05:55:18 06:05:57:14
*FROM CLIP NAME:  V734-1B_SC98 EB SERIES*
*SOURCE FILE: B109_C006_0922TG
000064  C068_C008_0922JK                 V     C        11:45:50:08 11:45:51:18 06:05:57:14 06:05:59:00
*100_TC_0040
*FROM CLIP NAME:  V735-1_SC98 NB
*SOURCE FILE: C068_C008_0922JK
000065  D077_C007_0922DL                 V     C        10:51:32:05 10:51:33:13 06:05:59:00 06:06:00:08
*FROM CLIP NAME:  734-1D_SC98 SERIES*
*SOURCE FILE: D077_C007_0922DL
000066  B065_C004_08148F                 V     C        15:16:14:03 15:16:16:03 06:06:00:08 06:06:02:08
*FROM CLIP NAME:  392-1B_SC97*
*SOURCE FILE: B065_C004_08148F
000067  C055_C004_0830WZ                 V     C        15:53:53:09 15:53:54:12 06:06:02:08 06:06:03:11
*FROM CLIP NAME:  V542-4_SC101 PLATE
*SOURCE FILE: C055_C004_0830WZ
000068  A079_C003_0814BZ                 V     C        14:58:13:04 14:58:15:00 06:06:03:11 06:06:05:07
*FROM CLIP NAME:  391-3A_SC97*
*SOURCE FILE: A079_C003_0814BZ
000069  C052_C009_0107CT                 V     C        10:12:37:20 10:12:40:23 06:06:05:07 06:06:08:10
*FROM CLIP NAME:  472-3_SC100-101 SERIES
*SOURCE FILE: C052_C009_0107CT
000070  C053_C004_0108IZ                 V     C        14:39:33:08 14:39:33:09 06:06:08:10 06:06:11:13
M2      C053_C004_0108IZ                         -024.0 14:39:33:08
*100_TC_0100
*FROM CLIP NAME:  V477-4_SC100-101 PLATE
*SOURCE FILE: C053_C004_0108IZ
000071  C052_C009_0107CT                 V     C        10:11:21:15 10:11:23:09 06:06:11:13 06:06:13:07
*FROM CLIP NAME:  472-3_SC100-101 SERIES
*SOURCE FILE: C052_C009_0107CT
000072  B078_C001_0822WB                 V     C        11:05:07:17 11:05:08:17 06:06:13:07 06:06:14:07
*FROM CLIP NAME:  473-3_SC100-101 EB
*SOURCE FILE: B078_C001_0822WB
000073  C052_C010_0107DG                 V     C        10:25:42:03 10:25:45:07 06:06:14:07 06:06:17:11
*FROM CLIP NAME:  473-1_SC100-101 NB
*SOURCE FILE: C052_C010_0107DG
000074  100_TC_0120_V1003_TEMP_FS.MOV    V     C        01:00:00:05 01:00:02:05 06:06:17:11 06:06:19:11
*FROM CLIP NAME:  100_TC_0120_V1003_TEMP_FS.MOV
*SOURCE FILE: 100_TC_0120_V1003_TEMP_FS.MOV
000075  B085_C019_0830RG                 V     C        11:13:33:09 11:13:35:09 06:06:19:11 06:06:21:11
*FROM CLIP NAME:  533-2_SC100-101 SERIES
*SOURCE FILE: B085_C019_0830RG
000076  B078_C001_0822WB                 V     C        11:06:00:23 11:06:04:08 06:06:21:11 06:06:24:20
*FROM CLIP NAME:  473-3_SC100-101 EB
*SOURCE FILE: B078_C001_0822WB
000077  100_TC_0140_V1004_TEMP_FS.MOV    V     C        01:00:00:05 01:00:02:07 06:06:24:20 06:06:26:22
*FROM CLIP NAME:  100_TC_0140_V1004_TEMP_FS.MOV
*SOURCE FILE: 100_TC_0140_V1004_TEMP_FS.MOV
000078  B078_C001_0822WB                 V     C        11:03:22:07 11:03:23:14 06:06:26:22 06:06:28:05
*FROM CLIP NAME:  473-3_SC100-101 EB
*SOURCE FILE: B078_C001_0822WB
000079  B078_C001_0822WB                 V     C        11:02:53:02 11:02:55:09 06:06:28:05 06:06:30:12
*FROM CLIP NAME:  473-3_SC100-101 EB
*SOURCE FILE: B078_C001_0822WB
000080  C053_C002_0108KE                 V     C        14:14:56:01 14:14:58:10 06:06:30:12 06:06:32:21
*100_TC_0160
*FROM CLIP NAME:  V477-2_SC100-101 SERIES
*SOURCE FILE: C053_C002_0108KE
000081  01E01_002                        V     C        22:21:05:12 22:21:06:13 06:06:32:21 06:06:33:22
*100_TC_0180
*FROM CLIP NAME:  V741-2_SC100 NB MOS 1248FPS
*SOURCE FILE: 01E01_002
000082  B085_C002_0830OA                 V     C        09:16:06:03 09:16:06:15 06:06:33:22 06:06:34:10
*100_TC_0200
*FROM CLIP NAME:  V529-2_SC100
*SOURCE FILE: B085_C002_0830OA
000083  C053_C002_0108KE                 V     C        14:14:58:00 14:14:59:08 06:06:34:10 06:06:35:18
*100_TC_0220
*FROM CLIP NAME:  V477-2_SC100-101 SERIES
*SOURCE FILE: C053_C002_0108KE
000084  C052_C009_0107CT                 V     C        10:12:39:01 10:12:41:07 06:06:35:18 06:06:38:00
*FROM CLIP NAME:  472-3_SC100-101 SERIES
*SOURCE FILE: C052_C009_0107CT
000085  C054_C010_08305Z                 V     C        13:47:29:03 13:47:31:21 06:06:38:00 06:06:40:18
*100_TC_0240
*FROM CLIP NAME:  V536-5_SC100 PLATE
*SOURCE FILE: C054_C010_08305Z
000086  B085_C020_0830EL                 V     C        12:00:30:06 12:00:32:18 06:06:40:18 06:06:43:06
*FROM CLIP NAME:  534-1_SC100 SERIES*
*SOURCE FILE: B085_C020_0830EL
000087  C054_C010_08305Z                 V     C        13:47:35:22 13:47:38:16 06:06:43:06 06:06:46:00
*100_TC_0260
*FROM CLIP NAME:  V536-5_SC100 PLATE
*SOURCE FILE: C054_C010_08305Z
000088  C054_C017_0830GT                 V     C        14:14:39:08 14:14:41:17 06:06:46:00 06:06:48:09
*100_TC_0280
*FROM CLIP NAME:  V538-1_SC100 PLATE
*SOURCE FILE: C054_C017_0830GT
000089  C054_C003_0830PD                 V     C        13:18:52:20 13:19:00:03 06:06:48:09 06:06:55:16
*100_TC_0300
*FROM CLIP NAME:  V535-2_SC100-101 AFS SERIES
*SOURCE FILE: C054_C003_0830PD
000090  C055_C007_0830YF                 V     C        18:06:26:09 18:06:31:00 06:06:55:16 06:07:00:07
*FROM CLIP NAME:  V544-2_SC100-101 MOS
*SOURCE FILE: C055_C007_0830YF
000091  C052_C009_0107CT                 V     C        10:13:21:15 10:13:24:23 06:07:00:07 06:07:03:15
*FROM CLIP NAME:  472-3_SC100-101 SERIES
*SOURCE FILE: C052_C009_0107CT
000092  C055_C004_0830WZ                 V     C        15:53:44:11 15:53:46:18 06:07:03:15 06:07:05:22
*100_TC_0320
*FROM CLIP NAME:  V542-4_SC101 PLATE
*SOURCE FILE: C055_C004_0830WZ
000093  C055_C008_0830QW                 V     C        18:12:11:23 18:12:15:01 06:07:05:22 06:07:09:00
*100_TC_0330
*FROM CLIP NAME:  V544-3_SC100-101 MOS
*SOURCE FILE: C055_C008_0830QW
000094  C052_C009_0107CT                 V     C        10:13:24:23 10:13:26:11 06:07:09:00 06:07:10:12
*FROM CLIP NAME:  472-3_SC100-101 SERIES
*SOURCE FILE: C052_C009_0107CT
000095  C053_C003_01083D                 V     C        14:29:25:09 14:29:27:12 06:07:10:12 06:07:12:15
*FROM CLIP NAME:  V477-3_SC100-101 TAKE PLATE
*SOURCE FILE: C053_C003_01083D
000096  A093_C001_0822XI                 V     C        11:22:57:08 11:23:00:20 06:07:12:15 06:07:16:03
*FROM CLIP NAME:  474-1_SC100-101 EB SERIES
*SOURCE FILE: A093_C001_0822XI
000097  C053_C004_0108IZ                 V     C        14:39:57:17 14:39:59:09 06:07:16:03 06:07:17:19
*100_TC_0340
*FROM CLIP NAME:  V477-4_SC100-101 PLATE
*SOURCE FILE: C053_C004_0108IZ
000098  A093_C001_0822XI                 V     C        11:21:59:01 11:21:59:14 06:07:17:19 06:07:18:08
*FROM CLIP NAME:  474-1_SC100-101 EB SERIES
*SOURCE FILE: A093_C001_0822XI
000099  A095_C024_08264R                 V     C        13:15:33:19 13:15:34:11 06:07:18:08 06:07:19:00
*100_TC_0360
*FROM CLIP NAME:  V488-5A_SC101*
*SOURCE FILE: A095_C024_08264R
000100  A093_C003_0822W6                 V     C        12:25:19:17 12:25:21:17 06:07:19:00 06:07:21:00
*100_TC_0380
*FROM CLIP NAME:  V475-2_SC100-101 EB NSB
*SOURCE FILE: A093_C003_0822W6
000101  B079_C011_082607                 V     C        13:15:34:13 13:15:36:20 06:07:21:00 06:07:23:07
*100_TC_0400
*FROM CLIP NAME:  V488-5B_SC101*
*SOURCE FILE: B079_C011_082607
000102  B086_C002_0830HG                 V     C        15:07:48:18 15:07:51:02 06:07:23:07 06:07:25:15
*100_TC_0420
*FROM CLIP NAME:  539-2_SC101 SERIES
*SOURCE FILE: B086_C002_0830HG
000103  A093_C005_0822M4                 V     C        12:33:39:07 12:33:41:15 06:07:25:15 06:07:27:23
*FROM CLIP NAME:  V475-4_SC100-101 EB*
*SOURCE FILE: A093_C005_0822M4
000104  C052_C019_0108XP                 V     C        13:13:18:18 13:13:20:18 06:07:27:23 06:07:29:23
*FROM CLIP NAME:  V475-10_SC100-101 AFS SERIES
*SOURCE FILE: C052_C019_0108XP
000105  B086_C003_0830MN                 V     C        15:15:31:14 15:15:34:08 06:07:29:23 06:07:32:17
*100_TC_0440
*FROM CLIP NAME:  V540-1_SC101 SERIES
*SOURCE FILE: B086_C003_0830MN
000106  B086_C002_0830HG                 V     C        15:08:27:19 15:08:31:22 06:07:32:17 06:07:36:20
*FROM CLIP NAME:  539-2_SC101 SERIES
*SOURCE FILE: B086_C002_0830HG
000107  A095_C010_0826IT                 V     C        11:03:16:05 11:03:19:11 06:07:36:20 06:07:40:02
*100_TC_0460
*FROM CLIP NAME:  V484-2A_SC106 72FPS
*SOURCE FILE: A095_C010_0826IT
000108  B079_C005_0826DS                 V     C        11:10:02:14 11:10:07:07 06:07:40:02 06:07:44:19
*100_TC_0480
*FROM CLIP NAME:  V484-5B_SC106 72FPS*
*SOURCE FILE: B079_C005_0826DS
000109  A095_C010_0826IT                 V     C        11:03:19:11 11:03:22:18 06:07:44:19 06:07:48:02
*100_TC_0500
*FROM CLIP NAME:  V484-2A_SC106 72FPS
*SOURCE FILE: A095_C010_0826IT
000110  A095_C011_0826LF                 V     C        11:05:26:21 11:05:28:23 06:07:48:02 06:07:50:04
*100_TC_0520
*FROM CLIP NAME:  V484-3A_SC106 72FPS
*SOURCE FILE: A095_C011_0826LF
000111  A095_C012_0826KO                 V     C        11:07:30:12 11:07:32:05 06:07:50:04 06:07:51:21
*100_TC_0540
*FROM CLIP NAME:  V484-4A_SC106 72FPS
*SOURCE FILE: A095_C012_0826KO
000112  SCENE_INTERCUT_112               V     C        01:00:40:20 01:00:42:21 06:07:51:21 06:07:53:22
*FROM CLIP NAME:  SCENE INTERCUT 112
*SOURCE FILE: SCENE INTERCUT 112
000113  A094_C003_0822TD                 V     C        16:37:23:06 16:37:32:00 06:07:53:22 06:08:02:16
*100_TC_0560
*FROM CLIP NAME:  479-2_SC102-103
*SOURCE FILE: A094_C003_0822TD
000114  C053_C012_0108CI                 V     C        16:58:49:13 16:58:59:14 06:08:02:16 06:08:12:17
*FROM CLIP NAME:  V480-1_SC102-103 SERIES
*SOURCE FILE: C053_C012_0108CI
000115  A095_C003_0826PM                 V     C        09:28:13:09 09:28:20:11 06:08:12:17 06:08:19:19
*100_TC_0580
*FROM CLIP NAME:  481-3_SC103_106 EB*
*SOURCE FILE: A095_C003_0826PM
