TITLE:   20200121_BB_R1_FF3_v2_TEST 
FCM: NON-DROP FRAME
001  OAM1540_ V     C        00:00:42:01 00:00:45:02 01:04:15:03 01:04:18:04 
* FROM CLIP NAME:  OAM1540_MP_V001_WR_GRD001.MOV
002  OAM2460_ V     C        00:00:42:01 00:00:52:13 01:06:28:23 01:06:39:11 
* FROM CLIP NAME:  OAM2460_MP_V001_WR_GRD001.MOV
003  D079C003 V     C        07:59:02:16 07:59:05:22 01:08:00:05 01:08:03:11 
* FROM CLIP NAME:  7-3D
004  OAM2960_ V     C        00:00:43:09 00:00:47:18 01:08:08:02 01:08:10:07 
M2   OAM2960_       048.0                00:00:43:09 
* FROM CLIP NAME:  OAM2960_MP_V001_WR_GRD001.MOV
005  OAM2980_ V     C        00:00:43:09 00:00:45:22 01:08:10:07 01:08:11:14 
M2   OAM2980_       048.0                00:00:43:09 
* FROM CLIP NAME:  OAM2980_MP_V001_WR_GRD001.MOV
006  OAM3000_ V     C        00:00:43:09 00:00:46:02 01:08:11:14 01:08:12:23 
M2   OAM3000_       048.0                00:00:43:09 
* FROM CLIP NAME:  OAM3000_MP_V001_WR_GRD001.MOV
007  OAM3320_ V     C        00:00:43:09 00:00:47:20 01:08:16:21 01:08:19:03 
M2   OAM3320_       048.0                00:00:43:09 
* FROM CLIP NAME:  OAM3320_MP_V001_WR_GRD001.MOV
008  B183C002 V     C        09:33:20:12 09:33:23:02 01:08:27:11 01:08:30:01 
* FROM CLIP NAME:  7B-2 48FPS*
009  OAM4040_ V     C        00:00:42:01 00:00:42:23 01:09:38:14 01:09:39:12 
* FROM CLIP NAME:  OAM4040_MP_V001_WR_GRD001.MOV
010  OAM4100_ V     C        00:00:42:01 00:00:44:01 01:09:42:16 01:09:44:16 
* FROM CLIP NAME:  OAM4100_MP_V001_WR_GRD001.MOV
011  OAM4140_ V     C        00:00:43:09 00:00:45:16 01:09:45:12 01:09:46:16 
M2   OAM4140_       048.0                00:00:43:09 
* FROM CLIP NAME:  OAM4140_MP_V001_WR_GRD001.MOV
012  OAM4160_ V     C        00:00:43:09 00:00:44:00 01:09:46:16 01:09:47:00 
M2   OAM4160_       048.0                00:00:43:09 
* FROM CLIP NAME:  OAM4160_MP_V001_WR_GRD001.MOV
013  OAM4180_ V     C        00:00:43:09 00:00:45:00 01:09:47:00 01:09:47:20 
M2   OAM4180_       048.0                00:00:43:09 
* FROM CLIP NAME:  OAM4180_MP_V001_WR_GRD001.MOV
014  OAM4210_ V     C        00:00:42:01 00:00:42:10 01:09:47:20 01:09:48:05 
* FROM CLIP NAME:  OAM4210_MP_V001_WR_GRD001.MOV
015  OAM4270_ V     C        00:00:43:09 00:00:44:10 01:09:48:21 01:09:49:10 
M2   OAM4270_       048.0                00:00:43:09 
* FROM CLIP NAME:  OAM4270_MP_V001_WR_GRD001.MOV
016  OAM4280_ V     C        00:00:43:09 00:00:45:02 01:09:49:10 01:09:50:07 
M2   OAM4280_       048.0                00:00:43:09 
* FROM CLIP NAME:  OAM4280_MP_V001_WR_GRD001.MOV
017  OAM4310_ V     C        00:00:43:23 00:00:46:02 01:09:50:07 01:09:51:09 
M2   OAM4310_       048.0                00:00:43:23 
* FROM CLIP NAME:  OAM4310_MP_V001_WR_GRD001.MOV
018  OAM4340_ V     C        00:00:43:13 00:00:47:06 01:09:52:08 01:09:54:05 
M2   OAM4340_       048.0                00:00:43:13 
* FROM CLIP NAME:  OAM4340_MP_V001_WR_GRD001.MOV
019  OAM4440_ V     C        00:00:43:09 00:00:45:02 01:10:00:18 01:10:01:15 
M2   OAM4440_       048.0                00:00:43:09 
* FROM CLIP NAME:  OAM4440_MP_V001_WR_GRD001.MOV
020  OAM4460_ V     C        00:00:42:01 00:00:42:17 01:10:01:15 01:10:02:07 
* FROM CLIP NAME:  OAM4460_MP_V001_WR_GRD001.MOV
021  OAM4760_ V     C        00:00:43:08 00:00:50:23 01:10:10:02 01:10:13:22 
M2   OAM4760_       048.0                00:00:43:08 
* FROM CLIP NAME:  OAM4760_MP_V001_WR_GRD001.MOV
022  OAM4800_ V     C        00:00:42:01 00:00:43:03 01:10:14:20 01:10:15:22 
* FROM CLIP NAME:  OAM4800_MP_V001_WR_GRD001.MOV
023  OAM4820_ V     C        00:00:42:01 00:00:44:09 01:10:15:22 01:10:18:06 
* FROM CLIP NAME:  OAM4820_MP_V001_WR_GRD001.MOV
024  OAM4600_ V     C        00:00:42:01 00:00:42:13 01:10:18:06 01:10:18:18 
* FROM CLIP NAME:  OAM4600_MP_V001_WR_GRD001.MOV
025  OAM4640_ V     C        00:00:43:11 00:00:45:04 01:10:19:04 01:10:20:01 
M2   OAM4640_       048.0                00:00:43:11 
* FROM CLIP NAME:  OAM4640_MP_V001_WR_GRD001.MOV
026  LCU1135_ V     C        00:00:42:01 00:00:45:04 01:12:18:16 01:12:21:19 
* FROM CLIP NAME:  LCU1135_MP_V001_WR_GRD001.MOV
027  LCU1140_ V     C        00:00:43:01 00:00:44:22 01:12:21:19 01:12:23:16 
* FROM CLIP NAME:  LCU1140_MP_V001_WR_GRD001.MOV
028  LCU1520_ V     C        00:00:42:01 00:00:46:21 01:13:33:02 01:13:37:22 
* FROM CLIP NAME:  LCU1520_MP_V001_WR_GRD001.MOV
029  LCU1860_ V     C        00:00:43:09 00:00:44:22 01:14:09:07 01:14:10:02 
M2   LCU1860_       048.0                00:00:43:09 
* FROM CLIP NAME:  LCU1860_MP_V001_WR_GRD001.MOV
030  LCU2240_ V     C        00:00:42:01 00:00:43:16 01:14:48:08 01:14:49:23 
* FROM CLIP NAME:  LCU2240_MP_V001_WR_GRD001.MOV
031  LC4000_V V     C        00:00:00:22 00:00:01:21 01:15:18:07 01:15:18:19 
M2   LC4000_V       048.0                00:00:00:22 
* FROM CLIP NAME:  LC4000_V001_PREVIS.MOV
032  BLACKSLU V     C        00:00:02:17 00:00:08:09 01:18:37:15 01:18:43:07 
* FROM CLIP NAME:  TAIL_LEADER.MOV
