TITLE: MRD_101AB_FINAL_FORMAT_190802
FCM: NON-DROP FRAME

001  AX       V     C        00:59:56:09 01:00:01:09 00:59:50:00 00:59:55:00
* FROM CLIP NAME: MIRA_101AB_Slate.png

002  AX       V     C        01:11:17:19 01:11:22:19 00:59:55:00 01:00:00:00
* FROM CLIP NAME: COUNTDOWN_LEADER.mov

003  AX       V     C        01:11:17:19 01:11:22:19 00:59:55:00 01:00:00:00
* FROM CLIP NAME: COUNTDOWN_LEADER.mov

004  AX       V     C        01:11:22:19 01:11:22:19 01:00:00:00 01:00:00:00
FCM: NON-DROP FRAME
004  AX       V     D    008 01:00:06:09 01:00:08:01 01:00:00:00 01:00:01:16
EFFECTS NAME IS CROSS DISSOLVE
* FROM CLIP NAME: COUNTDOWN_LEADER.mov
* TO CLIP NAME: MRD-010_01_001_light_v01.mov

005  AX       NONE  C        01:11:22:19 01:11:22:19 01:00:00:00 01:00:00:00
FCM: NON-DROP FRAME
005  AX       NONE  D    008 01:00:06:09 01:00:08:01 01:00:00:00 01:00:01:16
EFFECTS NAME IS CROSS DISSOLVE
* FROM CLIP NAME: COUNTDOWN_LEADER.mov
* TO CLIP NAME: MRD-010_01_001_light_v01.mov

006  AX       V     C        01:00:08:01 01:00:08:01 01:00:01:16 01:00:01:16
FCM: NON-DROP FRAME
006  AX       V     D    006 01:00:07:21 01:00:13:13 01:00:01:16 01:00:07:08
EFFECTS NAME IS CROSS DISSOLVE
* FROM CLIP NAME: MRD-010_01_001_light_v01.mov
* TO CLIP NAME: MRD_010_01_002_Light_v02.mov

007  AX       NONE  C        01:00:08:01 01:00:08:01 01:00:01:16 01:00:01:16
FCM: NON-DROP FRAME
007  AX       NONE  D    006 01:00:07:21 01:00:13:13 01:00:01:16 01:00:07:08
EFFECTS NAME IS CROSS DISSOLVE
* FROM CLIP NAME: MRD-010_01_001_light_v01.mov
* TO CLIP NAME: MRD_010_01_002_Light_v02.mov

008  AX       V     C        01:00:13:13 01:00:17:15 01:00:07:08 01:00:11:10
* FROM CLIP NAME: MRD-010_01_003_Lighting_V03.mov

009  AX       V     C        01:00:17:17 01:00:19:08 01:00:11:10 01:00:13:01
* FROM CLIP NAME: MRD_010_01_004_Light_v02.mov

010  AX       V     C        01:00:19:08 01:00:22:04 01:00:13:01 01:00:15:21
* FROM CLIP NAME: MRD_010_01_005_Light_v02.mov

011  AX       V     C        01:00:22:04 01:00:23:23 01:00:15:21 01:00:17:16
* FROM CLIP NAME: MRD_010_01_006_Light_v02.mov

012  AX       V     C        01:00:24:02 01:00:27:19 01:00:17:16 01:00:21:09
* FROM CLIP NAME: MRD_010_01_007_Light_v02.mov

013  AX       V     C        01:00:27:18 01:00:37:01 01:00:21:09 01:00:30:16
* FROM CLIP NAME: MRD-010_01_008_light_v01.mov

014  AX       V     C        01:00:37:02 01:00:40:05 01:00:30:16 01:00:33:19
* FROM CLIP NAME: MRD_010_01_009_Light_v02.mov

015  AX       V     C        01:00:40:03 01:00:42:11 01:00:33:19 01:00:36:03
* FROM CLIP NAME: MRD-010_01_010_light_v01.mov

016  AX       V     C        01:00:42:11 01:00:44:03 01:00:36:03 01:00:37:19
* FROM CLIP NAME: MRD_010_01_011_Light_v02.mov

017  AX       V     C        01:00:44:03 01:00:48:11 01:00:37:19 01:00:42:03
* FROM CLIP NAME: MRD_010_01_012_Light_v02.mov

018  AX       V     C        01:00:48:11 01:00:53:19 01:00:42:03 01:00:47:11
* FROM CLIP NAME: MRD-010_01_013_Lighting_V03.mov

019  AX       V     C        01:00:53:19 01:00:53:19 01:00:47:11 01:00:47:11
FCM: NON-DROP FRAME
019  AX       V     D    011 00:59:55:22 00:59:59:03 01:00:47:11 01:00:50:16
EFFECTS NAME IS CROSS DISSOLVE
* FROM CLIP NAME: MRD-010_01_013_Lighting_V03.mov
* TO CLIP NAME: MIR_LOGO-6_Solo.png

020  AX       NONE  C        01:00:53:19 01:00:53:19 01:00:47:11 01:00:47:11
FCM: NON-DROP FRAME
020  AX       NONE  D    011 00:59:55:22 00:59:59:03 01:00:47:11 01:00:50:16
EFFECTS NAME IS CROSS DISSOLVE
* FROM CLIP NAME: MRD-010_01_013_Lighting_V03.mov
* TO CLIP NAME: MIR_LOGO-6_Solo.png

021  AX       V     C        00:59:56:09 00:59:59:03 01:00:47:22 01:00:50:16
* FROM CLIP NAME: MIR_LOGO-6_Solo.png

022  AX       V     C        00:59:59:03 00:59:59:03 01:00:50:16 01:00:50:16
FCM: NON-DROP FRAME
022  BL       V     D    008 00:00:00:00 00:00:00:12 01:00:50:16 01:00:51:12
EFFECTS NAME IS CROSS DISSOLVE
* FROM CLIP NAME: MIR_LOGO-6_Solo.png
* TO CLIP NAME: BL

023  AX       NONE  C        00:59:59:03 00:59:59:03 01:00:50:16 01:00:50:16
FCM: NON-DROP FRAME
023  BL       NONE  D    008 00:00:00:00 00:00:00:12 01:00:50:16 01:00:51:12
EFFECTS NAME IS CROSS DISSOLVE
* FROM CLIP NAME: MIR_LOGO-6_Solo.png
* TO CLIP NAME: BL

024  BL       V     C        00:00:00:00 00:00:00:12 01:00:51:00 01:00:51:12

025  AX       V     C        01:00:07:00 01:00:13:13 01:00:51:12 01:00:58:01
* FROM CLIP NAME: MRD_101A_01_001_Light_v03.mov

026  AX       V     C        01:00:13:13 01:00:13:13 01:00:58:01 01:00:58:01
FCM: NON-DROP FRAME
026  AX       V     D    030 01:00:15:09 01:00:17:16 01:00:58:01 01:01:00:08
EFFECTS NAME IS CROSS DISSOLVE
* FROM CLIP NAME: MRD_101A_01_001_Light_v03.mov
* TO CLIP NAME: MRD-101A_01_002_v02.mov

027  AX       NONE  C        01:00:13:13 01:00:13:13 01:00:58:01 01:00:58:01
FCM: NON-DROP FRAME
027  AX       NONE  D    030 01:00:15:09 01:00:17:16 01:00:58:01 01:01:00:08
EFFECTS NAME IS CROSS DISSOLVE
* FROM CLIP NAME: MRD_101A_01_001_Light_v03.mov
* TO CLIP NAME: MRD-101A_01_002_v02.mov

028  AX       V     C        01:00:17:16 01:00:19:17 01:01:00:08 01:01:02:09
* FROM CLIP NAME: MRD-101A_01_003_light_v02.mov

029  AX       V     C        01:00:19:17 01:00:24:09 01:01:02:09 01:01:07:01
* FROM CLIP NAME: MRD_101A_01_004_Light_v03.mov

030  AX       V     C        01:00:25:13 01:00:32:02 01:01:07:01 01:01:13:14
* FROM CLIP NAME: MRD-101A_01_005_light_v02.mov

031  AX       V     C        01:00:32:02 01:00:34:09 01:01:13:14 01:01:15:21
* FROM CLIP NAME: MRD-101A_01_006_light_v02.mov

032  AX       V     C        01:00:34:09 01:00:37:03 01:01:15:21 01:01:18:15
* FROM CLIP NAME: MRD-101A_01_007_light_v02.mov

033  AX       V     C        01:00:37:03 01:00:47:19 01:01:18:15 01:01:29:07
* FROM CLIP NAME: MRD-101A_01_008_lighting_v02.mov

034  AX       V     C        01:00:48:08 01:00:59:07 01:01:29:07 01:01:40:06
* FROM CLIP NAME: MRD-101A_01_009_lighting_v02.mov

035  AX       V     C        01:00:59:07 01:01:03:05 01:01:40:06 01:01:44:04
* FROM CLIP NAME: MRD-101A_01_010_lighting_v02.mov

036  AX       V     C        01:01:03:05 01:01:04:03 01:01:44:04 01:01:45:02
* FROM CLIP NAME: MRD-101A_01_011_light_v02.mov

037  AX       V     C        01:01:04:03 01:01:08:09 01:01:45:02 01:01:49:08
* FROM CLIP NAME: MRD-101A_01_012_light_v02.mov

038  AX       V     C        01:01:08:09 01:01:10:16 01:01:49:08 01:01:51:15
* FROM CLIP NAME: MRD-101A_01_013_v02.mov

039  AX       V     C        01:01:10:16 01:01:19:10 01:01:51:15 01:02:00:09
* FROM CLIP NAME: MRD-101A_01_014_v02.mov

040  AX       V     C        01:01:19:10 01:01:23:11 01:02:00:09 01:02:04:10
* FROM CLIP NAME: MRD-101A_01_015_light_v02.mov

041  AX       V     C        01:01:23:21 01:01:27:06 01:02:04:10 01:02:07:19
* FROM CLIP NAME: MRD-101A_01_016_light_v02.mov

042  AX       V     C        01:01:27:06 01:01:27:06 01:02:07:19 01:02:07:19
FCM: NON-DROP FRAME
042  AX       V     D    016 01:01:27:06 01:01:30:07 01:02:07:19 01:02:10:20
EFFECTS NAME IS CROSS DISSOLVE
* FROM CLIP NAME: MRD-101A_01_016_light_v02.mov
* TO CLIP NAME: MRD-101A_01_017_light_v02.mov

043  AX       NONE  C        01:01:27:06 01:01:27:06 01:02:07:19 01:02:07:19
FCM: NON-DROP FRAME
043  AX       NONE  D    016 01:01:27:06 01:01:30:07 01:02:07:19 01:02:10:20
EFFECTS NAME IS CROSS DISSOLVE
* FROM CLIP NAME: MRD-101A_01_016_light_v02.mov
* TO CLIP NAME: MRD-101A_01_017_light_v02.mov

044  AX       V     C        01:01:30:07 01:01:33:08 01:02:10:20 01:02:13:21
* FROM CLIP NAME: MRD_101A_02_018_Light_v03.mov

045  AX       V     C        01:01:33:08 01:01:36:00 01:02:13:21 01:02:16:13
* FROM CLIP NAME: MRD_101A_02_019_Light_v03.mov

046  AX       V     C        01:01:36:00 01:01:39:12 01:02:16:13 01:02:20:01
* FROM CLIP NAME: MRD-101A_02_020_v02.mov

047  AX       V     C        01:01:39:12 01:01:43:16 01:02:20:01 01:02:24:05
* FROM CLIP NAME: MRD-101A_02_021_light_v02.mov

048  AX       V     C        01:01:43:17 01:01:50:04 01:02:24:05 01:02:30:16
* FROM CLIP NAME: MRD_101A_02_022_Light_v03.mov

049  AX       V     C        01:01:50:03 01:01:52:12 01:02:30:16 01:02:33:01
* FROM CLIP NAME: MRD-101A_02_023_light_v02.mov

050  AX       V     C        01:01:52:12 01:01:53:15 01:02:33:01 01:02:34:04
* FROM CLIP NAME: MRD_101A_02_024_Light_v03.mov

051  AX       V     C        01:01:53:15 01:01:55:23 01:02:34:04 01:02:36:12
* FROM CLIP NAME: MRD-101A_02_025_light_v02.mov

052  AX       V     C        01:01:55:23 01:02:00:06 01:02:36:12 01:02:40:19
* FROM CLIP NAME: MRD_101A_02_026_Light_v03.mov

053  AX       V     C        01:02:00:06 01:02:02:08 01:02:40:19 01:02:42:21
* FROM CLIP NAME: MRD-101A_02_027_v02.mov

054  AX       V     C        01:02:02:08 01:02:03:07 01:02:42:21 01:02:43:20
* FROM CLIP NAME: MRD_101A_02_028_Light_v03.mov

055  AX       V     C        01:02:03:07 01:02:04:10 01:02:43:20 01:02:44:23
* FROM CLIP NAME: MRD-101A_02_029_light_v02.mov

056  AX       V     C        01:02:04:10 01:02:11:10 01:02:44:23 01:02:51:23
* FROM CLIP NAME: MRD-101A_02_030_lighting_v02.mov

057  AX       V     C        01:02:11:10 01:02:19:06 01:02:51:23 01:02:59:19
* FROM CLIP NAME: MRD-101A_03_031_lighting_v02.mov

058  AX       V     C        01:02:19:07 01:02:21:05 01:02:59:19 01:03:01:17
* FROM CLIP NAME: MRD_101A_03_032_Light_v03.mov

059  AX       V     C        01:02:21:08 01:02:23:17 01:03:01:17 01:03:04:02
* FROM CLIP NAME: MRD_101A_03_033_light_v02.mov

060  AX       V     C        01:02:23:23 01:02:24:23 01:03:04:02 01:03:05:02
* FROM CLIP NAME: MRD_101A_03_034_Light_v03.mov

061  AX       V     C        01:02:24:23 01:02:29:04 01:03:05:02 01:03:09:07
* FROM CLIP NAME: MRD-101A_03_035_lighting_v03.mov

062  AX       V     C        01:02:29:04 01:02:32:14 01:03:09:07 01:03:12:17
* FROM CLIP NAME: MRD_101A_03_036_light_v02.mov

063  AX       V     C        01:02:32:14 01:02:35:21 01:03:12:17 01:03:16:00
* FROM CLIP NAME: MRD_101A_03_037_Light_v03.mov

064  AX       V     C        01:02:35:21 01:02:37:14 01:03:16:00 01:03:17:17
* FROM CLIP NAME: MRD_101A_03_038_light_v02.mov

065  AX       V     C        01:02:37:14 01:02:40:12 01:03:17:17 01:03:20:15
* FROM CLIP NAME: MRD_101A_03_039_Light_v03.mov

066  AX       V     C        01:02:40:12 01:02:42:02 01:03:20:15 01:03:22:05
* FROM CLIP NAME: MRD_101A_03_040_Light_v03.mov

067  AX       V     C        01:02:42:02 01:02:46:04 01:03:22:05 01:03:26:07
* FROM CLIP NAME: MRD_101A_03_041_Light_v03.mov

068  AX       V     C        01:02:46:04 01:02:49:00 01:03:26:07 01:03:29:03
* FROM CLIP NAME: MRD_101A_03_042_Light_v03.mov

069  AX       V     C        01:02:49:02 01:02:51:13 01:03:29:03 01:03:31:14
* FROM CLIP NAME: MRD_101A_04_043_Light_v03.mov

070  AX       V     C        01:02:51:13 01:02:53:22 01:03:31:14 01:03:33:23
* FROM CLIP NAME: MRD-101A_04_044_v02.mov

071  AX       V     C        01:02:53:22 01:02:55:22 01:03:33:23 01:03:35:23
* FROM CLIP NAME: MRD_101A_04_045_Light_v03.mov

072  AX       V     C        01:02:55:22 01:02:57:06 01:03:35:23 01:03:37:07
* FROM CLIP NAME: MRD-101A_04_046_v02.mov

073  AX       V     C        01:02:57:06 01:02:58:18 01:03:37:07 01:03:38:19
* FROM CLIP NAME: MRD-101A_04_047_light_v02.mov

074  AX       V     C        01:02:58:18 01:03:00:17 01:03:38:19 01:03:40:18
* FROM CLIP NAME: MRD-101A_04_048_light_v02.mov

075  AX       V     C        01:03:00:17 01:03:01:09 01:03:40:18 01:03:41:10
* FROM CLIP NAME: MRD-101A_04_049_v02.mov

076  AX       V     C        01:03:01:12 01:03:17:17 01:03:41:10 01:03:57:15
* FROM CLIP NAME: MRD_101A_05_050_light_v04.mov

077  AX       V     C        01:03:18:18 01:03:21:12 01:03:57:15 01:04:00:09
* FROM CLIP NAME: MRD_101A_05_051_Light_v03.mov

078  AX       V     C        01:03:21:12 01:03:28:09 01:04:00:09 01:04:07:06
* FROM CLIP NAME: MRD-101A_05_052_lighting_v02.mov

079  AX       V     C        01:03:29:11 01:03:34:06 01:04:07:06 01:04:12:01
* FROM CLIP NAME: MRD_101A_05_053_Light_v03.mov

080  AX       V     C        01:03:34:06 01:03:50:22 01:04:12:01 01:04:28:17
* FROM CLIP NAME: MRD_101A_05_054_Light_v03.mov

081  AX       V     C        01:03:50:22 01:03:54:21 01:04:28:17 01:04:32:16
* FROM CLIP NAME: MRD_101A_05_055_light_v02.mov

082  AX       V     C        01:03:54:20 01:03:59:19 01:04:32:16 01:04:37:15
* FROM CLIP NAME: MRD-101A_05_056_light_v02.mov

083  AX       V     C        01:03:59:20 01:04:02:21 01:04:37:15 01:04:40:16
* FROM CLIP NAME: MRD-101A_05_057_light_v02.mov

084  AX       V     C        01:04:02:21 01:04:06:17 01:04:40:16 01:04:44:12
* FROM CLIP NAME: MRD-101A_05_058_lighting_v03.mov

085  AX       V     C        01:04:06:17 01:04:09:12 01:04:44:12 01:04:47:07
* FROM CLIP NAME: MRD-101A_05_059_light_v02.mov

086  AX       V     C        00:00:00:18 00:00:07:06 01:04:47:07 01:04:53:19
* FROM CLIP NAME: MRD_101A_05_060_light_v02_BJB_Fix_01.mov

087  AX       V     C        01:04:17:00 01:04:21:14 01:04:53:19 01:04:58:09
* FROM CLIP NAME: MRD_101A_05_061_Light_v03.mov

088  AX       V     C        01:04:21:14 01:04:23:16 01:04:58:09 01:05:00:11
* FROM CLIP NAME: MRD_101A_05_062_light_v02.mov

089  AX       V     C        01:04:23:23 01:04:27:10 01:05:00:11 01:05:03:22
* FROM CLIP NAME: MRD_101A_05_063_light_v02.mov

090  AX       V     C        01:04:27:11 01:04:32:17 01:05:03:22 01:05:09:04
* FROM CLIP NAME: MRD_101A_05_064_light_v02.mov

091  AX       V     C        00:00:00:00 00:00:01:11 01:05:09:04 01:05:10:15
* FROM CLIP NAME: MRD_101A_05_065_Light_v03_BJB_Fix_02.mov

092  AX       V     C        00:00:00:00 00:00:02:12 01:05:10:15 01:05:13:03
* FROM CLIP NAME: MRD_101A_05_066_Light_v03_BJB_Fix_03.mov

093  AX       V     C        01:04:36:16 01:04:39:10 01:05:13:03 01:05:15:21
* FROM CLIP NAME: MRD_101A_05_067_light_v02.mov

094  AX       V     C        01:04:39:10 01:04:48:02 01:05:15:21 01:05:24:13
* FROM CLIP NAME: MRD_101A_05_068_light_v02.mov

095  AX       V     C        01:04:49:13 01:05:02:23 01:05:24:13 01:05:37:23
* FROM CLIP NAME: MRD-101A_05_070_lighting_v02.mov

096  AX       V     C        01:05:03:14 01:05:05:08 01:05:37:23 01:05:39:17
* FROM CLIP NAME: MRD_101A_05_071_light_v02.mov

097  AX       V     C        01:05:06:14 01:05:14:14 01:05:39:17 01:05:47:17
* FROM CLIP NAME: MRD-101A_05_072_v02.mov

098  AX       V     C        01:05:14:14 01:05:21:10 01:05:47:17 01:05:54:13
* FROM CLIP NAME: MRD_101A_05_073_Light_v03.mov

099  AX       V     C        01:05:21:10 01:05:26:07 01:05:54:13 01:05:59:10
* FROM CLIP NAME: MRD_101A_05_074_Light_v03.mov

100  AX       V     C        01:05:26:07 01:05:28:17 01:05:59:10 01:06:01:20
* FROM CLIP NAME: MRD-101A_05_075_v02.mov

101  AX       V     C        01:05:28:17 01:05:30:21 01:06:01:20 01:06:04:00
* FROM CLIP NAME: MRD_101A_05_076_light_v02.mov

102  AX       V     C        01:05:30:21 01:05:33:12 01:06:04:00 01:06:06:15
* FROM CLIP NAME: MRD-101A_05_077_light_v02.mov

103  AX       V     C        01:05:34:04 01:05:36:07 01:06:06:15 01:06:08:18
* FROM CLIP NAME: MRD-101A_05_078_light_v02.mov

104  AX       V     C        01:05:36:07 01:05:38:17 01:06:08:18 01:06:11:04
* FROM CLIP NAME: MRD_101A_05_079_Light_v03.mov

105  AX       V     C        01:05:38:05 01:05:40:22 01:06:11:04 01:06:13:21
* FROM CLIP NAME: MRD_101A_05_080_light_v02.mov

106  AX       V     C        01:05:41:10 01:05:42:19 01:06:13:21 01:06:15:06
* FROM CLIP NAME: MRD-101A_05_081_lighting_v03.mov

107  AX       V     C        01:05:42:19 01:05:46:08 01:06:15:06 01:06:18:19
* FROM CLIP NAME: MRD_101A_05_082_Light_v03.mov

108  AX       V     C        01:05:45:20 01:05:47:20 01:06:18:19 01:06:20:19
* FROM CLIP NAME: MRD-101A_05_083_v02.mov

109  AX       V     C        01:05:48:08 01:05:58:04 01:06:20:19 01:06:30:15
* FROM CLIP NAME: MRD_101A_05_084_Light_v03.mov

110  AX       V     C        01:05:58:05 01:06:08:18 01:06:30:15 01:06:41:04
* FROM CLIP NAME: MRD_101A_05_085_Light_v03.mov

111  AX       V     C        00:00:00:00 00:00:05:08 01:06:41:04 01:06:46:12
* FROM CLIP NAME: MRD_101A_05_086_v03_BJB_Fix_02.mov

112  AX       V     C        01:06:13:13 01:06:15:20 01:06:46:12 01:06:48:19
* FROM CLIP NAME: MRD-101A_05_087_v02.mov

113  AX       V     C        01:06:15:20 01:06:18:15 01:06:48:19 01:06:51:14
* FROM CLIP NAME: MRD-101A_05_088_light_v02.mov

114  AX       V     C        01:06:19:03 01:06:26:07 01:06:51:14 01:06:58:18
* FROM CLIP NAME: MRD_101A_05_089_Light_v03.mov

115  AX       V     C        01:06:26:07 01:06:30:00 01:06:58:18 01:07:02:11
* FROM CLIP NAME: MRD_101A_05_090_Light_v03.mov

116  AX       V     C        01:06:30:00 01:06:36:15 01:07:02:11 01:07:09:02
* FROM CLIP NAME: MRD-101A_05_091_light_v02.mov

117  AX       V     C        01:06:36:03 01:06:37:15 01:07:09:02 01:07:10:14
* FROM CLIP NAME: MRD-101A_05_092_v02.mov

118  AX       V     C        01:06:37:15 01:06:39:10 01:07:10:14 01:07:12:09
* FROM CLIP NAME: MRD-101A_05_093_v02.mov

119  AX       V     C        01:06:39:23 01:06:41:10 01:07:12:09 01:07:13:20
* FROM CLIP NAME: MRD_101A_05_094_Light_v03.mov

120  AX       V     C        01:06:41:09 01:06:43:18 01:07:13:20 01:07:16:05
* FROM CLIP NAME: MRD-101A_05_095_lighting_v02.mov

121  AX       V     C        01:06:43:18 01:06:45:16 01:07:16:05 01:07:18:03
* FROM CLIP NAME: MRD_101A_05_096_Light_v03.mov

122  AX       V     C        01:06:45:04 01:06:47:02 01:07:18:03 01:07:20:01
* FROM CLIP NAME: MRD-101A_05_097_v02.mov

123  AX       V     C        01:06:47:14 01:07:01:03 01:07:20:01 01:07:33:14
* FROM CLIP NAME: MRD_101A_05_098_Light_v03.mov

124  AX       V     C        01:07:01:03 01:07:02:14 01:07:33:14 01:07:35:01
* FROM CLIP NAME: MRD_101A_05_099_Light_v03.mov

125  AX       V     C        01:07:02:14 01:07:19:17 01:07:35:01 01:07:52:04
* FROM CLIP NAME: MRD_101A_05_100_Light_v03.mov

126  AX       V     C        01:07:19:17 01:07:25:12 01:07:52:04 01:07:57:23
* FROM CLIP NAME: MRD_101A_05_101_Light_v03.mov

127  AX       V     C        01:07:25:19 01:07:28:06 01:07:57:23 01:08:00:10
* FROM CLIP NAME: MRD-101A_05_102_lighting_v02.mov

128  AX       V     C        01:07:28:06 01:07:35:17 01:08:00:10 01:08:07:21
* FROM CLIP NAME: MRD_101A_05_103_Light_v03.mov

129  AX       V     C        01:07:35:17 01:07:41:15 01:08:07:21 01:08:13:19
* FROM CLIP NAME: MRD-101A_05_104_light_v02.mov

130  AX       V     C        01:07:41:03 01:07:45:03 01:08:13:19 01:08:17:19
* FROM CLIP NAME: MRD-101A_05_105_light_v02.mov

131  AX       V     C        01:07:45:15 01:07:49:13 01:08:17:19 01:08:21:17
* FROM CLIP NAME: MRD-101A_06_106_light_v02.mov

132  AX       V     C        01:07:49:13 01:07:54:13 01:08:21:17 01:08:26:17
* FROM CLIP NAME: MRD-101A_06_107_light_v02.mov

133  AX       V     C        01:07:54:01 01:07:56:20 01:08:26:17 01:08:29:12
* FROM CLIP NAME: MRD-101A_05_108_light_v02.mov

134  AX       V     C        00:00:00:06 00:00:02:04 01:08:29:12 01:08:31:10
* FROM CLIP NAME: MRD_101A_06_109_Light_V02_BJB_Fix_01.mov

135  AX       V     C        00:00:00:00 00:00:05:19 01:08:31:10 01:08:37:05
* FROM CLIP NAME: MRD_101A_06_110_Light_v03_BJB_Fix_01.mov

136  AX       V     C        01:08:04:13 01:08:07:00 01:08:37:05 01:08:39:16
* FROM CLIP NAME: MRD-101A_06_111_light_v02.mov

137  AX       V     C        01:08:07:00 01:08:08:04 01:08:39:16 01:08:40:20
* FROM CLIP NAME: MRD-101A_06_112_light_v02.mov

138  AX       V     C        01:08:08:04 01:08:09:05 01:08:40:20 01:08:41:21
* FROM CLIP NAME: MRD-101A_06_113_light_v02.mov

139  AX       V     C        01:08:09:05 01:08:10:13 01:08:41:21 01:08:43:05
* FROM CLIP NAME: MRD-101A_06_114_light_v02.mov

140  AX       V     C        01:08:10:13 01:08:11:12 01:08:43:05 01:08:44:04
* FROM CLIP NAME: MRD-101A_06_115_v02.mov

141  AX       V     C        01:08:11:12 01:08:12:18 01:08:44:04 01:08:45:10
* FROM CLIP NAME: MRD-101A_06_116_v02.mov

142  AX       V     C        01:08:12:18 01:08:13:12 01:08:45:10 01:08:46:04
* FROM CLIP NAME: MRD-101A_06_116a_light_v02.mov

143  AX       V     C        01:08:14:00 01:08:21:09 01:08:46:04 01:08:53:13
* FROM CLIP NAME: MRD-101A_06_117_light_v02.mov

144  AX       V     C        01:08:21:09 01:08:25:08 01:08:53:13 01:08:57:12
* FROM CLIP NAME: MRD-101A_06_118_lighting_v02.mov

145  AX       V     C        01:08:24:20 01:08:26:22 01:08:57:12 01:08:59:14
* FROM CLIP NAME: MRD-101A_06_119_light_v02.mov

146  AX       V     C        01:08:26:22 01:08:28:01 01:08:59:14 01:09:00:17
* FROM CLIP NAME: MRD-101A_06_120_light_v02.mov

147  AX       V     C        01:08:28:01 01:08:30:14 01:09:00:17 01:09:03:06
* FROM CLIP NAME: MRD-101A_06_121_v02.mov

148  AX       V     C        01:08:31:02 01:08:33:14 01:09:03:06 01:09:05:18
* FROM CLIP NAME: MRD-101A_06_122_lighting_v02.mov

149  AX       V     C        01:08:33:14 01:08:35:17 01:09:05:18 01:09:07:21
* FROM CLIP NAME: MRD_101A_06_123_Light_v03.mov

150  AX       V     C        01:08:35:05 01:08:36:06 01:09:07:21 01:09:08:22
* FROM CLIP NAME: MRD-101A_06_124_v02.mov

151  AX       V     C        01:08:36:18 01:08:39:05 01:09:08:22 01:09:11:09
* FROM CLIP NAME: MRD_101A_06_125_Light_v03.mov

152  AX       V     C        01:08:38:18 01:08:40:16 01:09:11:09 01:09:13:07
* FROM CLIP NAME: MRD-101A_06_126_light_v02.mov

153  AX       V     C        01:08:41:04 01:08:43:10 01:09:13:07 01:09:15:13
* FROM CLIP NAME: MRD_101A_06_127_Light_v03.mov

154  AX       V     C        01:08:42:23 01:08:43:17 01:09:15:13 01:09:16:07
* FROM CLIP NAME: MRD-101A_06_128_v02.mov

155  AX       V     C        00:00:00:00 00:00:00:14 01:09:16:07 01:09:16:21
* FROM CLIP NAME: MRD_101A_06_129_Light_V02_BJB_Fix_01.mov

156  AX       V     C        01:08:44:19 01:08:45:20 01:09:16:21 01:09:17:22
* FROM CLIP NAME: MRD_101A_06_130_Light_v03.mov

157  AX       V     C        01:08:45:19 01:08:47:15 01:09:17:22 01:09:19:18
* FROM CLIP NAME: MRD-101A_06_131_lighting_v03.mov

158  AX       V     C        01:08:47:03 01:08:49:12 01:09:19:18 01:09:22:03
* FROM CLIP NAME: MRD-101A_06_132_light_v02.mov

159  AX       V     C        01:08:49:10 01:08:50:21 01:09:22:03 01:09:23:14
* FROM CLIP NAME: MRD-101A_06_133_light_v02.mov

160  AX       V     C        01:08:50:21 01:08:52:15 01:09:23:14 01:09:25:08
* FROM CLIP NAME: MRD-101A_06_134_light_v02.mov

161  AX       V     C        01:08:53:03 01:08:58:14 01:09:25:08 01:09:30:19
* FROM CLIP NAME: MRD_101A_07_135_Light_v03.mov

162  AX       V     C        01:08:58:14 01:09:11:06 01:09:30:19 01:09:43:11
* FROM CLIP NAME: MRD_101A_07_136_Light_v03.mov

163  AX       V     C        01:09:10:18 01:09:14:04 01:09:43:11 01:09:46:21
* FROM CLIP NAME: MRD-101A_07_137_light_v02.mov

164  AX       V     C        01:09:15:03 01:09:19:13 01:09:46:21 01:09:51:07
* FROM CLIP NAME: MRD-101A_07_138_lighting_v02.mov

165  AX       V     C        00:00:00:23 00:00:02:21 01:09:51:07 01:09:53:05
* FROM CLIP NAME: MRD_101A_07_139_light_v02_BJB_MM_03.mov

166  AX       V     C        00:00:04:07 00:00:05:21 01:09:53:05 01:09:54:19
* FROM CLIP NAME: MRD_101A_07_139_light_v02_BJB_MM_03.mov

167  AX       V     C        00:00:06:02 00:00:06:20 01:09:54:19 01:09:55:13
* FROM CLIP NAME: MRD_101A_07_139_light_v02_BJB_MM_03.mov

168  AX       V     C        00:00:07:01 00:00:17:15 01:09:55:13 01:10:06:03
* FROM CLIP NAME: MRD_101A_07_139_light_v02_BJB_MM_03.mov

169  AX       V     C        01:09:35:05 01:09:41:16 01:10:06:03 01:10:12:14
* FROM CLIP NAME: MRD-101A_07_140_lighting_v02.mov

170  AX       V     C        01:09:41:04 01:09:43:21 01:10:12:14 01:10:15:07
* FROM CLIP NAME: MRD-101A_07_141_v02.mov

171  AX       V     C        01:09:44:09 01:09:48:11 01:10:15:07 01:10:19:09
* FROM CLIP NAME: MRD_101A_07_142_Light_v03.mov

172  AX       V     C        01:09:48:11 01:09:56:22 01:10:19:09 01:10:27:20
* FROM CLIP NAME: MRD_101A_07_143_light_v03.mp4

173  AX       V     C        01:09:56:22 01:09:59:09 01:10:27:20 01:10:30:07
* FROM CLIP NAME: MRD-101A_07_144_lighting_v02.mov

174  AX       V     C        01:09:59:09 01:10:00:15 01:10:30:07 01:10:31:13
* FROM CLIP NAME: MRD_101A_07_145_Light_v03.mov

175  AX       V     C        01:10:00:15 01:10:01:12 01:10:31:13 01:10:32:10
* FROM CLIP NAME: MRD_101A_07_146_Light_v03.mov

176  AX       V     C        01:10:01:13 01:10:03:15 01:10:32:10 01:10:34:12
* FROM CLIP NAME: MRD-101A_07_147_lighting_v02.mov

177  AX       V     C        01:10:03:23 01:10:07:05 01:10:34:12 01:10:37:18
* FROM CLIP NAME: MRD-101A_08_148_lighting_v02.mov

178  AX       V     C        01:10:07:06 01:10:08:08 01:10:37:18 01:10:38:20
* FROM CLIP NAME: MRD_101A_08_149_Light_v03.mov

179  AX       V     C        01:10:07:20 01:10:10:15 01:10:38:20 01:10:41:15
* FROM CLIP NAME: MRD_101A_08_150_light_v02.mov

180  AX       V     C        01:10:11:02 01:10:18:07 01:10:41:15 01:10:48:20
* FROM CLIP NAME: MRD_101A_08_151_Light_v03.mov

181  AX       V     C        01:10:18:07 01:10:20:23 01:10:48:20 01:10:51:12
* FROM CLIP NAME: MRD_101A_08_152_Light_v03.mov

182  AX       V     C        01:10:20:23 01:10:23:15 01:10:51:12 01:10:54:04
* FROM CLIP NAME: MRD_101A_08_153_Light_v03.mov

183  AX       V     C        01:10:23:03 01:10:24:05 01:10:54:04 01:10:55:06
* FROM CLIP NAME: MRD_101A_08_154_light_v02.mov

184  AX       V     C        01:10:24:17 01:10:28:11 01:10:55:06 01:10:59:00
* FROM CLIP NAME: MRD_101A_08_155_Light_v03.mov

185  AX       V     C        01:10:28:11 01:10:29:19 01:10:59:00 01:11:00:08
* FROM CLIP NAME: MRD_101A_08_156_Light_v03.mov

186  AX       V     C        01:10:29:19 01:10:33:10 01:11:00:08 01:11:03:23
* FROM CLIP NAME: MRD_101A_08_157_Light_v03.mov

187  AX       V     C        01:10:33:10 01:10:46:10 01:11:03:23 01:11:16:23
* FROM CLIP NAME: MRD_101A_08_158_light_v04.mp4

188  AX       V     C        01:10:46:10 01:10:49:03 01:11:16:23 01:11:19:16
* FROM CLIP NAME: MRD_101A_08_159_Light_v03.mov

189  AX       V     C        01:10:48:16 01:10:50:08 01:11:19:16 01:11:21:08
* FROM CLIP NAME: MRD_101A_08_160_light_v02.mov

190  AX       V     C        01:10:50:19 01:10:54:03 01:11:21:08 01:11:24:16
* FROM CLIP NAME: MRD_101A_08_161_Light_v03.mov

191  AX       V     C        01:10:53:15 01:10:54:23 01:11:24:16 01:11:26:00
* FROM CLIP NAME: MRD-101A_08_162_light_v02.mov

192  AX       V     C        01:10:55:11 01:11:01:02 01:11:26:00 01:11:31:15
* FROM CLIP NAME: MRD_101A_08_163_Light_v03.mov

193  AX       V     C        01:11:01:02 01:11:08:05 01:11:31:15 01:11:38:18
* FROM CLIP NAME: MRD_101A_08_164_Light_v03.mov

194  AX       V     C        01:11:07:21 01:11:09:21 01:11:38:18 01:11:40:18
* FROM CLIP NAME: MRD_101A_08_165_light_v02.mov

195  AX       V     C        01:11:10:09 01:11:16:15 01:11:40:18 01:11:47:00
* FROM CLIP NAME: MRD_101A_08_166_Light_v03.mov

196  AX       V     C        01:11:16:04 01:11:17:13 01:11:47:00 01:11:48:09
* FROM CLIP NAME: MRD_101A_08_167_light_v02.mov

197  AX       V     C        01:11:18:01 01:11:21:13 01:11:48:09 01:11:51:21
* FROM CLIP NAME: MRD-101A_07_168_lighting_v03.mov

198  AX       V     C        01:11:21:13 01:11:24:05 01:11:51:21 01:11:54:13
* FROM CLIP NAME: MRD_101A_08_169_Light_v03.mov

199  AX       V     C        01:11:24:05 01:11:25:23 01:11:54:13 01:11:56:07
* FROM CLIP NAME: MRD_101A_08_170_Light_v03.mov

200  AX       V     C        01:11:25:18 01:11:28:23 01:11:56:07 01:11:59:12
* FROM CLIP NAME: MRD_101A_08_171_light_v02.mov

201  AX       V     C        01:11:29:17 01:11:36:11 01:11:59:12 01:12:06:06
* FROM CLIP NAME: MRD_101A_08_172_Light_v03.mov

202  AX       V     C        01:11:35:22 01:11:39:22 01:12:06:06 01:12:10:06
* FROM CLIP NAME: MRD_101A_08_173_light_v02.mov

203  BL       V     C        00:00:00:00 00:00:00:12 01:12:10:06 01:12:10:18

204  AX       V     C        01:00:06:09 01:00:10:01 01:12:10:18 01:12:14:10
* FROM CLIP NAME: MRD-101B_01_001_v02.mov

205  AX       V     C        01:00:10:01 01:00:10:01 01:12:14:10 01:12:14:10
FCM: NON-DROP FRAME
205  AX       V     D    020 01:00:15:04 01:00:18:11 01:12:14:10 01:12:17:17
EFFECTS NAME IS CROSS DISSOLVE
* FROM CLIP NAME: MRD-101B_01_001_v02.mov
* TO CLIP NAME: MRD-101B_01_002_light_v03.mov

206  AX       NONE  C        01:00:10:01 01:00:10:01 01:12:14:10 01:12:14:10
FCM: NON-DROP FRAME
206  AX       NONE  D    020 01:00:15:04 01:00:18:11 01:12:14:10 01:12:17:17
EFFECTS NAME IS CROSS DISSOLVE
* FROM CLIP NAME: MRD-101B_01_001_v02.mov
* TO CLIP NAME: MRD-101B_01_002_light_v03.mov

207  AX       V     C        01:00:18:11 01:00:19:21 01:12:17:17 01:12:19:03
* FROM CLIP NAME: MRD-101B_01_003_v02.mov

208  AX       V     C        01:00:20:04 01:00:21:06 01:12:19:03 01:12:20:05
* FROM CLIP NAME: MRD-101B_01_004_v02.mov

209  AX       V     C        01:00:22:11 01:00:23:21 01:12:20:05 01:12:21:15
* FROM CLIP NAME: MRD-101B_01_005_v02.mov

210  AX       V     C        01:00:23:21 01:00:25:17 01:12:21:15 01:12:23:11
* FROM CLIP NAME: MRD-101B_01_006_v02.mov

211  AX       V     C        01:00:25:16 01:00:29:06 01:12:23:11 01:12:27:01
* FROM CLIP NAME: MRD-101B_01_007_v02.mov

212  AX       V     C        01:00:29:07 01:00:32:23 01:12:27:01 01:12:30:17
* FROM CLIP NAME: MRD-101B_01_008_v02.mov

213  AX       V     C        01:00:32:23 01:00:33:21 01:12:30:17 01:12:31:15
* FROM CLIP NAME: MRD-101B_01_009_v02.mov

214  AX       V     C        01:00:33:21 01:00:35:15 01:12:31:15 01:12:33:09
* FROM CLIP NAME: MRD-101B_01_010_v02.mov

215  AX       V     C        01:00:35:15 01:00:36:03 01:12:33:09 01:12:33:21
* FROM CLIP NAME: MRD-101B_01_010_v02.mov

216  AX       V     C        01:00:35:15 01:00:36:03 01:12:33:21 01:12:34:09
* FROM CLIP NAME: MRD-101B_01_010_v02.mov

217  AX       V     C        01:00:35:15 01:00:36:03 01:12:34:09 01:12:34:21
* FROM CLIP NAME: MRD-101B_01_010_v02.mov

218  AX       V     C        01:00:35:15 01:00:35:19 01:12:34:21 01:12:35:01
* FROM CLIP NAME: MRD-101B_01_010_v02.mov

219  AX       V     C        01:00:41:08 01:00:54:19 01:12:35:01 01:12:48:12
* FROM CLIP NAME: MRD-101B_01_011_v02.mov

220  AX       V     C        01:00:54:19 01:00:56:14 01:12:48:12 01:12:50:07
* FROM CLIP NAME: MRD-101B_01_012_v02.mov

221  AX       V     C        01:00:57:07 01:00:58:14 01:12:50:07 01:12:51:14
* FROM CLIP NAME: MRD-101B_01_013_v02.mov

222  AX       V     C        01:00:59:04 01:01:02:13 01:12:51:14 01:12:54:23
* FROM CLIP NAME: MRD-101B_01_014_v02.mov

223  AX       V     C        01:01:02:13 01:01:08:10 01:12:54:23 01:13:00:20
* FROM CLIP NAME: MRD-101B_01_015_light_v02.mov

224  AX       V     C        01:01:08:22 01:01:10:23 01:13:00:20 01:13:02:21
* FROM CLIP NAME: MRD-101B_01_016_v02.mov

225  AX       V     C        01:01:11:06 01:01:14:06 01:13:02:21 01:13:05:21
* FROM CLIP NAME: MRD-101B_02_017_v02.mov

226  AX       V     C        01:01:14:06 01:01:20:21 01:13:05:21 01:13:12:12
* FROM CLIP NAME: MRD-101B_02_018_light_v02.mov

227  AX       V     C        01:01:20:21 01:01:24:15 01:13:12:12 01:13:16:06
* FROM CLIP NAME: MRD-101B_02_019_v02.mov

228  AX       V     C        01:01:24:15 01:01:34:02 01:13:16:06 01:13:25:17
* FROM CLIP NAME: MRD-101B_02_020_light_v03.mov

229  AX       V     C        01:01:34:02 01:01:40:04 01:13:25:17 01:13:31:19
* FROM CLIP NAME: MRD-101B_02_021_v02.mov

230  AX       V     C        00:00:00:00 00:00:02:03 01:13:31:19 01:13:33:22
* FROM CLIP NAME: MRD_101B_02_022_light_v03_BJB_Fix_01.mov

231  AX       V     C        00:00:02:03 00:00:02:03 01:13:33:22 01:13:33:22
FCM: NON-DROP FRAME
231  AX       V     D    012 01:01:44:18 01:01:51:09 01:13:33:22 01:13:40:13
EFFECTS NAME IS CROSS DISSOLVE
* FROM CLIP NAME: MRD_101B_02_022_light_v03_BJB_Fix_01.mov
* TO CLIP NAME: MRD-101B_03_023_v02.mov

232  AX       NONE  C        00:00:02:03 00:00:02:03 01:13:33:22 01:13:33:22
FCM: NON-DROP FRAME
232  AX       NONE  D    012 01:01:44:18 01:01:51:09 01:13:33:22 01:13:40:13
EFFECTS NAME IS CROSS DISSOLVE
* FROM CLIP NAME: MRD_101B_02_022_light_v03_BJB_Fix_01.mov
* TO CLIP NAME: MRD-101B_03_023_v02.mov

233  AX       V     C        01:01:51:17 01:01:56:00 01:13:40:13 01:13:44:20
* FROM CLIP NAME: MRD-101B_02_024_v02.mov

234  AX       V     C        01:01:56:15 01:02:11:20 01:13:44:20 01:14:00:01
* FROM CLIP NAME: MRD-101B_01_025_v02.mov

235  AX       V     C        01:02:12:12 01:02:13:12 01:14:00:01 01:14:01:01
* FROM CLIP NAME: MRD-101B_03_026_v02.mov

236  AX       V     C        01:02:13:12 01:02:15:22 01:14:01:01 01:14:03:11
* FROM CLIP NAME: MRD-101B_03_027_v02.mov

237  AX       V     C        01:02:15:22 01:02:17:14 01:14:03:11 01:14:05:03
* FROM CLIP NAME: MRD-101B_03_028_v02.mov

238  AX       V     C        01:02:17:14 01:02:20:00 01:14:05:03 01:14:07:13
* FROM CLIP NAME: MRD-101B_03_029_v02.mov

239  AX       V     C        01:02:20:00 01:02:20:16 01:14:07:13 01:14:08:05
* FROM CLIP NAME: MRD-101B_03_030_v02.mov

240  AX       V     C        01:02:20:16 01:02:24:05 01:14:08:05 01:14:11:18
* FROM CLIP NAME: MRD-101B_03_031_v02.mov

241  AX       V     C        01:02:24:05 01:02:34:16 01:14:11:18 01:14:22:05
* FROM CLIP NAME: MRD-101B_03_032_v02.mov

242  AX       V     C        01:02:34:16 01:02:37:08 01:14:22:05 01:14:24:21
* FROM CLIP NAME: MRD-101B_03_033_v02.mov

243  AX       V     C        01:02:37:08 01:02:44:14 01:14:24:21 01:14:32:03
* FROM CLIP NAME: MRD-101B_03_034_v02.mov

244  AX       V     C        01:02:45:02 01:02:50:10 01:14:32:03 01:14:37:11
* FROM CLIP NAME: MRD-101B_03_035_light_v03.mov

245  AX       V     C        01:02:48:18 01:02:51:13 01:14:37:11 01:14:40:06
* FROM CLIP NAME: MRD_101A_04_043_Light_v03.mov

246  AX       V     C        01:02:51:13 01:02:53:22 01:14:40:06 01:14:42:15
* FROM CLIP NAME: MRD-101A_04_044_v02.mov

247  AX       V     C        01:02:53:22 01:02:55:22 01:14:42:15 01:14:44:15
* FROM CLIP NAME: MRD_101A_04_045_Light_v03.mov

248  AX       V     C        01:02:55:22 01:02:57:06 01:14:44:15 01:14:45:23
* FROM CLIP NAME: MRD-101A_04_046_v02.mov

249  AX       V     C        01:02:57:06 01:02:58:18 01:14:45:23 01:14:47:11
* FROM CLIP NAME: MRD-101A_04_047_light_v02.mov

250  AX       V     C        01:02:58:18 01:03:00:17 01:14:47:11 01:14:49:10
* FROM CLIP NAME: MRD-101A_04_048_light_v02.mov

251  AX       V     C        01:03:00:17 01:03:01:08 01:14:49:10 01:14:50:01
* FROM CLIP NAME: MRD-101A_04_049_v02.mov

252  AX       V     C        01:03:01:12 01:03:01:13 01:14:50:01 01:14:50:02
* FROM CLIP NAME: MRD-101A_04_050_light_v02.mov

253  AX       V     C        01:03:01:12 01:03:17:14 01:14:50:02 01:15:06:04
* FROM CLIP NAME: MRD_101A_05_050_light_v04.mov

254  AX       V     C        01:03:19:04 01:03:29:07 01:15:06:04 01:15:16:07
* FROM CLIP NAME: MRD-101B_04_044_v02.mov

255  AX       V     C        01:03:29:07 01:03:30:23 01:15:16:07 01:15:17:23
* FROM CLIP NAME: MRD-101B_04_045_v02.mov

256  AX       V     C        01:03:30:23 01:03:32:01 01:15:17:23 01:15:19:01
* FROM CLIP NAME: MRD-101B_04_046_v02.mov

257  AX       V     C        01:03:32:01 01:03:35:16 01:15:19:01 01:15:22:16
* FROM CLIP NAME: MRD-101B_04_047_v02.mov

258  AX       V     C        01:03:35:16 01:03:36:12 01:15:22:16 01:15:23:12
* FROM CLIP NAME: MRD-101B_04_048_v02.mov

259  AX       V     C        01:03:37:00 01:03:38:14 01:15:23:12 01:15:25:02
* FROM CLIP NAME: MRD-101B_04_049_light_v03.mov

260  AX       V     C        01:03:38:02 01:03:40:09 01:15:25:02 01:15:27:09
* FROM CLIP NAME: MRD-101B_04_050_v02.mov

261  AX       V     C        01:03:40:09 01:03:41:15 01:15:27:09 01:15:28:15
* FROM CLIP NAME: MRD-101B_04_051_v02.mov

262  AX       V     C        01:03:41:15 01:03:52:00 01:15:28:15 01:15:39:00
* FROM CLIP NAME: MRD-101B_04_052_light_v02.mov

263  AX       V     C        01:03:52:01 01:03:53:07 01:15:39:00 01:15:40:06
* FROM CLIP NAME: MRD-101B_04_053_v02.mov

264  AX       V     C        00:00:00:00 00:00:01:06 01:15:40:06 01:15:41:12
* FROM CLIP NAME: MRD_101B_04_054_Light_v02_BJB_Fix_02.mov

265  AX       V     C        01:03:55:00 01:03:57:08 01:15:41:12 01:15:43:20
* FROM CLIP NAME: MRD-101B_04_055_light_v03.mov

266  AX       V     C        01:03:57:08 01:04:00:04 01:15:43:20 01:15:46:16
* FROM CLIP NAME: MRD-101B_04_056_light_v03.mov

267  AX       V     C        01:03:59:16 01:04:03:12 01:15:46:16 01:15:50:12
* FROM CLIP NAME: MRD-101B_04_057_v02.mov

268  AX       V     C        01:04:03:12 01:04:04:11 01:15:50:12 01:15:51:11
* FROM CLIP NAME: MRD-101B_04_058_v02.mov

269  AX       V     C        01:04:04:11 01:04:09:04 01:15:51:11 01:15:56:04
* FROM CLIP NAME: MRD-101B_04_059_v02.mov

270  AX       V     C        01:04:09:04 01:04:11:21 01:15:56:04 01:15:58:21
* FROM CLIP NAME: MRD-101B_04_060_v02.mov

271  AX       V     C        01:04:12:05 01:04:17:11 01:15:58:21 01:16:04:03
* FROM CLIP NAME: MRD-101B_04_062_v02.mov

272  AX       V     C        01:04:18:00 01:04:28:15 01:16:04:03 01:16:14:18
* FROM CLIP NAME: MRD-101B_04_062_Lighting_v04.mov

273  AX       V     C        00:00:00:00 00:00:03:11 01:16:14:18 01:16:18:05
* FROM CLIP NAME: MRD_101B_04_067_light_v02_BJB_Fix_01.mov

274  AX       V     C        01:04:31:14 01:04:33:15 01:16:18:05 01:16:20:06
* FROM CLIP NAME: MRD-101B_04_068_v02.mov

275  AX       V     C        01:04:33:15 01:04:38:13 01:16:20:06 01:16:25:04
* FROM CLIP NAME: MRD-101B_04_069_v02.mov

276  AX       V     C        01:04:39:00 01:04:41:03 01:16:25:04 01:16:27:07
* FROM CLIP NAME: MRD-101B_04_070_light_v03.mov

277  AX       V     C        01:04:40:15 01:04:41:20 01:16:27:07 01:16:28:12
* FROM CLIP NAME: MRD-101B_04_071_v02.mov

278  AX       V     C        01:04:41:20 01:04:48:05 01:16:28:12 01:16:34:21
* FROM CLIP NAME: MRD-101B_04_072_light_v02.mov

279  AX       V     C        01:04:48:05 01:04:51:16 01:16:34:21 01:16:38:08
* FROM CLIP NAME: MRD-101B_04_073_v02.mov

280  AX       V     C        01:04:51:16 01:04:53:20 01:16:38:08 01:16:40:12
* FROM CLIP NAME: MRD-101B_04_074_light_v02.mov

281  AX       V     C        01:04:54:13 01:04:56:12 01:16:40:12 01:16:42:11
* FROM CLIP NAME: MRD-101B_04_075_v02.mov

282  AX       V     C        01:04:56:12 01:05:01:04 01:16:42:11 01:16:47:03
* FROM CLIP NAME: MRD-101B_04_076_v02.mov

283  AX       V     C        01:05:01:04 01:05:04:08 01:16:47:03 01:16:50:07
* FROM CLIP NAME: MRD-101B_04_077_v02.mov

284  AX       V     C        01:05:04:08 01:05:05:11 01:16:50:07 01:16:51:10
* FROM CLIP NAME: MRD-101B_04_078_v02.mov

285  AX       V     C        01:05:05:12 01:05:07:16 01:16:51:10 01:16:53:14
* FROM CLIP NAME: MRD-101B_05_079_v02.mov

286  AX       V     C        01:05:07:16 01:05:10:00 01:16:53:14 01:16:55:22
* FROM CLIP NAME: MRD-101B_05_080_v02.mov

287  AX       V     C        01:05:10:00 01:05:13:23 01:16:55:22 01:16:59:21
* FROM CLIP NAME: MRD-101B_05_081_v02.mov

288  AX       V     C        01:05:13:23 01:05:18:15 01:16:59:21 01:17:04:13
* FROM CLIP NAME: MRD-101B_05_082_light_v02.mov

289  AX       V     C        01:05:18:14 01:05:20:10 01:17:04:13 01:17:06:09
* FROM CLIP NAME: MRD-101B_05_083_v02.mov

290  AX       V     C        01:05:20:10 01:05:22:16 01:17:06:09 01:17:08:15
* FROM CLIP NAME: MRD-101B_05_084_light_v02.mov

291  AX       V     C        01:05:22:16 01:05:24:16 01:17:08:15 01:17:10:15
* FROM CLIP NAME: MRD-101B_05_085_v02.mov

292  AX       V     C        01:05:25:04 01:05:27:20 01:17:10:15 01:17:13:07
* FROM CLIP NAME: MRD-101B_06_086_light_v03.mov

293  AX       V     C        01:05:27:20 01:05:36:07 01:17:13:07 01:17:21:18
* FROM CLIP NAME: MRD-101B_06_087_light_v03.mov

294  AX       V     C        01:05:35:19 01:05:40:05 01:17:21:18 01:17:26:04
* FROM CLIP NAME: MRD-101B_06_088_v02.mov

295  AX       V     C        01:05:40:05 01:05:42:00 01:17:26:04 01:17:27:23
* FROM CLIP NAME: MRD-101B_06_089_v02.mov

296  AX       V     C        01:05:42:00 01:05:45:00 01:17:27:23 01:17:30:23
* FROM CLIP NAME: MRD_101B_06_090_v01.mov

297  AX       V     C        01:05:45:12 01:05:51:18 01:17:30:23 01:17:37:05
* FROM CLIP NAME: MRD-101B_06_091_light_v03.mov

298  AX       V     C        01:05:51:19 01:05:54:15 01:17:37:05 01:17:40:01
* FROM CLIP NAME: MRD-101B_06_092_light_v03.mov

299  AX       V     C        01:05:54:03 01:06:03:11 01:17:40:01 01:17:49:09
* FROM CLIP NAME: MRD-101B_06_093_v02.mov

300  AX       V     C        01:06:03:22 01:06:09:06 01:17:49:09 01:17:54:17
* FROM CLIP NAME: MRD-101B_06_094_light_v03.mov

301  AX       V     C        01:06:08:21 01:06:10:22 01:17:54:17 01:17:56:18
* FROM CLIP NAME: MRD-101B_06_095_v02.mov

302  AX       V     C        01:06:11:10 01:06:23:10 01:17:56:18 01:18:08:18
* FROM CLIP NAME: MRD-101B_06_096_light_v03.mov

303  AX       V     C        01:06:22:22 01:06:25:12 01:18:08:18 01:18:11:08
* FROM CLIP NAME: MRD-101B_06_097_v02.mov

304  AX       V     C        01:06:26:04 01:06:31:02 01:18:11:08 01:18:16:06
* FROM CLIP NAME: MRD-101B_06_098_v02.mov

305  AX       V     C        01:06:31:03 01:06:36:12 01:18:16:06 01:18:21:15
* FROM CLIP NAME: MRD-101B_06_099_v02.mov

306  AX       V     C        01:06:37:06 01:06:47:07 01:18:21:15 01:18:31:16
* FROM CLIP NAME: MRD-101B_06_100_light_v02.mov

307  AX       V     C        01:06:47:18 01:06:52:11 01:18:31:16 01:18:36:09
* FROM CLIP NAME: MRD-101B_06_101_light_v03.mov

308  AX       V     C        00:00:00:00 00:00:01:23 01:18:36:09 01:18:38:08
* FROM CLIP NAME: MRD_101B_06_102_light_v02_BJB_Fix_01.mov

309  AX       V     C        00:00:00:00 00:00:01:10 01:18:38:08 01:18:39:18
* FROM CLIP NAME: MRD_101B_06_103_Light_v02_BJB_Fix_02.mov

310  AX       V     C        01:06:55:21 01:07:00:10 01:18:39:18 01:18:44:07
* FROM CLIP NAME: MRD-101B_06_104_light_v03.mov

311  AX       V     C        01:07:00:10 01:07:06:22 01:18:44:07 01:18:50:19
* FROM CLIP NAME: MRD-101B_06_105_light_v03.mov

312  AX       V     C        01:07:06:10 01:07:09:07 01:18:50:19 01:18:53:16
* FROM CLIP NAME: MRD-101B_06_106_v02.mov

313  AX       V     C        01:07:09:19 01:07:22:02 01:18:53:16 01:19:05:23
* FROM CLIP NAME: MRD-101B_06_107_Lighting_v05.mov

314  AX       V     C        01:07:21:15 01:07:23:04 01:19:05:23 01:19:07:12
* FROM CLIP NAME: MRD-101B_06_108_light_v02.mov

315  AX       V     C        01:07:23:03 01:07:29:04 01:19:07:12 01:19:13:13
* FROM CLIP NAME: MRD-101B_06_109_v02.mov

316  AX       V     C        01:07:29:04 01:07:34:08 01:19:13:13 01:19:18:17
* FROM CLIP NAME: MRD-101B_06_110_v02.mov

317  AX       V     C        01:07:34:08 01:07:37:10 01:19:18:17 01:19:21:19
* FROM CLIP NAME: MRD-101B_06_111_v02.mov

318  AX       V     C        01:07:37:10 01:07:41:21 01:19:21:19 01:19:26:06
* FROM CLIP NAME: MRD-101B_06_112_v02.mov

319  AX       V     C        01:07:41:21 01:07:45:01 01:19:26:06 01:19:29:10
* FROM CLIP NAME: MRD-101B_06_113_v02.mov

320  AX       V     C        01:07:45:01 01:07:48:06 01:19:29:10 01:19:32:15
* FROM CLIP NAME: MRD-101B_05_114_v02.mov

321  AX       V     C        01:07:48:06 01:07:50:19 01:19:32:15 01:19:35:04
* FROM CLIP NAME: MRD-101B_06_115_v02.mov

322  AX       V     C        01:07:50:19 01:07:52:18 01:19:35:04 01:19:37:03
* FROM CLIP NAME: MRD-101B_06_116_v02.mov

323  AX       V     C        01:07:52:18 01:07:53:23 01:19:37:03 01:19:38:08
* FROM CLIP NAME: MRD-101B_06_117_v02.mov

324  AX       V     C        01:07:54:00 01:07:55:04 01:19:38:08 01:19:39:12
* FROM CLIP NAME: MRD-101B_06_118_v02.mov

325  AX       V     C        01:07:55:04 01:07:58:20 01:19:39:12 01:19:43:04
* FROM CLIP NAME: MRD-101B_06_119_v02.mov

326  AX       V     C        01:07:58:20 01:08:00:21 01:19:43:04 01:19:45:05
* FROM CLIP NAME: MRD-101B_06_120_v02.mov

327  AX       V     C        01:08:00:21 01:08:09:17 01:19:45:05 01:19:54:01
* FROM CLIP NAME: MRD-101B_07_121_v02.mov

328  AX       V     C        01:08:09:16 01:08:15:03 01:19:54:01 01:19:59:12
* FROM CLIP NAME: MRD-101B_07_122_v02.mov

329  AX       V     C        01:08:15:03 01:08:19:18 01:19:59:12 01:20:04:03
* FROM CLIP NAME: MRD-101B_06_123_light_v02.mov

330  AX       V     C        01:08:20:06 01:08:24:01 01:20:04:03 01:20:07:22
* FROM CLIP NAME: MRD-101B_07_124_light_v03.mov

331  AX       V     C        01:08:23:13 01:08:26:23 01:20:07:22 01:20:11:08
* FROM CLIP NAME: MRD-101B_07_125_v02.mov

332  AX       V     C        01:08:27:11 01:08:32:14 01:20:11:08 01:20:16:11
* FROM CLIP NAME: MRD-101B_07_126_light_v03.mov

333  AX       V     C        01:08:32:02 01:08:36:20 01:20:16:11 01:20:21:05
* FROM CLIP NAME: MRD-101B_07_127_v02.mov

334  AX       V     C        01:08:36:20 01:08:39:08 01:20:21:05 01:20:23:17
* FROM CLIP NAME: MRD-101B_07_128_v02.mov

335  AX       V     C        01:08:39:09 01:08:40:03 01:20:23:17 01:20:24:11
* FROM CLIP NAME: MRD-101B_07_129_v02.mov

336  AX       V     C        01:08:40:03 01:08:42:18 01:20:24:11 01:20:27:02
* FROM CLIP NAME: MRD-101B_07_130_v02.mov

337  AX       V     C        01:08:42:18 01:08:44:05 01:20:27:02 01:20:28:13
* FROM CLIP NAME: MRD-101B_07_131_v02.mov

338  AX       V     C        01:08:44:05 01:08:45:04 01:20:28:13 01:20:29:12
* FROM CLIP NAME: MRD-101B_07_132_v02.mov

339  AX       V     C        01:08:45:03 01:08:47:22 01:20:29:12 01:20:32:07
* FROM CLIP NAME: MRD-101B_07_133_v02.mov

340  AX       V     C        01:08:47:22 01:08:50:01 01:20:32:07 01:20:34:10
* FROM CLIP NAME: MRD-101B_07_134_v02.mov

341  AX       V     C        01:08:50:01 01:08:56:15 01:20:34:10 01:20:41:00
* FROM CLIP NAME: MRD-101B_07_135_v02.mov

342  AX       V     C        01:08:56:15 01:08:58:13 01:20:41:00 01:20:42:22
* FROM CLIP NAME: MRD-101B_07_136_v02.mov

343  AX       V     C        01:08:58:13 01:09:05:08 01:20:42:22 01:20:49:17
* FROM CLIP NAME: MRD-101B_07_137_v02.mov

344  AX       V     C        01:09:05:08 01:09:07:16 01:20:49:17 01:20:52:01
* FROM CLIP NAME: MRD-101B_07_138_v02.mov

345  AX       V     C        01:09:07:16 01:09:12:09 01:20:52:01 01:20:56:18
* FROM CLIP NAME: MRD-101B_07_139_v02.mov

346  AX       V     C        01:00:01:01 01:00:01:01 01:20:56:18 01:20:56:18
FCM: NON-DROP FRAME
346  AX       V     D    016 01:09:14:03 01:09:19:22 01:20:56:18 01:21:02:13
EFFECTS NAME IS CROSS DISSOLVE
* FROM CLIP NAME: MRD_101B_07_139_Light_v01_FF.png
* TO CLIP NAME: MRD-101B_08_140_light_v03.mov

347  AX       NONE  C        01:00:01:01 01:00:01:01 01:20:56:18 01:20:56:18
FCM: NON-DROP FRAME
347  AX       NONE  D    016 01:09:14:03 01:09:19:22 01:20:56:18 01:21:02:13
EFFECTS NAME IS CROSS DISSOLVE
* FROM CLIP NAME: MRD_101B_07_139_Light_v01_FF.png
* TO CLIP NAME: MRD-101B_08_140_light_v03.mov

348  AX       V     C        01:09:19:22 01:09:27:11 01:21:02:13 01:21:10:02
* FROM CLIP NAME: MRD-101B_08_141_light_v03.mov

349  AX       V     C        01:09:26:22 01:09:29:02 01:21:10:02 01:21:12:06
* FROM CLIP NAME: MRD-101B_08_142_v02.mov

350  AX       V     C        01:09:29:14 01:09:32:16 01:21:12:06 01:21:15:08
* FROM CLIP NAME: MRD-101B_08_143_light_v03.mov

351  AX       V     C        01:09:32:23 01:09:37:07 01:21:15:08 01:21:19:16
* FROM CLIP NAME: MRD-101B_08_144_Lighting_v03.mov

352  AX       V     C        01:09:37:07 01:09:51:05 01:21:19:16 01:21:33:14
* FROM CLIP NAME: MRD-101B_08_145_light_v03.mov

353  AX       V     C        01:09:51:05 01:09:53:05 01:21:33:14 01:21:35:14
* FROM CLIP NAME: MRD-101B_08_147_light_v03.mov

354  AX       V     C        01:09:53:05 01:09:59:10 01:21:35:14 01:21:41:19
* FROM CLIP NAME: MRD-101B_08_148_light_v03.mov

355  AX       V     C        01:09:59:11 01:10:03:15 01:21:41:19 01:21:45:23
* FROM CLIP NAME: MRD-101B_08_149_light_v03.mov

356  AX       V     C        01:10:03:03 01:10:04:11 01:21:45:23 01:21:47:07
* FROM CLIP NAME: MRD-101B_08_150_v02.mov

357  AX       V     C        01:10:04:11 01:10:07:15 01:21:47:07 01:21:50:11
* FROM CLIP NAME: MRD-101B_08_151_v02.mov

358  AX       V     C        01:10:07:15 01:10:13:07 01:21:50:11 01:21:56:03
* FROM CLIP NAME: MRD-101B_08_152_v02.mov

359  AX       V     C        01:10:13:18 01:10:18:09 01:21:56:03 01:22:00:18
* FROM CLIP NAME: MRD-101B_08_153_light_v03.mov

360  AX       V     C        00:00:00:00 00:00:05:21 01:22:00:18 01:22:06:15
* FROM CLIP NAME: MRD_101B_08_154_Light_v02_BJB_MM_03.mov

361  AX       V     C        00:00:05:21 00:00:06:09 01:22:06:15 01:22:07:03
* FROM CLIP NAME: MRD_101B_08_154_Light_v02_BJB_MM_03.mov

362  AX       V     C        00:00:05:21 00:00:06:09 01:22:07:03 01:22:07:15
* FROM CLIP NAME: MRD_101B_08_154_Light_v02_BJB_MM_03.mov

363  AX       V     C        00:00:05:21 00:00:06:03 01:22:07:15 01:22:07:21
* FROM CLIP NAME: MRD_101B_08_154_Light_v02_BJB_MM_03.mov

364  AX       V     C        01:10:25:00 01:10:35:02 01:22:07:21 01:22:17:23
* FROM CLIP NAME: MRD-101B_08_155_light_v02.mov

365  AX       V     C        01:10:35:02 01:10:36:21 01:22:17:23 01:22:19:18
* FROM CLIP NAME: MRD-101B_08_156_v02.mov

366  AX       V     C        01:10:36:21 01:10:38:21 01:22:19:18 01:22:21:18
* FROM CLIP NAME: MRD-101B_08_157_v02.mov

367  AX       V     C        01:10:39:09 01:10:42:18 01:22:21:18 01:22:25:03
* FROM CLIP NAME: MRD-101B_08_158_light_v03.mov

368  AX       V     C        01:10:42:19 01:10:44:23 01:22:25:03 01:22:27:07
* FROM CLIP NAME: MRD-101B_08_159_light_v03.mov

369  AX       V     C        01:10:44:11 01:10:45:10 01:22:27:07 01:22:28:06
* FROM CLIP NAME: MRD-101B_08_160_v02.mov

370  AX       V     C        01:10:45:10 01:10:47:06 01:22:28:06 01:22:30:02
* FROM CLIP NAME: MRD-101B_08_161_v02.mov

371  AX       V     C        01:10:47:06 01:10:49:05 01:22:30:02 01:22:32:01
* FROM CLIP NAME: MRD-101B_08_162_v02.mov

372  AX       V     C        01:10:49:17 01:10:54:14 01:22:32:01 01:22:36:22
* FROM CLIP NAME: MRD-101B_08_163_light_v03.mov

373  AX       V     C        01:10:54:01 01:10:55:07 01:22:36:22 01:22:38:04
* FROM CLIP NAME: MRD-101B_08_164_v02.mov

374  AX       V     C        01:10:55:19 01:11:03:16 01:22:38:04 01:22:46:01
* FROM CLIP NAME: MRD-101B_08_165_light_v03.mov

375  AX       V     C        01:11:03:04 01:11:06:11 01:22:46:01 01:22:49:08
* FROM CLIP NAME: MRD-101B_08_166_v02.mov

376  AX       V     C        01:11:06:23 01:11:10:02 01:22:49:08 01:22:52:11
* FROM CLIP NAME: MRD-101B_08_167_light_v03.mov

377  AX       V     C        01:11:09:14 01:11:14:15 01:22:52:11 01:22:57:12
* FROM CLIP NAME: MRD-101B_08_168_v02.mov

378  AX       V     C        01:11:15:03 01:11:17:20 01:22:57:12 01:23:00:05
* FROM CLIP NAME: MRD-101B_08_169_light_v03.mov

379  AX       V     C        01:11:17:08 01:11:19:02 01:23:00:05 01:23:01:23
* FROM CLIP NAME: MRD-101B_08_170_v02.mov

380  AX       V     C        01:11:19:02 01:11:21:07 01:23:01:23 01:23:04:04
* FROM CLIP NAME: MRD-101B_08_171_v02.mov

381  AX       V     C        01:11:21:19 01:11:26:06 01:23:04:04 01:23:08:15
* FROM CLIP NAME: MRD-101B_08_172_light_v03.mov

382  AX       V     C        01:11:26:07 01:11:33:21 01:23:08:15 01:23:16:05
* FROM CLIP NAME: MRD-101B_08_173_light_v03.mov

383  AX       V     C        01:11:33:20 01:11:40:13 01:23:16:05 01:23:22:22
* FROM CLIP NAME: MRD-101B_08_174_light_v03.mov

384  AX       V     C        01:11:40:13 01:11:46:16 01:23:22:22 01:23:29:01
* FROM CLIP NAME: MRD-101B_08_175_light_v03.mov

385  AX       V     C        01:11:46:16 01:11:46:16 01:23:29:01 01:23:29:01
FCM: NON-DROP FRAME
385  BL       V     D    011 00:00:00:00 00:00:00:12 01:23:29:01 01:23:30:00
EFFECTS NAME IS CROSS DISSOLVE
* FROM CLIP NAME: MRD-101B_08_175_light_v03.mov
* TO CLIP NAME: BL

386  AX       NONE  C        01:11:46:16 01:11:46:16 01:23:29:01 01:23:29:01
FCM: NON-DROP FRAME
386  BL       NONE  D    011 00:00:00:00 00:00:00:12 01:23:29:01 01:23:30:00
EFFECTS NAME IS CROSS DISSOLVE
* FROM CLIP NAME: MRD-101B_08_175_light_v03.mov
* TO CLIP NAME: BL

387  BL       V     C        00:00:00:00 00:00:00:12 01:23:29:12 01:23:30:00

388  AX       V     C        00:59:56:09 00:59:57:18 01:23:30:00 01:23:31:09
* FROM CLIP NAME: 01-exec-sascha-4.png

389  AX       V     C        00:59:56:09 00:59:57:18 01:23:31:09 01:23:32:18
* FROM CLIP NAME: 02-execs-7.png

390  AX       V     C        00:59:56:09 00:59:57:17 01:23:32:18 01:23:34:02
* FROM CLIP NAME: 04-sup-director-2.png

391  AX       V     C        00:59:56:09 00:59:57:17 01:23:34:02 01:23:35:10
* FROM CLIP NAME: 05-producers-4.png

392  AX       V     C        00:59:56:09 00:59:57:17 01:23:35:10 01:23:36:18
* FROM CLIP NAME: 06-story-editor-2.png

393  AX       V     C        00:59:56:09 00:59:57:18 01:23:36:18 01:23:38:03
* FROM CLIP NAME: 07-voice-2.png

394  AX       V     C        00:59:56:09 00:59:57:18 01:23:38:03 01:23:39:12
* FROM CLIP NAME: 08-voice-6.png

395  AX       V     C        00:59:56:09 00:59:57:18 01:23:39:12 01:23:40:21
* FROM CLIP NAME: 09-voice-6.png

396  AX       V     C        00:59:56:09 00:59:57:17 01:23:40:21 01:23:42:05
* FROM CLIP NAME: 10-art-director-2.png

397  AX       V     C        00:59:56:09 00:59:57:17 01:23:42:05 01:23:43:13
* FROM CLIP NAME: 11-design-5.png

398  AX       V     C        00:59:56:09 00:59:57:17 01:23:43:13 01:23:44:21
* FROM CLIP NAME: 12-sb-rev-tech-5.png

399  AX       V     C        00:59:56:09 00:59:57:17 01:23:44:21 01:23:46:05
* FROM CLIP NAME: 13-main-title-6_v2.png

400  AX       V     C        00:59:56:09 00:59:57:17 01:23:46:05 01:23:47:13
* FROM CLIP NAME: 14-songs-3.png

401  AX       V     C        00:59:56:10 00:59:57:18 01:23:47:13 01:23:48:21
* FROM CLIP NAME: 15-music-by-2.png

402  AX       V     C        00:59:56:10 00:59:57:18 01:23:48:21 01:23:50:05
* FROM CLIP NAME: 16-technicolor.png

403  AX       V     C        00:59:56:09 00:59:57:18 01:23:50:05 01:23:51:14
* FROM CLIP NAME: 17-editorial-7.png

404  AX       V     C        00:59:56:09 00:59:57:18 01:23:51:14 01:23:52:23
* FROM CLIP NAME: 18-sound.png

405  AX       V     C        00:59:56:09 00:59:57:18 01:23:52:23 01:23:54:08
* FROM CLIP NAME: 19-production-4.png

406  AX       V     C        00:59:56:09 00:59:57:17 01:23:54:08 01:23:55:16
* FROM CLIP NAME: 20-consultants.png

407  AX       V     C        00:59:56:09 00:59:57:17 01:23:55:16 01:23:57:00
* FROM CLIP NAME: 21-IATSE-2.png

408  AX       V     C        00:00:00:01 00:00:01:13 01:23:57:00 01:23:58:12
* FROM CLIP NAME: WCLogo_FeatherAnim_Dark.mov

409  AX       V     C        00:00:00:00 00:00:01:12 01:23:58:12 01:24:00:00
* FROM CLIP NAME: DJ_GEN_ProdID_1s12f.mov

410  BL       V     C        00:00:00:00 00:00:10:00 01:24:00:00 01:24:10:00

411  AX       V     C        00:59:56:09 00:59:57:10 01:24:10:00 01:24:11:01
* FROM CLIP NAME: TEXTLESS.png

412  BL       V     C        00:00:00:00 00:00:01:00 01:24:11:01 01:24:12:01

413  BL       V     C        00:00:00:00 00:00:00:08 01:24:11:01 00:59:50:00

414  BL       V     C        00:00:00:00 00:00:00:00 01:24:12:01 01:24:12:01
FCM: NON-DROP FRAME
414  AX       V     D    008 01:00:06:09 01:00:08:01 01:24:12:01 01:24:13:17
EFFECTS NAME IS CROSS DISSOLVE
* FROM CLIP NAME: BL
* TO CLIP NAME: MRD-010_01_001_light_v01.mov

415  BL       NONE  C        00:00:00:00 00:00:00:00 01:24:12:01 01:24:12:01
FCM: NON-DROP FRAME
415  AX       NONE  D    008 01:00:06:09 01:00:08:01 01:24:12:01 01:24:13:17
EFFECTS NAME IS CROSS DISSOLVE
* FROM CLIP NAME: BL
* TO CLIP NAME: MRD-010_01_001_light_v01.mov

416  AX       V     C        01:00:08:01 01:00:08:01 01:24:13:17 01:24:13:17
FCM: NON-DROP FRAME
416  AX       V     D    006 01:00:07:21 01:00:13:13 01:24:13:17 01:24:19:09
EFFECTS NAME IS CROSS DISSOLVE
* FROM CLIP NAME: MRD-010_01_001_light_v01.mov
* TO CLIP NAME: MRD_010_01_002_Light_v02.mov

417  AX       NONE  C        01:00:08:01 01:00:08:01 01:24:13:17 01:24:13:17
FCM: NON-DROP FRAME
417  AX       NONE  D    006 01:00:07:21 01:00:13:13 01:24:13:17 01:24:19:09
EFFECTS NAME IS CROSS DISSOLVE
* FROM CLIP NAME: MRD-010_01_001_light_v01.mov
* TO CLIP NAME: MRD_010_01_002_Light_v02.mov

418  AX       V     C        01:00:13:13 01:00:17:15 01:24:19:09 01:24:23:11
* FROM CLIP NAME: MRD-010_01_003_Lighting_V03.mov

419  AX       V     C        01:00:17:17 01:00:19:08 01:24:23:11 01:24:25:02
* FROM CLIP NAME: MRD_010_01_004_Light_v02.mov

420  AX       V     C        01:00:19:08 01:00:22:04 01:24:25:02 01:24:27:22
* FROM CLIP NAME: MRD_010_01_005_Light_v02.mov

421  AX       V     C        01:00:22:04 01:00:23:23 01:24:27:22 01:24:29:17
* FROM CLIP NAME: MRD_010_01_006_Light_v02.mov

422  AX       V     C        01:00:24:02 01:00:27:19 01:24:29:17 01:24:33:10
* FROM CLIP NAME: MRD_010_01_007_Light_v02.mov

423  AX       V     C        01:00:27:18 01:00:37:01 01:24:33:10 01:24:42:17
* FROM CLIP NAME: MRD-010_01_008_light_v01.mov

424  AX       V     C        01:00:37:02 01:00:40:05 01:24:42:17 01:24:45:20
* FROM CLIP NAME: MRD_010_01_009_Light_v02.mov

425  AX       V     C        01:00:40:03 01:00:42:11 01:24:45:20 01:24:48:04
* FROM CLIP NAME: MRD-010_01_010_light_v01.mov

426  AX       V     C        01:00:42:11 01:00:44:03 01:24:48:04 01:24:49:20
* FROM CLIP NAME: MRD_010_01_011_Light_v02.mov

427  AX       V     C        01:00:44:03 01:00:48:11 01:24:49:20 01:24:54:04
* FROM CLIP NAME: MRD_010_01_012_Light_v02.mov

428  AX       V     C        01:00:48:11 01:00:53:19 01:24:54:04 01:24:59:12
* FROM CLIP NAME: MRD-010_01_013_Lighting_V03.mov

429  AX       V     C        01:00:53:19 01:00:53:19 01:24:59:12 01:24:59:12
FCM: NON-DROP FRAME
429  AX       V     D    011 00:59:55:22 00:59:59:03 01:24:59:12 01:25:02:17
EFFECTS NAME IS CROSS DISSOLVE
* FROM CLIP NAME: MRD-010_01_013_Lighting_V03.mov
* TO CLIP NAME: MIR_LOGO-2-TL-BG_ONLY-2.png

430  AX       NONE  C        01:00:53:19 01:00:53:19 01:24:59:12 01:24:59:12
FCM: NON-DROP FRAME
430  AX       NONE  D    011 00:59:55:22 00:59:59:03 01:24:59:12 01:25:02:17
EFFECTS NAME IS CROSS DISSOLVE
* FROM CLIP NAME: MRD-010_01_013_Lighting_V03.mov
* TO CLIP NAME: MIR_LOGO-2-TL-BG_ONLY-2.png

431  AX       V     C        00:59:56:09 00:59:59:03 01:24:59:23 01:25:02:17
* FROM CLIP NAME: MIR_LOGO-2-TL-BG_ONLY-2.png

432  AX       V     C        00:59:59:03 00:59:59:03 01:25:02:17 01:25:02:17
FCM: NON-DROP FRAME
432  BL       V     D    008 00:00:00:00 00:00:01:00 01:25:02:17 01:25:04:01
EFFECTS NAME IS CROSS DISSOLVE
* FROM CLIP NAME: MIR_LOGO-2-TL-BG_ONLY-2.png
* TO CLIP NAME: BL

433  AX       NONE  C        00:59:59:03 00:59:59:03 01:25:02:17 01:25:02:17
FCM: NON-DROP FRAME
433  BL       NONE  D    008 00:00:00:00 00:00:01:00 01:25:02:17 01:25:04:01
EFFECTS NAME IS CROSS DISSOLVE
* FROM CLIP NAME: MIR_LOGO-2-TL-BG_ONLY-2.png
* TO CLIP NAME: BL

434  BL       V     C        00:00:00:00 00:00:01:00 01:25:03:01 01:25:04:01

435  BL       V     C        00:00:00:00 00:00:00:08 01:25:03:01 00:59:50:00

436  BL       V     C        00:00:00:00 00:00:00:00 01:25:04:01 01:25:04:01
FCM: NON-DROP FRAME
436  AX       V     D    008 01:00:06:09 01:00:08:01 01:25:04:01 01:25:05:17
EFFECTS NAME IS CROSS DISSOLVE
* FROM CLIP NAME: BL
* TO CLIP NAME: MRD-010_01_001_light_v01.mov

437  BL       NONE  C        00:00:00:00 00:00:00:00 01:25:04:01 01:25:04:01
FCM: NON-DROP FRAME
437  AX       NONE  D    008 01:00:06:09 01:00:08:01 01:25:04:01 01:25:05:17
EFFECTS NAME IS CROSS DISSOLVE
* FROM CLIP NAME: BL
* TO CLIP NAME: MRD-010_01_001_light_v01.mov

438  AX       V     C        01:00:08:01 01:00:08:01 01:25:05:17 01:25:05:17
FCM: NON-DROP FRAME
438  AX       V     D    006 01:00:07:21 01:00:13:13 01:25:05:17 01:25:11:09
EFFECTS NAME IS CROSS DISSOLVE
* FROM CLIP NAME: MRD-010_01_001_light_v01.mov
* TO CLIP NAME: MRD_010_01_002_Light_v02.mov

439  AX       NONE  C        01:00:08:01 01:00:08:01 01:25:05:17 01:25:05:17
FCM: NON-DROP FRAME
439  AX       NONE  D    006 01:00:07:21 01:00:13:13 01:25:05:17 01:25:11:09
EFFECTS NAME IS CROSS DISSOLVE
* FROM CLIP NAME: MRD-010_01_001_light_v01.mov
* TO CLIP NAME: MRD_010_01_002_Light_v02.mov

440  AX       V     C        01:00:13:13 01:00:17:15 01:25:11:09 01:25:15:11
* FROM CLIP NAME: MRD-010_01_003_Lighting_V03.mov

441  AX       V     C        01:00:17:17 01:00:19:08 01:25:15:11 01:25:17:02
* FROM CLIP NAME: MRD_010_01_004_Light_v02.mov

442  AX       V     C        01:00:19:08 01:00:22:04 01:25:17:02 01:25:19:22
* FROM CLIP NAME: MRD_010_01_005_Light_v02.mov

443  AX       V     C        01:00:22:04 01:00:23:23 01:25:19:22 01:25:21:17
* FROM CLIP NAME: MRD_010_01_006_Light_v02.mov

444  AX       V     C        01:00:24:02 01:00:27:19 01:25:21:17 01:25:25:10
* FROM CLIP NAME: MRD_010_01_007_Light_v02.mov

445  AX       V     C        01:00:27:18 01:00:37:01 01:25:25:10 01:25:34:17
* FROM CLIP NAME: MRD-010_01_008_light_v01.mov

446  AX       V     C        01:00:37:02 01:00:40:05 01:25:34:17 01:25:37:20
* FROM CLIP NAME: MRD_010_01_009_Light_v02.mov

447  AX       V     C        01:00:40:03 01:00:42:11 01:25:37:20 01:25:40:04
* FROM CLIP NAME: MRD-010_01_010_light_v01.mov

448  AX       V     C        01:00:42:11 01:00:44:03 01:25:40:04 01:25:41:20
* FROM CLIP NAME: MRD_010_01_011_Light_v02.mov

449  AX       V     C        01:00:44:03 01:00:48:11 01:25:41:20 01:25:46:04
* FROM CLIP NAME: MRD_010_01_012_Light_v02.mov

450  AX       V     C        01:00:48:11 01:00:53:19 01:25:46:04 01:25:51:12
* FROM CLIP NAME: MRD-010_01_013_Lighting_V03.mov

451  AX       V     C        01:00:53:19 01:00:53:19 01:25:51:12 01:25:51:12
FCM: NON-DROP FRAME
451  AX       V     D    011 00:59:55:22 00:59:59:03 01:25:51:12 01:25:54:17
EFFECTS NAME IS CROSS DISSOLVE
* FROM CLIP NAME: MRD-010_01_013_Lighting_V03.mov
* TO CLIP NAME: MIR_LOGO-2-TL-BadgeOnly-2.png

452  AX       NONE  C        01:00:53:19 01:00:53:19 01:25:51:12 01:25:51:12
FCM: NON-DROP FRAME
452  AX       NONE  D    011 00:59:55:22 00:59:59:03 01:25:51:12 01:25:54:17
EFFECTS NAME IS CROSS DISSOLVE
* FROM CLIP NAME: MRD-010_01_013_Lighting_V03.mov
* TO CLIP NAME: MIR_LOGO-2-TL-BadgeOnly-2.png

453  AX       V     C        00:59:56:09 00:59:59:03 01:25:51:23 01:25:54:17
* FROM CLIP NAME: MIR_LOGO-2-TL-BadgeOnly-2.png

454  AX       V     C        00:59:59:03 00:59:59:03 01:25:54:17 01:25:54:17
FCM: NON-DROP FRAME
454  BL       V     D    008 00:00:00:00 00:00:01:00 01:25:54:17 01:25:56:01
EFFECTS NAME IS CROSS DISSOLVE
* FROM CLIP NAME: MIR_LOGO-2-TL-BadgeOnly-2.png
* TO CLIP NAME: BL

455  AX       NONE  C        00:59:59:03 00:59:59:03 01:25:54:17 01:25:54:17
FCM: NON-DROP FRAME
455  BL       NONE  D    008 00:00:00:00 00:00:01:00 01:25:54:17 01:25:56:01
EFFECTS NAME IS CROSS DISSOLVE
* FROM CLIP NAME: MIR_LOGO-2-TL-BadgeOnly-2.png
* TO CLIP NAME: BL

456  BL       V     C        00:00:00:00 00:00:01:00 01:25:55:01 01:25:56:01

457  AX       V     C        00:59:56:09 01:00:00:10 01:25:56:01 01:26:00:02
* FROM CLIP NAME: MIR_LOGO-2-TL-Disney_Only.png

458  BL       V     C        00:00:00:00 00:00:01:00 01:26:00:02 01:26:01:02

459  AX       V     C        00:59:56:09 01:00:00:09 01:26:01:02 01:26:05:02
* FROM CLIP NAME: MIR_LOGO-2-TL-Badge_Disney.png

460  BL       V     C        00:00:00:00 00:00:01:00 01:26:05:02 01:26:06:02

461  AX       V     C        00:59:56:09 01:00:00:09 01:26:06:02 01:26:10:02
* FROM CLIP NAME: MIR_LOGO-2-TL-Badge_NODisney.png

462  BL       V     C        00:00:00:00 00:00:01:00 01:26:10:02 01:26:11:02

463  AX       V     C        00:59:56:09 01:00:00:09 01:26:11:02 01:26:15:02
* FROM CLIP NAME: MIR_LOGO-2-TL-BG_ONLY-2.png

464  BL       V     C        00:00:00:00 00:00:01:00 01:26:15:02 01:26:16:02

465  AX       V     C        00:59:56:09 00:59:57:18 01:26:16:02 01:26:17:11
* FROM CLIP NAME: 01-exec-sascha-4_TL.png

466  AX       V     C        00:59:56:09 00:59:57:18 01:26:17:11 01:26:18:20
* FROM CLIP NAME: 02-execs-6_TL.png

467  AX       V     C        00:59:56:09 00:59:57:17 01:26:18:20 01:26:20:04
* FROM CLIP NAME: 04-sup-director-2-TL.png

468  AX       V     C        00:59:56:09 00:59:57:17 01:26:20:04 01:26:21:12
* FROM CLIP NAME: 05-producers-TL.png

469  AX       V     C        00:59:56:09 00:59:57:17 01:26:21:12 01:26:22:20
* FROM CLIP NAME: 06-story-editor-2-TL.png

470  AX       V     C        00:59:56:09 00:59:57:18 01:26:22:20 01:26:24:05
* FROM CLIP NAME: 07-voice-3-1-TL.png

471  AX       V     C        00:59:56:09 00:59:57:18 01:26:24:05 01:26:25:14
* FROM CLIP NAME: 08-voice-5-2_TL.png

472  AX       V     C        00:59:56:09 00:59:57:18 01:26:25:14 01:26:26:23
* FROM CLIP NAME: 09-voice-5-3_TL.png

473  AX       V     C        00:59:56:09 00:59:57:17 01:26:26:23 01:26:28:07
* FROM CLIP NAME: 10-art-director-2-TL.png

474  AX       V     C        00:59:56:09 00:59:57:17 01:26:28:07 01:26:29:15
* FROM CLIP NAME: 11-design-5_TL.png

475  AX       V     C        00:59:56:09 00:59:57:17 01:26:29:15 01:26:30:23
* FROM CLIP NAME: 12-sb-rev-tech-5_TL.png

476  AX       V     C        00:59:56:09 00:59:57:17 01:26:30:23 01:26:32:07
* FROM CLIP NAME: 13-main-title-5_TL.png

477  AX       V     C        00:59:56:09 00:59:57:17 01:26:32:07 01:26:33:15
* FROM CLIP NAME: 14-songs-3_TL.png

478  AX       V     C        00:59:56:09 00:59:57:17 01:26:33:15 01:26:34:23
* FROM CLIP NAME: 15-music-by-2-TL.png

479  AX       V     C        00:59:56:09 00:59:57:17 01:26:34:23 01:26:36:07
* FROM CLIP NAME: 16-technicolor-TL.png

480  AX       V     C        00:59:56:09 00:59:57:18 01:26:36:07 01:26:37:16
* FROM CLIP NAME: 17-editorial-6_TL.png

481  AX       V     C        00:59:56:09 00:59:57:18 01:26:37:16 01:26:39:01
* FROM CLIP NAME: 18-sound-TL.png

482  AX       V     C        00:59:56:09 00:59:57:18 01:26:39:01 01:26:40:10
* FROM CLIP NAME: 19-production-4_TL.png

483  AX       V     C        00:59:56:09 00:59:57:17 01:26:40:10 01:26:41:18
* FROM CLIP NAME: 20-consultants-TL.png

484  AX       V     C        00:59:56:09 00:59:57:17 01:26:41:18 01:26:43:02
* FROM CLIP NAME: 21-IATSE-2-TL.png
