TITLE:   LIS_203_EDL_181219 
FCM: NON-DROP FRAME
000001  NETFLIXIDENT_23976_189AR_4096X21 V     C        00:00:00:01 00:00:04:01 01:00:00:00 01:00:04:00 
*FROM CLIP NAME:  NETFLIXIDENT_23976_189AR_4096X2160_RGBFULLRANGE_10BIT_00096_[1..96].NEW.01 
*REEL: NETFLIXIDENT_23976_189AR_4096X2 
*SOURCE FILE: NETFLIXIDENT_23976_189AR_4096X2160_RGBFULLRANGE_10BIT_00096_00001.DPX
000002  100_NIT                          V     C        00:00:05:00 00:01:13:00 01:00:04:00 01:01:12:00 
*FROM CLIP NAME:  LIS_SEASON1_103_DNX115_SDR_1920_1080_20180330 
*SOURCE FILE: 100_NIT
000003  BL                               V     C        00:00:00:00 00:00:00:10 01:01:12:00 01:01:12:10 
*SOURCE FILE: (NULL)
000004  B090_C005_0319XX                 V     C        19:36:18:07 19:36:34:23 01:01:12:10 01:01:29:02 
*FROM CLIP NAME:  203_1-5* 
*LOC: 01:01:23:10 YELLOW  √DISTANT LIGHT FLICKER 
*ASC_SOP (0.9730 0.9728 0.9656)(0.0034 0.0075 0.0094)(0.9900 0.9903 1.0000) 
*ASC_SAT 0.91284 
*SOURCE FILE: B090_C005_0319XX
000005  B090_C005_0319XX                 V     C        19:36:34:23 19:36:34:23 01:01:29:02 01:01:29:02 
000005  AX                               V     D    012 01:00:00:00 01:00:00:12 01:01:29:02 01:01:29:14 
*FROM CLIP NAME:  203_1-5* 
*LOC: 01:01:40:02 YELLOW  √DISTANT LIGHT FLICKER 
*ASC_SOP (0.9730 0.9728 0.9656)(0.0034 0.0075 0.0094)(0.9900 0.9903 1.0000) 
*ASC_SAT 0.91284 
*SOURCE FILE: B090_C005_0319XX
000006  AX                               V     C        01:00:00:00 01:00:00:00 01:01:29:14 01:01:29:14 
000006  C034_C004_1130QO                 V     D    012 11:02:23:11 11:02:34:20 01:01:29:14 01:01:40:23 
*FROM CLIP NAME:  203_X1A-2 
*TO CLIP NAME:  203_X1A-2 
*ASC_SOP (1.0000 1.0000 1.0000)(-0.0037 -0.0036 0.0000)(0.9900 0.9941 0.9885) 
*ASC_SAT 0.87514 
*SOURCE FILE: (NULL)
000007  C034_C004_1130QO                 V     C        11:02:34:20 11:02:34:20 01:01:40:23 01:01:40:23 
000007  AX                               V     D    012 01:00:00:00 01:00:00:12 01:01:40:23 01:01:41:11 
*FROM CLIP NAME:  203_X1A-2 
*ASC_SOP (1.0000 1.0000 1.0000)(-0.0037 -0.0036 0.0000)(0.9900 0.9941 0.9885) 
*ASC_SAT 0.87514 
*SOURCE FILE: C034_C004_1130QO
000008  AX                               V     C        01:00:00:00 01:00:00:00 01:01:41:11 01:01:41:11 
000008  C034_C001_1130UY                 V     D    012 10:46:26:22 10:46:28:08 01:01:41:11 01:01:41:23 
M2      AX                                        072.0 01:00:00:00 
M2      C034_C001_1130UY                          072.0 10:46:26:22 
*FROM CLIP NAME:  203_X1-1* 
*TO CLIP NAME:  203_X1-1* 
*ASC_SOP (1.0000 1.0000 1.0000)(-0.0037 -0.0036 0.0000)(0.9900 0.9941 0.9885) 
*ASC_SAT 0.87514 
*SOURCE FILE: (NULL)
000009  C034_C001_1130UY                 V     C        10:46:28:10 10:46:58:08 01:01:41:23 01:01:51:23 
M2      C034_C001_1130UY                          072.0 10:46:28:10 
*FROM CLIP NAME:  203_X1-1* 
*ASC_SOP (1.0000 1.0000 1.0000)(-0.0037 -0.0036 0.0000)(0.9900 0.9941 0.9885) 
*ASC_SAT 0.87514 
*SOURCE FILE: C034_C001_1130UY
000010  A141_C003_1108K1                 V     C        12:01:17:17 12:01:18:18 01:01:51:23 01:01:53:00 
*FROM CLIP NAME:  203_2A-1.2* 
*ASC_SOP (1.0000 1.0000 1.0000)(-0.0062 -0.0061 -0.0025)(0.9806 0.9854 0.9796) 
*ASC_SAT 0.87514 
*SOURCE FILE: A141_C003_1108K1
000011  A141_C008_11088C                 V     C        12:36:50:17 12:37:03:07 01:01:53:00 01:02:05:14 
*FROM CLIP NAME:  203_2C-3.2* 
*ASC_SOP (1.0000 1.0000 1.0000)(-0.0062 -0.0061 -0.0025)(0.9806 0.9854 0.9796) 
*ASC_SAT 0.87514 
*SOURCE FILE: A141_C008_11088C
000012  A141_C020_1108PL                 V     C        14:01:59:22 14:02:04:01 01:02:05:14 01:02:09:17 
*FROM CLIP NAME:  203_3C-2* 
*LOC: 01:02:07:11 WHITE   ONLINE: DARK SCAN LINES FIX PLS 
*ASC_SOP (1.0000 1.0000 1.0000)(-0.0062 -0.0061 -0.0025)(0.9806 0.9854 0.9796) 
*ASC_SAT 0.87514 
*SOURCE FILE: A141_C020_1108PL
000013  A141_C011_1108TE                 V     C        12:54:20:03 12:54:32:05 01:02:09:17 01:02:21:19 
*FROM CLIP NAME:  203_3-2* 
*ASC_SOP (1.0000 1.0000 1.0000)(-0.0062 -0.0061 -0.0025)(0.9806 0.9854 0.9796) 
*ASC_SAT 0.87514 
*SOURCE FILE: A141_C011_1108TE
000014  A141_C015_1108YQ                 V     C        13:14:53:18 13:14:59:19 01:02:21:19 01:02:27:20 
*FROM CLIP NAME:  203_3A-4* 
*ASC_SOP (1.0000 1.0000 1.0000)(-0.0062 -0.0061 -0.0025)(0.9806 0.9854 0.9796) 
*ASC_SAT 0.87514 
*SOURCE FILE: A141_C015_1108YQ
000015  A141_C017_11080E                 V     C        13:34:29:13 13:34:41:07 01:02:27:20 01:02:39:14 
*FROM CLIP NAME:  203_3B-2* 
*ASC_SOP (1.0000 1.0000 1.0000)(-0.0062 -0.0061 -0.0025)(0.9806 0.9854 0.9796) 
*ASC_SAT 0.87514 
*SOURCE FILE: A141_C017_11080E
000016  A141_C011_1108TE                 V     C        12:54:50:22 12:54:53:07 01:02:39:14 01:02:41:23 
*FROM CLIP NAME:  203_3-2* 
*LOC: 01:02:39:19 YELLOW  √LIGHT FLICKER 
*ASC_SOP (1.0000 1.0000 1.0000)(-0.0062 -0.0061 -0.0025)(0.9806 0.9854 0.9796) 
*ASC_SAT 0.87514 
*SOURCE FILE: A141_C011_1108TE
000017  A141_C023_1108Y1                 V     C        15:00:07:00 15:00:48:00 01:02:41:23 01:03:07:06 
M2      A141_C023_1108Y1                          038.9 15:00:07:00 
*FROM CLIP NAME:  203_3D-3* (48FPS) 
*ASC_SOP (1.0000 1.0000 1.0000)(-0.0062 -0.0061 -0.0025)(0.9806 0.9854 0.9796) 
*ASC_SAT 0.87514 
*SOURCE FILE: A141_C023_1108Y1
000018  A142_C006_1108DJ                 V     C        15:52:23:22 15:52:26:00 01:03:07:06 01:03:09:08 
*FROM CLIP NAME:  203_V3F-4* 
*LOC: 01:03:08:04 GREEN   203_003_010---PV203_003_810 -SAR  -- 16 FRAME HANDLES 
*ASC_SOP (1.0031 1.0031 1.0031)(-0.0077 -0.0076 -0.0040)(0.9811 0.9868 0.9775) 
*ASC_SAT 0.87514 
*SOURCE FILE: A142_C006_1108DJ
000019  A141_C023_1108Y1                 V     C        15:00:46:11 15:00:46:19 01:03:09:08 01:03:09:16 
*FROM CLIP NAME:  203_3D-3* (48FPS) 
*ASC_SOP (1.0000 1.0000 1.0000)(-0.0062 -0.0061 -0.0025)(0.9806 0.9854 0.9796) 
*ASC_SAT 0.87514 
*SOURCE FILE: A141_C023_1108Y1
000020  A142_C006_1108DJ                 V     C        15:52:26:02 15:52:26:04 01:03:09:16 01:03:09:18 
*FROM CLIP NAME:  203_V3F-4* 
*LOC: 01:03:09:17 GREEN   203_003_013---PV203_003_813 - SAR MOVES OVER WILL 
*ASC_SOP (1.0031 1.0031 1.0031)(-0.0077 -0.0076 -0.0040)(0.9811 0.9868 0.9775) 
*ASC_SAT 0.87514 
*SOURCE FILE: A142_C006_1108DJ
000021  A141_C023_1108Y1                 V     C        15:00:36:00 15:00:36:01 01:03:09:18 01:03:09:19 
*FROM CLIP NAME:  203_3D-3* (24FPS) 
*ASC_SOP (1.0000 1.0000 1.0000)(-0.0062 -0.0061 -0.0025)(0.9806 0.9854 0.9796) 
*ASC_SAT 0.87514 
*SOURCE FILE: A141_C023_1108Y1
000022  A142_C006_1108DJ                 V     C        15:52:26:05 15:52:26:07 01:03:09:19 01:03:09:21 
*FROM CLIP NAME:  203_V3F-4* 
*LOC: 01:03:09:20 GREEN   203_003_015---PV203_003_815 - SAR MOVES OVER WILL 
*ASC_SOP (1.0031 1.0031 1.0031)(-0.0077 -0.0076 -0.0040)(0.9811 0.9868 0.9775) 
*ASC_SAT 0.87514 
*SOURCE FILE: A142_C006_1108DJ
000023  A141_C023_1108Y1                 V     C        15:00:36:03 15:00:36:05 01:03:09:21 01:03:09:23 
*FROM CLIP NAME:  203_3D-3* (24FPS) 
*ASC_SOP (1.0000 1.0000 1.0000)(-0.0062 -0.0061 -0.0025)(0.9806 0.9854 0.9796) 
*ASC_SAT 0.87514 
*SOURCE FILE: A141_C023_1108Y1
000024  A142_C006_1108DJ                 V     C        15:52:26:08 15:52:26:09 01:03:09:23 01:03:10:00 
*FROM CLIP NAME:  203_V3F-4* 
*LOC: 01:03:09:23 GREEN   203_003_017---PV203_003_817 - SAR MOVES OVER WILL 
*ASC_SOP (1.0031 1.0031 1.0031)(-0.0077 -0.0076 -0.0040)(0.9811 0.9868 0.9775) 
*ASC_SAT 0.87514 
*SOURCE FILE: A142_C006_1108DJ
000025  A141_C023_1108Y1                 V     C        15:00:36:06 15:00:36:08 01:03:10:00 01:03:10:02 
*FROM CLIP NAME:  203_3D-3* (24FPS) 
*ASC_SOP (1.0000 1.0000 1.0000)(-0.0062 -0.0061 -0.0025)(0.9806 0.9854 0.9796) 
*ASC_SAT 0.87514 
*SOURCE FILE: A141_C023_1108Y1
000026  A142_C006_1108DJ                 V     C        15:52:26:10 15:52:26:14 01:03:10:02 01:03:10:06 
*FROM CLIP NAME:  203_V3F-4* 
*LOC: 01:03:10:04 GREEN   203_003_020---PV203_003_820_SCARY SAR FACE 
*ASC_SOP (1.0031 1.0031 1.0031)(-0.0077 -0.0076 -0.0040)(0.9811 0.9868 0.9775) 
*ASC_SAT 0.87514 
*SOURCE FILE: A142_C006_1108DJ
000027  A141_C025_1108RH                 V     C        15:16:13:09 15:16:13:16 01:03:10:06 01:03:10:13 
*FROM CLIP NAME:  203_3E-2* (24FPS) 
*ASC_SOP (1.0000 1.0000 1.0000)(-0.0212 -0.0211 -0.0175)(0.9026 0.9074 0.9016) 
*ASC_SAT 0.87514 
*SOURCE FILE: A141_C025_1108RH
000028  A142_C009_1108AE                 V     C        16:12:35:05 16:12:35:17 01:03:10:13 01:03:11:01 
*FROM CLIP NAME:  203_3G-2* 
*ASC_SOP (1.0066 1.0066 1.0066)(-0.0162 -0.0161 -0.0125)(0.9678 0.9579 0.9657) 
*ASC_SAT 0.87514 
*SOURCE FILE: A142_C009_1108AE
000029  A142_C014_1108WQ                 V     C        17:37:14:14 17:37:48:13 01:03:11:01 01:03:45:00 
*FROM CLIP NAME:  203_V5-4* 
*LOC: 01:03:17:22 YELLOW  √ WHATEVER CHIME WAS USED IN THE OPENING "GO FISH" SCENE IN 101 
*LOC: 01:03:40:17 GREEN   203_005_010 - LOOKING OUT WINDOW APPROACHING THE RESOLUTE 
*ASC_SOP (1.0031 1.0031 1.0031)(-0.0077 -0.0076 -0.0040)(0.9800 0.9880 0.9774) 
*ASC_SAT 0.87514 
*SOURCE FILE: A142_C014_1108WQ
000030  A139_C008_1107WV                 V     C        18:42:06:20 18:42:35:21 01:03:45:00 01:04:14:01 
*FROM CLIP NAME:  203_6-4.2* 
*ASC_SOP (1.0000 1.0000 1.0000)(-0.0118 -0.0162 -0.0066)(0.9808 0.9848 0.9798) 
*ASC_SAT 0.91572 
*SOURCE FILE: A139_C008_1107WV
000031  A139_C012_110734                 V     C        19:09:22:11 19:09:25:21 01:04:14:01 01:04:17:11 
*FROM CLIP NAME:  203_V6B-2* 
*LOC: 01:04:15:16 GREEN   203_006_010 - LOOKING UP AND OUT WINDOW APPROACHING RESOLUTE 
*ASC_SOP (1.0000 1.0000 1.0000)(-0.0118 -0.0162 -0.0066)(0.9808 0.9848 0.9798) 
*ASC_SAT 0.91572 
*SOURCE FILE: A139_C012_110734
000032  BL                               V     C        00:00:00:00 00:00:04:14 01:04:17:11 01:04:22:01 
*SOURCE FILE: (NULL)
000033  A139_C008_1107WV                 V     C        18:42:46:23 18:42:51:00 01:04:22:01 01:04:26:02 
*FROM CLIP NAME:  203_6-4.2* 
*ASC_SOP (1.0000 1.0000 1.0000)(-0.0118 -0.0162 -0.0066)(0.9808 0.9848 0.9798) 
*ASC_SAT 0.91572 
*SOURCE FILE: A139_C008_1107WV
000034  A139_C010_1107TZ                 V     C        18:53:52:02 18:53:56:00 01:04:26:02 01:04:30:00 
*FROM CLIP NAME:  203_6A-2* 
*ASC_SOP (1.0000 1.0000 1.0000)(-0.0118 -0.0162 -0.0066)(0.9743 0.9809 0.9902) 
*ASC_SAT 0.91572 
*SOURCE FILE: A139_C010_1107TZ
000035  A142_C022_1108QU                 V     C        19:05:09:12 19:05:17:10 01:04:30:00 01:04:37:22 
*FROM CLIP NAME:  203_7A-2* 
*LOC: 01:04:32:06 GREEN 
*ASC_SOP (1.0031 1.0031 1.0031)(-0.0077 -0.0076 -0.0040)(0.9802 0.9886 0.9766) 
*ASC_SAT 0.87514 
*SOURCE FILE: A142_C022_1108QU
000036  A142_C025_1108EP                 V     C        19:23:02:18 19:23:05:09 01:04:37:22 01:04:40:13 
*FROM CLIP NAME:  203_V7B-3* 
*LOC: 01:04:39:00 GREEN 
*ASC_SOP (1.0031 1.0031 1.0031)(-0.0077 -0.0076 -0.0040)(0.9802 0.9886 0.9766) 
*ASC_SAT 0.87514 
*SOURCE FILE: A142_C025_1108EP
000037  A142_C019_1108FL                 V     C        18:25:39:18 18:25:45:01 01:04:40:13 01:04:45:20 
*FROM CLIP NAME:  203_V7-3* 
*LOC: 01:04:43:04 GREEN   203_007_010 - LOOKING OUT WINDOW AT RESOLUTE DOCKING 
*ASC_SOP (1.0031 1.0031 1.0031)(-0.0077 -0.0076 -0.0040)(0.9802 0.9886 0.9766) 
*ASC_SAT 0.87514 
*SOURCE FILE: A142_C019_1108FL
000038  A142_C022_1108QU                 V     C        19:05:32:10 19:05:38:10 01:04:45:20 01:04:51:20 
*FROM CLIP NAME:  203_7A-2* 
*ASC_SOP (1.0031 1.0031 1.0031)(-0.0077 -0.0076 -0.0040)(0.9802 0.9886 0.9766) 
*ASC_SAT 0.87514 
*SOURCE FILE: A142_C022_1108QU
000039  A142_C025_1108EP                 V     C        19:23:18:17 19:23:20:13 01:04:51:20 01:04:53:16 
*FROM CLIP NAME:  203_V7B-3* 
*ASC_SOP (1.0031 1.0031 1.0031)(-0.0077 -0.0076 -0.0040)(0.9802 0.9886 0.9766) 
*ASC_SAT 0.87514 
*SOURCE FILE: A142_C025_1108EP
000040  A142_C022_1108QU                 V     C        19:05:41:14 19:05:45:20 01:04:53:16 01:04:57:22 
*FROM CLIP NAME:  203_7A-2* 
*ASC_SOP (1.0031 1.0031 1.0031)(-0.0077 -0.0076 -0.0040)(0.9802 0.9886 0.9766) 
*ASC_SAT 0.87514 
*SOURCE FILE: A142_C022_1108QU
000041  A142_C025_1108EP                 V     C        19:23:23:17 19:23:25:10 01:04:57:22 01:04:59:15 
*FROM CLIP NAME:  203_V7B-3* 
*ASC_SOP (1.0031 1.0031 1.0031)(-0.0077 -0.0076 -0.0040)(0.9802 0.9886 0.9766) 
*ASC_SAT 0.87514 
*SOURCE FILE: A142_C025_1108EP
000042  A142_C022_1108QU                 V     C        19:05:49:17 19:05:52:17 01:04:59:15 01:05:02:15 
*FROM CLIP NAME:  203_7A-2* 
*ASC_SOP (1.0031 1.0031 1.0031)(-0.0077 -0.0076 -0.0040)(0.9802 0.9886 0.9766) 
*ASC_SAT 0.87514 
*SOURCE FILE: A142_C022_1108QU
000043  A142_C025_1108EP                 V     C        19:23:27:16 19:23:31:08 01:05:02:15 01:05:06:07 
*FROM CLIP NAME:  203_V7B-3* 
*ASC_SOP (1.0031 1.0031 1.0031)(-0.0077 -0.0076 -0.0040)(0.9802 0.9886 0.9766) 
*ASC_SAT 0.87514 
*SOURCE FILE: A142_C025_1108EP
000044  A142_C025_1108EP                 V     C        19:23:55:05 19:23:57:22 01:05:06:07 01:05:09:00 
*FROM CLIP NAME:  203_V7B-3* 
*LOC: 01:05:07:00 GREEN   203_007_020 - STABALIZE CONSOLE 
*ASC_SOP (1.0031 1.0031 1.0031)(-0.0077 -0.0076 -0.0040)(0.9802 0.9886 0.9766) 
*ASC_SAT 0.87514 
*SOURCE FILE: A142_C025_1108EP
000045  203_008_ANIM_0140_B_01_V004.MOV  V     C        01:00:00:01 01:00:12:04 01:05:09:00 01:05:21:03 
*FROM CLIP NAME:  203_008_ANIM_0140_B_01_V004.MOV 
*LOC: 01:05:13:19 GREEN   203_008_010 - JUPITER DOCKS RESOLUTE 
*SOURCE FILE: 203_008_ANIM_0140_B_01_V004.MOV
000046  A138_C002_1107DR                 V     C        14:45:43:21 14:45:53:15 01:05:21:03 01:05:30:21 
*FROM CLIP NAME:  203_9-7.2* 
*ASC_SOP (0.9991 0.9933 1.0076)(-0.0098 -0.0119 -0.0053)(0.9992 1.0021 0.9987) 
*ASC_SAT 0.91572 
*SOURCE FILE: A138_C002_1107DR
000047  A138_C004_1107A6                 V     C        15:14:06:08 15:14:15:18 01:05:30:21 01:05:40:07 
*FROM CLIP NAME:  203_9A-2* 
*ASC_SOP (0.9991 0.9933 1.0076)(-0.0098 -0.0119 -0.0053)(0.9992 1.0021 0.9987) 
*ASC_SAT 0.91572 
*SOURCE FILE: A138_C004_1107A6
000048  A138_C002_1107DR                 V     C        14:46:02:23 14:46:12:23 01:05:40:07 01:05:50:07 
*FROM CLIP NAME:  203_9-7.2* 
*ASC_SOP (0.9991 0.9933 1.0076)(-0.0098 -0.0119 -0.0053)(0.9992 1.0021 0.9987) 
*ASC_SAT 0.91572 
*SOURCE FILE: A138_C002_1107DR
000049  A138_C004_1107A6                 V     C        15:14:26:00 15:14:28:03 01:05:50:07 01:05:52:10 
*FROM CLIP NAME:  203_9A-2* 
*ASC_SOP (0.9991 0.9933 1.0076)(-0.0098 -0.0119 -0.0053)(0.9992 1.0021 0.9987) 
*ASC_SAT 0.91572 
*SOURCE FILE: A138_C004_1107A6
000050  A138_C001_1107JG                 V     C        14:38:35:08 14:38:36:14 01:05:52:10 01:05:53:16 
*FROM CLIP NAME:  203_9-6* 
*ASC_SOP (0.9991 0.9933 1.0076)(-0.0098 -0.0119 -0.0053)(0.9992 1.0021 0.9987) 
*ASC_SAT 0.91572 
*SOURCE FILE: A138_C001_1107JG
000051  A138_C004_1107A6                 V     C        15:14:29:21 15:14:31:02 01:05:53:16 01:05:54:21 
*FROM CLIP NAME:  203_9A-2* 
*ASC_SOP (0.9991 0.9933 1.0076)(-0.0098 -0.0119 -0.0053)(0.9992 1.0021 0.9987) 
*ASC_SAT 0.91572 
*SOURCE FILE: A138_C004_1107A6
000052  A138_C002_1107DR                 V     C        14:46:17:08 14:46:21:18 01:05:54:21 01:05:59:07 
*FROM CLIP NAME:  203_9-7.2* 
*ASC_SOP (0.9991 0.9933 1.0076)(-0.0098 -0.0119 -0.0053)(0.9992 1.0021 0.9987) 
*ASC_SAT 0.91572 
*SOURCE FILE: A138_C002_1107DR
000053  A138_C004_1107A6                 V     C        15:14:40:04 15:14:45:07 01:05:59:07 01:06:04:10 
*FROM CLIP NAME:  203_9A-2* 
*ASC_SOP (0.9991 0.9933 1.0076)(-0.0098 -0.0119 -0.0053)(0.9992 1.0021 0.9987) 
*ASC_SAT 0.91572 
*SOURCE FILE: A138_C004_1107A6
000054  A138_C001_1107JG                 V     C        14:38:47:10 14:38:54:14 01:06:04:10 01:06:11:14 
*FROM CLIP NAME:  203_9-6* 
*ASC_SOP (0.9991 0.9933 1.0076)(-0.0098 -0.0119 -0.0053)(0.9992 1.0021 0.9987) 
*ASC_SAT 0.91572 
*SOURCE FILE: A138_C001_1107JG
000055  A138_C004_1107A6                 V     C        15:14:52:23 15:14:54:22 01:06:11:14 01:06:13:13 
*FROM CLIP NAME:  203_9A-2* 
*ASC_SOP (0.9991 0.9933 1.0076)(-0.0098 -0.0119 -0.0053)(0.9992 1.0021 0.9987) 
*ASC_SAT 0.91572 
*SOURCE FILE: A138_C004_1107A6
000056  A138_C002_1107DR                 V     C        14:46:40:05 14:46:45:19 01:06:13:13 01:06:19:03 
*FROM CLIP NAME:  203_9-7.2* 
*ASC_SOP (0.9991 0.9933 1.0076)(-0.0098 -0.0119 -0.0053)(0.9992 1.0021 0.9987) 
*ASC_SAT 0.91572 
*SOURCE FILE: A138_C002_1107DR
000057  A138_C015_11073M                 V     C        16:43:59:02 16:45:04:16 01:06:19:03 01:07:24:17 
*FROM CLIP NAME:  203_10B-5* 
*ASC_SOP (1.0000 1.0000 1.0000)(-0.0098 -0.0119 -0.0053)(0.9807 0.9860 0.9787) 
*ASC_SAT 0.91572 
*SOURCE FILE: A138_C015_11073M
000058  A139_C003_1107PW                 V     C        17:38:47:03 17:38:50:10 01:07:24:17 01:07:28:00 
*FROM CLIP NAME:  203_10E-3** 
*ASC_SOP (1.0000 1.0000 1.0000)(-0.0098 -0.0119 -0.0053)(0.9765 0.9883 0.9806) 
*ASC_SAT 0.91572 
*SOURCE FILE: A139_C003_1107PW
000059  A138_C019_1107C5                 V     C        17:12:35:04 17:12:39:04 01:07:28:00 01:07:32:00 
*FROM CLIP NAME:  203_10D-1.2 
*ASC_SOP (1.0000 1.0000 1.0000)(-0.0098 -0.0119 -0.0053)(0.9765 0.9883 0.9806) 
*ASC_SAT 0.91572 
*SOURCE FILE: A138_C019_1107C5
000060  A139_C001_1107ME                 V     C        17:30:53:16 17:30:58:08 01:07:32:00 01:07:36:16 
*FROM CLIP NAME:  203_10E-1* 
*ASC_SOP (1.0000 1.0000 1.0000)(-0.0098 -0.0119 -0.0053)(0.9765 0.9883 0.9806) 
*ASC_SAT 0.91572 
*SOURCE FILE: A139_C001_1107ME
000061  A138_C013_11075S                 V     C        16:33:20:02 16:33:31:14 01:07:36:16 01:07:48:04 
*FROM CLIP NAME:  203_10B-3* 
*ASC_SOP (1.0000 1.0000 1.0000)(-0.0098 -0.0119 -0.0053)(0.9807 0.9860 0.9787) 
*ASC_SAT 0.91572 
*SOURCE FILE: A138_C013_11075S
000062  A139_C001_1107ME                 V     C        17:31:17:23 17:31:19:17 01:07:48:04 01:07:49:22 
*FROM CLIP NAME:  203_10E-1* 
*ASC_SOP (1.0000 1.0000 1.0000)(-0.0098 -0.0119 -0.0053)(0.9765 0.9883 0.9806) 
*ASC_SAT 0.91572 
*SOURCE FILE: A139_C001_1107ME
000063  A138_C019_1107C5                 V     C        17:13:10:21 17:13:12:12 01:07:49:22 01:07:51:13 
*FROM CLIP NAME:  203_10D-1.2 
*ASC_SOP (1.0000 1.0000 1.0000)(-0.0098 -0.0119 -0.0053)(0.9765 0.9883 0.9806) 
*ASC_SAT 0.91572 
*SOURCE FILE: A138_C019_1107C5
000064  A139_C001_1107ME                 V     C        17:31:31:15 17:31:38:03 01:07:51:13 01:07:58:01 
*FROM CLIP NAME:  203_10E-1* 
*ASC_SOP (1.0000 1.0000 1.0000)(-0.0098 -0.0119 -0.0053)(0.9765 0.9883 0.9806) 
*ASC_SAT 0.91572 
*SOURCE FILE: A139_C001_1107ME
000065  A138_C013_11075S                 V     C        16:33:46:05 16:33:51:16 01:07:58:01 01:08:03:12 
*FROM CLIP NAME:  203_10B-3* 
*ASC_SOP (1.0000 1.0000 1.0000)(-0.0098 -0.0119 -0.0053)(0.9807 0.9860 0.9787) 
*ASC_SAT 0.91572 
*SOURCE FILE: A138_C013_11075S
000066  A138_C018_1107KX                 V     C        16:56:57:22 16:57:02:12 01:08:03:12 01:08:08:02 
*FROM CLIP NAME:  203_10C-3* 
*ASC_SOP (1.0000 1.0000 1.0000)(-0.0098 -0.0119 -0.0053)(0.9807 0.9860 0.9787) 
*ASC_SAT 0.91572 
*SOURCE FILE: A138_C018_1107KX
000067  A138_C005_11078I                 V     C        15:29:31:11 15:29:41:13 01:08:08:02 01:08:18:04 
*FROM CLIP NAME:  203_10-1* 
*ASC_SOP (1.0000 1.0000 1.0000)(-0.0098 -0.0119 -0.0053)(0.9993 1.0024 0.9983) 
*ASC_SAT 0.91572 
*SOURCE FILE: A138_C005_11078I
000068  C025_C003_1114JJ                 V     C        11:55:56:00 11:56:00:00 01:08:18:04 01:08:22:04 
*FROM CLIP NAME:  203_X11D-1* 
*ASC_SOP (0.9829 0.9918 1.0000)(-0.0202 -0.0117 0.0000)(0.9646 0.9880 1.0000) 
*ASC_SAT 0.91327 
*SOURCE FILE: C025_C003_1114JJ
000069  C025_C004_11142W                 V     C        12:41:16:20 12:41:19:00 01:08:22:04 01:08:24:08 
*FROM CLIP NAME:  203_X11E-1* 
*ASC_SOP (0.9829 0.9918 1.0000)(-0.0202 -0.0117 0.0000)(0.9646 0.9880 1.0000) 
*ASC_SAT 0.91327 
*SOURCE FILE: C025_C004_11142W
000070  C024_C002_1114O0                 V     C        10:00:12:14 10:00:13:23 01:08:24:08 01:08:25:17 
*FROM CLIP NAME:  203_X11-2* 
*ASC_SOP (0.9701 0.9851 1.0000)(-0.0232 -0.0147 0.0000)(0.9712 0.9884 1.0000) 
*ASC_SAT 0.91327 
*SOURCE FILE: C024_C002_1114O0
000071  C024_C003_111439                 V     C        10:11:37:19 10:11:39:00 01:08:25:17 01:08:26:22 
*FROM CLIP NAME:  203_X11A-1* 
*ASC_SOP (0.9701 0.9851 1.0000)(-0.0232 -0.0147 0.0000)(0.9712 0.9884 1.0000) 
*ASC_SAT 0.91327 
*SOURCE FILE: C024_C003_111439
000072  C025_C004_11142W                 V     C        12:40:00:20 12:40:03:04 01:08:26:22 01:08:29:06 
*FROM CLIP NAME:  203_X11E-1* 
*ASC_SOP (0.9829 0.9918 1.0000)(-0.0202 -0.0117 0.0000)(0.9646 0.9880 1.0000) 
*ASC_SAT 0.91327 
*SOURCE FILE: C025_C004_11142W
000073  C024_C003_111439                 V     C        10:11:12:02 10:11:13:07 01:08:29:06 01:08:30:11 
*FROM CLIP NAME:  203_X11A-1* 
*ASC_SOP (0.9701 0.9851 1.0000)(-0.0232 -0.0147 0.0000)(0.9712 0.9884 1.0000) 
*ASC_SAT 0.91327 
*SOURCE FILE: C024_C003_111439
000074  C024_C003_111439                 V     C        10:12:02:08 10:12:04:01 01:08:30:11 01:08:32:04 
*FROM CLIP NAME:  203_X11A-1* 
*ASC_SOP (0.9701 0.9851 1.0000)(-0.0232 -0.0147 0.0000)(0.9712 0.9884 1.0000) 
*ASC_SAT 0.91327 
*SOURCE FILE: C024_C003_111439
000075  C025_C004_11142W                 V     C        12:40:31:21 12:40:39:09 01:08:32:04 01:08:39:16 
*FROM CLIP NAME:  203_X11E-1* 
*ASC_SOP (0.9829 0.9918 1.0000)(-0.0202 -0.0117 0.0000)(0.9646 0.9880 1.0000) 
*ASC_SAT 0.91327 
*SOURCE FILE: C025_C004_11142W
000076  C024_C002_1114O0                 V     C        10:01:36:22 10:01:43:06 01:08:39:16 01:08:46:00 
*FROM CLIP NAME:  203_X11-2* 
*ASC_SOP (0.9701 0.9851 1.0000)(-0.0232 -0.0147 0.0000)(0.9712 0.9884 1.0000) 
*ASC_SAT 0.91327 
*SOURCE FILE: C024_C002_1114O0
000077  C024_C003_111439                 V     C        10:13:46:04 10:13:51:09 01:08:46:00 01:08:51:05 
*FROM CLIP NAME:  203_X11A-1* 
*ASC_SOP (0.9701 0.9851 1.0000)(-0.0232 -0.0147 0.0000)(0.9712 0.9884 1.0000) 
*ASC_SAT 0.91327 
*SOURCE FILE: C024_C003_111439
000078  C025_C003_1114JJ                 V     C        11:58:40:08 11:58:42:20 01:08:51:05 01:08:53:17 
*FROM CLIP NAME:  203_X11D-1* 
*ASC_SOP (0.9829 0.9918 1.0000)(-0.0202 -0.0117 0.0000)(0.9646 0.9880 1.0000) 
*ASC_SAT 0.91327 
*SOURCE FILE: C025_C003_1114JJ
000079  C024_C003_111439                 V     C        10:14:36:22 10:14:38:13 01:08:53:17 01:08:55:08 
*FROM CLIP NAME:  203_X11A-1* 
*ASC_SOP (0.9701 0.9851 1.0000)(-0.0232 -0.0147 0.0000)(0.9712 0.9884 1.0000) 
*ASC_SAT 0.91327 
*SOURCE FILE: C024_C003_111439
000080  C025_C003_1114JJ                 V     C        11:58:49:22 11:58:52:23 01:08:55:08 01:08:58:09 
*FROM CLIP NAME:  203_X11D-1* 
*ASC_SOP (0.9829 0.9918 1.0000)(-0.0202 -0.0117 0.0000)(0.9646 0.9880 1.0000) 
*ASC_SAT 0.91327 
*SOURCE FILE: C025_C003_1114JJ
000081  C024_C002_1114O0                 V     C        10:04:16:16 10:04:20:23 01:08:58:09 01:09:02:16 
*FROM CLIP NAME:  203_X11-2* 
*ASC_SOP (0.9701 0.9851 1.0000)(-0.0232 -0.0147 0.0000)(0.9712 0.9884 1.0000) 
*ASC_SAT 0.91327 
*SOURCE FILE: C024_C002_1114O0
000082  C024_C005_1114Z9                 V     C        10:28:02:12 10:28:07:02 01:09:02:16 01:09:07:06 
*FROM CLIP NAME:  203_X11A-3PU* 
*ASC_SOP (0.9701 0.9851 1.0000)(-0.0232 -0.0147 0.0000)(0.9712 0.9884 1.0000) 
*ASC_SAT 0.91327 
*SOURCE FILE: C024_C005_1114Z9
000083  C025_C013_1114VH                 V     C        13:27:04:11 13:27:05:00 01:09:07:06 01:09:07:19 
*FROM CLIP NAME:  203_X11F-3* 
*ASC_SOP (0.9701 0.9851 1.0000)(-0.0236 -0.0150 0.0000)(0.9729 0.9902 1.0000) 
*ASC_SAT 0.91327 
*SOURCE FILE: C025_C013_1114VH
000084  C024_C006_11140L                 V     C        10:45:49:13 10:45:50:17 01:09:07:19 01:09:08:23 
*FROM CLIP NAME:  203_X11B-1* 
*ASC_SOP (0.9701 0.9851 1.0000)(-0.0232 -0.0147 0.0000)(0.9712 0.9884 1.0000) 
*ASC_SAT 0.91327 
*SOURCE FILE: C024_C006_11140L
000085  C025_C008_1114U2                 V     C        12:56:05:10 12:56:05:21 01:09:08:23 01:09:09:10 
*FROM CLIP NAME:  203_X11E-4PU* 
*ASC_SOP (0.9829 0.9918 1.0000)(-0.0202 -0.0117 0.0000)(0.9646 0.9880 1.0000) 
*ASC_SAT 0.91327 
*SOURCE FILE: C025_C008_1114U2
000086  C025_C001_1114Q7                 V     C        11:42:15:06 11:42:16:08 01:09:09:10 01:09:10:12 
*FROM CLIP NAME:  203_X11C-5 (48FPS) 
*ASC_SOP (0.9701 0.9851 1.0000)(-0.0232 -0.0147 0.0000)(0.9712 0.9884 1.0000) 
*ASC_SAT 0.91327 
*SOURCE FILE: C025_C001_1114Q7
000087  C024_C008_11147G                 V     C        10:53:57:06 10:53:57:20 01:09:10:12 01:09:11:02 
*FROM CLIP NAME:  203_X11B-3.2 PU* 
*ASC_SOP (0.9701 0.9851 1.0000)(-0.0232 -0.0147 0.0000)(0.9712 0.9884 1.0000) 
*ASC_SAT 0.91327 
*SOURCE FILE: C024_C008_11147G
000088  C025_C013_1114VH                 V     C        13:27:10:07 13:27:12:02 01:09:11:02 01:09:12:21 
*FROM CLIP NAME:  203_X11F-3* 
*ASC_SOP (0.9701 0.9851 1.0000)(-0.0236 -0.0150 0.0000)(0.9729 0.9902 1.0000) 
*ASC_SAT 0.91327 
*SOURCE FILE: C025_C013_1114VH
000089  C025_C005_11142D                 V     C        12:50:14:16 12:50:20:16 01:09:12:21 01:09:18:21 
*FROM CLIP NAME:  203_X11E-2PU 
*ASC_SOP (0.9829 0.9918 1.0000)(-0.0202 -0.0117 0.0000)(0.9646 0.9880 1.0000) 
*ASC_SAT 0.91327 
*SOURCE FILE: C025_C005_11142D
000090  C025_C004_11142W                 V     C        12:45:48:23 12:45:52:12 01:09:18:21 01:09:22:10 
*FROM CLIP NAME:  203_X11E-1* 
*ASC_SOP (0.9829 0.9918 1.0000)(-0.0202 -0.0117 0.0000)(0.9646 0.9880 1.0000) 
*ASC_SAT 0.91327 
*SOURCE FILE: C025_C004_11142W
000091  C025_C008_1114U2                 V     C        12:56:22:05 12:56:30:16 01:09:22:10 01:09:30:21 
*FROM CLIP NAME:  203_X11E-4PU* 
*ASC_SOP (0.9829 0.9918 1.0000)(-0.0202 -0.0117 0.0000)(0.9646 0.9880 1.0000) 
*ASC_SAT 0.91327 
*SOURCE FILE: C025_C008_1114U2
000092  A138_C020_1107LG                 V     C        17:19:13:00 17:19:15:12 01:09:30:21 01:09:33:09 
*FROM CLIP NAME:  203_10D-2* 
*ASC_SOP (1.0000 1.0000 1.0000)(-0.0098 -0.0119 -0.0053)(0.9765 0.9883 0.9806) 
*ASC_SAT 0.91572 
*SOURCE FILE: A138_C020_1107LG
000093  B103_C001_0401C1                 V     C        12:42:01:04 12:42:02:00 01:09:33:09 01:09:34:05 
*FROM CLIP NAME:  203_12A-1.3* 
*ASC_SOP (1.0000 0.9998 0.9926)(-0.0332 -0.0279 -0.0175)(0.9635 0.9641 0.9851) 
*ASC_SAT 0.91284 
*SOURCE FILE: B103_C001_0401C1
000094  B103_C003_0401QI                 V     C        12:45:58:11 12:45:59:21 01:09:34:05 01:09:35:15 
*FROM CLIP NAME:  203_12C-1.2* 
*ASC_SOP (1.0000 0.9998 0.9926)(-0.0332 -0.0279 -0.0175)(0.9635 0.9641 0.9851) 
*ASC_SAT 0.91284 
*SOURCE FILE: B103_C003_0401QI
000095  A165_C005_1121BV                 V     C        12:09:45:03 12:09:47:09 01:09:35:15 01:09:37:21 
*FROM CLIP NAME:  203_12-4.2* 
*ASC_SOP (1.0000 1.0000 1.0000)(-0.0261 -0.0279 -0.0133)(0.9783 0.9740 0.9848) 
*ASC_SAT 0.8252 
*SOURCE FILE: A165_C005_1121BV
000096  B103_C002_0401R5                 V     C        12:43:29:00 12:43:29:21 01:09:37:21 01:09:38:18 
*FROM CLIP NAME:  203_12B-1* 
*ASC_SOP (1.0000 0.9998 0.9926)(-0.0332 -0.0279 -0.0175)(0.9635 0.9641 0.9851) 
*ASC_SAT 0.91284 
*SOURCE FILE: B103_C002_0401R5
000097  A165_C005_1121BV                 V     C        12:09:47:16 12:10:06:11 01:09:38:18 01:09:57:13 
*FROM CLIP NAME:  203_12-4.2* 
*ASC_SOP (1.0000 1.0000 1.0000)(-0.0261 -0.0279 -0.0133)(0.9783 0.9740 0.9848) 
*ASC_SAT 0.8252 
*SOURCE FILE: A165_C005_1121BV
000098  A165_C010_1121ZU                 V     C        13:16:02:23 13:16:16:21 01:09:57:13 01:10:11:11 
*FROM CLIP NAME:  203_12E-3* 
*ASC_SOP (1.0000 1.0000 1.0000)(-0.0261 -0.0279 -0.0133)(0.9783 0.9740 0.9848) 
*ASC_SAT 0.8252 
*SOURCE FILE: A165_C010_1121ZU
000099  A165_C015_11219K                 V     C        13:51:30:18 13:51:35:19 01:10:11:11 01:10:16:12 
*FROM CLIP NAME:  203_V12F-5* 
*LOC: 01:10:14:00 GREEN   203_012_010 - GREEN SCREEN WINDOW 
*ASC_SOP (1.0000 1.0000 1.0000)(-0.0261 -0.0279 -0.0133)(0.9783 0.9740 0.9848) 
*ASC_SAT 0.8252 
*SOURCE FILE: A165_C015_11219K
000100  A165_C010_1121ZU                 V     C        13:16:22:20 13:16:26:18 01:10:16:12 01:10:20:10 
*FROM CLIP NAME:  203_12E-3* 
*ASC_SOP (1.0000 1.0000 1.0000)(-0.0261 -0.0279 -0.0133)(0.9783 0.9740 0.9848) 
*ASC_SAT 0.8252 
*SOURCE FILE: A165_C010_1121ZU
000101  A165_C015_11219K                 V     C        13:51:40:13 13:51:41:18 01:10:20:10 01:10:21:15 
*FROM CLIP NAME:  203_V12F-5* 
*LOC: 01:10:21:03 GREEN   203_012_020 - GREEN SCREEN WINDOW 
*ASC_SOP (1.0000 1.0000 1.0000)(-0.0261 -0.0279 -0.0133)(0.9783 0.9740 0.9848) 
*ASC_SAT 0.8252 
*SOURCE FILE: A165_C015_11219K
000102  C035_C003_1130Q6                 V     C        15:04:39:05 15:04:59:13 01:10:21:15 01:10:41:23 
*FROM CLIP NAME:  203_X14-3.2* 
*ASC_SOP (1.0000 1.0000 1.0000)(-0.0098 -0.0119 -0.0053)(0.9815 0.9839 0.9800) 
*ASC_SAT 0.91572 
*SOURCE FILE: C035_C003_1130Q6
000103  C035_C010_113021                 V     C        16:27:30:06 16:27:33:07 01:10:41:23 01:10:45:00 
*FROM CLIP NAME:  203_X14B-3* 
*ASC_SOP (1.0000 1.0000 1.0000)(-0.0048 -0.0053 0.0004)(0.9983 0.9818 0.9651) 
*ASC_SAT 0.91572 
*SOURCE FILE: C035_C010_113021
000104  C035_C004_1130W0                 V     C        15:11:05:09 15:11:07:16 01:10:45:00 01:10:47:07 
*FROM CLIP NAME:  203_X14-4* 
*ASC_SOP (1.0000 1.0000 1.0000)(-0.0098 -0.0119 -0.0053)(0.9815 0.9839 0.9800) 
*ASC_SAT 0.91572 
*SOURCE FILE: C035_C004_1130W0
000105  C035_C011_1130LS                 V     C        16:32:53:17 16:32:57:05 01:10:47:07 01:10:50:19 
*FROM CLIP NAME:  203_X14B-4.4* 
*ASC_SOP (1.0000 1.0000 1.0000)(-0.0048 -0.0053 0.0004)(0.9983 0.9818 0.9651) 
*ASC_SAT 0.91572 
*SOURCE FILE: C035_C011_1130LS
000106  C035_C007_1130F7                 V     C        15:52:30:21 15:52:34:06 01:10:50:19 01:10:54:04 
*FROM CLIP NAME:  203_X14A-3.2* 
*ASC_SOP (1.0000 1.0000 1.0000)(-0.0098 -0.0119 -0.0053)(0.9878 0.9842 0.9734) 
*ASC_SAT 0.91572 
*SOURCE FILE: C035_C007_1130F7
000107  C035_C010_113021                 V     C        16:27:47:09 16:27:52:13 01:10:54:04 01:10:59:08 
*FROM CLIP NAME:  203_X14B-3* 
*ASC_SOP (1.0000 1.0000 1.0000)(-0.0048 -0.0053 0.0004)(0.9983 0.9818 0.9651) 
*ASC_SAT 0.91572 
*SOURCE FILE: C035_C010_113021
000108  C035_C005_113043                 V     C        15:45:45:23 15:46:01:03 01:10:59:08 01:11:14:12 
*FROM CLIP NAME:  203_X14A-1 
*ASC_SOP (1.0000 1.0000 1.0000)(-0.0098 -0.0119 -0.0053)(0.9878 0.9842 0.9734) 
*ASC_SAT 0.91572 
*SOURCE FILE: C035_C005_113043
000109  C035_C009_1130Z2                 V     C        16:25:23:08 16:25:27:11 01:11:14:12 01:11:18:15 
*FROM CLIP NAME:  203_X14B-2 
*ASC_SOP (1.0000 1.0000 1.0000)(0.0017 0.0012 0.0069)(1.0078 0.9838 0.9535) 
*ASC_SAT 0.91572 
*SOURCE FILE: C035_C009_1130Z2
000110  C035_C007_1130F7                 V     C        15:53:12:20 15:53:15:00 01:11:18:15 01:11:20:19 
*FROM CLIP NAME:  203_X14A-3.2* 
*ASC_SOP (1.0000 1.0000 1.0000)(-0.0098 -0.0119 -0.0053)(0.9878 0.9842 0.9734) 
*ASC_SAT 0.91572 
*SOURCE FILE: C035_C007_1130F7
000111  C035_C004_1130W0                 V     C        15:11:58:21 15:12:05:00 01:11:20:19 01:11:26:22 
*FROM CLIP NAME:  203_X14-4* 
*ASC_SOP (1.0000 1.0000 1.0000)(-0.0098 -0.0119 -0.0053)(0.9815 0.9839 0.9800) 
*ASC_SAT 0.91572 
*SOURCE FILE: C035_C004_1130W0
000112  C035_C006_1130U7                 V     C        15:49:53:09 15:50:00:19 01:11:26:22 01:11:34:08 
*FROM CLIP NAME:  203_X14A-2* 
*ASC_SOP (1.0000 1.0000 1.0000)(-0.0098 -0.0119 -0.0053)(0.9878 0.9842 0.9734) 
*ASC_SAT 0.91572 
*SOURCE FILE: C035_C006_1130U7
000113  C035_C003_1130Q6                 V     C        15:05:59:06 15:06:05:19 01:11:34:08 01:11:40:21 
*FROM CLIP NAME:  203_X14-3.2* 
*ASC_SOP (1.0000 1.0000 1.0000)(-0.0098 -0.0119 -0.0053)(0.9815 0.9839 0.9800) 
*ASC_SAT 0.91572 
*SOURCE FILE: C035_C003_1130Q6
000114  15.01                            V     C        01:00:25:21 01:00:28:15 01:11:40:21 01:11:43:15 
*FROM CLIP NAME:  15.01 
*LOC: 01:11:41:09 GREEN   203_015_010 - TWIN SUNDS SET OVER AMBER PLANET 
*SOURCE FILE: 15.01
000115  A165_C019_1121HQ                 V     C        14:16:21:11 14:16:26:08 01:11:43:15 01:11:48:12 
*FROM CLIP NAME:  203_12G-3* 
*ASC_SOP (1.0000 1.0000 1.0000)(-0.0261 -0.0279 -0.0133)(0.9783 0.9740 0.9848) 
*ASC_SAT 0.8252 
*SOURCE FILE: A165_C019_1121HQ
000116  A170_C006_1123NE                 V     C        12:27:23:07 12:27:37:02 01:11:48:12 01:12:02:07 
*FROM CLIP NAME:  203_V15-6* 
*LOC: 01:11:49:13 GREEN   203_015_020 - GREEN SCREEN BEHIND KIDS RUNNING DOWN HALLWAY 
*ASC_SOP (1.0031 1.0031 1.0031)(-0.0184 -0.0205 -0.0146)(0.9801 0.9794 0.9866) 
*ASC_SAT 0.8252 
*SOURCE FILE: A170_C006_1123NE
000117  A170_C013_1123TD                 V     C        13:23:44:02 13:23:49:22 01:12:02:07 01:12:08:03 
*FROM CLIP NAME:  203_15A-6* 
*ASC_SOP (1.0031 1.0031 1.0031)(-0.0184 -0.0205 -0.0146)(0.9823 0.9756 0.9883) 
*ASC_SAT 0.8252 
*SOURCE FILE: A170_C013_1123TD
000118  A170_C006_1123NE                 V     C        12:27:43:03 12:27:51:13 01:12:08:03 01:12:16:13 
*FROM CLIP NAME:  203_V15-6* 
*LOC: 01:12:10:15 GREEN   203_015_030 - GREEN SCREEN WINDOWS OF DINING HALL 
*ASC_SOP (1.0031 1.0031 1.0031)(-0.0184 -0.0205 -0.0146)(0.9801 0.9794 0.9866) 
*ASC_SAT 0.8252 
*SOURCE FILE: A170_C006_1123NE
000119  A170_C009_1123OX                 V     C        13:10:29:03 13:10:30:11 01:12:16:13 01:12:17:21 
*FROM CLIP NAME:  203_15A-3 
*ASC_SOP (1.0031 1.0031 1.0031)(-0.0184 -0.0205 -0.0146)(0.9823 0.9756 0.9883) 
*ASC_SAT 0.8252 
*SOURCE FILE: A170_C009_1123OX
000120  A170_C005_1123QL                 V     C        12:24:42:13 12:24:48:02 01:12:17:21 01:12:23:10 
*FROM CLIP NAME:  203_V15-5* 
*LOC: 01:12:18:14 GREEN   203_015_040 - GREEN SCREEN WINDOWS OF DINING HALL 
*ASC_SOP (1.0031 1.0031 1.0031)(-0.0184 -0.0205 -0.0146)(0.9801 0.9794 0.9866) 
*ASC_SAT 0.8252 
*SOURCE FILE: A170_C005_1123QL
000121  A170_C011_1123NR                 V     C        13:19:00:18 13:19:09:02 01:12:23:10 01:12:31:18 
*FROM CLIP NAME:  203_15A-5* 
*ASC_SOP (1.0031 1.0031 1.0031)(-0.0184 -0.0205 -0.0146)(0.9823 0.9756 0.9883) 
*ASC_SAT 0.8252 
*SOURCE FILE: A170_C011_1123NR
000122  A170_C006_1123NE                 V     C        12:28:10:23 12:28:15:00 01:12:31:18 01:12:35:19 
*FROM CLIP NAME:  203_V15-6* 
*LOC: 01:12:33:10 GREEN   203_015_050 - GREEN SCREEN WINDOWS OF DINING HALL 
*ASC_SOP (1.0031 1.0031 1.0031)(-0.0184 -0.0205 -0.0146)(0.9801 0.9794 0.9866) 
*ASC_SAT 0.8252 
*SOURCE FILE: A170_C006_1123NE
000123  A170_C014_1123R1                 V     C        13:40:28:23 13:40:31:02 01:12:35:19 01:12:37:22 
*FROM CLIP NAME:  203_15B-1.3* 
*ASC_SOP (1.0031 1.0031 1.0031)(-0.0184 -0.0205 -0.0146)(0.9822 0.9780 0.9861) 
*ASC_SAT 0.8252 
*SOURCE FILE: A170_C014_1123R1
000124  A170_C013_1123TD                 V     C        13:24:20:08 13:25:01:23 01:12:37:22 01:13:19:13 
*FROM CLIP NAME:  203_15A-6* 
*ASC_SOP (1.0031 1.0031 1.0031)(-0.0184 -0.0205 -0.0146)(0.9823 0.9756 0.9883) 
*ASC_SAT 0.8252 
*SOURCE FILE: A170_C013_1123TD
000125  A170_C017_112357                 V     C        14:16:46:05 14:16:59:17 01:13:19:13 01:13:33:01 
*FROM CLIP NAME:  203_16-2* 
*ASC_SOP (1.0123 1.0123 1.0123)(-0.0238 -0.0259 -0.0199)(0.9957 0.9941 1.0022) 
*ASC_SAT 0.8252 
*SOURCE FILE: A170_C017_112357
000126  C036_C002_1130GU                 V     C        17:05:06:12 17:05:13:19 01:13:33:01 01:13:40:08 
*FROM CLIP NAME:  203_X17-2* 
*ASC_SOP (1.0000 1.0000 1.0000)(-0.0095 -0.0087 0.0016)(0.9845 0.9866 0.9957) 
*ASC_SAT 0.8252 
*SOURCE FILE: C036_C002_1130GU
000127  C036_C004_11300T                 V     C        17:26:30:09 17:26:46:12 01:13:40:08 01:13:56:11 
*FROM CLIP NAME:  203_X17A-2* 
*ASC_SOP (1.0000 0.9885 0.9963)(-0.0061 -0.0054 0.0016)(0.9747 0.9841 0.9964) 
*ASC_SAT 0.8252 
*SOURCE FILE: C036_C004_11300T
000128  C036_C009_113097                 V     C        18:17:28:18 18:18:09:15 01:13:56:11 01:14:37:08 
*FROM CLIP NAME:  203_X17B-5* 
*ASC_SOP (1.0000 0.9885 0.9963)(-0.0061 -0.0054 0.0016)(0.9747 0.9841 0.9964) 
*ASC_SAT 0.8252 
*SOURCE FILE: C036_C009_113097
000129  C036_C009_113097                 V     C        18:18:09:15 18:18:09:15 01:14:37:08 01:14:37:08 
000129  C036_C009_113097                 V     D    012 18:18:17:05 18:18:46:22 01:14:37:08 01:15:07:01 
*FROM CLIP NAME:  203_X17B-5* 
*TO CLIP NAME:  203_X17B-5* 
*ASC_SOP (1.0000 0.9885 0.9963)(-0.0061 -0.0054 0.0016)(0.9747 0.9841 0.9964) 
*ASC_SAT 0.8252 
*SOURCE FILE: C036_C009_113097
000130  C026_C001_1114PB                 V     C        15:00:19:23 15:00:21:16 01:15:07:01 01:15:08:18 
*FROM CLIP NAME:  203_X19B-1* 
*ASC_SOP (0.9814 0.9903 1.0000)(-0.0177 -0.0121 0.0000)(0.9809 0.9922 0.9945) 
*ASC_SAT 0.91327 
*SOURCE FILE: C026_C001_1114PB
000131  C026_C001_1114PB                 V     C        14:59:22:11 14:59:23:12 01:15:08:18 01:15:09:19 
*FROM CLIP NAME:  203_X19B-1* 
*ASC_SOP (0.9814 0.9903 1.0000)(-0.0177 -0.0121 0.0000)(0.9809 0.9922 0.9945) 
*ASC_SAT 0.91327 
*SOURCE FILE: C026_C001_1114PB
000132  C026_C001_1114PB                 V     C        14:58:55:19 14:58:57:12 01:15:09:19 01:15:11:12 
*FROM CLIP NAME:  203_X19B-1* 
*ASC_SOP (0.9814 0.9903 1.0000)(-0.0177 -0.0121 0.0000)(0.9809 0.9922 0.9945) 
*ASC_SAT 0.91327 
*SOURCE FILE: C026_C001_1114PB
000133  C025_C015_1114XQ                 V     C        14:24:38:16 14:24:53:12 01:15:11:12 01:15:26:08 
*FROM CLIP NAME:  203_X19-2** 
*ASC_SOP (0.9701 0.9851 1.0000)(-0.0236 -0.0150 0.0000)(0.9729 0.9902 1.0000) 
*ASC_SAT 0.91327 
*SOURCE FILE: C025_C015_1114XQ
000134  C027_C001_1114KC                 V     C        16:18:42:04 16:18:49:18 01:15:26:08 01:15:33:22 
*FROM CLIP NAME:  203_X19E-1* 
*LOC: 01:15:28:23 GREEN   203_019_010 - SPLIT SCREEN SISTER TALK 
*ASC_SOP (0.9401 0.9762 1.0131)(-0.0236 -0.0150 0.0000)(0.9853 0.9988 0.9951) 
*ASC_SAT 0.91327 
*SOURCE FILE: C027_C001_1114KC
000135  C026_C003_11149B                 V     C        15:27:57:22 15:28:01:07 01:15:33:22 01:15:37:07 
*FROM CLIP NAME:  203_X19C-2** 
*ASC_SOP (0.9814 0.9903 1.0000)(-0.0177 -0.0121 0.0000)(0.9859 0.9931 0.9886) 
*ASC_SAT 0.91327 
*SOURCE FILE: C026_C003_11149B
000136  C025_C017_1114Z0                 V     C        14:45:22:17 14:45:26:10 01:15:37:07 01:15:41:00 
*FROM CLIP NAME:  203_X19A-2.2* BEST 
*ASC_SOP (0.9814 0.9903 1.0000)(-0.0177 -0.0121 0.0000)(0.9556 0.9787 1.0000) 
*ASC_SAT 0.91327 
*SOURCE FILE: C025_C017_1114Z0
000137  C026_C003_11149B                 V     C        15:28:20:09 15:28:29:21 01:15:41:00 01:15:50:12 
*FROM CLIP NAME:  203_X19C-2** 
*ASC_SOP (0.9814 0.9903 1.0000)(-0.0177 -0.0121 0.0000)(0.9859 0.9931 0.9886) 
*ASC_SAT 0.91327 
*SOURCE FILE: C026_C003_11149B
000138  C025_C015_1114XQ                 V     C        14:25:41:21 14:25:43:12 01:15:50:12 01:15:52:03 
*FROM CLIP NAME:  203_X19-2** 
*ASC_SOP (0.9701 0.9851 1.0000)(-0.0236 -0.0150 0.0000)(0.9729 0.9902 1.0000) 
*ASC_SAT 0.91327 
*SOURCE FILE: C025_C015_1114XQ
000139  C026_C003_11149B                 V     C        15:28:37:06 15:28:40:06 01:15:52:03 01:15:55:03 
*FROM CLIP NAME:  203_X19C-2** 
*ASC_SOP (0.9814 0.9903 1.0000)(-0.0177 -0.0121 0.0000)(0.9859 0.9931 0.9886) 
*ASC_SAT 0.91327 
*SOURCE FILE: C026_C003_11149B
000140  C025_C016_11149I                 V     C        14:37:34:20 14:37:39:18 01:15:55:03 01:16:00:01 
*FROM CLIP NAME:  203_X19A-1* 
*ASC_SOP (0.9814 0.9903 1.0000)(-0.0177 -0.0121 0.0000)(0.9556 0.9787 1.0000) 
*ASC_SAT 0.91327 
*SOURCE FILE: C025_C016_11149I
000141  C026_C005_11144P                 V     C        15:40:08:18 15:40:10:15 01:16:00:01 01:16:01:22 
*FROM CLIP NAME:  203_X19C-4PU.2* 
*ASC_SOP (0.9814 0.9903 1.0000)(-0.0177 -0.0121 0.0000)(0.9859 0.9931 0.9886) 
*ASC_SAT 0.91327 
*SOURCE FILE: C026_C005_11144P
000142  C025_C015_1114XQ                 V     C        14:25:54:20 14:25:57:04 01:16:01:22 01:16:04:06 
*FROM CLIP NAME:  203_X19-2** 
*LOC: 01:16:02:16 GREEN   203_019_020 - SPLIT SCREEN SISTER TALK 
*ASC_SOP (0.9701 0.9851 1.0000)(-0.0236 -0.0150 0.0000)(0.9729 0.9902 1.0000) 
*ASC_SAT 0.91327 
*SOURCE FILE: C025_C015_1114XQ
000143  C026_C005_11144P                 V     C        15:40:12:20 15:40:18:01 01:16:04:06 01:16:09:11 
*FROM CLIP NAME:  203_X19C-4PU.2* 
*ASC_SOP (0.9814 0.9903 1.0000)(-0.0177 -0.0121 0.0000)(0.9859 0.9931 0.9886) 
*ASC_SAT 0.91327 
*SOURCE FILE: C026_C005_11144P
000144  C025_C015_1114XQ                 V     C        14:26:05:11 14:26:09:06 01:16:09:11 01:16:13:06 
*FROM CLIP NAME:  203_X19-2** 
*ASC_SOP (0.9701 0.9851 1.0000)(-0.0236 -0.0150 0.0000)(0.9729 0.9902 1.0000) 
*ASC_SAT 0.91327 
*SOURCE FILE: C025_C015_1114XQ
000145  C026_C007_11140A                 V     C        16:02:32:11 16:02:40:02 01:16:13:06 01:16:20:21 
*FROM CLIP NAME:  203_X19D-2** 
*ASC_SOP (0.9312 0.9735 1.0127)(-0.0267 -0.0211 -0.0085)(0.9296 0.9608 1.0096) 
*ASC_SAT 0.91327 
*SOURCE FILE: C026_C007_11140A
000146  C025_C017_1114Z0                 V     C        14:46:15:14 14:46:18:19 01:16:20:21 01:16:24:02 
*FROM CLIP NAME:  203_X19A-2.2* BEST 
*ASC_SOP (0.9814 0.9903 1.0000)(-0.0177 -0.0121 0.0000)(0.9556 0.9787 1.0000) 
*ASC_SAT 0.91327 
*SOURCE FILE: C025_C017_1114Z0
000147  C026_C004_1114ME                 V     C        15:34:42:07 15:34:47:17 01:16:24:02 01:16:29:12 
*FROM CLIP NAME:  203_X19C-3* 
*ASC_SOP (0.9814 0.9903 1.0000)(-0.0177 -0.0121 0.0000)(0.9859 0.9931 0.9886) 
*ASC_SAT 0.91327 
*SOURCE FILE: C026_C004_1114ME
000148  C027_C001_1114KC                 V     C        16:20:23:10 16:20:27:02 01:16:29:12 01:16:33:04 
*FROM CLIP NAME:  203_X19E-1* 
*ASC_SOP (0.9401 0.9762 1.0131)(-0.0236 -0.0150 0.0000)(0.9853 0.9988 0.9951) 
*ASC_SAT 0.91327 
*SOURCE FILE: C027_C001_1114KC
000149  C026_C004_1114ME                 V     C        15:35:15:06 15:35:22:15 01:16:33:04 01:16:40:13 
*FROM CLIP NAME:  203_X19C-3* 
*ASC_SOP (0.9814 0.9903 1.0000)(-0.0177 -0.0121 0.0000)(0.9859 0.9931 0.9886) 
*ASC_SAT 0.91327 
*SOURCE FILE: C026_C004_1114ME
000150  A170_C022_11237E                 V     C        15:22:05:20 15:22:19:04 01:16:40:13 01:16:53:21 
*FROM CLIP NAME:  203_20-3* 
*LOC: 01:16:53:06 GREEN   203_020_010 - SPLIT SCREEN OF FIRE STARTING IN HALLWAY 
*ASC_SOP (1.0123 1.0123 1.0123)(-0.0238 -0.0259 -0.0199)(0.9957 0.9941 1.0022) 
*ASC_SAT 0.8252 
*SOURCE FILE: A170_C022_11237E
000151  A171_C001_1123T5                 V     C        15:54:33:17 15:54:44:15 01:16:53:21 01:17:04:19 
*FROM CLIP NAME:  203_20A-1* 
*ASC_SOP (1.0123 1.0123 1.0123)(-0.0238 -0.0259 -0.0199)(0.9957 0.9941 1.0022) 
*ASC_SAT 0.8252 
*SOURCE FILE: A171_C001_1123T5
000152  A156_C005_1116GF                 V     C        17:56:52:17 17:57:28:18 01:17:04:19 01:17:40:20 
*FROM CLIP NAME:  203_V21A-5* 
*LOC: 01:17:05:09 YELLOW  √ REPLACE GREEN SCREEN WITH BLACK UNTIL WE KNOW WHAT'S SUPPOSED TO GO HERE 
*LOC: 01:17:14:09 GREEN   203_021_010 - GREENSCREEN ON COMMUNICATIONS DEVICE IN WALL 
*ASC_SOP (1.0000 1.0000 1.0000)(-0.0143 -0.0161 -0.0053)(0.9633 0.9591 0.9699) 
*ASC_SAT 0.8252 
*SOURCE FILE: A156_C005_1116GF
000153  A156_C014_1116ES                 V     C        19:43:12:00 19:43:16:07 01:17:40:20 01:17:45:03 
*FROM CLIP NAME:  203_22-4* 
*ASC_SOP (1.0000 1.0000 1.0000)(-0.0143 -0.0161 -0.0053)(0.9609 0.9623 0.9690) 
*ASC_SAT 0.8252 
*SOURCE FILE: A156_C014_1116ES
000154  A156_C005_1116GF                 V     C        17:57:28:17 17:57:30:19 01:17:45:03 01:17:47:05 
*FROM CLIP NAME:  203_V21A-5* 
*LOC: 01:17:45:05 YELLOW  √ HEAVY DOOR SHUTTING - PRELAP A BIT FROM PREVIOUS CUT 
*ASC_SOP (1.0000 1.0000 1.0000)(-0.0143 -0.0161 -0.0053)(0.9633 0.9591 0.9699) 
*ASC_SAT 0.8252 
*SOURCE FILE: A156_C005_1116GF
000155  A155_C029_1116BK                 V     C        17:13:52:19 17:13:56:15 01:17:47:05 01:17:51:01 
*FROM CLIP NAME:  203_21-6PU* 
*LOC: 01:17:48:09 YELLOW  √2ND DOOR IN DISTANCE 
*ASC_SOP (1.0000 1.0000 1.0000)(-0.0143 -0.0161 -0.0053)(0.9633 0.9591 0.9699) 
*ASC_SAT 0.8252 
*SOURCE FILE: A155_C029_1116BK
000156  A156_C014_1116ES                 V     C        19:43:17:14 19:43:25:07 01:17:51:01 01:17:58:18 
*FROM CLIP NAME:  203_22-4* 
*ASC_SOP (1.0000 1.0000 1.0000)(-0.0143 -0.0161 -0.0053)(0.9609 0.9623 0.9690) 
*ASC_SAT 0.8252 
*SOURCE FILE: A156_C014_1116ES
000157  A156_C016_1116TD                 V     C        19:53:57:19 19:54:01:02 01:17:58:18 01:18:02:01 
*FROM CLIP NAME:  203_22A-2* 
*ASC_SOP (1.0000 1.0000 1.0000)(-0.0143 -0.0161 -0.0053)(0.9609 0.9623 0.9690) 
*ASC_SAT 0.8252 
*SOURCE FILE: A156_C016_1116TD
000158  A156_C004_1116OW                 V     C        17:53:47:02 17:53:49:16 01:18:02:01 01:18:04:15 
*FROM CLIP NAME:  203_V21A-4* 
*ASC_SOP (1.0000 1.0000 1.0000)(-0.0143 -0.0161 -0.0053)(0.9633 0.9591 0.9699) 
*ASC_SAT 0.8252 
*SOURCE FILE: A156_C004_1116OW
000159  A155_C029_1116BK                 V     C        17:13:59:07 17:14:00:04 01:18:04:15 01:18:05:12 
*FROM CLIP NAME:  203_21-6PU* 
*ASC_SOP (1.0000 1.0000 1.0000)(-0.0143 -0.0161 -0.0053)(0.9633 0.9591 0.9699) 
*ASC_SAT 0.8252 
*SOURCE FILE: A155_C029_1116BK
000160  A156_C013_1116CY                 V     C        19:40:18:01 19:40:21:00 01:18:05:12 01:18:08:11 
*FROM CLIP NAME:  203_22-3* 
*LOC: 01:18:06:02 YELLOW  COMPUTER BEEPS AS SHE'S TAPPING ON THE PANEL 
*ASC_SOP (1.0000 1.0000 1.0000)(-0.0143 -0.0161 -0.0053)(0.9609 0.9623 0.9690) 
*ASC_SAT 0.8252 
*SOURCE FILE: A156_C013_1116CY
000161  A156_C004_1116OW                 V     C        17:53:51:04 17:53:52:08 01:18:08:11 01:18:09:15 
*FROM CLIP NAME:  203_V21A-4* 
*ASC_SOP (1.0000 1.0000 1.0000)(-0.0143 -0.0161 -0.0053)(0.9633 0.9591 0.9699) 
*ASC_SAT 0.8252 
*SOURCE FILE: A156_C004_1116OW
000162  A155_C029_1116BK                 V     C        17:14:05:00 17:14:09:23 01:18:09:15 01:18:14:14 
*FROM CLIP NAME:  203_21-6PU* 
*ASC_SOP (1.0000 1.0000 1.0000)(-0.0143 -0.0161 -0.0053)(0.9633 0.9591 0.9699) 
*ASC_SAT 0.8252 
*SOURCE FILE: A155_C029_1116BK
000163  BL                               V     C        00:00:00:00 00:00:00:07 01:18:14:14 01:18:14:21 
*SOURCE FILE: (NULL)
000164  A155_C029_1116BK                 V     C        17:14:11:19 17:14:14:03 01:18:14:21 01:18:17:05 
*FROM CLIP NAME:  203_21-6PU* 
*ASC_SOP (1.0000 1.0000 1.0000)(-0.0143 -0.0161 -0.0053)(0.9633 0.9591 0.9699) 
*ASC_SAT 0.8252 
*SOURCE FILE: A155_C029_1116BK
000165  A156_C004_1116OW                 V     C        17:54:06:17 17:54:11:05 01:18:17:05 01:18:21:17 
*FROM CLIP NAME:  203_V21A-4* 
*ASC_SOP (1.0000 1.0000 1.0000)(-0.0143 -0.0161 -0.0053)(0.9633 0.9591 0.9699) 
*ASC_SAT 0.8252 
*SOURCE FILE: A156_C004_1116OW
000166  A155_C029_1116BK                 V     C        17:14:21:17 17:14:25:19 01:18:21:17 01:18:25:19 
*FROM CLIP NAME:  203_21-6PU* 
*ASC_SOP (1.0000 1.0000 1.0000)(-0.0143 -0.0161 -0.0053)(0.9633 0.9591 0.9699) 
*ASC_SAT 0.8252 
*SOURCE FILE: A155_C029_1116BK
000167  A156_C014_1116ES                 V     C        19:43:51:02 19:43:54:18 01:18:25:19 01:18:29:11 
*FROM CLIP NAME:  203_22-4* 
*ASC_SOP (1.0000 1.0000 1.0000)(-0.0143 -0.0161 -0.0053)(0.9609 0.9623 0.9690) 
*ASC_SAT 0.8252 
*SOURCE FILE: A156_C014_1116ES
000168  BL                               V     C        00:00:00:00 00:00:00:19 01:18:29:11 01:18:30:06 
*SOURCE FILE: (NULL)
000169  A155_C027_1116S5                 V     C        17:11:15:15 17:11:17:16 01:18:30:06 01:18:32:07 
*FROM CLIP NAME:  203_21-4PU* 
*ASC_SOP (1.0000 1.0000 1.0000)(-0.0143 -0.0161 -0.0053)(0.9633 0.9591 0.9699) 
*ASC_SAT 0.8252 
*SOURCE FILE: A155_C027_1116S5
000170  A156_C016_1116TD                 V     C        19:54:25:23 19:54:27:20 01:18:32:07 01:18:34:04 
*FROM CLIP NAME:  203_22A-2* 
*LOC: 01:18:33:18 YELLOW  TAP ON THE GLASS (THE NATS ARE NO GOOD) 
*ASC_SOP (1.0000 1.0000 1.0000)(-0.0143 -0.0161 -0.0053)(0.9609 0.9623 0.9690) 
*ASC_SAT 0.8252 
*SOURCE FILE: A156_C016_1116TD
000171  BL                               V     C        00:00:00:00 00:00:01:07 01:18:34:04 01:18:35:11 
*SOURCE FILE: (NULL)
000172  A156_C005_1116GF                 V     C        17:58:07:14 17:58:13:02 01:18:35:11 01:18:40:23 
*FROM CLIP NAME:  203_V21A-5* 
*ASC_SOP (1.0000 1.0000 1.0000)(-0.0143 -0.0161 -0.0053)(0.9633 0.9591 0.9699) 
*ASC_SAT 0.8252 
*SOURCE FILE: A156_C005_1116GF
000173  A155_C027_1116S5                 V     C        17:11:29:23 17:11:33:08 01:18:40:23 01:18:44:08 
*FROM CLIP NAME:  203_21-4PU* 
*LOC: 01:18:42:22 MAGENTA ? TAIL TRIM 
*ASC_SOP (1.0000 1.0000 1.0000)(-0.0143 -0.0161 -0.0053)(0.9633 0.9591 0.9699) 
*ASC_SAT 0.8252 
*SOURCE FILE: A155_C027_1116S5
000174  A175_C004_112609                 V     C        18:19:51:21 18:20:04:04 01:18:44:08 01:18:56:15 
*FROM CLIP NAME:  203_27-2* 
*ASC_SOP (1.0031 1.0031 1.0031)(-0.0313 -0.0308 -0.0146)(0.9762 0.9698 0.9740) 
*ASC_SAT 0.8252 
*SOURCE FILE: A175_C004_112609
000175  A175_C006_11268Q                 V     C        18:32:40:19 18:32:43:23 01:18:56:15 01:18:59:19 
*FROM CLIP NAME:  203_27A-1* 
*ASC_SOP (0.9478 0.9606 0.9493)(-0.0078 -0.0073 0.0089)(0.9991 0.9887 0.9907) 
*ASC_SAT 0.8252 
*SOURCE FILE: A175_C006_11268Q
000176  A176_C001_1126AP                 V     C        18:56:14:06 18:56:15:04 01:18:59:19 01:19:00:17 
*FROM CLIP NAME:  203_27B-1.2 
*ASC_SOP (1.0031 1.0031 1.0031)(-0.0313 -0.0308 -0.0146)(0.9870 0.9767 0.9878) 
*ASC_SAT 0.8252 
*SOURCE FILE: A176_C001_1126AP
000177  A175_C007_112614                 V     C        18:37:03:15 18:37:05:12 01:19:00:17 01:19:02:14 
*FROM CLIP NAME:  203_27A-2* 
*ASC_SOP (0.9983 1.0111 0.9998)(-0.0313 -0.0308 -0.0146)(0.9826 0.9722 0.9742) 
*ASC_SAT 0.8252 
*SOURCE FILE: A175_C007_112614
000178  BL                               V     C        00:00:00:00 00:00:04:20 01:19:02:14 01:19:07:10 
*SOURCE FILE: (NULL)
000179  A175_C007_112614                 V     C        18:37:11:18 18:37:12:03 01:19:07:10 01:19:07:19 
*FROM CLIP NAME:  203_27A-2* 
*ASC_SOP (0.9983 1.0111 0.9998)(-0.0313 -0.0308 -0.0146)(0.9826 0.9722 0.9742) 
*ASC_SAT 0.8252 
*SOURCE FILE: A175_C007_112614
000180  A176_C001_1126AP                 V     C        18:59:15:10 18:59:17:10 01:19:07:19 01:19:09:19 
*FROM CLIP NAME:  203_27B-1.3* 
*ASC_SOP (1.0031 1.0031 1.0031)(-0.0313 -0.0308 -0.0146)(0.9870 0.9767 0.9878) 
*ASC_SAT 0.8252 
*SOURCE FILE: A176_C001_1126AP
000181  BL                               V     C        00:00:00:00 00:00:04:06 01:19:09:19 01:19:14:01 
*SOURCE FILE: (NULL)
000182  A175_C007_112614                 V     C        18:37:27:17 18:37:29:09 01:19:14:01 01:19:15:17 
*FROM CLIP NAME:  203_27A-2* 
*ASC_SOP (0.9983 1.0111 0.9998)(-0.0313 -0.0308 -0.0146)(0.9826 0.9722 0.9742) 
*ASC_SAT 0.8252 
*SOURCE FILE: A175_C007_112614
000183  A176_C001_1126AP                 V     C        18:59:33:21 18:59:36:06 01:19:15:17 01:19:18:02 
*FROM CLIP NAME:  203_27B-1.3* 
*ASC_SOP (1.0031 1.0031 1.0031)(-0.0313 -0.0308 -0.0146)(0.9870 0.9767 0.9878) 
*ASC_SAT 0.8252 
*SOURCE FILE: A176_C001_1126AP
000184  A175_C007_112614                 V     C        18:37:34:08 18:37:36:17 01:19:18:02 01:19:20:11 
*FROM CLIP NAME:  203_27A-2* 
*ASC_SOP (0.9983 1.0111 0.9998)(-0.0313 -0.0308 -0.0146)(0.9826 0.9722 0.9742) 
*ASC_SAT 0.8252 
*SOURCE FILE: A175_C007_112614
000185  A175_C007_112614                 V     C        18:37:43:12 18:37:45:06 01:19:20:11 01:19:22:05 
*FROM CLIP NAME:  203_27A-2* 
*ASC_SOP (0.9983 1.0111 0.9998)(-0.0313 -0.0308 -0.0146)(0.9826 0.9722 0.9742) 
*ASC_SAT 0.8252 
*SOURCE FILE: A175_C007_112614
000186  A176_C001_1126AP                 V     C        19:00:11:12 19:00:15:03 01:19:22:05 01:19:25:20 
*FROM CLIP NAME:  203_27B-1.3* 
*ASC_SOP (1.0031 1.0031 1.0031)(-0.0313 -0.0308 -0.0146)(0.9870 0.9767 0.9878) 
*ASC_SAT 0.8252 
*SOURCE FILE: A176_C001_1126AP
000187  A175_C007_112614                 V     C        18:38:15:15 18:38:16:21 01:19:25:20 01:19:27:02 
*FROM CLIP NAME:  203_27A-2* 
*ASC_SOP (0.9983 1.0111 0.9998)(-0.0313 -0.0308 -0.0146)(0.9826 0.9722 0.9742) 
*ASC_SAT 0.8252 
*SOURCE FILE: A175_C007_112614
000188  A176_C001_1126AP                 V     C        19:00:29:01 19:00:30:16 01:19:27:02 01:19:28:17 
*FROM CLIP NAME:  203_27B-1.3* 
*ASC_SOP (1.0031 1.0031 1.0031)(-0.0313 -0.0308 -0.0146)(0.9870 0.9767 0.9878) 
*ASC_SAT 0.8252 
*SOURCE FILE: A176_C001_1126AP
000189  A175_C007_112614                 V     C        18:38:23:03 18:38:25:15 01:19:28:17 01:19:31:05 
*FROM CLIP NAME:  203_27A-2* 
*ASC_SOP (0.9983 1.0111 0.9998)(-0.0313 -0.0308 -0.0146)(0.9826 0.9722 0.9742) 
*ASC_SAT 0.8252 
*SOURCE FILE: A175_C007_112614
000190  A175_C007_112614                 V     C        18:38:29:11 18:38:31:04 01:19:31:05 01:19:32:22 
*FROM CLIP NAME:  203_27A-2* 
*ASC_SOP (0.9983 1.0111 0.9998)(-0.0313 -0.0308 -0.0146)(0.9826 0.9722 0.9742) 
*ASC_SAT 0.8252 
*SOURCE FILE: A175_C007_112614
000191  A176_C001_1126AP                 V     C        19:00:49:13 19:00:52:21 01:19:32:22 01:19:36:06 
*FROM CLIP NAME:  203_27B-1.3* 
*ASC_SOP (1.0031 1.0031 1.0031)(-0.0313 -0.0308 -0.0146)(0.9870 0.9767 0.9878) 
*ASC_SAT 0.8252 
*SOURCE FILE: A176_C001_1126AP
000192  A176_C001_1126AP                 V     C        19:01:09:15 19:01:12:22 01:19:36:06 01:19:39:13 
*FROM CLIP NAME:  203_27B-1.3* 
*ASC_SOP (1.0031 1.0031 1.0031)(-0.0313 -0.0308 -0.0146)(0.9870 0.9767 0.9878) 
*ASC_SAT 0.8252 
*SOURCE FILE: A176_C001_1126AP
000193  B109_C010_0406V1                 V     C        14:37:03:23 14:37:12:11 01:19:39:13 01:19:48:01 
*FROM CLIP NAME:  203_XX28-3* 
*ASC_SOP (1.0000 0.9998 0.9926)(-0.0242 -0.0214 -0.0148)(0.9634 0.9676 0.9869) 
*ASC_SAT 0.91284 
*SOURCE FILE: B109_C010_0406V1
000194  A173_C003_1126ZG                 V     C        10:33:10:20 10:33:30:14 01:19:48:01 01:20:07:19 
*FROM CLIP NAME:  203_28-2* 
*ASC_SOP (1.0031 1.0031 1.0031)(-0.0218 -0.0238 -0.0146)(1.0194 1.0193 1.0290) 
*ASC_SAT 0.8252 
*SOURCE FILE: A173_C003_1126ZG
000195  A173_C004_1126Q1                 V     C        11:01:49:10 11:02:03:14 01:20:07:19 01:20:21:23 
*FROM CLIP NAME:  203_28A-1 (A) 
*ASC_SOP (1.0031 1.0031 1.0031)(-0.0218 -0.0238 -0.0146)(0.9789 0.9788 0.9885) 
*ASC_SAT 0.8252 
*SOURCE FILE: A173_C004_1126Q1
000196  A173_C010_1126NI                 V     C        12:13:37:18 12:13:52:09 01:20:21:23 01:20:36:14 
*FROM CLIP NAME:  203_28C-2* 
*ASC_SOP (1.0031 1.0031 1.0031)(-0.0218 -0.0238 -0.0146)(0.9789 0.9788 0.9885) 
*ASC_SAT 0.8252 
*SOURCE FILE: A173_C010_1126NI
000197  A173_C006_1126TZ                 V     C        11:17:54:21 11:17:56:23 01:20:36:14 01:20:38:16 
*FROM CLIP NAME:  203_28A-3.3* 
*ASC_SOP (1.0031 1.0031 1.0031)(-0.0218 -0.0238 -0.0146)(0.9789 0.9788 0.9885) 
*ASC_SAT 0.8252 
*SOURCE FILE: A173_C006_1126TZ
000198  A173_C006_1126TZ                 V     C        11:17:57:00 11:17:59:09 01:20:38:16 01:20:41:01 
*FROM CLIP NAME:  203_28A-3.3* 
*ASC_SOP (1.0031 1.0031 1.0031)(-0.0218 -0.0238 -0.0146)(0.9789 0.9788 0.9885) 
*ASC_SAT 0.8252 
*SOURCE FILE: A173_C006_1126TZ
000199  A173_C010_1126NI                 V     C        12:13:59:09 12:14:05:12 01:20:41:01 01:20:47:04 
*FROM CLIP NAME:  203_28C-2* 
*ASC_SOP (1.0031 1.0031 1.0031)(-0.0218 -0.0238 -0.0146)(0.9789 0.9788 0.9885) 
*ASC_SAT 0.8252 
*SOURCE FILE: A173_C010_1126NI
000200  A173_C006_1126TZ                 V     C        11:18:09:14 11:18:16:07 01:20:47:04 01:20:53:21 
*FROM CLIP NAME:  203_28A-3.3* 
*ASC_SOP (1.0031 1.0031 1.0031)(-0.0218 -0.0238 -0.0146)(0.9789 0.9788 0.9885) 
*ASC_SAT 0.8252 
*SOURCE FILE: A173_C006_1126TZ
000201  A173_C008_1126FD                 V     C        11:42:03:22 11:42:05:11 01:20:53:21 01:20:55:10 
*FROM CLIP NAME:  203_28B-2* 
*ASC_SOP (1.0031 1.0031 1.0031)(-0.0218 -0.0238 -0.0146)(0.9789 0.9788 0.9885) 
*ASC_SAT 0.8252 
*SOURCE FILE: A173_C008_1126FD
000202  A173_C004_1126Q1                 V     C        11:03:28:21 11:03:33:16 01:20:55:10 01:21:00:05 
*FROM CLIP NAME:  203_28A-1.4* 
*ASC_SOP (1.0031 1.0031 1.0031)(-0.0218 -0.0238 -0.0146)(0.9789 0.9788 0.9885) 
*ASC_SAT 0.8252 
*SOURCE FILE: A173_C004_1126Q1
000203  A173_C008_1126FD                 V     C        11:42:10:10 11:42:12:04 01:21:00:05 01:21:01:23 
*FROM CLIP NAME:  203_28B-2* 
*ASC_SOP (1.0031 1.0031 1.0031)(-0.0218 -0.0238 -0.0146)(0.9789 0.9788 0.9885) 
*ASC_SAT 0.8252 
*SOURCE FILE: A173_C008_1126FD
000204  A173_C006_1126TZ                 V     C        11:18:25:21 11:18:28:14 01:21:01:23 01:21:04:16 
*FROM CLIP NAME:  203_28A-3.3* 
*ASC_SOP (1.0031 1.0031 1.0031)(-0.0218 -0.0238 -0.0146)(0.9789 0.9788 0.9885) 
*ASC_SAT 0.8252 
*SOURCE FILE: A173_C006_1126TZ
000205  A173_C007_1126AV                 V     C        11:38:31:07 11:38:33:02 01:21:04:16 01:21:06:11 
*FROM CLIP NAME:  203_28B-1 
*ASC_SOP (1.0031 1.0031 1.0031)(-0.0218 -0.0238 -0.0146)(0.9789 0.9788 0.9885) 
*ASC_SAT 0.8252 
*SOURCE FILE: A173_C007_1126AV
000206  A173_C006_1126TZ                 V     C        11:18:35:23 11:18:41:04 01:21:06:11 01:21:11:16 
*FROM CLIP NAME:  203_28A-3.3* 
*ASC_SOP (1.0031 1.0031 1.0031)(-0.0218 -0.0238 -0.0146)(0.9789 0.9788 0.9885) 
*ASC_SAT 0.8252 
*SOURCE FILE: A173_C006_1126TZ
000207  A173_C008_1126FD                 V     C        11:42:29:18 11:42:33:13 01:21:11:16 01:21:15:11 
*FROM CLIP NAME:  203_28B-2* 
*ASC_SOP (1.0031 1.0031 1.0031)(-0.0218 -0.0238 -0.0146)(0.9789 0.9788 0.9885) 
*ASC_SAT 0.8252 
*SOURCE FILE: A173_C008_1126FD
000208  A173_C006_1126TZ                 V     C        11:18:44:12 11:18:46:07 01:21:15:11 01:21:17:06 
*FROM CLIP NAME:  203_28A-3.3* 
*ASC_SOP (1.0031 1.0031 1.0031)(-0.0218 -0.0238 -0.0146)(0.9789 0.9788 0.9885) 
*ASC_SAT 0.8252 
*SOURCE FILE: A173_C006_1126TZ
000209  A173_C008_1126FD                 V     C        11:42:40:19 11:42:52:04 01:21:17:06 01:21:28:15 
*FROM CLIP NAME:  203_28B-2* 
*ASC_SOP (1.0031 1.0031 1.0031)(-0.0218 -0.0238 -0.0146)(0.9789 0.9788 0.9885) 
*ASC_SAT 0.8252 
*SOURCE FILE: A173_C008_1126FD
000210  A173_C004_1126Q1                 V     C        11:04:05:06 11:04:08:00 01:21:28:15 01:21:31:09 
*FROM CLIP NAME:  203_28A-1.4* 
*ASC_SOP (1.0031 1.0031 1.0031)(-0.0218 -0.0238 -0.0146)(0.9789 0.9788 0.9885) 
*ASC_SAT 0.8252 
*SOURCE FILE: A173_C004_1126Q1
000211  A137_C002_1107QO                 V     C        11:34:47:06 11:35:40:06 01:21:31:09 01:22:24:09 
*FROM CLIP NAME:  203_29-2* 
*ASC_SOP (0.9991 0.9933 1.0076)(-0.0098 -0.0119 -0.0053)(0.9992 1.0021 0.9987) 
*ASC_SAT 0.91572 
*SOURCE FILE: A137_C002_1107QO
000212  A137_C006_1107Y0                 V     C        12:22:38:15 12:22:51:18 01:22:24:09 01:22:37:12 
*FROM CLIP NAME:  203_V29A-3 (A)* 
*ASC_SOP (0.9991 0.9933 1.0076)(-0.0098 -0.0119 -0.0053)(0.9992 1.0021 0.9987) 
*ASC_SAT 0.91572 
*SOURCE FILE: A137_C006_1107Y0
000213  B087_C003_031824                 V     C        12:22:51:22 12:22:59:18 01:22:37:12 01:22:45:08 
*FROM CLIP NAME:  203_V29A-3 (B)* 
*ASC_SOP (1.0000 0.9998 0.9926)(-0.0169 -0.0119 -0.0095)(0.9910 0.9987 0.9907) 
*ASC_SAT 0.91284 
*SOURCE FILE: B087_C003_031824
000214  A137_C008_11079I                 V     C        12:50:01:23 12:50:11:23 01:22:45:08 01:22:55:08 
*FROM CLIP NAME:  203_V29B-1* 
*LOC: 01:22:53:13 GREEN   203_029_010 - SAR HAND IN BOX AS IT OPENS 
*ASC_SOP (0.9991 0.9933 1.0076)(-0.0098 -0.0119 -0.0053)(0.9992 1.0021 0.9987) 
*ASC_SAT 0.91572 
*SOURCE FILE: A137_C008_11079I
000215  A137_C006_1107Y0                 V     C        12:23:09:22 12:23:13:10 01:22:55:08 01:22:58:20 
*FROM CLIP NAME:  203_V29A-3 (A)* 
*ASC_SOP (0.9991 0.9933 1.0076)(-0.0098 -0.0119 -0.0053)(0.9992 1.0021 0.9987) 
*ASC_SAT 0.91572 
*SOURCE FILE: A137_C006_1107Y0
000216  A137_C008_11079I                 V     C        12:50:13:05 12:50:16:04 01:22:58:20 01:23:01:19 
*FROM CLIP NAME:  203_V29B-1* 
*LOC: 01:22:59:05 GREEN   203_029_020 - SAR WAKES UP AND SPAGHETTI TENTACLES OUT LEFT SIDE, FINGER TIPS ON RIGHT 
*ASC_SOP (0.9991 0.9933 1.0076)(-0.0098 -0.0119 -0.0053)(0.9992 1.0021 0.9987) 
*ASC_SAT 0.91572 
*SOURCE FILE: A137_C008_11079I
000217  A137_C005_11076X                 V     C        12:17:38:02 12:17:42:10 01:23:01:19 01:23:06:03 
*FROM CLIP NAME:  203_V29A-2 (A)* 
*LOC: 01:23:04:09 GREEN   203_029_040 - SAR ARM MOVING AS BOX IS CLOSED 
*LOC: 01:23:01:23 GREEN   203_029_030 - SAR ARM ACTIVATED 
*ASC_SOP (0.9991 0.9933 1.0076)(-0.0098 -0.0119 -0.0053)(0.9992 1.0021 0.9987) 
*ASC_SAT 0.91572 
*SOURCE FILE: A137_C005_11076X
000218  A137_C003_110797                 V     C        11:43:49:14 11:43:53:05 01:23:06:03 01:23:09:18 
*FROM CLIP NAME:  203_29-3 (A) 
*ASC_SOP (0.9991 0.9933 1.0076)(-0.0098 -0.0119 -0.0053)(0.9992 1.0021 0.9987) 
*ASC_SAT 0.91572 
*SOURCE FILE: A137_C003_110797
000219  A173_C013_1126KG                 V     C        13:05:07:05 13:05:10:03 01:23:09:18 01:23:12:16 
*FROM CLIP NAME:  203_32C-1 
*ASC_SOP (1.0031 1.0031 1.0031)(-0.0218 -0.0238 -0.0146)(0.9789 0.9788 0.9885) 
*ASC_SAT 0.8252 
*SOURCE FILE: A173_C013_1126KG
000220  A165_C025_1121PI                 V     C        15:55:22:00 15:55:26:02 01:23:12:16 01:23:16:18 
*FROM CLIP NAME:  203_32-1.1* 
*ASC_SOP (1.0092 1.0092 1.0092)(-0.0226 -0.0245 -0.0120)(0.9428 0.9385 0.9493) 
*ASC_SAT 0.78462 
*SOURCE FILE: A165_C025_1121PI
000221  BL                               V     C        00:00:00:00 00:00:01:06 01:23:16:18 01:23:18:00 
*SOURCE FILE: (NULL)
000222  A173_C014_1126DT                 V     C        13:07:42:12 13:07:44:23 01:23:18:00 01:23:20:11 
*FROM CLIP NAME:  203_32C-2* 
*ASC_SOP (1.0031 1.0031 1.0031)(-0.0218 -0.0238 -0.0146)(0.9789 0.9788 0.9885) 
*ASC_SAT 0.8252 
*SOURCE FILE: A173_C014_1126DT
000223  A137_C006_1107Y0                 V     C        12:23:22:05 12:23:25:06 01:23:20:11 01:23:23:12 
*FROM CLIP NAME:  203_V29A-3 (A)* 
*ASC_SOP (0.9991 0.9933 1.0076)(-0.0098 -0.0119 -0.0053)(0.9992 1.0021 0.9987) 
*ASC_SAT 0.91572 
*SOURCE FILE: A137_C006_1107Y0
000224  A165_C025_1121PI                 V     C        15:55:30:04 15:55:32:00 01:23:23:12 01:23:25:08 
*FROM CLIP NAME:  203_32-1.1* 
*ASC_SOP (1.0092 1.0092 1.0092)(-0.0226 -0.0245 -0.0120)(0.9428 0.9385 0.9493) 
*ASC_SAT 0.78462 
*SOURCE FILE: A165_C025_1121PI
000225  A165_C026_1121J1                 V     C        15:58:00:00 15:58:01:17 01:23:25:08 01:23:27:01 
*FROM CLIP NAME:  203_32-2PU* 
*ASC_SOP (1.0092 1.0092 1.0092)(-0.0226 -0.0245 -0.0120)(0.9428 0.9385 0.9493) 
*ASC_SAT 0.78462 
*SOURCE FILE: A165_C026_1121J1
000226  A165_C025_1121PI                 V     C        15:55:37:09 15:55:39:19 01:23:27:01 01:23:29:11 
*FROM CLIP NAME:  203_32-1.1* 
*ASC_SOP (1.0092 1.0092 1.0092)(-0.0226 -0.0245 -0.0120)(0.9428 0.9385 0.9493) 
*ASC_SAT 0.78462 
*SOURCE FILE: A165_C025_1121PI
000227  A137_C006_1107Y0                 V     C        12:23:31:16 12:23:37:14 01:23:29:11 01:23:35:09 
*FROM CLIP NAME:  203_V29A-3 (A)* 
*ASC_SOP (0.9991 0.9933 1.0076)(-0.0098 -0.0119 -0.0053)(0.9992 1.0021 0.9987) 
*ASC_SAT 0.91572 
*SOURCE FILE: A137_C006_1107Y0
000228  A157_C003_1116D9                 V     C        20:27:06:22 20:27:12:09 01:23:35:09 01:23:40:20 
*FROM CLIP NAME:  203_33A-1* 
*ASC_SOP (1.0000 1.0000 1.0000)(-0.0143 -0.0161 -0.0053)(0.9609 0.9623 0.9690) 
*ASC_SAT 0.8252 
*SOURCE FILE: A157_C003_1116D9
000229  A137_C005_11076X                 V     C        12:18:15:14 12:18:19:01 01:23:40:20 01:23:44:07 
*FROM CLIP NAME:  203_V29A-2 (A) 
*ASC_SOP (0.9991 0.9933 1.0076)(-0.0098 -0.0119 -0.0053)(0.9992 1.0021 0.9987) 
*ASC_SAT 0.91572 
*SOURCE FILE: A137_C005_11076X
000230  A157_C003_1116D9                 V     C        20:27:16:20 20:27:19:16 01:23:44:07 01:23:47:03 
*FROM CLIP NAME:  203_33A-1* 
*ASC_SOP (1.0000 1.0000 1.0000)(-0.0143 -0.0161 -0.0053)(0.9609 0.9623 0.9690) 
*ASC_SAT 0.8252 
*SOURCE FILE: A157_C003_1116D9
000231  A165_C025_1121PI                 V     C        15:56:35:18 15:56:39:16 01:23:47:03 01:23:51:01 
*FROM CLIP NAME:  203_32-1.2 
*ASC_SOP (1.0092 1.0092 1.0092)(-0.0226 -0.0245 -0.0120)(0.9428 0.9385 0.9493) 
*ASC_SAT 0.78462 
*SOURCE FILE: A165_C025_1121PI
000232  A157_C002_1116HG                 V     C        20:14:14:11 20:14:17:17 01:23:51:01 01:23:54:07 
*FROM CLIP NAME:  203_33-2* 
*ASC_SOP (1.0000 1.0000 1.0000)(-0.0143 -0.0161 -0.0053)(0.9609 0.9623 0.9690) 
*ASC_SAT 0.8252 
*SOURCE FILE: A157_C002_1116HG
000233  A157_C004_1116LH                 V     C        20:29:06:21 20:29:09:14 01:23:54:07 01:23:57:00 
*FROM CLIP NAME:  203_33A-2* 
*ASC_SOP (1.0000 1.0000 1.0000)(-0.0143 -0.0161 -0.0053)(0.9609 0.9623 0.9690) 
*ASC_SAT 0.8252 
*SOURCE FILE: A157_C004_1116LH
000234  A165_C026_1121J1                 V     C        15:58:11:17 15:58:13:10 01:23:57:00 01:23:58:17 
*FROM CLIP NAME:  203_32-2PU* 
*ASC_SOP (1.0092 1.0092 1.0092)(-0.0226 -0.0245 -0.0120)(0.9428 0.9385 0.9493) 
*ASC_SAT 0.78462 
*SOURCE FILE: A165_C026_1121J1
000235  A173_C017_1126C6                 V     C        13:14:23:17 13:14:24:15 01:23:58:17 01:23:59:15 
*FROM CLIP NAME:  203_32C-5.2PU* 
*ASC_SOP (1.0031 1.0031 1.0031)(-0.0218 -0.0238 -0.0146)(0.9789 0.9788 0.9885) 
*ASC_SAT 0.8252 
*SOURCE FILE: A173_C017_1126C6
000236  C033_C011_11293B                 V     C        19:00:17:01 19:00:18:16 01:23:59:15 01:24:01:06 
*FROM CLIP NAME:  203_X33-1 
*ASC_SOP (0.9914 1.0040 1.0046)(0.0000 0.0000 0.0000)(1.0188 1.0182 0.9766) 
*ASC_SAT 1 
*SOURCE FILE: C033_C011_11293B
000237  A173_C017_1126C6                 V     C        13:14:25:21 13:14:33:04 01:24:01:06 01:24:08:13 
*FROM CLIP NAME:  203_32C-5.2PU* 
*ASC_SOP (1.0031 1.0031 1.0031)(-0.0218 -0.0238 -0.0146)(0.9789 0.9788 0.9885) 
*ASC_SAT 0.8252 
*SOURCE FILE: A173_C017_1126C6
000238  A165_C026_1121J1                 V     C        15:58:13:04 15:58:14:16 01:24:08:13 01:24:10:01 
*FROM CLIP NAME:  203_32-2PU* 
*ASC_SOP (1.0092 1.0092 1.0092)(-0.0226 -0.0245 -0.0120)(0.9428 0.9385 0.9493) 
*ASC_SAT 0.78462 
*SOURCE FILE: A165_C026_1121J1
000239  B103_C007_04014J                 V     C        16:35:43:11 16:35:45:06 01:24:10:01 01:24:11:20 
*FROM CLIP NAME:  203_32B-2* 
*ASC_SOP (1.0092 1.0090 1.0017)(-0.0271 -0.0198 -0.0161)(0.9159 0.9261 0.9493) 
*ASC_SAT 0.80671 
*SOURCE FILE: B103_C007_04014J
000240  A165_C033_1121NZ                 V     C        17:44:49:22 17:44:51:08 01:24:11:20 01:24:13:06 
*FROM CLIP NAME:  203_A33B-4* 
*ASC_SOP (1.0000 1.0000 1.0000)(-0.0261 -0.0279 -0.0133)(0.9783 0.9740 0.9848) 
*ASC_SAT 0.8252 
*SOURCE FILE: A165_C033_1121NZ
000241  A166_C002_1121EP                 V     C        18:16:09:18 18:16:13:17 01:24:13:06 01:24:17:05 
*FROM CLIP NAME:  203_A33C-2* 
*ASC_SOP (1.0000 1.0000 1.0000)(-0.0261 -0.0279 -0.0133)(0.9783 0.9740 0.9848) 
*ASC_SAT 0.8252 
*SOURCE FILE: A166_C002_1121EP
000242  A157_C004_1116LH                 V     C        20:29:17:19 20:29:20:20 01:24:17:05 01:24:20:06 
*FROM CLIP NAME:  203_33A-2* 
*ASC_SOP (1.0000 1.0000 1.0000)(-0.0143 -0.0161 -0.0053)(0.9609 0.9623 0.9690) 
*ASC_SAT 0.8252 
*SOURCE FILE: A157_C004_1116LH
000243  A165_C032_1121E6                 V     C        17:42:11:17 17:42:12:23 01:24:20:06 01:24:21:12 
*FROM CLIP NAME:  203_A33B-3.1 
*ASC_SOP (1.0000 1.0000 1.0000)(-0.0261 -0.0279 -0.0133)(0.9783 0.9740 0.9848) 
*ASC_SAT 0.8252 
*SOURCE FILE: A165_C032_1121E6
000244  A161_C002_1120IC                 V     C        12:15:55:04 12:16:04:08 01:24:21:12 01:24:30:16 
*FROM CLIP NAME:  203_A33-1 (A) 
*ASC_SOP (1.0000 1.0000 1.0000)(-0.0196 -0.0215 -0.0106)(0.9783 0.9740 0.9848) 
*ASC_SAT 0.8252 
*SOURCE FILE: A161_C002_1120IC
000245  A165_C033_1121NZ                 V     C        17:45:01:08 17:45:03:14 01:24:30:16 01:24:32:22 
*FROM CLIP NAME:  203_A33B-4* 
*ASC_SOP (1.0000 1.0000 1.0000)(-0.0261 -0.0279 -0.0133)(0.9783 0.9740 0.9848) 
*ASC_SAT 0.8252 
*SOURCE FILE: A165_C033_1121NZ
000246  B101_C002_0331I7                 V     C        12:18:32:10 12:18:35:05 01:24:32:22 01:24:35:17 
*FROM CLIP NAME:  203_A33-2 (B) 
*ASC_SOP (0.9886 0.9992 0.9926)(-0.0254 -0.0203 -0.0148)(0.9685 0.9646 0.9848) 
*ASC_SAT 0.91284 
*SOURCE FILE: B101_C002_0331I7
000247  A165_C031_1121ZS                 V     C        17:40:24:13 17:40:27:13 01:24:35:17 01:24:38:17 
*FROM CLIP NAME:  203_A33B-2.2* 
*ASC_SOP (1.0000 1.0000 1.0000)(-0.0261 -0.0279 -0.0133)(0.9783 0.9740 0.9848) 
*ASC_SAT 0.8252 
*SOURCE FILE: A165_C031_1121ZS
000248  A137_C006_1107Y0                 V     C        12:24:21:09 12:24:26:09 01:24:38:17 01:24:43:17 
*FROM CLIP NAME:  203_V29A-3 (A)* 
*ASC_SOP (0.9991 0.9933 1.0076)(-0.0098 -0.0119 -0.0053)(0.9992 1.0021 0.9987) 
*ASC_SAT 0.91572 
*SOURCE FILE: A137_C006_1107Y0
000249  A137_C003_110797                 V     C        11:45:18:05 11:45:20:12 01:24:43:17 01:24:46:00 
*FROM CLIP NAME:  203_29-3* 
*ASC_SOP (0.9991 0.9933 1.0076)(-0.0098 -0.0119 -0.0053)(0.9992 1.0021 0.9987) 
*ASC_SAT 0.91572 
*SOURCE FILE: A137_C003_110797
000250  A137_C009_11079B                 V     C        12:57:10:22 12:57:13:13 01:24:46:00 01:24:48:15 
*FROM CLIP NAME:  203_V29B-2* 
*ASC_SOP (0.9991 0.9933 1.0076)(-0.0098 -0.0119 -0.0053)(0.9992 1.0021 0.9987) 
*ASC_SAT 0.91572 
*SOURCE FILE: A137_C009_11079B
000251  A143_C003_1108VO                 V     C        20:21:27:18 20:21:29:21 01:24:48:15 01:24:50:18 
*FROM CLIP NAME:  203_34A-2* (DON ISO) 
*ASC_SOP (1.0000 1.0000 1.0000)(-0.0379 -0.0400 -0.0331)(0.9138 0.9257 0.9349) 
*ASC_SAT 0.91572 
*SOURCE FILE: A143_C003_1108VO
000252  A140_C002_1107ZZ                 V     C        19:57:39:12 19:57:40:13 01:24:50:18 01:24:51:19 
*FROM CLIP NAME:  203_V34-2.2* 
*LOC: 01:24:51:01 GREEN   203_034_010 - GREEN SCREEN WINDOW DON LOOKS TO DINING HALL 
*ASC_SOP (1.0000 1.0000 1.0000)(-0.0118 -0.0162 -0.0066)(0.9818 0.9818 0.9818) 
*ASC_SAT 0.91572 
*SOURCE FILE: A140_C002_1107ZZ
000253  C034_C011_1130SD                 V     C        13:04:26:23 13:04:29:10 01:24:51:19 01:24:54:06 
*FROM CLIP NAME:  203_VX34A-2* 
*LOC: 01:24:52:07 GREEN   203_034_020 - DON LOOKING OUT WINDOW FOR DINING HALL 
*ASC_SOP (1.0000 0.9998 0.9952)(-0.0050 -0.0098 -0.0063)(0.9455 0.9430 0.9380) 
*ASC_SAT 0.91572 
*SOURCE FILE: C034_C011_1130SD
000254  A140_C002_1107ZZ                 V     C        19:57:41:20 19:57:47:18 01:24:54:06 01:25:00:04 
*FROM CLIP NAME:  203_V34-2.2* 
*LOC: 01:24:54:17 GREEN   203_034_030 - GREEN SCREEN WINDOW DON LOOKS FOR MONOCULAR 
*ASC_SOP (1.0000 1.0000 1.0000)(-0.0118 -0.0162 -0.0066)(0.9818 0.9818 0.9818) 
*ASC_SAT 0.91572 
*SOURCE FILE: A140_C002_1107ZZ
000255  C034_C011_1130SD                 V     C        13:04:35:09 13:04:37:09 01:25:00:04 01:25:02:04 
*FROM CLIP NAME:  203_VX34A-2* 
*LOC: 01:25:01:08 GREEN   203_034_040 - DON LOOKING OUT WINDOW WITH MONOCULAR 
*ASC_SOP (1.0000 0.9998 0.9952)(-0.0050 -0.0098 -0.0063)(0.9455 0.9430 0.9380) 
*ASC_SAT 0.91572 
*SOURCE FILE: C034_C011_1130SD
000256  A143_C003_1108VO                 V     C        20:21:44:08 20:21:46:11 01:25:02:04 01:25:04:07 
*FROM CLIP NAME:  203_34A-2* (DON ISO) 
*ASC_SOP (1.0000 1.0000 1.0000)(-0.0379 -0.0400 -0.0331)(0.9138 0.9257 0.9349) 
*ASC_SAT 0.91572 
*SOURCE FILE: A143_C003_1108VO
000257  B107_C020_04039B                 V     C        16:51:59:02 16:52:01:13 01:25:04:07 01:25:06:18 
*FROM CLIP NAME:  203_VXX34A-1* 
*LOC: 01:25:04:17 GREEN   203_034_050 - POV DON LOOKING AT DINING HALL 
*ASC_SOP (0.9779 1.0241 0.9980)(-0.0124 -0.0162 -0.0040)(1.0429 1.0491 1.0792) 
*ASC_SAT 0.8252 
*SOURCE FILE: B107_C020_04039B
000258  A166_C001_1121OK                 V     C        18:13:10:09 18:13:11:13 01:25:06:18 01:25:07:22 
*FROM CLIP NAME:  203_A33C-1.2* 
*ASC_SOP (1.0000 1.0000 1.0000)(-0.0261 -0.0279 -0.0133)(0.9783 0.9740 0.9848) 
*ASC_SAT 0.8252 
*SOURCE FILE: A166_C001_1121OK
000259  A167_C002_1122H7                 V     C        12:07:42:03 12:07:47:01 01:25:07:22 01:25:12:20 
*FROM CLIP NAME:  203_35-2* 
*ASC_SOP (1.0000 1.0000 1.0000)(-0.0144 -0.0165 -0.0106)(0.9783 0.9740 0.9848) 
*ASC_SAT 0.8252 
*SOURCE FILE: A167_C002_1122H7
000260  A167_C004_1122AI                 V     C        12:22:14:22 12:22:16:14 01:25:12:20 01:25:14:12 
*FROM CLIP NAME:  203_V35A-2* 
*LOC: 01:25:13:12 GREEN   203_035_010 - GREEN SCREEN WINDOW PENNY AND WILL WAVE AT DON 
*ASC_SOP (1.0000 1.0000 1.0000)(-0.0144 -0.0165 -0.0106)(0.9783 0.9740 0.9848) 
*ASC_SAT 0.8252 
*SOURCE FILE: A167_C004_1122AI
000261  B107_C022_040337                 V     C        17:02:56:09 17:02:57:18 01:25:14:12 01:25:15:21 
*FROM CLIP NAME:  203_VXX34A-2* 
*LOC: 01:25:14:16 GREEN   203_035_020 - POV DON SEENS PENNY AND WILL WAVING 
*ASC_SOP (0.9779 1.0241 0.9980)(-0.0124 -0.0162 -0.0040)(1.0429 1.0491 1.0792) 
*ASC_SAT 0.8252 
*SOURCE FILE: B107_C022_040337
000262  A143_C002_1108TT                 V     C        20:11:51:14 20:11:54:23 01:25:15:21 01:25:19:06 
*FROM CLIP NAME:  203_34A-1 (DON ISO) 
*ASC_SOP (1.0000 1.0000 1.0000)(-0.0379 -0.0400 -0.0331)(0.9138 0.9257 0.9349) 
*ASC_SAT 0.91572 
*SOURCE FILE: A143_C002_1108TT
000263  A165_C033_1121NZ                 V     C        17:45:22:11 17:45:24:13 01:25:19:06 01:25:21:08 
*FROM CLIP NAME:  203_A33B-4* 
*ASC_SOP (1.0000 1.0000 1.0000)(-0.0261 -0.0279 -0.0133)(0.9783 0.9740 0.9848) 
*ASC_SAT 0.8252 
*SOURCE FILE: A165_C033_1121NZ
000264  A143_C003_1108VO                 V     C        20:23:09:02 20:23:16:09 01:25:21:08 01:25:28:15 
*FROM CLIP NAME:  203_34A-2* (DON ISO) 
*ASC_SOP (1.0000 1.0000 1.0000)(-0.0379 -0.0400 -0.0331)(0.9138 0.9257 0.9349) 
*ASC_SAT 0.91572 
*SOURCE FILE: A143_C003_1108VO
000265  A165_C032_1121E6                 V     C        17:43:37:16 17:43:41:02 01:25:28:15 01:25:32:01 
*FROM CLIP NAME:  203_A33B-3.2* 
*ASC_SOP (1.0000 1.0000 1.0000)(-0.0261 -0.0279 -0.0133)(0.9783 0.9740 0.9848) 
*ASC_SAT 0.8252 
*SOURCE FILE: A165_C032_1121E6
000266  A140_C002_1107ZZ                 V     C        19:54:18:07 19:54:23:11 01:25:32:01 01:25:37:05 
*FROM CLIP NAME:  203_V34-2.1* 
*LOC: 01:25:32:17 GREEN   203_036_010 - GREEN SCREEN WINDOW DON SITS ON LEDGE OF WINDOW 
*ASC_SOP (1.0000 1.0000 1.0000)(-0.0118 -0.0162 -0.0066)(0.9818 0.9818 0.9818) 
*ASC_SAT 0.91572 
*SOURCE FILE: A140_C002_1107ZZ
000267  A165_C031_1121ZS                 V     C        17:41:00:14 17:41:04:02 01:25:37:05 01:25:40:17 
*FROM CLIP NAME:  203_A33B-2.2* 
*ASC_SOP (1.0000 1.0000 1.0000)(-0.0261 -0.0279 -0.0133)(0.9783 0.9740 0.9848) 
*ASC_SAT 0.8252 
*SOURCE FILE: A165_C031_1121ZS
000268  A143_C003_1108VO                 V     C        20:23:25:10 20:23:33:20 01:25:40:17 01:25:49:03 
*FROM CLIP NAME:  203_34A-2 (A) 
*ASC_SOP (1.0000 1.0000 1.0000)(-0.0379 -0.0400 -0.0331)(0.9138 0.9257 0.9349) 
*ASC_SAT 0.91572 
*SOURCE FILE: A143_C003_1108VO
000269  A165_C032_1121E6                 V     C        17:43:54:02 17:43:58:14 01:25:49:03 01:25:53:15 
*FROM CLIP NAME:  203_A33B-3.2* 
*ASC_SOP (1.0000 1.0000 1.0000)(-0.0261 -0.0279 -0.0133)(0.9783 0.9740 0.9848) 
*ASC_SAT 0.8252 
*SOURCE FILE: A165_C032_1121E6
000270  A166_C002_1121EP                 V     C        18:17:08:13 18:17:09:12 01:25:53:15 01:25:54:14 
*FROM CLIP NAME:  203_A33C-2* 
*ASC_SOP (1.0000 1.0000 1.0000)(-0.0261 -0.0279 -0.0133)(0.9783 0.9740 0.9848) 
*ASC_SAT 0.8252 
*SOURCE FILE: A166_C002_1121EP
000271  A165_C032_1121E6                 V     C        17:44:00:19 17:44:03:01 01:25:54:14 01:25:56:20 
*FROM CLIP NAME:  203_A33B-3.2* 
*ASC_SOP (1.0000 1.0000 1.0000)(-0.0261 -0.0279 -0.0133)(0.9783 0.9740 0.9848) 
*ASC_SAT 0.8252 
*SOURCE FILE: A165_C032_1121E6
000272  A166_C002_1121EP                 V     C        18:17:11:12 18:17:15:16 01:25:56:20 01:26:01:00 
*FROM CLIP NAME:  203_A33C-2* 
*ASC_SOP (1.0000 1.0000 1.0000)(-0.0261 -0.0279 -0.0133)(0.9783 0.9740 0.9848) 
*ASC_SAT 0.8252 
*SOURCE FILE: A166_C002_1121EP
000273  A165_C029_11218A                 V     C        17:17:56:19 17:18:02:02 01:26:01:00 01:26:06:07 
*FROM CLIP NAME:  203_A33A-3* 
*ASC_SOP (1.0000 1.0000 1.0000)(-0.0261 -0.0279 -0.0133)(0.9783 0.9740 0.9848) 
*ASC_SAT 0.8252 
*SOURCE FILE: A165_C029_11218A
000274  A167_C012_1122M0                 V     C        13:38:57:20 13:39:13:02 01:26:06:07 01:26:21:13 
*FROM CLIP NAME:  203_37A-2.5* 
*ASC_SOP (1.0000 1.0000 1.0000)(-0.0104 -0.0126 -0.0066)(0.9783 0.9740 0.9848) 
*ASC_SAT 0.8252 
*SOURCE FILE: A167_C012_1122M0
000275  A167_C010_1122VZ                 V     C        13:12:57:03 13:13:04:16 01:26:21:13 01:26:29:02 
*FROM CLIP NAME:  203_37-4* 
*ASC_SOP (1.0000 1.0000 1.0000)(-0.0144 -0.0165 -0.0106)(0.9783 0.9740 0.9848) 
*ASC_SAT 0.8252 
*SOURCE FILE: A167_C010_1122VZ
000276  A167_C012_1122M0                 V     C        13:39:20:09 13:39:26:05 01:26:29:02 01:26:34:22 
*FROM CLIP NAME:  203_37A-2.5* 
*ASC_SOP (1.0000 1.0000 1.0000)(-0.0104 -0.0126 -0.0066)(0.9783 0.9740 0.9848) 
*ASC_SAT 0.8252 
*SOURCE FILE: A167_C012_1122M0
000277  A167_C010_1122VZ                 V     C        13:13:11:06 13:13:15:11 01:26:34:22 01:26:39:03 
*FROM CLIP NAME:  203_37-4* 
*ASC_SOP (1.0000 1.0000 1.0000)(-0.0144 -0.0165 -0.0106)(0.9783 0.9740 0.9848) 
*ASC_SAT 0.8252 
*SOURCE FILE: A167_C010_1122VZ
000278  A167_C012_1122M0                 V     C        13:39:30:14 13:39:36:03 01:26:39:03 01:26:44:16 
*FROM CLIP NAME:  203_37A-2.5* 
*ASC_SOP (1.0000 1.0000 1.0000)(-0.0104 -0.0126 -0.0066)(0.9783 0.9740 0.9848) 
*ASC_SAT 0.8252 
*SOURCE FILE: A167_C012_1122M0
000279  A155_C004_1116HT                 V     C        12:29:04:21 12:29:07:13 01:26:44:16 01:26:47:08 
*FROM CLIP NAME:  203_38-4* 
*LOC: 01:26:45:18 YELLOW  BIG SCI-FI DOOR - PRE-LAPPING IN FROM END OF PREVIOUS SCENE 
*ASC_SOP (1.0000 1.0000 1.0000)(-0.0196 -0.0215 -0.0106)(0.9778 0.9782 0.9812) 
*ASC_SAT 0.8252 
*SOURCE FILE: A155_C004_1116HT
000280  A155_C004_1116HT                 V     C        12:29:07:13 12:29:07:13 01:26:47:08 01:26:47:08 
000280  A155_C004_1116HT                 V     D    002 12:29:08:19 12:29:23:08 01:26:47:08 01:27:01:21 
*FROM CLIP NAME:  203_38-4* 
*TO CLIP NAME:  203_38-4* 
*LOC: 01:26:48:10 YELLOW  BIG SCI-FI DOOR - PRE-LAPPING IN FROM END OF PREVIOUS SCENE 
*LOC: 01:26:48:10 YELLOW  THROUGHOUT THE SCENE - FLICKERING FLOURESCENTS WHENEVER VISIBLE. GIVE THEM SOME PERSPECTIVE, MOVING CLOSER THEN FARTHER AWAY AS THEY PASS BY, BUT NOT TOO LOUD 
*LOC: 01:27:01:16 YELLOW  SCRAPE OR SKITTER OR SOMETHING TO DRAW HER ATTENTION BACKWARD 
*ASC_SOP (1.0000 1.0000 1.0000)(-0.0196 -0.0215 -0.0106)(0.9778 0.9782 0.9812) 
*ASC_SAT 0.8252 
*SOURCE FILE: A155_C004_1116HT
000281  BL                               V     C        00:00:00:00 00:00:02:02 01:27:01:21 01:27:03:23 
*SOURCE FILE: (NULL)
000282  A155_C004_1116HT                 V     C        12:29:25:10 12:29:53:23 01:27:03:23 01:27:32:12 
*FROM CLIP NAME:  203_38-4* 
*ASC_SOP (1.0000 1.0000 1.0000)(-0.0196 -0.0215 -0.0106)(0.9778 0.9782 0.9812) 
*ASC_SAT 0.8252 
*SOURCE FILE: A155_C004_1116HT
000283  C031_C006_1129XU                 V     C        12:17:58:01 12:18:01:22 01:27:32:12 01:27:36:09 
*FROM CLIP NAME:  203_X40A-4* 
*ASC_SOP (0.9985 1.0022 0.9993)(0.0000 0.0000 0.0000)(1.0167 1.0201 1.0172) 
*ASC_SAT 1 
*SOURCE FILE: C031_C006_1129XU
000284  BL                               V     C        00:00:00:00 00:00:02:12 01:27:36:09 01:27:38:21 
*SOURCE FILE: (NULL)
000285  C032_C004_1129DB                 V     C        14:39:57:13 14:39:58:11 01:27:38:21 01:27:39:19 
*FROM CLIP NAME:  203_VX40D-4.4* 
*ASC_SOP (0.9985 1.0022 0.9993)(-0.0138 -0.0126 -0.0096)(1.0293 1.0294 1.0313) 
*ASC_SAT 1 
*SOURCE FILE: C032_C004_1129DB
000286  C031_C014_1129HQ                 V     C        13:21:54:22 13:21:55:10 01:27:39:19 01:27:40:07 
*FROM CLIP NAME:  203_X40C-2* 
*ASC_SOP (0.9985 1.0022 0.9993)(0.0014 0.0009 -0.0022)(1.0167 1.0201 1.0172) 
*ASC_SAT 1 
*SOURCE FILE: C031_C014_1129HQ
000287  C032_C009_11290N                 V     C        15:33:08:16 15:33:09:09 01:27:40:07 01:27:41:00 
*FROM CLIP NAME:  203_X40F-2* 
*ASC_SOP (0.9530 0.9370 0.9090)(0.0000 0.0000 0.0000)(1.0108 1.0195 1.0237) 
*ASC_SAT 1 
*SOURCE FILE: C032_C009_11290N
000288  C031_C011_112952                 V     C        12:53:25:13 12:53:26:09 01:27:41:00 01:27:41:20 
*FROM CLIP NAME:  203_X40B-3* 
*ASC_SOP (0.9985 1.0022 0.9993)(0.0000 0.0000 0.0000)(1.0167 1.0201 1.0172) 
*ASC_SAT 1 
*SOURCE FILE: C031_C011_112952
000289  C031_C016_1129PA                 V     C        13:28:49:12 13:28:50:05 01:27:41:20 01:27:42:13 
*FROM CLIP NAME:  203_X40C-4* 
*ASC_SOP (0.9985 1.0022 0.9993)(0.0014 0.0009 -0.0022)(1.0167 1.0201 1.0172) 
*ASC_SAT 1 
*SOURCE FILE: C031_C016_1129PA
000290  C031_C011_112952                 V     C        12:53:28:03 12:53:29:09 01:27:42:13 01:27:43:19 
*FROM CLIP NAME:  203_X40B-3* 
*ASC_SOP (0.9985 1.0022 0.9993)(0.0000 0.0000 0.0000)(1.0167 1.0201 1.0172) 
*ASC_SAT 1 
*SOURCE FILE: C031_C011_112952
000291  C031_C016_1129PA                 V     C        13:28:50:12 13:28:54:23 01:27:43:19 01:27:48:06 
*FROM CLIP NAME:  203_X40C-4* 
*ASC_SOP (0.9985 1.0022 0.9993)(0.0014 0.0009 -0.0022)(1.0167 1.0201 1.0172) 
*ASC_SAT 1 
*SOURCE FILE: C031_C016_1129PA
000292  C031_C011_112952                 V     C        12:53:30:18 12:53:32:08 01:27:48:06 01:27:49:20 
*FROM CLIP NAME:  203_X40B-3* 
*ASC_SOP (0.9985 1.0022 0.9993)(0.0000 0.0000 0.0000)(1.0167 1.0201 1.0172) 
*ASC_SAT 1 
*SOURCE FILE: C031_C011_112952
000293  C032_C009_11290N                 V     C        15:33:26:09 15:33:29:11 01:27:49:20 01:27:52:22 
*FROM CLIP NAME:  203_X40F-2* 
*ASC_SOP (0.9530 0.9370 0.9090)(0.0000 0.0000 0.0000)(1.0108 1.0195 1.0237) 
*ASC_SAT 1 
*SOURCE FILE: C032_C009_11290N
000294  C031_C015_11294I                 V     C        13:25:37:00 13:25:42:06 01:27:52:22 01:27:58:04 
*FROM CLIP NAME:  203_X40C-3* 
*ASC_SOP (0.9985 1.0022 0.9993)(0.0014 0.0009 -0.0022)(1.0167 1.0201 1.0172) 
*ASC_SAT 1 
*SOURCE FILE: C031_C015_11294I
000295  C031_C011_112952                 V     C        12:53:39:00 12:53:44:02 01:27:58:04 01:28:03:06 
*FROM CLIP NAME:  203_X40B-3* 
*ASC_SOP (0.9985 1.0022 0.9993)(0.0000 0.0000 0.0000)(1.0167 1.0201 1.0172) 
*ASC_SAT 1 
*SOURCE FILE: C031_C011_112952
000296  C032_C009_11290N                 V     C        15:33:38:18 15:33:41:03 01:28:03:06 01:28:05:15 
*FROM CLIP NAME:  203_X40F-2* 
*ASC_SOP (0.9530 0.9370 0.9090)(0.0000 0.0000 0.0000)(1.0108 1.0195 1.0237) 
*ASC_SAT 1 
*SOURCE FILE: C032_C009_11290N
000297  C031_C010_1129PD                 V     C        12:51:04:04 12:51:05:11 01:28:05:15 01:28:06:22 
*FROM CLIP NAME:  203_X40B-2* 
*ASC_SOP (0.9985 1.0022 0.9993)(0.0000 0.0000 0.0000)(1.0167 1.0201 1.0172) 
*ASC_SAT 1 
*SOURCE FILE: C031_C010_1129PD
000298  C031_C014_1129HQ                 V     C        13:22:28:03 13:22:30:12 01:28:06:22 01:28:09:07 
*FROM CLIP NAME:  203_X40C-2* 
*ASC_SOP (0.9985 1.0022 0.9993)(0.0014 0.0009 -0.0022)(1.0167 1.0201 1.0172) 
*ASC_SAT 1 
*SOURCE FILE: C031_C014_1129HQ
000299  C031_C010_1129PD                 V     C        12:51:06:14 12:51:08:17 01:28:09:07 01:28:11:10 
*FROM CLIP NAME:  203_X40B-2* 
*ASC_SOP (0.9985 1.0022 0.9993)(0.0000 0.0000 0.0000)(1.0167 1.0201 1.0172) 
*ASC_SAT 1 
*SOURCE FILE: C031_C010_1129PD
000300  C031_C014_1129HQ                 V     C        13:22:34:18 13:22:36:04 01:28:11:10 01:28:12:20 
*FROM CLIP NAME:  203_X40C-2* 
*ASC_SOP (0.9985 1.0022 0.9993)(0.0014 0.0009 -0.0022)(1.0167 1.0201 1.0172) 
*ASC_SAT 1 
*SOURCE FILE: C031_C014_1129HQ
000301  C031_C010_1129PD                 V     C        12:51:11:06 12:51:12:20 01:28:12:20 01:28:14:10 
*FROM CLIP NAME:  203_X40B-2 (C) 
*ASC_SOP (0.9985 1.0022 0.9993)(0.0000 0.0000 0.0000)(1.0167 1.0201 1.0172) 
*ASC_SAT 1 
*SOURCE FILE: C031_C010_1129PD
000302  C032_C009_11290N                 V     C        15:33:41:04 15:33:43:12 01:28:14:10 01:28:16:18 
*FROM CLIP NAME:  203_X40F-2* 
*ASC_SOP (0.9530 0.9370 0.9090)(0.0000 0.0000 0.0000)(1.0108 1.0195 1.0237) 
*ASC_SAT 1 
*SOURCE FILE: C032_C009_11290N
000303  C031_C015_11294I                 V     C        13:26:11:16 13:26:13:17 01:28:16:18 01:28:18:19 
*FROM CLIP NAME:  203_X40C-3* 
*ASC_SOP (0.9985 1.0022 0.9993)(0.0014 0.0009 -0.0022)(1.0167 1.0201 1.0172) 
*ASC_SAT 1 
*SOURCE FILE: C031_C015_11294I
000304  C031_C010_1129PD                 V     C        12:51:18:22 12:51:20:23 01:28:18:19 01:28:20:20 
*FROM CLIP NAME:  203_X40B-2* 
*ASC_SOP (0.9985 1.0022 0.9993)(0.0000 0.0000 0.0000)(1.0167 1.0201 1.0172) 
*ASC_SAT 1 
*SOURCE FILE: C031_C010_1129PD
000305  C031_C014_1129HQ                 V     C        13:22:46:05 13:22:56:18 01:28:20:20 01:28:31:09 
*FROM CLIP NAME:  203_X40C-2* 
*ASC_SOP (0.9985 1.0022 0.9993)(0.0014 0.0009 -0.0022)(1.0167 1.0201 1.0172) 
*ASC_SAT 1 
*SOURCE FILE: C031_C014_1129HQ
000306  C031_C011_112952                 V     C        12:54:14:21 12:54:29:13 01:28:31:09 01:28:46:01 
*FROM CLIP NAME:  203_X40B-3* 
*ASC_SOP (0.9985 1.0022 0.9993)(0.0000 0.0000 0.0000)(1.0167 1.0201 1.0172) 
*ASC_SAT 1 
*SOURCE FILE: C031_C011_112952
000307  C031_C015_11294I                 V     C        13:26:40:11 13:26:47:00 01:28:46:01 01:28:52:14 
*FROM CLIP NAME:  203_X40C-3* 
*ASC_SOP (0.9985 1.0022 0.9993)(0.0014 0.0009 -0.0022)(1.0167 1.0201 1.0172) 
*ASC_SAT 1 
*SOURCE FILE: C031_C015_11294I
000308  C031_C012_1129YF                 V     C        12:57:37:05 12:57:42:09 01:28:52:14 01:28:57:18 
*FROM CLIP NAME:  203_X40B-4PU* 
*ASC_SOP (0.9985 1.0022 0.9993)(0.0000 0.0000 0.0000)(1.0167 1.0201 1.0172) 
*ASC_SAT 1 
*SOURCE FILE: C031_C012_1129YF
000309  C031_C015_11294I                 V     C        13:26:53:12 13:26:54:09 01:28:57:18 01:28:58:15 
*FROM CLIP NAME:  203_X40C-3* 
*ASC_SOP (0.9985 1.0022 0.9993)(0.0014 0.0009 -0.0022)(1.0167 1.0201 1.0172) 
*ASC_SAT 1 
*SOURCE FILE: C031_C015_11294I
000310  C031_C011_112952                 V     C        12:54:42:22 12:54:44:23 01:28:58:15 01:29:00:16 
*FROM CLIP NAME:  203_X40B-3* 
*ASC_SOP (0.9985 1.0022 0.9993)(0.0000 0.0000 0.0000)(1.0167 1.0201 1.0172) 
*ASC_SAT 1 
*SOURCE FILE: C031_C011_112952
000311  C031_C015_11294I                 V     C        13:26:59:19 13:27:00:23 01:29:00:16 01:29:01:20 
*FROM CLIP NAME:  203_X40C-3* 
*ASC_SOP (0.9985 1.0022 0.9993)(0.0014 0.0009 -0.0022)(1.0167 1.0201 1.0172) 
*ASC_SAT 1 
*SOURCE FILE: C031_C015_11294I
000312  C031_C010_1129PD                 V     C        12:51:58:16 12:52:00:13 01:29:01:20 01:29:03:17 
*FROM CLIP NAME:  203_X40B-2* 
*ASC_SOP (0.9985 1.0022 0.9993)(0.0000 0.0000 0.0000)(1.0167 1.0201 1.0172) 
*ASC_SAT 1 
*SOURCE FILE: C031_C010_1129PD
000313  C031_C015_11294I                 V     C        13:27:06:08 13:27:08:00 01:29:03:17 01:29:05:09 
*FROM CLIP NAME:  203_X40C-3* 
*ASC_SOP (0.9985 1.0022 0.9993)(0.0014 0.0009 -0.0022)(1.0167 1.0201 1.0172) 
*ASC_SAT 1 
*SOURCE FILE: C031_C015_11294I
000314  C032_C007_1129O4                 V     C        15:10:37:21 15:10:42:10 01:29:05:09 01:29:09:22 
*FROM CLIP NAME:  203_X40E-3* 
*ASC_SOP (0.9588 0.9627 0.9225)(0.0045 0.0045 0.0045)(0.9825 1.0109 1.0607) 
*ASC_SAT 1 
*SOURCE FILE: C032_C007_1129O4
000315  C032_C012_1129NG                 V     C        16:32:21:12 16:32:24:13 01:29:09:22 01:29:12:23 
*FROM CLIP NAME:  203_VX40G-3.2* 
*ASC_SOP (0.9588 0.9649 0.9202)(0.0045 0.0045 0.0045)(0.9825 1.0109 1.0607) 
*ASC_SAT 1 
*SOURCE FILE: C032_C012_1129NG
000316  A167_C016_1122AG                 V     C        15:10:10:09 15:10:42:22 01:29:12:23 01:29:45:12 
*FROM CLIP NAME:  203_42-4* 
*ASC_SOP (1.0000 1.0000 1.0000)(-0.0104 -0.0126 -0.0066)(0.9783 0.9740 0.9848) 
*ASC_SAT 0.8252 
*SOURCE FILE: A167_C016_1122AG
000317  A174_C009_11265G                 V     C        16:24:04:18 16:24:06:11 01:29:45:12 01:29:47:05 
*FROM CLIP NAME:  203_V43-3* 
*ASC_SOP (1.0000 1.0000 1.0000)(-0.0196 -0.0215 -0.0106)(0.9774 0.9758 0.9839) 
*ASC_SAT 0.8252 
*SOURCE FILE: A174_C009_11265G
000318  B109_C025_0406RY                 V     C        18:05:06:11 18:05:07:16 01:29:47:05 01:29:48:10 
*FROM CLIP NAME:  203_V43C-3* 
*ASC_SOP (0.9275 0.9273 0.9201)(-0.0181 -0.0156 -0.0057)(0.9682 0.9664 0.9834) 
*ASC_SAT 0.91284 
*SOURCE FILE: B109_C025_0406RY
000319  A167_C016_1122AG                 V     C        15:10:46:01 15:10:49:03 01:29:48:10 01:29:51:12 
*FROM CLIP NAME:  203_42-4* 
*ASC_SOP (1.0000 1.0000 1.0000)(-0.0104 -0.0126 -0.0066)(0.9783 0.9740 0.9848) 
*ASC_SAT 0.8252 
*SOURCE FILE: A167_C016_1122AG
000320  A174_C009_11265G                 V     C        16:24:10:04 16:24:12:09 01:29:51:12 01:29:53:17 
*FROM CLIP NAME:  203_V43-3* 
*LOC: 01:29:52:03 GREEN   203_043_010 - GREEN SCREEN WINDOW AS MAUREEN AND JOHN WALK DOWN HALLWAY 
*ASC_SOP (1.0000 1.0000 1.0000)(-0.0196 -0.0215 -0.0106)(0.9774 0.9758 0.9839) 
*ASC_SAT 0.8252 
*SOURCE FILE: A174_C009_11265G
000321  B109_C022_04066X                 V     C        17:52:52:20 17:52:57:11 01:29:53:17 01:29:58:08 
*FROM CLIP NAME:  203_V43B-2* 
*ASC_SOP (1.0000 0.9998 0.9926)(-0.0251 -0.0226 -0.0127)(0.9682 0.9664 0.9834) 
*ASC_SAT 0.91284 
*SOURCE FILE: B109_C022_04066X
000322  A174_C009_11265G                 V     C        16:24:19:01 16:24:21:17 01:29:58:08 01:30:01:00 
*FROM CLIP NAME:  203_V43-3* 
*LOC: 01:29:58:19 GREEN   203_043_020 - GREEN SCREEN WINDOW MAUREEN AND JOHN LOOK UP AT DON 
*ASC_SOP (1.0000 1.0000 1.0000)(-0.0196 -0.0215 -0.0106)(0.9774 0.9758 0.9839) 
*ASC_SAT 0.8252 
*SOURCE FILE: A174_C009_11265G
000323  C034_C011_1130SD                 V     C        13:05:29:03 13:05:31:07 01:30:01:00 01:30:03:04 
*FROM CLIP NAME:  203_VX34A-2* 
*LOC: 01:30:01:14 GREEN   203_044_010 - DON LOOKING OUT OF WINDOW WITH MONOCULAR 
*ASC_SOP (1.0000 0.9998 0.9952)(-0.0050 -0.0098 -0.0063)(0.9455 0.9430 0.9380) 
*ASC_SAT 0.91572 
*SOURCE FILE: C034_C011_1130SD
000324  B107_C024_0403LK                 V     C        17:11:35:01 17:11:37:00 01:30:03:04 01:30:05:03 
*FROM CLIP NAME:  203_VXX34A-3* 
*LOC: 01:30:03:14 GREEN   203_044_020 - POV DON SEEN PENNY AND WILL START TO TURN OVER TABLE IN DINING HALL 
*ASC_SOP (0.9779 1.0241 0.9980)(-0.0124 -0.0162 -0.0040)(1.0429 1.0491 1.0792) 
*ASC_SAT 0.8252 
*SOURCE FILE: B107_C024_0403LK
000325  A167_C016_1122AG                 V     C        15:11:06:21 15:11:20:18 01:30:05:03 01:30:19:00 
*FROM CLIP NAME:  203_42-4* 
*ASC_SOP (1.0000 1.0000 1.0000)(-0.0104 -0.0126 -0.0066)(0.9783 0.9740 0.9848) 
*ASC_SAT 0.8252 
*SOURCE FILE: A167_C016_1122AG
000326  A167_C020_1122IJ                 V     C        15:39:38:03 15:39:41:04 01:30:19:00 01:30:22:01 
*FROM CLIP NAME:  203_42A-4* 
*ASC_SOP (1.0000 1.0000 1.0000)(-0.0104 -0.0126 -0.0066)(0.9783 0.9740 0.9848) 
*ASC_SAT 0.8252 
*SOURCE FILE: A167_C020_1122IJ
000327  A167_C015_1122CA                 V     C        15:06:48:01 15:06:55:10 01:30:22:01 01:30:29:10 
*FROM CLIP NAME:  203_42-3* 
*ASC_SOP (1.0000 1.0000 1.0000)(-0.0104 -0.0126 -0.0066)(0.9783 0.9740 0.9848) 
*ASC_SAT 0.8252 
*SOURCE FILE: A167_C015_1122CA
000328  B105_C003_0402P8                 V     C        16:53:19:17 16:53:24:09 01:30:29:10 01:30:34:02 
*FROM CLIP NAME:  203_42C-3* 
*ASC_SOP (1.0000 0.9998 0.9926)(-0.0178 -0.0152 -0.0108)(0.9685 0.9646 0.9848) 
*ASC_SAT 0.82821 
*SOURCE FILE: B105_C003_0402P8
000329  A167_C020_1122IJ                 V     C        15:40:01:08 15:40:06:07 01:30:34:02 01:30:39:01 
*FROM CLIP NAME:  203_42A-4* 
*ASC_SOP (1.0000 1.0000 1.0000)(-0.0104 -0.0126 -0.0066)(0.9783 0.9740 0.9848) 
*ASC_SAT 0.8252 
*SOURCE FILE: A167_C020_1122IJ
000330  B105_C003_0402P8                 V     C        16:53:28:03 16:53:31:18 01:30:39:01 01:30:42:16 
*FROM CLIP NAME:  203_42C-3* 
*ASC_SOP (1.0000 0.9998 0.9926)(-0.0178 -0.0152 -0.0108)(0.9685 0.9646 0.9848) 
*ASC_SAT 0.82821 
*SOURCE FILE: B105_C003_0402P8
000331  A167_C020_1122IJ                 V     C        15:40:09:08 15:40:11:21 01:30:42:16 01:30:45:05 
*FROM CLIP NAME:  203_42A-4* 
*ASC_SOP (1.0000 1.0000 1.0000)(-0.0104 -0.0126 -0.0066)(0.9783 0.9740 0.9848) 
*ASC_SAT 0.8252 
*SOURCE FILE: A167_C020_1122IJ
000332  B105_C003_0402P8                 V     C        16:53:34:22 16:53:37:06 01:30:45:05 01:30:47:13 
*FROM CLIP NAME:  203_42C-3* 
*ASC_SOP (1.0000 0.9998 0.9926)(-0.0178 -0.0152 -0.0108)(0.9685 0.9646 0.9848) 
*ASC_SAT 0.82821 
*SOURCE FILE: B105_C003_0402P8
000333  A167_C020_1122IJ                 V     C        15:40:13:10 15:40:17:01 01:30:47:13 01:30:51:04 
*FROM CLIP NAME:  203_42A-4* 
*ASC_SOP (1.0000 1.0000 1.0000)(-0.0104 -0.0126 -0.0066)(0.9783 0.9740 0.9848) 
*ASC_SAT 0.8252 
*SOURCE FILE: A167_C020_1122IJ
000334  A175_C001_1126Z0                 V     C        17:04:24:00 17:04:26:14 01:30:51:04 01:30:53:18 
*FROM CLIP NAME:  203_43A-3* 
*ASC_SOP (1.0000 1.0000 1.0000)(-0.0196 -0.0215 -0.0106)(0.9774 0.9758 0.9839) 
*ASC_SAT 0.8252 
*SOURCE FILE: A175_C001_1126Z0
000335  A167_C021_1122A2                 V     C        16:11:10:11 16:11:12:00 01:30:53:18 01:30:55:07 
*FROM CLIP NAME:  203_42B-1.2* 
*ASC_SOP (1.0000 1.0000 1.0000)(-0.0104 -0.0126 -0.0066)(0.9783 0.9740 0.9848) 
*ASC_SAT 0.8252 
*SOURCE FILE: A167_C021_1122A2
000336  A167_C020_1122IJ                 V     C        15:40:23:05 15:40:25:03 01:30:55:07 01:30:57:05 
*FROM CLIP NAME:  203_42A-4* 
*ASC_SOP (1.0000 1.0000 1.0000)(-0.0104 -0.0126 -0.0066)(0.9783 0.9740 0.9848) 
*ASC_SAT 0.8252 
*SOURCE FILE: A167_C020_1122IJ
000337  A175_C002_11262F                 V     C        17:06:49:15 17:06:52:02 01:30:57:05 01:30:59:16 
*FROM CLIP NAME:  203_43A-4* 
*ASC_SOP (1.0000 1.0000 1.0000)(-0.0196 -0.0215 -0.0106)(0.9774 0.9758 0.9839) 
*ASC_SAT 0.8252 
*SOURCE FILE: A175_C002_11262F
000338  A167_C019_112210                 V     C        15:37:40:06 15:37:41:21 01:30:59:16 01:31:01:07 
*FROM CLIP NAME:  203_42A-3 
*ASC_SOP (1.0000 1.0000 1.0000)(-0.0104 -0.0126 -0.0066)(0.9783 0.9740 0.9848) 
*ASC_SAT 0.8252 
*SOURCE FILE: A167_C019_112210
000339  A175_C002_11262F                 V     C        17:06:55:12 17:06:58:03 01:31:01:07 01:31:03:22 
*FROM CLIP NAME:  203_43A-4* 
*ASC_SOP (1.0000 1.0000 1.0000)(-0.0196 -0.0215 -0.0106)(0.9774 0.9758 0.9839) 
*ASC_SAT 0.8252 
*SOURCE FILE: A175_C002_11262F
000340  A143_C003_1108VO                 V     C        20:24:03:15 20:24:06:01 01:31:03:22 01:31:06:08 
*FROM CLIP NAME:  203_34A-2*_ISO 
*ASC_SOP (1.0000 1.0000 1.0000)(-0.0379 -0.0400 -0.0331)(0.9138 0.9257 0.9349) 
*ASC_SAT 0.91572 
*SOURCE FILE: A143_C003_1108VO
000341  A175_C002_11262F                 V     C        17:06:59:19 17:07:01:09 01:31:06:08 01:31:07:22 
*FROM CLIP NAME:  203_43A-4* 
*ASC_SOP (1.0000 1.0000 1.0000)(-0.0196 -0.0215 -0.0106)(0.9774 0.9758 0.9839) 
*ASC_SAT 0.8252 
*SOURCE FILE: A175_C002_11262F
000342  A143_C003_1108VO                 V     C        20:24:08:19 20:24:11:12 01:31:07:22 01:31:10:15 
*FROM CLIP NAME:  203_34A-2*_ISO 
*ASC_SOP (1.0000 1.0000 1.0000)(-0.0379 -0.0400 -0.0331)(0.9138 0.9257 0.9349) 
*ASC_SAT 0.91572 
*SOURCE FILE: A143_C003_1108VO
000343  A175_C002_11262F                 V     C        17:07:02:20 17:07:05:18 01:31:10:15 01:31:13:13 
*FROM CLIP NAME:  203_43A-4* 
*ASC_SOP (1.0000 1.0000 1.0000)(-0.0196 -0.0215 -0.0106)(0.9774 0.9758 0.9839) 
*ASC_SAT 0.8252 
*SOURCE FILE: A175_C002_11262F
000344  A167_C018_1122OY                 V     C        15:35:16:06 15:35:18:18 01:31:13:13 01:31:16:01 
*FROM CLIP NAME:  203_42A-2 
*ASC_SOP (1.0000 1.0000 1.0000)(-0.0104 -0.0126 -0.0066)(0.9783 0.9740 0.9848) 
*ASC_SAT 0.8252 
*SOURCE FILE: A167_C018_1122OY
000345  A175_C002_11262F                 V     C        17:07:07:22 17:07:13:13 01:31:16:01 01:31:21:16 
*FROM CLIP NAME:  203_43A-4* 
*ASC_SOP (1.0000 1.0000 1.0000)(-0.0196 -0.0215 -0.0106)(0.9774 0.9758 0.9839) 
*ASC_SAT 0.8252 
*SOURCE FILE: A175_C002_11262F
000346  C032_C012_1129NG                 V     C        16:32:28:21 16:32:35:16 01:31:21:16 01:31:28:11 
*FROM CLIP NAME:  203_VX40G-3.2* 
*LOC: 01:31:23:01 GREEN   203_046_010 - SCARECROW MOVES DOWN THE HALLWAY AWAY FROM JUDY AND SAMANTHA 
*ASC_SOP (0.9588 0.9649 0.9202)(0.0045 0.0045 0.0045)(0.9825 1.0109 1.0607) 
*ASC_SAT 1 
*SOURCE FILE: C032_C012_1129NG
000347  C032_C012_1129NG                 V     C        16:32:35:16 16:32:35:16 01:31:28:11 01:31:28:11 
000347  A165_C010_1121ZU                 V     D    012 13:16:47:11 13:16:47:12 01:31:28:11 01:31:33:00 
M2      A165_C010_1121ZU                          000.0 13:16:47:11 
*FROM CLIP NAME:  203_VX40G-3.2* 
*TO CLIP NAME:  203_12E-3* 
*LOC: 01:31:29:20 GREEN   203_046_010 - SCARECROW MOVES DOWN THE HALLWAY AWAY FROM JUDY AND SAMANTHA 
*ASC_SOP (0.9588 0.9649 0.9202)(0.0045 0.0045 0.0045)(0.9825 1.0109 1.0607) 
*ASC_SAT 1 
*SOURCE FILE: C032_C012_1129NG
000348  C032_C011_1129KO                 V     C        16:27:02:03 16:27:04:00 01:31:33:00 01:31:34:21 
*FROM CLIP NAME:  203_VX40G-2.2*_DIA 
*ASC_SOP (0.9588 0.9649 0.9202)(0.0045 0.0045 0.0045)(0.9825 1.0109 1.0607) 
*ASC_SAT 1 
*SOURCE FILE: C032_C011_1129KO
000349  C032_C007_1129O4                 V     C        15:10:51:19 15:10:53:09 01:31:34:21 01:31:36:11 
*FROM CLIP NAME:  203_X40E-3* 
*ASC_SOP (0.9588 0.9627 0.9225)(0.0045 0.0045 0.0045)(0.9825 1.0109 1.0607) 
*ASC_SAT 1 
*SOURCE FILE: C032_C007_1129O4
000350  A175_C002_11262F                 V     C        17:07:18:13 17:07:23:22 01:31:36:11 01:31:41:20 
*FROM CLIP NAME:  203_43A-4* 
*ASC_SOP (1.0000 1.0000 1.0000)(-0.0196 -0.0215 -0.0106)(0.9774 0.9758 0.9839) 
*ASC_SAT 0.8252 
*SOURCE FILE: A175_C002_11262F
000351  C032_C007_1129O4                 V     C        15:11:00:08 15:11:02:11 01:31:41:20 01:31:43:23 
*FROM CLIP NAME:  203_X40E-3* 
*ASC_SOP (0.9588 0.9627 0.9225)(0.0045 0.0045 0.0045)(0.9825 1.0109 1.0607) 
*ASC_SAT 1 
*SOURCE FILE: C032_C007_1129O4
000352  A174_C012_1126DJ                 V     C        17:02:32:04 17:02:33:08 01:31:43:23 01:31:45:03 
*FROM CLIP NAME:  203_43A-2* 
*ASC_SOP (1.0000 1.0000 1.0000)(-0.0196 -0.0215 -0.0106)(0.9774 0.9758 0.9839) 
*ASC_SAT 0.8252 
*SOURCE FILE: A174_C012_1126DJ
000353  C032_C007_1129O4                 V     C        15:11:04:06 15:11:06:05 01:31:45:03 01:31:47:02 
*FROM CLIP NAME:  203_X40E-3* 
*ASC_SOP (0.9588 0.9627 0.9225)(0.0045 0.0045 0.0045)(0.9825 1.0109 1.0607) 
*ASC_SAT 1 
*SOURCE FILE: C032_C007_1129O4
000354  A175_C002_11262F                 V     C        17:07:29:01 17:07:34:00 01:31:47:02 01:31:52:01 
*FROM CLIP NAME:  203_43A-4* 
*ASC_SOP (1.0000 1.0000 1.0000)(-0.0196 -0.0215 -0.0106)(0.9774 0.9758 0.9839) 
*ASC_SAT 0.8252 
*SOURCE FILE: A175_C002_11262F
000355  B113_C001_0407B0                 V     C        16:45:57:02 16:46:01:13 01:31:52:01 01:31:56:12 
*FROM CLIP NAME:  203_VXX47D-1* 
*LOC: 01:31:53:00 YELLOW 
*ASC_SOP (1.0000 0.9998 0.9926)(-0.0402 -0.0349 -0.0228)(0.9638 0.9601 0.9848) 
*ASC_SAT 0.825 
*SOURCE FILE: B113_C001_0407B0
000356  B112_C013_0407J7                 V     C        16:16:03:04 16:16:13:20 01:31:56:12 01:32:07:04 
*FROM CLIP NAME:  203_XX47B-2* 
*ASC_SOP (1.0000 0.9998 0.9926)(-0.0402 -0.0349 -0.0228)(0.9638 0.9601 0.9848) 
*ASC_SAT 0.825 
*SOURCE FILE: B112_C013_0407J7
000357  B112_C010_0407A8                 V     C        15:53:51:03 15:53:54:08 01:32:07:04 01:32:10:09 
*FROM CLIP NAME:  203_XX47A-2.2* 
*LOC: 01:32:09:02 RED     PLEASE TRY A FUNNIER TAKE (I THINK 1.3 WILL WORK GREAT) 
*ASC_SOP (1.0000 0.9998 0.9926)(-0.0402 -0.0349 -0.0228)(0.9638 0.9601 0.9848) 
*ASC_SAT 0.825 
*SOURCE FILE: B112_C010_0407A8
000358  B112_C014_0407O1                 V     C        16:18:48:13 16:18:51:17 01:32:10:09 01:32:13:13 
*FROM CLIP NAME:  203_XX47B-3* 
*ASC_SOP (1.0000 0.9998 0.9926)(-0.0402 -0.0349 -0.0228)(0.9638 0.9601 0.9848) 
*ASC_SAT 0.825 
*SOURCE FILE: B112_C014_0407O1
000359  B112_C008_04071H                 V     C        15:06:40:11 15:06:41:15 01:32:13:13 01:32:14:17 
*FROM CLIP NAME:  203_VXX47-4* 
*ASC_SOP (1.0000 0.9998 0.9926)(-0.0402 -0.0349 -0.0228)(0.9638 0.9601 0.9848) 
*ASC_SAT 0.825 
*SOURCE FILE: B112_C008_04071H
000360  B112_C015_04075K                 V     C        16:26:06:13 16:26:08:09 01:32:14:17 01:32:16:13 
*FROM CLIP NAME:  203_XX47C-1* 
*ASC_SOP (1.0000 0.9998 0.9926)(-0.0402 -0.0349 -0.0228)(0.9638 0.9601 0.9848) 
*ASC_SAT 0.825 
*SOURCE FILE: B112_C015_04075K
000361  B112_C011_04071Y                 V     C        16:00:08:07 16:00:10:12 01:32:16:13 01:32:18:18 
*FROM CLIP NAME:  203_XX47A-3.1PU 
*ASC_SOP (1.0000 0.9998 0.9926)(-0.0402 -0.0349 -0.0228)(0.9638 0.9601 0.9848) 
*ASC_SAT 0.825 
*SOURCE FILE: B112_C011_04071Y
000362  B112_C007_04072Y                 V     C        15:03:48:09 15:03:50:19 01:32:18:18 01:32:21:04 
*FROM CLIP NAME:  203_VXX47-3* 
*ASC_SOP (1.0000 0.9998 0.9926)(-0.0402 -0.0349 -0.0228)(0.9638 0.9601 0.9848) 
*ASC_SAT 0.825 
*SOURCE FILE: B112_C007_04072Y
000363  B112_C010_0407A8                 V     C        15:54:15:20 15:54:18:22 01:32:21:04 01:32:24:06 
*FROM CLIP NAME:  203_XX47A-2.2* 
*ASC_SOP (1.0000 0.9998 0.9926)(-0.0402 -0.0349 -0.0228)(0.9638 0.9601 0.9848) 
*ASC_SAT 0.825 
*SOURCE FILE: B112_C010_0407A8
000364  B112_C016_0407WG                 V     C        16:36:02:15 16:36:04:09 01:32:24:06 01:32:26:00 
*FROM CLIP NAME:  203_XX47C-2* 
*ASC_SOP (1.0000 0.9998 0.9926)(-0.0402 -0.0349 -0.0228)(0.9638 0.9601 0.9848) 
*ASC_SAT 0.825 
*SOURCE FILE: B112_C016_0407WG
000365  B112_C010_0407A8                 V     C        15:54:24:11 15:54:35:18 01:32:26:00 01:32:37:07 
*FROM CLIP NAME:  203_XX47A-2.2* 
*ASC_SOP (1.0000 0.9998 0.9926)(-0.0402 -0.0349 -0.0228)(0.9638 0.9601 0.9848) 
*ASC_SAT 0.825 
*SOURCE FILE: B112_C010_0407A8
000366  B112_C007_04072Y                 V     C        15:04:18:08 15:04:31:08 01:32:37:07 01:32:50:07 
*FROM CLIP NAME:  203_VXX47-3* 
*ASC_SOP (1.0000 0.9998 0.9926)(-0.0402 -0.0349 -0.0228)(0.9638 0.9601 0.9848) 
*ASC_SAT 0.825 
*SOURCE FILE: B112_C007_04072Y
000367  C030_C003_111573                 V     C        15:04:04:18 15:04:08:07 01:32:50:07 01:32:53:20 
*FROM CLIP NAME:  203_X48D-2* 
*ASC_SOP (1.0059 1.0080 0.9777)(-0.0404 -0.0471 -0.0496)(0.9337 0.9107 0.9082) 
*ASC_SAT 0.9 
*SOURCE FILE: C030_C003_111573
000368  C030_C001_1115BC                 V     C        14:38:50:01 14:38:57:04 01:32:53:20 01:33:00:23 
*FROM CLIP NAME:  203_X48C-1* 
*ASC_SOP (1.0353 1.0400 1.0364)(0.0076 0.0077 0.0112)(1.0000 0.9806 0.9745) 
*ASC_SAT 0.9 
*SOURCE FILE: C030_C001_1115BC
000369  C029_C001_1115FS                 V     C        12:45:30:17 12:45:42:11 01:33:00:23 01:33:12:17 
*FROM CLIP NAME:  203_X48-1* 
*LOC: 01:33:04:09 YELLOW  √SOME HARBOR AMBIENCE. LIGHT BIRDS, ETC. 
*ASC_SOP (1.0170 1.0170 1.0170)(0.0136 0.0137 0.0172)(1.0000 0.9879 0.9742) 
*ASC_SAT 0.9 
*SOURCE FILE: C029_C001_1115FS
000370  C029_C009_11153M                 V     C        14:13:17:15 14:13:20:20 01:33:12:17 01:33:15:22 
*FROM CLIP NAME:  203_X48B-2* 
*ASC_SOP (0.9970 1.0000 0.9992)(0.0076 0.0077 0.0112)(1.0000 0.9838 0.9721) 
*ASC_SAT 0.9 
*SOURCE FILE: C029_C009_11153M
000371  C029_C001_1115FS                 V     C        12:45:47:19 12:45:51:01 01:33:15:22 01:33:19:04 
*FROM CLIP NAME:  203_X48-1* 
*ASC_SOP (1.0170 1.0170 1.0170)(0.0136 0.0137 0.0172)(1.0000 0.9879 0.9742) 
*ASC_SAT 0.9 
*SOURCE FILE: C029_C001_1115FS
000372  C029_C007_111528                 V     C        14:07:31:20 14:07:41:12 01:33:19:04 01:33:28:20 
*FROM CLIP NAME:  203_X48B-1.2* 
*ASC_SOP (0.9970 1.0000 0.9992)(0.0076 0.0077 0.0112)(1.0000 0.9838 0.9721) 
*ASC_SAT 0.9 
*SOURCE FILE: C029_C007_111528
000373  C029_C005_11159N                 V     C        13:23:19:02 13:23:22:05 01:33:28:20 01:33:31:23 
*FROM CLIP NAME:  203_X48A-2* 
*ASC_SOP (0.9868 1.0040 1.0092)(-0.0111 -0.0195 -0.0209)(1.0105 0.9984 0.9847) 
*ASC_SAT 0.9 
*SOURCE FILE: C029_C005_11159N
000374  C029_C007_111528                 V     C        14:05:53:02 14:05:57:22 01:33:31:23 01:33:36:19 
*FROM CLIP NAME:  203_X48B-1.1 
*ASC_SOP (0.9970 1.0000 0.9992)(0.0076 0.0077 0.0112)(1.0000 0.9838 0.9721) 
*ASC_SAT 0.9 
*SOURCE FILE: C029_C007_111528
000375  C029_C005_11159N                 V     C        13:23:37:05 13:23:39:14 01:33:36:19 01:33:39:04 
*FROM CLIP NAME:  203_X48A-2* 
*ASC_SOP (0.9868 1.0040 1.0092)(-0.0111 -0.0195 -0.0209)(1.0105 0.9984 0.9847) 
*ASC_SAT 0.9 
*SOURCE FILE: C029_C005_11159N
000376  C029_C001_1115FS                 V     C        12:46:21:21 12:46:28:15 01:33:39:04 01:33:45:22 
*FROM CLIP NAME:  203_X48-1* 
*ASC_SOP (1.0170 1.0170 1.0170)(0.0136 0.0137 0.0172)(1.0000 0.9879 0.9742) 
*ASC_SAT 0.9 
*SOURCE FILE: C029_C001_1115FS
000377  C029_C007_111528                 V     C        14:08:12:13 14:08:14:07 01:33:45:22 01:33:47:16 
*FROM CLIP NAME:  203_X48B-1.2* 
*ASC_SOP (0.9970 1.0000 0.9992)(0.0076 0.0077 0.0112)(1.0000 0.9838 0.9721) 
*ASC_SAT 0.9 
*SOURCE FILE: C029_C007_111528
000378  C029_C004_1115DV                 V     C        13:16:58:19 13:17:08:18 01:33:47:16 01:33:57:15 
*FROM CLIP NAME:  203_X48A-1* 
*ASC_SOP (0.9868 1.0040 1.0092)(-0.0111 -0.0195 -0.0209)(1.0105 0.9984 0.9847) 
*ASC_SAT 0.9 
*SOURCE FILE: C029_C004_1115DV
000379  C029_C009_11153M                 V     C        14:14:37:10 14:14:39:17 01:33:57:15 01:33:59:22 
*FROM CLIP NAME:  203_X48B-2* 
*ASC_SOP (0.9970 1.0000 0.9992)(0.0076 0.0077 0.0112)(1.0000 0.9838 0.9721) 
*ASC_SAT 0.9 
*SOURCE FILE: C029_C009_11153M
000380  C029_C005_11159N                 V     C        13:24:21:18 13:24:28:09 01:33:59:22 01:34:06:13 
*FROM CLIP NAME:  203_X48A-2* 
*ASC_SOP (0.9868 1.0040 1.0092)(-0.0111 -0.0195 -0.0209)(1.0105 0.9984 0.9847) 
*ASC_SAT 0.9 
*SOURCE FILE: C029_C005_11159N
000381  C029_C007_111528                 V     C        14:08:33:05 14:08:35:22 01:34:06:13 01:34:09:06 
*FROM CLIP NAME:  203_X48B-1.2* 
*ASC_SOP (0.9970 1.0000 0.9992)(0.0076 0.0077 0.0112)(1.0000 0.9838 0.9721) 
*ASC_SAT 0.9 
*SOURCE FILE: C029_C007_111528
000382  C029_C005_11159N                 V     C        13:24:33:20 13:24:38:20 01:34:09:06 01:34:14:06 
*FROM CLIP NAME:  203_X48A-2* 
*ASC_SOP (0.9868 1.0040 1.0092)(-0.0111 -0.0195 -0.0209)(1.0105 0.9984 0.9847) 
*ASC_SAT 0.9 
*SOURCE FILE: C029_C005_11159N
000383  C029_C007_111528                 V     C        14:09:09:11 14:09:12:03 01:34:14:06 01:34:16:22 
*FROM CLIP NAME:  203_X48B-1.2* 
*LOC: 01:34:14:18 YELLOW 
*ASC_SOP (0.9970 1.0000 0.9992)(0.0076 0.0077 0.0112)(1.0000 0.9838 0.9721) 
*ASC_SAT 0.9 
*SOURCE FILE: C029_C007_111528
000384  C029_C005_11159N                 V     C        13:24:49:13 13:24:56:07 01:34:16:22 01:34:23:16 
*FROM CLIP NAME:  203_X48A-2* 
*ASC_SOP (0.9868 1.0040 1.0092)(-0.0111 -0.0195 -0.0209)(1.0105 0.9984 0.9847) 
*ASC_SAT 0.9 
*SOURCE FILE: C029_C005_11159N
000385  C029_C007_111528                 V     C        14:09:20:15 14:09:26:14 01:34:23:16 01:34:29:15 
*FROM CLIP NAME:  203_X48B-1.2* 
*ASC_SOP (0.9970 1.0000 0.9992)(0.0076 0.0077 0.0112)(1.0000 0.9838 0.9721) 
*ASC_SAT 0.9 
*SOURCE FILE: C029_C007_111528
000386  C029_C004_1115DV                 V     C        13:17:57:00 13:18:02:02 01:34:29:15 01:34:34:17 
*FROM CLIP NAME:  203_X48A-1* 
*ASC_SOP (0.9868 1.0040 1.0092)(-0.0111 -0.0195 -0.0209)(1.0105 0.9984 0.9847) 
*ASC_SAT 0.9 
*SOURCE FILE: C029_C004_1115DV
000387  C029_C007_111528                 V     C        14:09:33:08 14:09:36:01 01:34:34:17 01:34:37:10 
*FROM CLIP NAME:  203_X48B-1.2* 
*ASC_SOP (0.9970 1.0000 0.9992)(0.0076 0.0077 0.0112)(1.0000 0.9838 0.9721) 
*ASC_SAT 0.9 
*SOURCE FILE: C029_C007_111528
000388  C029_C004_1115DV                 V     C        13:18:10:03 13:18:13:18 01:34:37:10 01:34:41:01 
*FROM CLIP NAME:  203_X48A-1* 
*ASC_SOP (0.9868 1.0040 1.0092)(-0.0111 -0.0195 -0.0209)(1.0105 0.9984 0.9847) 
*ASC_SAT 0.9 
*SOURCE FILE: C029_C004_1115DV
000389  C029_C007_111528                 V     C        14:09:42:09 14:09:47:08 01:34:41:01 01:34:46:00 
*FROM CLIP NAME:  203_X48B-1.2* 
*ASC_SOP (0.9970 1.0000 0.9992)(0.0076 0.0077 0.0112)(1.0000 0.9838 0.9721) 
*ASC_SAT 0.9 
*SOURCE FILE: C029_C007_111528
000390  C029_C005_11159N                 V     C        13:25:43:11 13:25:47:09 01:34:46:00 01:34:49:22 
*FROM CLIP NAME:  203_X48A-2* 
*ASC_SOP (0.9868 1.0040 1.0092)(-0.0111 -0.0195 -0.0209)(1.0105 0.9984 0.9847) 
*ASC_SAT 0.9 
*SOURCE FILE: C029_C005_11159N
000391  C029_C007_111528                 V     C        14:09:52:01 14:09:54:04 01:34:49:22 01:34:52:01 
*FROM CLIP NAME:  203_X48B-1.2* 
*ASC_SOP (0.9970 1.0000 0.9992)(0.0076 0.0077 0.0112)(1.0000 0.9838 0.9721) 
*ASC_SAT 0.9 
*SOURCE FILE: C029_C007_111528
000392  C029_C002_11157G                 V     C        12:52:01:06 12:52:04:12 01:34:52:01 01:34:55:07 
*FROM CLIP NAME:  203_X48-2PU* 
*ASC_SOP (1.0000 1.0000 1.0000)(0.0076 0.0077 0.0112)(1.0075 0.9954 0.9817) 
*ASC_SAT 0.9 
*SOURCE FILE: C029_C002_11157G
000393  C029_C007_111528                 V     C        14:09:55:17 14:09:58:03 01:34:55:07 01:34:57:17 
*FROM CLIP NAME:  203_X48B-1.2* 
*ASC_SOP (0.9970 1.0000 0.9992)(0.0076 0.0077 0.0112)(1.0000 0.9838 0.9721) 
*ASC_SAT 0.9 
*SOURCE FILE: C029_C007_111528
000394  C029_C006_1115V8                 V     C        13:32:42:22 13:32:45:03 01:34:57:17 01:34:59:22 
*FROM CLIP NAME:  203_X48A-3* 
*ASC_SOP (1.0000 1.0000 1.0000)(0.0076 0.0077 0.0112)(1.0075 0.9954 0.9817) 
*ASC_SAT 0.9 
*SOURCE FILE: C029_C006_1115V8
000395  C029_C007_111528                 V     C        14:10:01:11 14:10:06:19 01:34:59:22 01:35:05:06 
*FROM CLIP NAME:  203_X48B-1.2* 
*ASC_SOP (0.9970 1.0000 0.9992)(0.0076 0.0077 0.0112)(1.0000 0.9838 0.9721) 
*ASC_SAT 0.9 
*SOURCE FILE: C029_C007_111528
000396  C029_C006_1115V8                 V     C        13:32:55:11 13:32:58:01 01:35:05:06 01:35:07:20 
*FROM CLIP NAME:  203_X48A-3* 
*ASC_SOP (1.0000 1.0000 1.0000)(0.0076 0.0077 0.0112)(1.0075 0.9954 0.9817) 
*ASC_SAT 0.9 
*SOURCE FILE: C029_C006_1115V8
000397  C029_C007_111528                 V     C        14:10:11:21 14:10:14:09 01:35:07:20 01:35:10:08 
*FROM CLIP NAME:  203_X48B-1.2* 
*ASC_SOP (0.9970 1.0000 0.9992)(0.0076 0.0077 0.0112)(1.0000 0.9838 0.9721) 
*ASC_SAT 0.9 
*SOURCE FILE: C029_C007_111528
000398  C029_C006_1115V8                 V     C        13:33:03:17 13:33:06:06 01:35:10:08 01:35:12:21 
*FROM CLIP NAME:  203_X48A-3* 
*ASC_SOP (1.0000 1.0000 1.0000)(0.0076 0.0077 0.0112)(1.0075 0.9954 0.9817) 
*ASC_SAT 0.9 
*SOURCE FILE: C029_C006_1115V8
000399  C029_C007_111528                 V     C        14:10:19:23 14:10:24:13 01:35:12:21 01:35:17:11 
*FROM CLIP NAME:  203_X48B-1.2* 
*ASC_SOP (0.9970 1.0000 0.9992)(0.0076 0.0077 0.0112)(1.0000 0.9838 0.9721) 
*ASC_SAT 0.9 
*SOURCE FILE: C029_C007_111528
000400  C029_C002_11157G                 V     C        12:52:26:16 12:52:30:09 01:35:17:11 01:35:21:04 
*FROM CLIP NAME:  203_X48-2PU* 
*ASC_SOP (1.0000 1.0000 1.0000)(0.0076 0.0077 0.0112)(1.0075 0.9954 0.9817) 
*ASC_SAT 0.9 
*SOURCE FILE: C029_C002_11157G
000401  A168_C005_1122HJ                 V     C        17:53:56:23 17:54:34:10 01:35:21:04 01:35:58:15 
*FROM CLIP NAME:  203_49-3.2* 
*LOC: 01:35:44:08 GREEN   203_049_010 - BOOM OP SHADOW IN BG 
*ASC_SOP (0.9972 0.9987 1.0041)(-0.0104 -0.0126 -0.0066)(0.9783 0.9740 0.9848) 
*ASC_SAT 0.8252 
*SOURCE FILE: A168_C005_1122HJ
000402  A168_C006_112256                 V     C        17:58:49:23 17:58:53:09 01:35:58:15 01:36:02:01 
*FROM CLIP NAME:  203_49A-1 (A) 
*ASC_SOP (0.9972 0.9987 1.0041)(-0.0104 -0.0126 -0.0066)(0.9783 0.9740 0.9848) 
*ASC_SAT 0.8252 
*SOURCE FILE: A168_C006_112256
000403  A168_C005_1122HJ                 V     C        17:55:19:07 17:55:23:04 01:36:02:01 01:36:05:22 
*FROM CLIP NAME:  203_49-3.2* 
*LOC: 01:36:03:23 GREEN   203_049_020 - REMOVE HORSE TRAINER 
*ASC_SOP (0.9972 0.9987 1.0041)(-0.0104 -0.0126 -0.0066)(0.9783 0.9740 0.9848) 
*ASC_SAT 0.8252 
*SOURCE FILE: A168_C005_1122HJ
000404  A155_C011_1116SH                 V     C        14:07:06:11 14:07:11:17 01:36:05:22 01:36:11:04 
*FROM CLIP NAME:  203_50A-2* 
*ASC_SOP (1.0000 1.0000 1.0000)(-0.0196 -0.0215 -0.0106)(0.9778 0.9782 0.9812) 
*ASC_SAT 0.8252 
*SOURCE FILE: A155_C011_1116SH
000405  A171_C006_1123BK                 V     C        17:49:12:12 17:49:49:05 01:36:11:04 01:36:47:21 
*FROM CLIP NAME:  203_V50B-5* 
*LOC: 01:36:23:11 GREEN   203_050_010 - ENGINE ROOM 
*ASC_SOP (1.0123 1.0123 1.0123)(-0.0278 -0.0320 -0.0199)(0.9935 0.9892 1.0000) 
*ASC_SAT 0.8252 
*SOURCE FILE: A171_C006_1123BK
000406  C033_C007_11293N                 V     C        18:19:45:18 18:20:15:20 01:36:47:21 01:37:17:23 
*FROM CLIP NAME:  203_X51B-2* 
*ASC_SOP (1.0000 1.0000 1.0000)(0.0000 0.0000 0.0000)(1.0200 1.0255 1.0220) 
*ASC_SAT 1 
*SOURCE FILE: C033_C007_11293N
000407  C033_C005_1129HH                 V     C        18:00:08:10 18:00:43:16 01:37:17:23 01:37:53:05 
*FROM CLIP NAME:  203_X51A-2* 
*ASC_SOP (1.0000 1.0000 1.0000)(0.0000 0.0000 0.0000)(1.0200 1.0255 1.0220) 
*ASC_SAT 1 
*SOURCE FILE: C033_C005_1129HH
000408  B109_C012_0406IU                 V     C        15:44:29:14 15:44:31:02 01:37:53:05 01:37:54:17 
*FROM CLIP NAME:  203_XX52E-1* 
*ASC_SOP (1.0160 1.0157 1.0086)(-0.0252 -0.0199 -0.0153)(0.9514 0.9556 0.9749) 
*ASC_SAT 0.91284 
*SOURCE FILE: B109_C012_0406IU
000409  A174_C006_1126HB                 V     C        15:30:10:19 15:30:12:23 01:37:54:17 01:37:56:21 
*FROM CLIP NAME:  203_52C-2.4* 
*ASC_SOP (1.0031 1.0031 1.0031)(-0.0218 -0.0238 -0.0146)(1.0070 1.0022 0.9955) 
*ASC_SAT 0.8252 
*SOURCE FILE: A174_C006_1126HB
000410  B109_C014_0406E9                 V     C        15:50:58:12 15:51:01:13 01:37:56:21 01:37:59:22 
*FROM CLIP NAME:  203_XX52F-1B* 
*ASC_SOP (0.9780 0.9780 0.9780)(-0.0105 -0.0105 -0.0105)(0.9820 0.9820 0.9820) 
*ASC_SAT 1 
*SOURCE FILE: B109_C014_0406E9
000411  B109_C017_0406W7                 V     C        15:57:36:23 15:57:39:22 01:37:59:22 01:38:02:21 
*FROM CLIP NAME:  203_XX52F-1E* 
*ASC_SOP (0.9780 0.9780 0.9780)(-0.0105 -0.0105 -0.0105)(0.9820 0.9820 0.9820) 
*ASC_SAT 1 
*SOURCE FILE: B109_C017_0406W7
000412  A174_C001_1126X9                 V     C        14:15:47:18 14:15:50:21 01:38:02:21 01:38:06:00 
*FROM CLIP NAME:  203_V52-4.1* 
*ASC_SOP (1.0031 1.0031 1.0031)(-0.0218 -0.0238 -0.0146)(0.9789 0.9788 0.9885) 
*ASC_SAT 0.8252 
*SOURCE FILE: A174_C001_1126X9
000413  A174_C004_1126MI                 V     C        15:01:56:21 15:02:00:00 01:38:06:00 01:38:09:03 
*FROM CLIP NAME:  203_52B-2.1* 
*ASC_SOP (1.0031 1.0031 1.0031)(-0.0218 -0.0238 -0.0146)(0.9789 0.9788 0.9885) 
*ASC_SAT 0.8252 
*SOURCE FILE: A174_C004_1126MI
000414  A174_C005_11263M                 V     C        15:18:24:09 15:18:27:14 01:38:09:03 01:38:12:08 
*FROM CLIP NAME:  203_52C-1.2* 
*ASC_SOP (1.0031 1.0031 1.0031)(-0.0218 -0.0238 -0.0146)(1.0070 1.0022 0.9955) 
*ASC_SAT 0.8252 
*SOURCE FILE: A174_C005_11263M
000415  A174_C003_1126QS                 V     C        14:58:36:02 14:58:38:17 01:38:12:08 01:38:14:23 
*FROM CLIP NAME:  203_52B-1.2* 
*ASC_SOP (1.0031 1.0031 1.0031)(-0.0218 -0.0238 -0.0146)(0.9789 0.9788 0.9885) 
*ASC_SAT 0.8252 
*SOURCE FILE: A174_C003_1126QS
000416  B109_C012_0406IU                 V     C        15:44:44:11 15:44:46:10 01:38:14:23 01:38:16:22 
*FROM CLIP NAME:  203_XX52E-1* 
*ASC_SOP (1.0160 1.0157 1.0086)(-0.0252 -0.0199 -0.0153)(0.9514 0.9556 0.9749) 
*ASC_SAT 0.91284 
*SOURCE FILE: B109_C012_0406IU
000417  B109_C017_0406W7                 V     C        15:57:46:11 15:57:47:15 01:38:16:22 01:38:18:02 
*FROM CLIP NAME:  203_XX52F-1E* 
*ASC_SOP (0.9780 0.9780 0.9780)(-0.0105 -0.0105 -0.0105)(0.9820 0.9820 0.9820) 
*ASC_SAT 1 
*SOURCE FILE: B109_C017_0406W7
000418  B109_C015_040623                 V     C        15:52:34:06 15:52:34:17 01:38:18:02 01:38:19:13 
M2      B109_C015_040623                          006.9 15:52:34:06 
*FROM CLIP NAME:  203_XX52F-1C* 
*ASC_SOP (0.9780 0.9780 0.9780)(-0.0105 -0.0105 -0.0105)(0.9820 0.9820 0.9820) 
*ASC_SAT 1 
*SOURCE FILE: B109_C015_040623
000419  A174_C006_1126HB                 V     C        15:29:12:07 15:29:15:08 01:38:19:13 01:38:22:14 
*FROM CLIP NAME:  203_52C-2.3* 
*ASC_SOP (1.0031 1.0031 1.0031)(-0.0218 -0.0238 -0.0146)(1.0070 1.0022 0.9955) 
*ASC_SAT 0.8252 
*SOURCE FILE: A174_C006_1126HB
000420  B109_C017_0406W7                 V     C        15:57:50:23 15:57:56:01 01:38:22:14 01:38:27:16 
*FROM CLIP NAME:  203_XX52F-1E* 
*ASC_SOP (0.9780 0.9780 0.9780)(-0.0105 -0.0105 -0.0105)(0.9820 0.9820 0.9820) 
*ASC_SAT 1 
*SOURCE FILE: B109_C017_0406W7
000421  A174_C001_1126X9                 V     C        14:19:05:21 14:19:09:02 01:38:27:16 01:38:30:21 
*FROM CLIP NAME:  203_V52-4.2* 
*ASC_SOP (1.0031 1.0031 1.0031)(-0.0218 -0.0238 -0.0146)(0.9789 0.9788 0.9885) 
*ASC_SAT 0.8252 
*SOURCE FILE: A174_C001_1126X9
000422  A174_C006_1126HB                 V     C        15:30:28:09 15:30:33:12 01:38:30:21 01:38:36:00 
*FROM CLIP NAME:  203_52C-2.4* 
*ASC_SOP (1.0031 1.0031 1.0031)(-0.0218 -0.0238 -0.0146)(1.0070 1.0022 0.9955) 
*ASC_SAT 0.8252 
*SOURCE FILE: A174_C006_1126HB
000423  C028_C006_1115RI                 V     C        09:47:18:19 09:47:21:14 01:38:36:00 01:38:38:19 
*FROM CLIP NAME:  203_X53A-2* 
*ASC_SOP (1.0000 1.0000 1.0000)(0.0076 0.0077 0.0112)(1.0000 0.9939 0.9808) 
*ASC_SAT 0.9 
*SOURCE FILE: C028_C006_1115RI
000424  C028_C013_1115PK                 V     C        10:35:51:09 10:35:57:06 01:38:38:19 01:38:44:16 
*FROM CLIP NAME:  203_X53C-2* 
*ASC_SOP (0.8508 0.8639 0.8623)(0.0092 0.0098 0.0164)(1.0125 0.9936 0.9820) 
*ASC_SAT 0.9 
*SOURCE FILE: C028_C013_1115PK
000425  C028_C006_1115RI                 V     C        09:47:37:08 09:47:44:03 01:38:44:16 01:38:51:11 
*FROM CLIP NAME:  203_X53A-2* 
*ASC_SOP (1.0000 1.0000 1.0000)(0.0076 0.0077 0.0112)(1.0000 0.9939 0.9808) 
*ASC_SAT 0.9 
*SOURCE FILE: C028_C006_1115RI
000426  C028_C014_1115FV                 V     C        10:37:27:13 10:37:29:11 01:38:51:11 01:38:53:09 
*FROM CLIP NAME:  203_X53C-3.1* 
*ASC_SOP (0.8508 0.8639 0.8623)(0.0092 0.0098 0.0164)(0.9960 0.9771 0.9655) 
*ASC_SAT 0.9 
*SOURCE FILE: C028_C014_1115FV
000427  C028_C010_11151Q                 V     C        10:21:40:06 10:21:43:08 01:38:53:09 01:38:56:11 
*FROM CLIP NAME:  203_X53B-3* 
*ASC_SOP (0.8530 0.8594 0.8646)(0.0066 0.0080 0.0118)(1.0280 1.0206 1.0026) 
*ASC_SAT 0.9 
*SOURCE FILE: C028_C010_11151Q
000428  C028_C014_1115FV                 V     C        10:38:50:20 10:38:55:13 01:38:56:11 01:39:01:04 
*FROM CLIP NAME:  203_X53C-3.2* 
*ASC_SOP (0.8508 0.8639 0.8623)(0.0092 0.0098 0.0164)(0.9960 0.9771 0.9655) 
*ASC_SAT 0.9 
*SOURCE FILE: C028_C014_1115FV
000429  C028_C011_1115XX                 V     C        10:24:07:01 10:24:09:07 01:39:01:04 01:39:03:10 
*FROM CLIP NAME:  203_X53B-4* 
*ASC_SOP (0.8530 0.8594 0.8646)(0.0066 0.0080 0.0118)(1.0280 1.0206 1.0026) 
*ASC_SAT 0.9 
*SOURCE FILE: C028_C011_1115XX
000430  C028_C014_1115FV                 V     C        10:38:56:02 10:38:58:21 01:39:03:10 01:39:06:05 
*FROM CLIP NAME:  203_X53C-3.2* 
*ASC_SOP (0.8508 0.8639 0.8623)(0.0092 0.0098 0.0164)(0.9960 0.9771 0.9655) 
*ASC_SAT 0.9 
*SOURCE FILE: C028_C014_1115FV
000431  C028_C006_1115RI                 V     C        09:48:01:22 09:48:19:02 01:39:06:05 01:39:23:09 
*FROM CLIP NAME:  203_X53A-2* 
*ASC_SOP (1.0000 1.0000 1.0000)(0.0076 0.0077 0.0112)(1.0000 0.9939 0.9808) 
*ASC_SAT 0.9 
*SOURCE FILE: C028_C006_1115RI
000432  C028_C016_1115E0                 V     C        11:05:00:16 11:05:03:07 01:39:23:09 01:39:26:00 
*FROM CLIP NAME:  203_X53D-2* 
*ASC_SOP (0.8508 0.8639 0.8623)(0.0092 0.0098 0.0164)(0.9960 0.9771 0.9655) 
*ASC_SAT 0.9 
*SOURCE FILE: C028_C016_1115E0
000433  C028_C004_1115HW                 V     C        09:25:10:05 09:25:12:14 01:39:26:00 01:39:28:09 
*FROM CLIP NAME:  203_X53-4* 
*ASC_SOP (1.0000 1.0000 1.0000)(-0.0074 -0.0073 -0.0038)(0.9760 0.9699 0.9568) 
*ASC_SAT 0.9 
*SOURCE FILE: C028_C004_1115HW
000434  A174_C005_11263M                 V     C        15:19:09:10 15:19:11:10 01:39:28:09 01:39:30:09 
*FROM CLIP NAME:  203_52C-1.3* 
*ASC_SOP (1.0031 1.0031 1.0031)(-0.0218 -0.0238 -0.0146)(1.0070 1.0022 0.9955) 
*ASC_SAT 0.8252 
*SOURCE FILE: A174_C005_11263M
000435  A174_C004_1126MI                 V     C        15:05:39:08 15:05:41:13 01:39:30:09 01:39:32:14 
*FROM CLIP NAME:  203_52B-2.2* 
*ASC_SOP (1.0031 1.0031 1.0031)(-0.0218 -0.0238 -0.0146)(0.9789 0.9788 0.9885) 
*ASC_SAT 0.8252 
*SOURCE FILE: A174_C004_1126MI
000436  A174_C002_11262P                 V     C        14:45:48:10 14:45:49:10 01:39:32:14 01:39:33:14 
*FROM CLIP NAME:  203_52A-1.2 
*ASC_SOP (1.0031 1.0031 1.0031)(-0.0218 -0.0238 -0.0146)(0.9789 0.9788 0.9885) 
*ASC_SAT 0.8252 
*SOURCE FILE: A174_C002_11262P
000437  A174_C003_1126QS                 V     C        15:00:00:05 15:00:02:03 01:39:33:14 01:39:35:12 
*FROM CLIP NAME:  203_52B-1.2* 
*ASC_SOP (1.0031 1.0031 1.0031)(-0.0218 -0.0238 -0.0146)(0.9789 0.9788 0.9885) 
*ASC_SAT 0.8252 
*SOURCE FILE: A174_C003_1126QS
000438  BL                               V     C        00:00:00:00 00:00:00:01 01:39:35:12 01:39:35:13 
*SOURCE FILE: (NULL)
000439  A174_C006_1126HB                 V     C        15:28:03:20 15:28:05:22 01:39:35:13 01:39:37:15 
*FROM CLIP NAME:  203_52C-2.2* 
*ASC_SOP (1.0031 1.0031 1.0031)(-0.0218 -0.0238 -0.0146)(1.0070 1.0022 0.9955) 
*ASC_SAT 0.8252 
*SOURCE FILE: A174_C006_1126HB
000440  A174_C005_11263M                 V     C        15:19:29:12 15:19:30:11 01:39:37:15 01:39:38:14 
*FROM CLIP NAME:  203_52C-1 (A) 
*ASC_SOP (1.0031 1.0031 1.0031)(-0.0218 -0.0238 -0.0146)(1.0070 1.0022 0.9955) 
*ASC_SAT 0.8252 
*SOURCE FILE: A174_C005_11263M
000441  A174_C006_1126HB                 V     C        15:28:06:21 15:28:07:17 01:39:38:14 01:39:39:10 
*FROM CLIP NAME:  203_52C-2.2* 
*ASC_SOP (1.0031 1.0031 1.0031)(-0.0218 -0.0238 -0.0146)(1.0070 1.0022 0.9955) 
*ASC_SAT 0.8252 
*SOURCE FILE: A174_C006_1126HB
000442  A174_C002_11262P                 V     C        14:45:53:11 14:45:54:08 01:39:39:10 01:39:40:07 
*FROM CLIP NAME:  203_52A-1.2 
*ASC_SOP (1.0031 1.0031 1.0031)(-0.0218 -0.0238 -0.0146)(0.9789 0.9788 0.9885) 
*ASC_SAT 0.8252 
*SOURCE FILE: A174_C002_11262P
000443  B109_C015_040623                 V     C        15:52:47:18 15:52:50:01 01:39:40:07 01:39:42:14 
*FROM CLIP NAME:  203_XX52F-1C* 
*ASC_SOP (0.9780 0.9780 0.9780)(-0.0105 -0.0105 -0.0105)(0.9820 0.9820 0.9820) 
*ASC_SAT 1 
*SOURCE FILE: B109_C015_040623
000444  A173_C020_1126PD                 V     C        14:13:18:07 14:13:25:07 01:39:42:14 01:39:49:14 
*FROM CLIP NAME:  203_V52-3 
*ASC_SOP (1.0031 1.0031 1.0031)(-0.0218 -0.0238 -0.0146)(0.9789 0.9788 0.9885) 
*ASC_SAT 0.8252 
*SOURCE FILE: A173_C020_1126PD
000445  B109_C011_0406AT                 V     C        15:41:25:10 15:41:27:02 01:39:49:14 01:39:51:06 
*FROM CLIP NAME:  203_VXX52D-1* 
*LOC: 01:39:50:15 GREEN   203_054_010 - TIMESTAMP DR SMITH 
*ASC_SOP (1.0000 0.9998 0.9926)(-0.0242 -0.0214 -0.0148)(0.9634 0.9676 0.9869) 
*ASC_SAT 0.91284 
*SOURCE FILE: B109_C011_0406AT
000446  A174_C001_1126X9                 V     C        14:17:42:13 14:17:46:04 01:39:51:06 01:39:54:21 
*FROM CLIP NAME:  203_V52-4.1* 
*ASC_SOP (1.0031 1.0031 1.0031)(-0.0218 -0.0238 -0.0146)(0.9789 0.9788 0.9885) 
*ASC_SAT 0.8252 
*SOURCE FILE: A174_C001_1126X9
000447  A174_C001_1126X9                 V     C        14:17:59:03 14:18:00:06 01:39:54:21 01:39:56:00 
*FROM CLIP NAME:  203_V52-4.1* 
*ASC_SOP (1.0031 1.0031 1.0031)(-0.0218 -0.0238 -0.0146)(0.9789 0.9788 0.9885) 
*ASC_SAT 0.8252 
*SOURCE FILE: A174_C001_1126X9
000448  A173_C020_1126PD                 V     C        14:13:38:05 14:13:40:01 01:39:56:00 01:39:57:20 
*FROM CLIP NAME:  203_V52-3 
*ASC_SOP (1.0031 1.0031 1.0031)(-0.0218 -0.0238 -0.0146)(0.9789 0.9788 0.9885) 
*ASC_SAT 0.8252 
*SOURCE FILE: A173_C020_1126PD
000449  A143_C003_1108VO                 V     C        20:24:17:06 20:24:18:23 01:39:57:20 01:39:59:13 
*FROM CLIP NAME:  203_34A-2* (DON ISO) 
*ASC_SOP (1.0000 1.0000 1.0000)(-0.0379 -0.0400 -0.0331)(0.9138 0.9257 0.9349) 
*ASC_SAT 0.91572 
*SOURCE FILE: A143_C003_1108VO
000450  B107_C016_0403U5                 V     C        16:31:03:19 16:31:06:23 01:39:59:13 01:40:02:17 
*FROM CLIP NAME:  203_VXX34-1.COPY.01 
*LOC: 01:40:00:23 GREEN   203_055_010 - DON POV GEOGRAPHY 
*ASC_SOP (0.9779 1.0241 0.9980)(-0.0124 -0.0162 -0.0040)(1.0429 1.0491 1.0792) 
*ASC_SAT 0.8252 
*SOURCE FILE: B107_C016_0403U5
000451  A168_C009_1122SP                 V     C        19:37:05:08 19:37:06:23 01:40:02:17 01:40:04:08 
*FROM CLIP NAME:  203_V56D-3* 
*ASC_SOP (0.9990 0.9973 1.0036)(-0.0104 -0.0126 -0.0066)(0.9783 0.9740 0.9848) 
*ASC_SAT 0.8252 
*SOURCE FILE: A168_C009_1122SP
000452  A143_C003_1108VO                 V     C        20:24:24:03 20:24:25:13 01:40:04:08 01:40:05:18 
*FROM CLIP NAME:  203_34A-2* (DON ISO) 
*ASC_SOP (1.0000 1.0000 1.0000)(-0.0379 -0.0400 -0.0331)(0.9138 0.9257 0.9349) 
*ASC_SAT 0.91572 
*SOURCE FILE: A143_C003_1108VO
000453  A168_C009_1122SP                 V     C        19:37:09:20 19:37:11:01 01:40:05:18 01:40:06:23 
*FROM CLIP NAME:  203_V56D-3* 
*ASC_SOP (0.9990 0.9973 1.0036)(-0.0104 -0.0126 -0.0066)(0.9783 0.9740 0.9848) 
*ASC_SAT 0.8252 
*SOURCE FILE: A168_C009_1122SP
000454  A143_C002_1108TT                 V     C        20:13:08:08 20:13:09:12 01:40:06:23 01:40:08:03 
*FROM CLIP NAME:  203_34A-1 (DON ISO) 
*ASC_SOP (1.0000 1.0000 1.0000)(-0.0379 -0.0400 -0.0331)(0.9138 0.9257 0.9349) 
*ASC_SAT 0.91572 
*SOURCE FILE: A143_C002_1108TT
000455  B107_C018_0403F3                 V     C        16:42:26:06 16:42:27:03 01:40:08:03 01:40:09:00 
*FROM CLIP NAME:  203_VXX34-2*.COPY.01 
*LOC: 01:40:08:15 GREEN   203_056_010 - DON POV LIGHTS OUT 
*ASC_SOP (0.9779 1.0241 0.9980)(-0.0124 -0.0162 -0.0040)(1.0429 1.0491 1.0792) 
*ASC_SAT 0.8252 
*SOURCE FILE: B107_C018_0403F3
000456  A168_C009_1122SP                 V     C        19:37:11:03 19:37:12:12 01:40:09:00 01:40:10:09 
*FROM CLIP NAME:  203_V56D-3* 
*ASC_SOP (0.9990 0.9973 1.0036)(-0.0104 -0.0126 -0.0066)(0.9783 0.9740 0.9848) 
*ASC_SAT 0.8252 
*SOURCE FILE: A168_C009_1122SP
000457  A155_C023_1116GM                 V     C        16:15:42:15 16:15:43:14 01:40:10:09 01:40:11:08 
*FROM CLIP NAME:  203_56B-2* 
*ASC_SOP (1.0000 1.0000 1.0000)(-0.0196 -0.0215 -0.0106)(0.9600 0.9583 0.9648) 
*ASC_SAT 0.8252 
*SOURCE FILE: A155_C023_1116GM
000458  A155_C014_1116XH                 V     C        15:19:02:06 15:19:02:20 01:40:11:08 01:40:11:22 
*FROM CLIP NAME:  203_56-3* 
*ASC_SOP (1.0000 1.0000 1.0000)(-0.0196 -0.0215 -0.0106)(0.9600 0.9583 0.9648) 
*ASC_SAT 0.8252 
*SOURCE FILE: A155_C014_1116XH
000459  A155_C023_1116GM                 V     C        16:15:43:18 16:15:44:13 01:40:11:22 01:40:12:17 
*FROM CLIP NAME:  203_56B-2* 
*ASC_SOP (1.0000 1.0000 1.0000)(-0.0196 -0.0215 -0.0106)(0.9600 0.9583 0.9648) 
*ASC_SAT 0.8252 
*SOURCE FILE: A155_C023_1116GM
000460  C033_C010_112988                 V     C        18:45:39:12 18:45:43:08 01:40:12:17 01:40:16:13 
*FROM CLIP NAME:  203_X56-2.2* 
*ASC_SOP (1.0000 1.0000 1.0000)(0.0000 0.0000 0.0000)(1.0020 1.0075 1.0041) 
*ASC_SAT 1 
*SOURCE FILE: C033_C010_112988
000461  A166_C012_11213B                 V     C        19:45:16:09 19:45:16:10 01:40:16:13 01:40:18:04 
M2      A166_C012_11213B                         -048.0 19:45:16:09 
*FROM CLIP NAME:  203_V64A-6* 
*ASC_SOP (1.0000 1.0000 1.0000)(-0.0261 -0.0279 -0.0133)(0.9783 0.9740 0.9848) 
*ASC_SAT 0.8252 
*SOURCE FILE: A166_C012_11213B
000462  A155_C023_1116GM                 V     C        16:15:44:20 16:15:46:07 01:40:18:04 01:40:19:15 
*FROM CLIP NAME:  203_56B-2* 
*ASC_SOP (1.0000 1.0000 1.0000)(-0.0196 -0.0215 -0.0106)(0.9600 0.9583 0.9648) 
*ASC_SAT 0.8252 
*SOURCE FILE: A155_C023_1116GM
000463  A155_C014_1116XH                 V     C        15:19:06:15 15:19:08:13 01:40:19:15 01:40:21:13 
*FROM CLIP NAME:  203_56-3* 
*ASC_SOP (1.0000 1.0000 1.0000)(-0.0196 -0.0215 -0.0106)(0.9600 0.9583 0.9648) 
*ASC_SAT 0.8252 
*SOURCE FILE: A155_C014_1116XH
000464  A155_C023_1116GM                 V     C        16:15:48:09 16:15:51:18 01:40:21:13 01:40:24:22 
*FROM CLIP NAME:  203_56B-2* 
*ASC_SOP (1.0000 1.0000 1.0000)(-0.0196 -0.0215 -0.0106)(0.9600 0.9583 0.9648) 
*ASC_SAT 0.8252 
*SOURCE FILE: A155_C023_1116GM
000465  A143_C002_1108TT                 V     C        20:13:14:10 20:13:17:00 01:40:24:22 01:40:27:12 
*FROM CLIP NAME:  203_34A-1 (DON ISO) 
*ASC_SOP (1.0000 1.0000 1.0000)(-0.0379 -0.0400 -0.0331)(0.9138 0.9257 0.9349) 
*ASC_SAT 0.91572 
*SOURCE FILE: A143_C002_1108TT
000466  A143_C003_1108VO                 V     C        20:24:35:14 20:24:37:21 01:40:27:12 01:40:29:19 
*FROM CLIP NAME:  203_34A-2* (DON ISO) 
*ASC_SOP (1.0000 1.0000 1.0000)(-0.0379 -0.0400 -0.0331)(0.9138 0.9257 0.9349) 
*ASC_SAT 0.91572 
*SOURCE FILE: A143_C003_1108VO
000467  A143_C002_1108TT                 V     C        20:13:19:03 20:13:20:23 01:40:29:19 01:40:31:15 
*FROM CLIP NAME:  203_34A-1 (DON ISO) 
*ASC_SOP (1.0000 1.0000 1.0000)(-0.0379 -0.0400 -0.0331)(0.9138 0.9257 0.9349) 
*ASC_SAT 0.91572 
*SOURCE FILE: A143_C002_1108TT
000468  A140_C002_1107ZZ                 V     C        19:59:37:01 19:59:39:01 01:40:31:15 01:40:33:15 
*FROM CLIP NAME:  203_V34-2.2* 
*LOC: 01:40:32:10 GREEN   203_056_020 - OTS DON TO FLASHLIGHTS ON RESOLUTE 
*ASC_SOP (1.0000 1.0000 1.0000)(-0.0118 -0.0162 -0.0066)(0.9818 0.9818 0.9818) 
*ASC_SAT 0.91572 
*SOURCE FILE: A140_C002_1107ZZ
000469  B107_C024_0403LK                 V     C        17:13:38:08 17:13:39:06 01:40:33:15 01:40:34:13 
*FROM CLIP NAME:  203_VXX34A-3* 
*LOC: 01:40:34:03 GREEN   203_056_030 - DON POV DINING HALL FLASHLIGHTS 
*ASC_SOP (0.9779 1.0241 0.9980)(-0.0124 -0.0162 -0.0040)(1.0429 1.0491 1.0792) 
*ASC_SAT 0.8252 
*SOURCE FILE: B107_C024_0403LK
000470  A143_C003_1108VO                 V     C        20:24:45:07 20:24:46:09 01:40:34:13 01:40:35:15 
*FROM CLIP NAME:  203_34A-2* (DON ISO) 
*ASC_SOP (1.0000 1.0000 1.0000)(-0.0379 -0.0400 -0.0331)(0.9138 0.9257 0.9349) 
*ASC_SAT 0.91572 
*SOURCE FILE: A143_C003_1108VO
000471  B110_C003_0406UK                 V     C        18:57:10:14 18:57:12:10 01:40:35:15 01:40:37:11 
*FROM CLIP NAME:  203_VXX56A-2.1 
*LOC: 01:40:36:10 GREEN   203_056_040 - DON POV MAUREEN JOHN FLASHLIGHTS 
*ASC_SOP (1.0000 0.9998 0.9926)(-0.0246 -0.0226 -0.0132)(0.9685 0.9646 0.9848) 
*ASC_SAT 0.91284 
*SOURCE FILE: B110_C003_0406UK
000472  A140_C002_1107ZZ                 V     C        19:59:39:23 19:59:41:03 01:40:37:11 01:40:38:15 
*FROM CLIP NAME:  203_V34-2.2* 
*LOC: 01:40:38:01 GREEN   203_056_050 - DON OTS FLASHLIGHTS ON RESOLUTE 
*ASC_SOP (1.0000 1.0000 1.0000)(-0.0118 -0.0162 -0.0066)(0.9818 0.9818 0.9818) 
*ASC_SAT 0.91572 
*SOURCE FILE: A140_C002_1107ZZ
000473  A155_C023_1116GM                 V     C        16:16:06:12 16:16:08:12 01:40:38:15 01:40:40:15 
*FROM CLIP NAME:  203_56B-2* 
*ASC_SOP (1.0000 1.0000 1.0000)(-0.0196 -0.0215 -0.0106)(0.9600 0.9583 0.9648) 
*ASC_SAT 0.8252 
*SOURCE FILE: A155_C023_1116GM
000474  A143_C003_1108VO                 V     C        20:24:59:02 20:25:00:18 01:40:40:15 01:40:42:07 
*FROM CLIP NAME:  203_34A-2* (DON ISO) 
*ASC_SOP (1.0000 1.0000 1.0000)(-0.0379 -0.0400 -0.0331)(0.9138 0.9257 0.9349) 
*ASC_SAT 0.91572 
*SOURCE FILE: A143_C003_1108VO
000475  A140_C002_1107ZZ                 V     C        19:59:48:06 19:59:49:20 01:40:42:07 01:40:43:21 
*FROM CLIP NAME:  203_V34-2.2* 
*LOC: 01:40:43:00 GREEN   203_056_060 - DON OTS MYSTERY LIGHT APPEARS 
*ASC_SOP (1.0000 1.0000 1.0000)(-0.0118 -0.0162 -0.0066)(0.9818 0.9818 0.9818) 
*ASC_SAT 0.91572 
*SOURCE FILE: A140_C002_1107ZZ
000476  C033_C009_1129I8                 V     C        18:43:38:22 18:43:40:21 01:40:43:21 01:40:45:20 
*FROM CLIP NAME:  203_X56-1* 
*ASC_SOP (1.0000 1.0000 1.0000)(0.0000 0.0000 0.0000)(1.0020 1.0075 1.0041) 
*ASC_SAT 1 
*SOURCE FILE: C033_C009_1129I8
000477  A140_C002_1107ZZ                 V     C        19:59:51:04 19:59:53:09 01:40:45:20 01:40:48:01 
*FROM CLIP NAME:  203_V34-2.2* 
*LOC: 01:40:46:19 GREEN   203_056_070 - DON OTS MYSTERY LIGHT MOVING 
*ASC_SOP (1.0000 1.0000 1.0000)(-0.0118 -0.0162 -0.0066)(0.9818 0.9818 0.9818) 
*ASC_SAT 0.91572 
*SOURCE FILE: A140_C002_1107ZZ
000478  B110_C004_0406V2                 V     C        19:05:19:15 19:05:22:06 01:40:48:01 01:40:50:16 
*FROM CLIP NAME:  203_VXX56B-1 (B) 
*LOC: 01:40:49:01 GREEN   203_056_080 --- PV203_057_810_ DON POV OF MYSTERY (SCARECROW) LIGHTS 
*ASC_SOP (1.0000 0.9998 0.9926)(-0.0246 -0.0226 -0.0132)(0.9685 0.9646 0.9848) 
*ASC_SAT 0.91284 
*SOURCE FILE: B110_C004_0406V2
000479  A168_C010_1122JT                 V     C        19:45:00:09 19:45:02:21 01:40:50:16 01:40:53:04 
*FROM CLIP NAME:  203_V56E-1* 
*ASC_SOP (0.9990 0.9973 1.0036)(-0.0104 -0.0126 -0.0066)(0.9783 0.9740 0.9848) 
*ASC_SAT 0.8252 
*SOURCE FILE: A168_C010_1122JT
000480  BL                               V     C        00:00:00:00 00:00:01:00 01:40:53:04 01:40:54:04 
*SOURCE FILE: (NULL)
000481  PV203_057_810_CMP_V002.MOV       V     C        19:05:21:02 19:05:22:14 01:40:54:04 01:40:55:16 
*FROM CLIP NAME:  PV203_057_810_CMP_V002.MOV 
*SOURCE FILE: PV203_057_810_CMP_V002.MOV
000482  C034_C014_11304H                 V     C        13:27:10:22 13:27:12:10 01:40:55:16 01:40:57:04 
*FROM CLIP NAME:  203_VX56-2* 
*LOC: 01:40:56:14 GREEN   203_057_020 - DON ON J2 LOOKING OUT COCKPIT 
*ASC_SOP (1.0000 0.9998 0.9952)(-0.0050 -0.0098 -0.0063)(0.9814 0.9802 0.9729) 
*ASC_SAT 0.91572 
*SOURCE FILE: C034_C014_11304H
000483  A155_C023_1116GM                 V     C        16:16:23:03 16:16:24:23 01:40:57:04 01:40:59:00 
*FROM CLIP NAME:  203_56B-2* 
*ASC_SOP (1.0000 1.0000 1.0000)(-0.0196 -0.0215 -0.0106)(0.9600 0.9583 0.9648) 
*ASC_SAT 0.8252 
*SOURCE FILE: A155_C023_1116GM
000484  A155_C014_1116XH                 V     C        15:19:44:22 15:19:46:04 01:40:59:00 01:41:00:06 
*FROM CLIP NAME:  203_56-3* 
*ASC_SOP (1.0000 1.0000 1.0000)(-0.0196 -0.0215 -0.0106)(0.9600 0.9583 0.9648) 
*ASC_SAT 0.8252 
*SOURCE FILE: A155_C014_1116XH
000485  A168_C009_1122SP                 V     C        19:37:54:18 19:38:00:08 01:41:00:06 01:41:05:20 
*FROM CLIP NAME:  203_V56D-3* 
*ASC_SOP (0.9990 0.9973 1.0036)(-0.0104 -0.0126 -0.0066)(0.9783 0.9740 0.9848) 
*ASC_SAT 0.8252 
*SOURCE FILE: A168_C009_1122SP
000486  A155_C021_1116L1                 V     C        16:01:35:17 16:01:38:17 01:41:05:20 01:41:08:20 
*FROM CLIP NAME:  203_56A-5* 
*ASC_SOP (1.0000 1.0000 1.0000)(-0.0196 -0.0215 -0.0106)(0.9600 0.9583 0.9648) 
*ASC_SAT 0.8252 
*SOURCE FILE: A155_C021_1116L1
000487  C033_C009_1129I8                 V     C        18:43:41:11 18:43:44:03 01:41:08:20 01:41:11:12 
*FROM CLIP NAME:  203_X56-1* 
*ASC_SOP (1.0000 1.0000 1.0000)(0.0000 0.0000 0.0000)(1.0020 1.0075 1.0041) 
*ASC_SAT 1 
*SOURCE FILE: C033_C009_1129I8
000488  A168_C010_1122JT                 V     C        19:45:10:19 19:45:23:01 01:41:11:12 01:41:23:18 
*FROM CLIP NAME:  203_V56E-1* 
*ASC_SOP (0.9990 0.9973 1.0036)(-0.0104 -0.0126 -0.0066)(0.9783 0.9740 0.9848) 
*ASC_SAT 0.8252 
*SOURCE FILE: A168_C010_1122JT
000489  A140_C002_1107ZZ                 V     C        20:00:05:14 20:00:09:03 01:41:23:18 01:41:27:07 
*FROM CLIP NAME:  203_V34-2.2* 
*LOC: 01:41:25:06 GREEN   203_057_030 - DON OTS MYSTERY LIGHTS STOPPING 
*ASC_SOP (1.0000 1.0000 1.0000)(-0.0118 -0.0162 -0.0066)(0.9818 0.9818 0.9818) 
*ASC_SAT 0.91572 
*SOURCE FILE: A140_C002_1107ZZ
000490  A155_C021_1116L1                 V     C        16:01:54:15 16:01:56:12 01:41:27:07 01:41:29:04 
*FROM CLIP NAME:  203_56A-5* 
*ASC_SOP (1.0000 1.0000 1.0000)(-0.0196 -0.0215 -0.0106)(0.9600 0.9583 0.9648) 
*ASC_SAT 0.8252 
*SOURCE FILE: A155_C021_1116L1
000491  A168_C009_1122SP                 V     C        19:38:19:13 19:38:23:13 01:41:29:04 01:41:33:04 
*FROM CLIP NAME:  203_V56D-3* 
*ASC_SOP (0.9990 0.9973 1.0036)(-0.0104 -0.0126 -0.0066)(0.9783 0.9740 0.9848) 
*ASC_SAT 0.8252 
*SOURCE FILE: A168_C009_1122SP
000492  B110_C004_0406V2                 V     C        19:05:23:21 19:05:25:12 01:41:33:04 01:41:34:19 
*FROM CLIP NAME:  203_VXX56B-1_VFX REF* 
*LOC: 01:41:33:14 GREEN   203_058_010 --- PV203_058_810_SCARECROW ON THE MOVE 
*ASC_SOP (1.0000 0.9998 0.9926)(-0.0246 -0.0226 -0.0132)(0.9685 0.9646 0.9848) 
*ASC_SAT 0.91284 
*SOURCE FILE: B110_C004_0406V2
000493  A143_C002_1108TT                 V     C        20:14:04:08 20:14:07:03 01:41:34:19 01:41:37:14 
*FROM CLIP NAME:  203_34A-1 (DON ISO) 
*ASC_SOP (1.0000 1.0000 1.0000)(-0.0379 -0.0400 -0.0331)(0.9138 0.9257 0.9349) 
*ASC_SAT 0.91572 
*SOURCE FILE: A143_C002_1108TT
000494  A155_C021_1116L1                 V     C        16:02:05:22 16:02:07:16 01:41:37:14 01:41:39:08 
*FROM CLIP NAME:  203_56A-5* 
*ASC_SOP (1.0000 1.0000 1.0000)(-0.0196 -0.0215 -0.0106)(0.9600 0.9583 0.9648) 
*ASC_SAT 0.8252 
*SOURCE FILE: A155_C021_1116L1
000495  A155_C016_1116YG                 V     C        15:29:28:10 15:29:30:06 01:41:39:08 01:41:41:04 
*FROM CLIP NAME:  203_56-5PU* 
*ASC_SOP (1.0000 1.0000 1.0000)(-0.0196 -0.0215 -0.0106)(0.9600 0.9583 0.9648) 
*ASC_SAT 0.8252 
*SOURCE FILE: A155_C016_1116YG
000496  A155_C021_1116L1                 V     C        16:02:10:00 16:02:11:08 01:41:41:04 01:41:42:12 
*FROM CLIP NAME:  203_56A-5* 
*ASC_SOP (1.0000 1.0000 1.0000)(-0.0196 -0.0215 -0.0106)(0.9600 0.9583 0.9648) 
*ASC_SAT 0.8252 
*SOURCE FILE: A155_C021_1116L1
000497  A155_C016_1116YG                 V     C        15:29:31:22 15:29:32:22 01:41:42:12 01:41:43:12 
*FROM CLIP NAME:  203_56-5PU* 
*ASC_SOP (1.0000 1.0000 1.0000)(-0.0196 -0.0215 -0.0106)(0.9600 0.9583 0.9648) 
*ASC_SAT 0.8252 
*SOURCE FILE: A155_C016_1116YG
000498  A168_C010_1122JT                 V     C        19:45:44:12 19:45:46:20 01:41:43:12 01:41:45:20 
*FROM CLIP NAME:  203_V56E-1* 
*ASC_SOP (0.9990 0.9973 1.0036)(-0.0104 -0.0126 -0.0066)(0.9783 0.9740 0.9848) 
*ASC_SAT 0.8252 
*SOURCE FILE: A168_C010_1122JT
000499  A155_C016_1116YG                 V     C        15:29:33:15 15:29:35:14 01:41:45:20 01:41:47:19 
*FROM CLIP NAME:  203_56-5PU* 
*ASC_SOP (1.0000 1.0000 1.0000)(-0.0196 -0.0215 -0.0106)(0.9600 0.9583 0.9648) 
*ASC_SAT 0.8252 
*SOURCE FILE: A155_C016_1116YG
000500  B106_C001_040208                 V     C        20:29:28:22 20:29:30:04 01:41:47:19 01:41:49:01 
*FROM CLIP NAME:  203_56G-1* 
*ASC_SOP (1.0000 0.9998 0.9926)(-0.0178 -0.0152 -0.0108)(0.9685 0.9646 0.9848) 
*ASC_SAT 0.82821 
*SOURCE FILE: B106_C001_040208
000501  A168_C010_1122JT                 V     C        19:45:55:23 19:45:57:02 01:41:49:01 01:41:50:04 
*FROM CLIP NAME:  203_V56E-1* 
*ASC_SOP (0.9990 0.9973 1.0036)(-0.0104 -0.0126 -0.0066)(0.9783 0.9740 0.9848) 
*ASC_SAT 0.8252 
*SOURCE FILE: A168_C010_1122JT
000502  A168_C010_1122JT                 V     C        19:45:59:05 19:46:02:04 01:41:50:04 01:41:53:03 
*FROM CLIP NAME:  203_V56E-1* 
*ASC_SOP (0.9990 0.9973 1.0036)(-0.0104 -0.0126 -0.0066)(0.9783 0.9740 0.9848) 
*ASC_SAT 0.8252 
*SOURCE FILE: A168_C010_1122JT
000503  A155_C016_1116YG                 V     C        15:29:33:15 15:29:39:09 01:41:53:03 01:41:58:21 
*FROM CLIP NAME:  203_56-5PU* 
*ASC_SOP (1.0000 1.0000 1.0000)(-0.0196 -0.0215 -0.0106)(0.9600 0.9583 0.9648) 
*ASC_SAT 0.8252 
*SOURCE FILE: A155_C016_1116YG
000504  A168_C010_1122JT                 V     C        19:46:08:06 19:46:29:04 01:41:58:21 01:42:19:19 
*FROM CLIP NAME:  203_V56E-1* 
*LOC: 01:42:06:15 GREEN   203_060_010 --- PV203_060_810_SCARECROW ARM - HINT OF SCARECROW CREEPING INTO DINING HALL 
*ASC_SOP (0.9990 0.9973 1.0036)(-0.0104 -0.0126 -0.0066)(0.9783 0.9740 0.9848) 
*ASC_SAT 0.8252 
*SOURCE FILE: A168_C010_1122JT
000505  B107_C024_0403LK                 V     C        17:16:03:22 17:16:07:00 01:42:19:19 01:42:22:21 
*FROM CLIP NAME:  203_VXX34A-3*.COPY.01 
*LOC: 01:42:21:11 GREEN   203_062_010 --- PV203_062_810_SCARECROW ROUNDING THE CORNER JUST SEEING A LITTLE BIT AGAIN - NO GOING DOWN STAIRS COMPLETELY 
*ASC_SOP (0.9779 1.0241 0.9980)(-0.0124 -0.0162 -0.0040)(1.0429 1.0491 1.0792) 
*ASC_SAT 0.8252 
*SOURCE FILE: B107_C024_0403LK
000506  A143_C003_1108VO                 V     C        20:25:49:16 20:25:51:09 01:42:22:21 01:42:24:14 
*FROM CLIP NAME:  203_34A-2* (DON ISO) 
*ASC_SOP (1.0000 1.0000 1.0000)(-0.0379 -0.0400 -0.0331)(0.9138 0.9257 0.9349) 
*ASC_SAT 0.91572 
*SOURCE FILE: A143_C003_1108VO
000507  C034_C014_11304H                 V     C        13:27:47:20 13:27:49:08 01:42:24:14 01:42:26:02 
*FROM CLIP NAME:  203_VX56-2* 
*LOC: 01:42:25:06 GREEN   203_062_020 - DON ON J2 LOOKING OUT COCKPIT 
*ASC_SOP (1.0000 0.9998 0.9952)(-0.0050 -0.0098 -0.0063)(0.9814 0.9802 0.9729) 
*ASC_SAT 0.91572 
*SOURCE FILE: C034_C014_11304H
000508  A169_C001_1122UR                 V     C        20:09:33:07 20:09:43:17 01:42:26:02 01:42:36:12 
*FROM CLIP NAME:  203_V56F-1* 
*LOC: 01:42:29:09 GREEN   203_063_010 --- PV203_063_810 SCARECROW CRAWLING INTO DINING HALL 
*ASC_SOP (0.9990 0.9973 1.0036)(-0.0104 -0.0126 -0.0066)(0.9783 0.9740 0.9848) 
*ASC_SAT 0.8252 
*SOURCE FILE: A169_C001_1122UR
000509  A168_C010_1122JT                 V     C        19:46:31:09 19:46:33:10 01:42:36:12 01:42:38:13 
*FROM CLIP NAME:  203_V56E-1* 
*ASC_SOP (0.9990 0.9973 1.0036)(-0.0104 -0.0126 -0.0066)(0.9783 0.9740 0.9848) 
*ASC_SAT 0.8252 
*SOURCE FILE: A168_C010_1122JT
000510  A169_C001_1122UR                 V     C        20:09:48:17 20:09:51:09 01:42:38:13 01:42:41:05 
*FROM CLIP NAME:  203_V56F-1* 
*LOC: 01:42:39:17 GREEN   203_063_020 - SCARECROW CRAWLING INTO DINING HALL 
*ASC_SOP (0.9990 0.9973 1.0036)(-0.0104 -0.0126 -0.0066)(0.9783 0.9740 0.9848) 
*ASC_SAT 0.8252 
*SOURCE FILE: A169_C001_1122UR
000511  A168_C010_1122JT                 V     C        19:46:38:17 19:46:40:10 01:42:41:05 01:42:42:22 
*FROM CLIP NAME:  203_V56E-1* 
*ASC_SOP (0.9990 0.9973 1.0036)(-0.0104 -0.0126 -0.0066)(0.9783 0.9740 0.9848) 
*ASC_SAT 0.8252 
*SOURCE FILE: A168_C010_1122JT
000512  A169_C001_1122UR                 V     C        20:09:54:11 20:10:06:01 01:42:42:22 01:42:54:12 
*FROM CLIP NAME:  203_V56F-1* 
*LOC: 01:42:48:00 GREEN   203_063_030 - SCARECROW CRAWLING INTO DINING HALL 
*ASC_SOP (0.9990 0.9973 1.0036)(-0.0104 -0.0126 -0.0066)(0.9783 0.9740 0.9848) 
*ASC_SAT 0.8252 
*SOURCE FILE: A169_C001_1122UR
000513  INSERT.03                        V     C        01:00:41:14 01:00:44:21 01:42:54:12 01:42:57:19 
*FROM CLIP NAME:  INSERT.03 
*SOURCE FILE: INSERT.03
000514  A166_C003_11219N                 V     C        19:10:18:04 19:10:33:05 01:42:57:19 01:43:12:20 
*FROM CLIP NAME:  203_V64-1 
*LOC: 01:43:06:05 GREEN   203_064_900 - SCARECROW DOWN HALLWAY 
*ASC_SOP (1.0000 1.0000 1.0000)(-0.0261 -0.0279 -0.0133)(0.9783 0.9740 0.9848) 
*ASC_SAT 0.8252 
*SOURCE FILE: A166_C003_11219N
000515  B107_C018_0403F3                 V     C        16:43:00:17 16:43:02:18 01:43:12:20 01:43:14:21 
*FROM CLIP NAME:  203_VXX34-2*.COPY.01 
*LOC: 01:43:13:22 GREEN   203_065_010 - DON POV TRYING TO FIND JOHN AND MAUREEN 
*ASC_SOP (0.9779 1.0241 0.9980)(-0.0124 -0.0162 -0.0040)(1.0429 1.0491 1.0792) 
*ASC_SAT 0.8252 
*SOURCE FILE: B107_C018_0403F3
000516  A143_C002_1108TT                 V     C        20:15:14:13 20:15:17:10 01:43:14:21 01:43:17:18 
*FROM CLIP NAME:  203_34A-1 (DON ISO) 
*ASC_SOP (1.0000 1.0000 1.0000)(-0.0379 -0.0400 -0.0331)(0.9138 0.9257 0.9349) 
*ASC_SAT 0.91572 
*SOURCE FILE: A143_C002_1108TT
000517  A171_C016_1123T8                 V     C        19:32:14:04 19:32:22:16 01:43:17:18 01:43:26:06 
*FROM CLIP NAME:  203_V68A-4.2* 
*LOC: 01:43:21:15 GREEN   203_066_010 --- PV203_066_810_SCARECROW CRAWLS TOWARDS MAUREENS VOICE 
*ASC_SOP (1.0503 1.0503 1.0503)(-0.0225 -0.0267 -0.0146)(0.9860 0.9833 0.9904) 
*ASC_SAT 0.8252 
*SOURCE FILE: A171_C016_1123T8
000518  A172_C001_112326                 V     C        19:56:58:03 19:57:01:03 01:43:26:06 01:43:29:06 
*FROM CLIP NAME:  203_68B-1* 
*ASC_SOP (1.0503 1.0503 1.0503)(-0.0225 -0.0267 -0.0146)(0.9860 0.9833 0.9904) 
*ASC_SAT 0.8252 
*SOURCE FILE: A172_C001_112326
000519  A171_C016_1123T8                 V     C        19:32:27:09 19:32:37:15 01:43:29:06 01:43:39:12 
*FROM CLIP NAME:  203_V68A-4.2* 
*LOC: 01:43:34:17 GREEN   203_066_020 - SCARECROW CRAWLS TOWARDS MAUREENS VOICE 
*ASC_SOP (1.0503 1.0503 1.0503)(-0.0225 -0.0267 -0.0146)(0.9860 0.9833 0.9904) 
*ASC_SAT 0.8252 
*SOURCE FILE: A171_C016_1123T8
000520  A172_C001_112326                 V     C        19:57:06:09 19:57:11:20 01:43:39:12 01:43:44:23 
*FROM CLIP NAME:  203_68B-1* 
*ASC_SOP (1.0503 1.0503 1.0503)(-0.0225 -0.0267 -0.0146)(0.9860 0.9833 0.9904) 
*ASC_SAT 0.8252 
*SOURCE FILE: A172_C001_112326
000521  A171_C016_1123T8                 V     C        19:32:37:11 19:32:45:06 01:43:44:23 01:43:52:18 
*FROM CLIP NAME:  203_V68A-4.2* 
*LOC: 01:43:49:13 GREEN   203_066_030 - SCARECROW CRAWLS TOWARDS MAUREENS VOICE 
*ASC_SOP (1.0503 1.0503 1.0503)(-0.0225 -0.0267 -0.0146)(0.9860 0.9833 0.9904) 
*ASC_SAT 0.8252 
*SOURCE FILE: A171_C016_1123T8
000522  A172_C002_1123I2                 V     C        20:00:15:04 20:00:17:06 01:43:52:18 01:43:54:17 
M2      A172_C002_1123I2                          026.1 20:00:15:04 
*FROM CLIP NAME:  203_68B-2* 
*ASC_SOP (1.0503 1.0503 1.0503)(-0.0225 -0.0267 -0.0146)(0.9860 0.9833 0.9904) 
*ASC_SAT 0.8252 
*SOURCE FILE: A172_C002_1123I2
000523  A172_C004_11234C                 V     C        20:08:34:10 20:08:35:19 01:43:54:17 01:43:56:02 
*FROM CLIP NAME:  203_V68C-2* 
*LOC: 01:43:55:14 GREEN   203_066_040 - SCARECROW TRIES TO ATTACK WHILE DOOR CLOSES 
*ASC_SOP (1.0503 1.0503 1.0503)(-0.0225 -0.0267 -0.0146)(0.9860 0.9833 0.9904) 
*ASC_SAT 0.8252 
*SOURCE FILE: A172_C004_11234C
000524  A171_C010_1123HI                 V     C        18:45:17:04 18:45:37:00 01:43:56:02 01:44:15:22 
*FROM CLIP NAME:  203_V68-3* 
*ASC_SOP (1.0123 1.0123 1.0123)(-0.0225 -0.0267 -0.0146)(0.9815 0.9788 0.9859) 
*ASC_SAT 0.8252 
*SOURCE FILE: A171_C010_1123HI
000525  A171_C016_1123T8                 V     C        19:33:16:06 19:33:31:14 01:44:15:22 01:44:31:06 
*FROM CLIP NAME:  203_V68A-4.2* 
*ASC_SOP (1.0503 1.0503 1.0503)(-0.0225 -0.0267 -0.0146)(0.9860 0.9833 0.9904) 
*ASC_SAT 0.8252 
*SOURCE FILE: A171_C016_1123T8
000526  A143_C003_1108VO                 V     C        20:27:20:07 20:27:26:00 01:44:31:06 01:44:36:23 
*FROM CLIP NAME:  203_34A-2* 
*ASC_SOP (1.0000 1.0000 1.0000)(-0.0379 -0.0400 -0.0331)(0.9138 0.9257 0.9349) 
*ASC_SAT 0.91572 
*SOURCE FILE: A143_C003_1108VO
000527  A161_C017_11202Z                 V     C        15:27:59:02 15:28:01:08 01:44:36:23 01:44:39:05 
*FROM CLIP NAME:  203_72D-4* 
*ASC_SOP (1.0000 1.0000 1.0000)(-0.0196 -0.0215 -0.0106)(0.9651 0.9773 0.9948) 
*ASC_SAT 0.8252 
*SOURCE FILE: A161_C017_11202Z
000528  A161_C006_11202U                 V     C        13:52:04:22 13:52:09:14 01:44:39:05 01:44:43:21 
*FROM CLIP NAME:  203_72-3* 
*ASC_SOP (1.0000 1.0000 1.0000)(-0.0196 -0.0215 -0.0106)(0.9777 0.9767 0.9827) 
*ASC_SAT 0.8252 
*SOURCE FILE: A161_C006_11202U
000529  A161_C011_1120Y7                 V     C        15:03:17:20 15:03:18:10 01:44:43:21 01:44:44:11 
*FROM CLIP NAME:  203_72C-2 
*ASC_SOP (1.0000 1.0000 1.0000)(-0.0196 -0.0215 -0.0106)(0.9651 0.9773 0.9948) 
*ASC_SAT 0.8252 
*SOURCE FILE: A161_C011_1120Y7
000530  A161_C017_11202Z                 V     C        15:28:08:08 15:28:09:19 01:44:44:11 01:44:45:22 
*FROM CLIP NAME:  203_72D-4* 
*ASC_SOP (1.0000 1.0000 1.0000)(-0.0196 -0.0215 -0.0106)(0.9651 0.9773 0.9948) 
*ASC_SAT 0.8252 
*SOURCE FILE: A161_C017_11202Z
000531  A161_C007_1120FX                 V     C        13:59:23:19 13:59:25:02 01:44:45:22 01:44:47:05 
*FROM CLIP NAME:  203_72-4PU.3* 
*ASC_SOP (1.0000 1.0000 1.0000)(-0.0196 -0.0215 -0.0106)(0.9777 0.9767 0.9827) 
*ASC_SAT 0.8252 
*SOURCE FILE: A161_C007_1120FX
000532  A161_C012_1120PA                 V     C        15:05:11:09 15:05:12:10 01:44:47:05 01:44:48:06 
*FROM CLIP NAME:  203_72C-3* 
*ASC_SOP (1.0000 1.0000 1.0000)(-0.0196 -0.0215 -0.0106)(0.9651 0.9773 0.9948) 
*ASC_SAT 0.8252 
*SOURCE FILE: A161_C012_1120PA
000533  A161_C009_1120EU                 V     C        14:14:18:02 14:14:20:16 01:44:48:06 01:44:50:20 
*FROM CLIP NAME:  203_72A-2* 
*ASC_SOP (1.0000 1.0000 1.0000)(-0.0196 -0.0215 -0.0106)(0.9777 0.9767 0.9827) 
*ASC_SAT 0.8252 
*SOURCE FILE: A161_C009_1120EU
000534  A161_C010_1120HO                 V     C        15:00:44:18 15:00:48:20 01:44:50:20 01:44:54:22 
*FROM CLIP NAME:  203_72C-1.2 
*ASC_SOP (1.0000 1.0000 1.0000)(-0.0196 -0.0215 -0.0106)(0.9651 0.9773 0.9948) 
*ASC_SAT 0.8252 
*SOURCE FILE: A161_C010_1120HO
000535  A161_C007_1120FX                 V     C        13:59:36:11 13:59:38:05 01:44:54:22 01:44:56:16 
*FROM CLIP NAME:  203_72-4PU.3* 
*ASC_SOP (1.0000 1.0000 1.0000)(-0.0196 -0.0215 -0.0106)(0.9777 0.9767 0.9827) 
*ASC_SAT 0.8252 
*SOURCE FILE: A161_C007_1120FX
000536  A161_C011_1120Y7                 V     C        15:03:35:00 15:03:38:19 01:44:56:16 01:45:00:11 
*FROM CLIP NAME:  203_72C-2 
*ASC_SOP (1.0000 1.0000 1.0000)(-0.0196 -0.0215 -0.0106)(0.9651 0.9773 0.9948) 
*ASC_SAT 0.8252 
*SOURCE FILE: A161_C011_1120Y7
000537  A161_C007_1120FX                 V     C        13:59:46:06 13:59:48:22 01:45:00:11 01:45:03:03 
*FROM CLIP NAME:  203_72-4PU.3* 
*ASC_SOP (1.0000 1.0000 1.0000)(-0.0196 -0.0215 -0.0106)(0.9777 0.9767 0.9827) 
*ASC_SAT 0.8252 
*SOURCE FILE: A161_C007_1120FX
000538  A161_C011_1120Y7                 V     C        15:03:42:14 15:03:44:14 01:45:03:03 01:45:05:03 
*FROM CLIP NAME:  203_72C-2 
*ASC_SOP (1.0000 1.0000 1.0000)(-0.0196 -0.0215 -0.0106)(0.9651 0.9773 0.9948) 
*ASC_SAT 0.8252 
*SOURCE FILE: A161_C011_1120Y7
000539  A161_C009_1120EU                 V     C        14:14:49:05 14:14:51:15 01:45:05:03 01:45:07:13 
*FROM CLIP NAME:  203_72A-2* 
*ASC_SOP (1.0000 1.0000 1.0000)(-0.0196 -0.0215 -0.0106)(0.9777 0.9767 0.9827) 
*ASC_SAT 0.8252 
*SOURCE FILE: A161_C009_1120EU
000540  B101_C003_0331EO                 V     C        14:36:44:20 14:36:47:08 01:45:07:13 01:45:10:01 
*FROM CLIP NAME:  203_72B-1.2 
*ASC_SOP (1.0000 0.9998 0.9926)(-0.0362 -0.0337 -0.0280)(0.9559 0.9556 0.9748) 
*ASC_SAT 0.825 
*SOURCE FILE: B101_C003_0331EO
000541  A161_C009_1120EU                 V     C        14:14:54:00 14:14:59:13 01:45:10:01 01:45:15:14 
*FROM CLIP NAME:  203_72A-2* 
*ASC_SOP (1.0000 1.0000 1.0000)(-0.0196 -0.0215 -0.0106)(0.9777 0.9767 0.9827) 
*ASC_SAT 0.8252 
*SOURCE FILE: A161_C009_1120EU
000542  B101_C003_0331EO                 V     C        14:37:50:18 14:37:53:21 01:45:15:14 01:45:18:17 
*FROM CLIP NAME:  203_72B-1.3* 
*ASC_SOP (1.0000 0.9998 0.9926)(-0.0362 -0.0337 -0.0280)(0.9559 0.9556 0.9748) 
*ASC_SAT 0.825 
*SOURCE FILE: B101_C003_0331EO
000543  INSERT_OF_PHOTO                  V     C        01:00:46:19 01:00:49:20 01:45:18:17 01:45:21:18 
*FROM CLIP NAME:  INSERT OF PHOTO 
*SOURCE FILE: INSERT OF PHOTO
000544  B101_C003_0331EO                 V     C        14:37:53:16 14:38:01:21 01:45:21:18 01:45:29:23 
*FROM CLIP NAME:  203_72B-1.3* 
*ASC_SOP (1.0000 0.9998 0.9926)(-0.0362 -0.0337 -0.0280)(0.9559 0.9556 0.9748) 
*ASC_SAT 0.825 
*SOURCE FILE: B101_C003_0331EO
000545  A161_C007_1120FX                 V     C        14:00:15:04 14:00:23:06 01:45:29:23 01:45:38:01 
*FROM CLIP NAME:  203_72-4PU.3* 
*ASC_SOP (1.0000 1.0000 1.0000)(-0.0196 -0.0215 -0.0106)(0.9777 0.9767 0.9827) 
*ASC_SAT 0.8252 
*SOURCE FILE: A161_C007_1120FX
000546  A162_C002_1120AD                 V     C        18:28:26:19 18:28:31:23 01:45:38:01 01:45:43:05 
*FROM CLIP NAME:  203_73D-2* 
*ASC_SOP (1.0000 1.0000 1.0000)(-0.0196 -0.0215 -0.0106)(0.9894 0.9893 0.9944) 
*ASC_SAT 0.8252 
*SOURCE FILE: A162_C002_1120AD
000547  B101_C009_0331YF                 V     C        18:45:31:08 18:45:34:10 01:45:43:05 01:45:46:07 
*FROM CLIP NAME:  203_73E-2 (B) 
*ASC_SOP (1.0180 1.0177 1.0106)(-0.0402 -0.0349 -0.0228)(0.9415 0.9475 0.9702) 
*ASC_SAT 0.825 
*SOURCE FILE: B101_C009_0331YF
000548  B101_C004_0331R4                 V     C        17:38:38:12 17:38:40:23 01:45:46:07 01:45:48:18 
*FROM CLIP NAME:  203_73B-1 (B) 
*ASC_SOP (1.0000 0.9998 0.9926)(-0.0402 -0.0349 -0.0228)(0.9630 0.9634 0.9824) 
*ASC_SAT 0.825 
*SOURCE FILE: B101_C004_0331R4
000549  A161_C022_1120N7                 V     C        17:14:55:08 17:14:57:07 01:45:48:18 01:45:50:17 
*FROM CLIP NAME:  203_73-4* 
*ASC_SOP (1.0000 1.0000 1.0000)(-0.0196 -0.0215 -0.0106)(0.9774 0.9773 0.9824) 
*ASC_SAT 0.8252 
*SOURCE FILE: A161_C022_1120N7
000550  A161_C025_1120WC                 V     C        17:38:44:04 17:38:47:14 01:45:50:17 01:45:54:03 
*FROM CLIP NAME:  203_73B-1 (A) 
*ASC_SOP (1.0000 1.0000 1.0000)(-0.0196 -0.0215 -0.0106)(0.9774 0.9773 0.9824) 
*ASC_SAT 0.8252 
*SOURCE FILE: A161_C025_1120WC
000551  B101_C004_0331R4                 V     C        17:38:47:18 17:38:50:09 01:45:54:03 01:45:56:18 
*FROM CLIP NAME:  203_73B-1 (B) 
*ASC_SOP (1.0000 0.9998 0.9926)(-0.0402 -0.0349 -0.0228)(0.9630 0.9634 0.9824) 
*ASC_SAT 0.825 
*SOURCE FILE: B101_C004_0331R4
000552  B101_C009_0331YF                 V     C        18:45:54:16 18:45:57:00 01:45:56:18 01:45:59:02 
*FROM CLIP NAME:  203_73E-2 (B) 
*ASC_SOP (1.0180 1.0177 1.0106)(-0.0402 -0.0349 -0.0228)(0.9415 0.9475 0.9702) 
*ASC_SAT 0.825 
*SOURCE FILE: B101_C009_0331YF
000553  B101_C007_0331HB                 V     C        17:59:07:21 17:59:11:20 01:45:59:02 01:46:03:01 
*FROM CLIP NAME:  203_73C-2 (B) 
*ASC_SOP (1.0000 0.9998 0.9926)(-0.0432 -0.0379 -0.0258)(0.9630 0.9634 0.9824) 
*ASC_SAT 0.825 
*SOURCE FILE: B101_C007_0331HB
000554  B101_C004_0331R4                 V     C        17:39:00:15 17:39:03:13 01:46:03:01 01:46:05:23 
*FROM CLIP NAME:  203_73B-1 (B) 
*ASC_SOP (1.0000 0.9998 0.9926)(-0.0402 -0.0349 -0.0228)(0.9630 0.9634 0.9824) 
*ASC_SAT 0.825 
*SOURCE FILE: B101_C004_0331R4
000555  A161_C025_1120WC                 V     C        17:39:03:16 17:39:05:21 01:46:05:23 01:46:08:04 
*FROM CLIP NAME:  203_73B-1 (A) 
*ASC_SOP (1.0000 1.0000 1.0000)(-0.0196 -0.0215 -0.0106)(0.9774 0.9773 0.9824) 
*ASC_SAT 0.8252 
*SOURCE FILE: A161_C025_1120WC
000556  A161_C023_1120TU                 V     C        17:20:41:18 17:20:46:13 01:46:08:04 01:46:12:23 
*FROM CLIP NAME:  203_73A-1* 
*ASC_SOP (1.0000 1.0000 1.0000)(-0.0196 -0.0215 -0.0106)(0.9774 0.9773 0.9824) 
*ASC_SAT 0.8252 
*SOURCE FILE: A161_C023_1120TU
000557  B101_C004_0331R4                 V     C        17:39:16:10 17:39:19:09 01:46:12:23 01:46:15:22 
*FROM CLIP NAME:  203_73B-1 (B) 
*ASC_SOP (1.0000 0.9998 0.9926)(-0.0402 -0.0349 -0.0228)(0.9630 0.9634 0.9824) 
*ASC_SAT 0.825 
*SOURCE FILE: B101_C004_0331R4
000558  A161_C024_1120LW                 V     C        17:22:51:19 17:23:28:15 01:46:15:22 01:46:52:18 
*FROM CLIP NAME:  203_73A-2* 
*LOC: 01:46:36:13 GREEN   203_073_010 - PENNY SPLIT SCREEN 
*ASC_SOP (1.0000 1.0000 1.0000)(-0.0196 -0.0215 -0.0106)(1.0457 1.0427 1.0512) 
*ASC_SAT 0.8252 
*SOURCE FILE: A161_C024_1120LW
000559  A162_C004_1120XW                 V     C        18:46:35:08 18:46:36:07 01:46:52:18 01:46:53:17 
*FROM CLIP NAME:  203_73E-2 (A) 
*ASC_SOP (1.0000 1.0000 1.0000)(-0.0196 -0.0215 -0.0106)(0.9894 0.9893 0.9944) 
*ASC_SAT 0.8252 
*SOURCE FILE: A162_C004_1120XW
000560  A161_C025_1120WC                 V     C        17:39:36:05 17:39:38:08 01:46:53:17 01:46:55:20 
*FROM CLIP NAME:  203_73B-1 (A) 
*ASC_SOP (1.0000 1.0000 1.0000)(-0.0196 -0.0215 -0.0106)(0.9774 0.9773 0.9824) 
*ASC_SAT 0.8252 
*SOURCE FILE: A161_C025_1120WC
000561  A161_C022_1120N7                 V     C        17:16:01:20 17:16:03:01 01:46:55:20 01:46:57:01 
*FROM CLIP NAME:  203_73-4* 
*ASC_SOP (1.0000 1.0000 1.0000)(-0.0196 -0.0215 -0.0106)(0.9774 0.9773 0.9824) 
*ASC_SAT 0.8252 
*SOURCE FILE: A161_C022_1120N7
000562  A162_C002_1120AD                 V     C        18:30:08:03 18:30:10:03 01:46:57:01 01:46:59:01 
*FROM CLIP NAME:  203_73D-2* 
*ASC_SOP (1.0000 1.0000 1.0000)(-0.0196 -0.0215 -0.0106)(0.9894 0.9893 0.9944) 
*ASC_SAT 0.8252 
*SOURCE FILE: A162_C002_1120AD
000563  A162_C004_1120XW                 V     C        18:46:41:09 18:46:45:09 01:46:59:01 01:47:03:01 
*FROM CLIP NAME:  203_73E-2 (A) 
*ASC_SOP (1.0000 1.0000 1.0000)(-0.0196 -0.0215 -0.0106)(0.9894 0.9893 0.9944) 
*ASC_SAT 0.8252 
*SOURCE FILE: A162_C004_1120XW
000564  A163_C003_1120Y5                 V     C        19:29:27:04 19:29:28:12 01:47:03:01 01:47:04:09 
*FROM CLIP NAME:  203_73F-3* 
*ASC_SOP (1.0000 1.0000 1.0000)(-0.0196 -0.0215 -0.0106)(0.9894 0.9893 0.9944) 
*ASC_SAT 0.8252 
*SOURCE FILE: A163_C003_1120Y5
000565  B102_C003_033185                 V     C        20:02:09:07 20:02:12:15 01:47:04:09 01:47:07:17 
*FROM CLIP NAME:  203_73H-2 (B) 
*ASC_SOP (1.0180 1.0177 1.0106)(-0.0402 -0.0349 -0.0228)(0.9413 0.9454 0.9726) 
*ASC_SAT 0.825 
*SOURCE FILE: B102_C003_033185
000566  A163_C003_1120Y5                 V     C        19:29:32:16 19:29:34:09 01:47:07:17 01:47:09:10 
*FROM CLIP NAME:  203_73F-3* 
*ASC_SOP (1.0000 1.0000 1.0000)(-0.0196 -0.0215 -0.0106)(0.9894 0.9893 0.9944) 
*ASC_SAT 0.8252 
*SOURCE FILE: A163_C003_1120Y5
000567  B102_C003_033185                 V     C        20:02:14:02 20:02:16:08 01:47:09:10 01:47:11:16 
*FROM CLIP NAME:  203_73H-2 (B) 
*ASC_SOP (1.0180 1.0177 1.0106)(-0.0402 -0.0349 -0.0228)(0.9413 0.9454 0.9726) 
*ASC_SAT 0.825 
*SOURCE FILE: B102_C003_033185
000568  A163_C002_11205Q                 V     C        19:27:08:17 19:27:12:18 01:47:11:16 01:47:15:17 
*FROM CLIP NAME:  203_73F-2 
*ASC_SOP (1.0000 1.0000 1.0000)(-0.0196 -0.0215 -0.0106)(0.9894 0.9893 0.9944) 
*ASC_SAT 0.8252 
*SOURCE FILE: A163_C002_11205Q
000569  B102_C003_033185                 V     C        20:02:20:19 20:02:24:07 01:47:15:17 01:47:19:05 
*FROM CLIP NAME:  203_73H-2 (B) 
*ASC_SOP (1.0180 1.0177 1.0106)(-0.0402 -0.0349 -0.0228)(0.9413 0.9454 0.9726) 
*ASC_SAT 0.825 
*SOURCE FILE: B102_C003_033185
000570  A163_C003_1120Y5                 V     C        19:29:46:10 19:29:48:23 01:47:19:05 01:47:21:18 
*FROM CLIP NAME:  203_73F-3* 
*ASC_SOP (1.0000 1.0000 1.0000)(-0.0196 -0.0215 -0.0106)(0.9894 0.9893 0.9944) 
*ASC_SAT 0.8252 
*SOURCE FILE: A163_C003_1120Y5
000571  B102_C002_0331FC                 V     C        19:58:19:06 19:58:21:02 01:47:21:18 01:47:23:14 
*FROM CLIP NAME:  203_73H-1 (B) 
*ASC_SOP (1.0180 1.0177 1.0106)(-0.0402 -0.0349 -0.0228)(0.9413 0.9454 0.9726) 
*ASC_SAT 0.825 
*SOURCE FILE: B102_C002_0331FC
000572  A163_C003_1120Y5                 V     C        19:29:51:22 19:29:55:01 01:47:23:14 01:47:26:17 
*FROM CLIP NAME:  203_73F-3* 
*ASC_SOP (1.0000 1.0000 1.0000)(-0.0196 -0.0215 -0.0106)(0.9894 0.9893 0.9944) 
*ASC_SAT 0.8252 
*SOURCE FILE: A163_C003_1120Y5
000573  B102_C003_033185                 V     C        20:03:04:15 20:03:06:02 01:47:26:17 01:47:28:04 
*FROM CLIP NAME:  203_73H-2 (B) 
*ASC_SOP (1.0180 1.0177 1.0106)(-0.0402 -0.0349 -0.0228)(0.9413 0.9454 0.9726) 
*ASC_SAT 0.825 
*SOURCE FILE: B102_C003_033185
000574  A163_C003_1120Y5                 V     C        19:29:57:09 19:30:00:15 01:47:28:04 01:47:31:10 
*FROM CLIP NAME:  203_73F-3* 
*ASC_SOP (1.0000 1.0000 1.0000)(-0.0196 -0.0215 -0.0106)(0.9894 0.9893 0.9944) 
*ASC_SAT 0.8252 
*SOURCE FILE: A163_C003_1120Y5
000575  A163_C006_1120H4                 V     C        19:58:29:13 19:58:33:16 01:47:31:10 01:47:35:13 
*FROM CLIP NAME:  203_73H-1 (A) 
*ASC_SOP (1.0000 1.0000 1.0000)(-0.0196 -0.0215 -0.0106)(1.0239 1.0238 1.0289) 
*ASC_SAT 0.8252 
*SOURCE FILE: A163_C006_1120H4
000576  A163_C002_11205Q                 V     C        19:27:36:11 19:27:38:07 01:47:35:13 01:47:37:09 
*FROM CLIP NAME:  203_73F-2 
*ASC_SOP (1.0000 1.0000 1.0000)(-0.0196 -0.0215 -0.0106)(0.9894 0.9893 0.9944) 
*ASC_SAT 0.8252 
*SOURCE FILE: A163_C002_11205Q
000577  B102_C003_033185                 V     C        20:03:14:11 20:03:17:07 01:47:37:09 01:47:40:05 
*FROM CLIP NAME:  203_73H-2 (B) 
*ASC_SOP (1.0180 1.0177 1.0106)(-0.0402 -0.0349 -0.0228)(0.9413 0.9454 0.9726) 
*ASC_SAT 0.825 
*SOURCE FILE: B102_C003_033185
000578  A163_C003_1120Y5                 V     C        19:30:09:06 19:30:11:05 01:47:40:05 01:47:42:04 
*FROM CLIP NAME:  203_73F-3* 
*ASC_SOP (1.0000 1.0000 1.0000)(-0.0196 -0.0215 -0.0106)(0.9894 0.9893 0.9944) 
*ASC_SAT 0.8252 
*SOURCE FILE: A163_C003_1120Y5
000579  B102_C002_0331FC                 V     C        19:58:40:02 19:58:44:00 01:47:42:04 01:47:46:02 
*FROM CLIP NAME:  203_73H-1 (B) 
*ASC_SOP (1.0180 1.0177 1.0106)(-0.0402 -0.0349 -0.0228)(0.9413 0.9454 0.9726) 
*ASC_SAT 0.825 
*SOURCE FILE: B102_C002_0331FC
000580  A163_C003_1120Y5                 V     C        19:30:13:23 19:30:15:08 01:47:46:02 01:47:47:11 
*FROM CLIP NAME:  203_73F-3* 
*ASC_SOP (1.0000 1.0000 1.0000)(-0.0196 -0.0215 -0.0106)(0.9894 0.9893 0.9944) 
*ASC_SAT 0.8252 
*SOURCE FILE: A163_C003_1120Y5
000581  A163_C005_112022                 V     C        19:38:06:16 19:38:08:23 01:47:47:11 01:47:49:18 
*FROM CLIP NAME:  203_73G-2* 
*ASC_SOP (1.0000 1.0000 1.0000)(-0.0196 -0.0215 -0.0106)(0.9894 0.9893 0.9944) 
*ASC_SAT 0.8252 
*SOURCE FILE: A163_C005_112022
000582  A163_C003_1120Y5                 V     C        19:30:18:22 19:30:22:08 01:47:49:18 01:47:53:04 
*FROM CLIP NAME:  203_73F-3* 
*ASC_SOP (1.0000 1.0000 1.0000)(-0.0196 -0.0215 -0.0106)(0.9894 0.9893 0.9944) 
*ASC_SAT 0.8252 
*SOURCE FILE: A163_C003_1120Y5
000583  A163_C006_1120H4                 V     C        19:58:53:22 19:58:58:13 01:47:53:04 01:47:57:19 
*FROM CLIP NAME:  203_73H-1 (A) 
*ASC_SOP (1.0000 1.0000 1.0000)(-0.0196 -0.0215 -0.0106)(1.0239 1.0238 1.0289) 
*ASC_SAT 0.8252 
*SOURCE FILE: A163_C006_1120H4
000584  A163_C005_112022                 V     C        19:38:19:03 19:38:21:13 01:47:57:19 01:48:00:05 
*FROM CLIP NAME:  203_73G-2* 
*ASC_SOP (1.0000 1.0000 1.0000)(-0.0196 -0.0215 -0.0106)(0.9894 0.9893 0.9944) 
*ASC_SAT 0.8252 
*SOURCE FILE: A163_C005_112022
000585  A163_C003_1120Y5                 V     C        19:30:29:02 19:30:32:06 01:48:00:05 01:48:03:09 
*FROM CLIP NAME:  203_73F-3* 
*ASC_SOP (1.0000 1.0000 1.0000)(-0.0196 -0.0215 -0.0106)(0.9894 0.9893 0.9944) 
*ASC_SAT 0.8252 
*SOURCE FILE: A163_C003_1120Y5
000586  B101_C007_0331HB                 V     C        17:59:19:18 17:59:21:14 01:48:03:09 01:48:05:05 
*FROM CLIP NAME:  203_73C-2 (B) 
*ASC_SOP (1.0000 0.9998 0.9926)(-0.0432 -0.0379 -0.0258)(0.9630 0.9634 0.9824) 
*ASC_SAT 0.825 
*SOURCE FILE: B101_C007_0331HB
000587  A163_C003_1120Y5                 V     C        19:30:32:19 19:30:33:22 01:48:05:05 01:48:06:08 
*FROM CLIP NAME:  203_73F-3* 
*ASC_SOP (1.0000 1.0000 1.0000)(-0.0196 -0.0215 -0.0106)(0.9894 0.9893 0.9944) 
*ASC_SAT 0.8252 
*SOURCE FILE: A163_C003_1120Y5
000588  A156_C010_1116PX                 V     C        18:49:06:13 18:49:09:11 01:48:06:08 01:48:09:06 
*FROM CLIP NAME:  203_V73-5 (A) 
*ASC_SOP (1.0000 1.0000 1.0000)(-0.0143 -0.0161 -0.0053)(0.9613 0.9603 0.9663) 
*ASC_SAT 0.8252 
*SOURCE FILE: A156_C010_1116PX
000589  B102_C004_033182                 V     C        20:05:42:22 20:05:45:08 01:48:09:06 01:48:11:16 
*FROM CLIP NAME:  203_73H-3PU (B) 
*ASC_SOP (1.0180 1.0177 1.0106)(-0.0402 -0.0349 -0.0228)(0.9413 0.9454 0.9726) 
*ASC_SAT 0.825 
*SOURCE FILE: B102_C004_033182
000590  A156_C008_1116II                 V     C        18:42:26:05 18:42:28:14 01:48:11:16 01:48:14:01 
*FROM CLIP NAME:  203_V73-3 (A) 
*ASC_SOP (1.0000 1.0000 1.0000)(-0.0143 -0.0161 -0.0053)(0.9613 0.9603 0.9663) 
*ASC_SAT 0.8252 
*SOURCE FILE: A156_C008_1116II
000591  A163_C003_1120Y5                 V     C        19:30:36:15 19:30:39:17 01:48:14:01 01:48:17:03 
*FROM CLIP NAME:  203_73F-3* 
*ASC_SOP (1.0000 1.0000 1.0000)(-0.0196 -0.0215 -0.0106)(0.9894 0.9893 0.9944) 
*ASC_SAT 0.8252 
*SOURCE FILE: A163_C003_1120Y5
000592  B101_C007_0331HB                 V     C        17:59:23:01 17:59:23:23 01:48:17:03 01:48:18:01 
*FROM CLIP NAME:  203_73C-2 (B) 
*ASC_SOP (1.0000 0.9998 0.9926)(-0.0432 -0.0379 -0.0258)(0.9630 0.9634 0.9824) 
*ASC_SAT 0.825 
*SOURCE FILE: B101_C007_0331HB
000593  A161_C027_1120LT                 V     C        17:59:24:02 17:59:29:01 01:48:18:01 01:48:23:00 
*FROM CLIP NAME:  203_73C-2 (A) 
*ASC_SOP (1.0000 1.0000 1.0000)(-0.0196 -0.0215 -0.0106)(0.9774 0.9773 0.9824) 
*ASC_SAT 0.8252 
*SOURCE FILE: A161_C027_1120LT
000594  15.01                            V     C        01:00:42:06 01:00:45:17 01:48:23:00 01:48:26:11 
*FROM CLIP NAME:  15.01 
*LOC: 01:48:24:15 GREEN   203_074_010 - TWIN SUNS RISE OVER THE RESOLUTE/AMBER PLANET 
*SOURCE FILE: 15.01
000595  A164_C002_1120TW                 V     C        20:36:15:12 20:36:36:16 01:48:26:11 01:48:47:15 
*FROM CLIP NAME:  203_74-2* 
*ASC_SOP (1.0000 1.0000 1.0000)(-0.0196 -0.0215 -0.0106)(0.9775 0.9776 0.9820) 
*ASC_SAT 0.8252 
*SOURCE FILE: A164_C002_1120TW
000596  A171_C010_1123HI                 V     C        18:46:02:13 18:46:07:00 01:48:47:15 01:48:52:02 
*FROM CLIP NAME:  203_V68-3* 
*ASC_SOP (1.0123 1.0123 1.0123)(-0.0225 -0.0267 -0.0146)(0.9815 0.9788 0.9859) 
*ASC_SAT 0.8252 
*SOURCE FILE: A171_C010_1123HI
000597  BL                               V     C        00:00:00:00 00:00:01:03 01:48:52:02 01:48:53:05 
*SOURCE FILE: (NULL)
000598  NTV_CREDITS                      V     C        01:00:34:09 01:01:48:21 01:48:53:05 01:50:07:17 
*FROM CLIP NAME:  NTV CREDITS 
*SOURCE FILE: NTV CREDITS
000599  SAZAMA_SHARPLESS_PRODUCTIONS_4K_ V     C        00:00:04:06 00:00:06:06 01:50:07:17 01:50:09:17 
*FROM CLIP NAME:  SAZAMA SHARPLESS PRODUCTIONS 4K 170920G-BLUE 
*SOURCE FILE: SAZAMA SHARPLESS PRODUCTIONS 4K 170920G-BLUE
000600  LOST_IN_SPACE_1-108_PRO-HQ_1080P V     C        01:56:42:06 01:56:54:06 01:50:09:17 01:50:21:17 
*FROM CLIP NAME:  LIS108 END CREDITS 
*SOURCE FILE: LOST_IN_SPACE_1-108_PRO-HQ_1080P23_178_TXT_ENG-ENG_12TRK_HDMASTER
000601  LOST_IN_SPACE_1-103_PRO-HQ_1080P V     C        01:54:41:19 01:54:42:07 01:50:21:17 01:50:22:05 
*FROM CLIP NAME:  LOST_IN_SPACE_1-103_PRO-HQ_1080P23_178_TXT_ENG-ENG_12TRK_HDMASTER_SDR 
*SOURCE FILE: LOST_IN_SPACE_1-103_PRO-HQ_1080P23_178_TXT_ENG-ENG_12TRK_HDMASTER_SDR