TITLE:   R7V26.0_TURNOVER001_WIP VFX 
FCM: NON-DROP FRAME 
001  ACADEMY_ V     C        01:00:00:00 01:00:08:00 07:00:00:00 07:00:08:00 
* FROM CLIP NAME:  204_CTE_0005_CMP_V0003.MOV
* LOC: 01:00:00:12 YELLOW  001_001
002  204_CTE_ V     C        00:00:00:09 00:00:05:00 07:00:08:00 07:00:12:15
* FROM CLIP NAME:  204_CTE_0005_CMP_V0002.MOV
* LOC: 01:00:00:12 YELLOW  001_002
003  204_CTE_ V     C        00:00:00:09 00:00:06:10 07:00:12:15 07:00:18:16
* LOC: 01:00:00:12 YELLOW  001_003
* FROM CLIP NAME:  204_CTE_0020_CMP_V0052.MOV
004  204_CTE_ V     C        00:00:00:09 00:00:07:16 07:00:18:16 07:00:25:23 
* LOC: 01:00:00:12 YELLOW  001_004
* FROM CLIP NAME:  204_CTE_0023_CMP_V0015.MOV
005  204_CTE_ V     C        00:00:00:09 00:00:03:17 07:00:25:23 07:00:29:07 
* FROM CLIP NAME:  204_CTE_0027_CMP_V0010.MOV
* LOC: 01:00:00:12 YELLOW  001_005
006  204_CTE_ V     C        00:00:00:09 00:00:03:12 07:00:29:07 07:00:32:10
* FROM CLIP NAME:  204_CTE_0033_CMP_V0009.MOV
* LOC: 01:00:00:12 YELLOW  001_006
007  204_CTE_ V     C        00:00:00:09 00:00:05:17 07:00:32:10 07:00:37:18
* FROM CLIP NAME:  204_CTE_0037_CMP_V0020.MOV
* LOC: 01:00:00:12 YELLOW  001_007
008  204_CTE_ V     C        00:00:03:18 00:00:07:05 07:00:37:18 07:00:41:05
* FROM CLIP NAME:  204_CTE_0050_CMP_V0040.MOV
* LOC: 01:00:00:12 YELLOW  001_008
009  204_CTE_ V     C        00:00:00:09 00:00:04:23 07:00:41:05 07:00:45:19
* FROM CLIP NAME:  204_CTE_0060_CMP_V0021.MOV
* LOC: 01:00:00:12 YELLOW  001_009
010  204_CTE_ V     C        00:00:00:09 00:00:04:00 07:00:45:19 07:00:49:10
* FROM CLIP NAME:  204_CTE_0070_CMP_V0016.MOV
* LOC: 01:00:00:12 YELLOW  001_010
011  204_CTE_ V     C        00:00:00:09 00:00:01:17 07:00:49:10 07:00:50:18
* FROM CLIP NAME:  204_CTE_0080_CMP_V0013.MOV
* LOC: 01:00:00:12 YELLOW  001_011
012  204_CTE_ V     C        00:00:00:09 00:00:02:12 07:00:50:18 07:00:52:21
* FROM CLIP NAME:  204_CTE_0090_CMP_V0017.MOV
* LOC: 01:00:00:12 YELLOW  001_012
013  204_CTE_ V     C        00:00:00:09 00:00:05:14 07:00:52:21 07:00:58:02
* FROM CLIP NAME:  204_CTE_0100_CMP_V0020.MOV
* LOC: 01:00:00:12 YELLOW  001_013
014  204_CTE_ V     C        00:00:00:09 00:00:06:11 07:00:58:02 07:01:04:04
* FROM CLIP NAME:  204_CTE_0140_CMP_V0064.MOV
* LOC: 01:00:00:12 YELLOW  001_014
015  204_CTE_ V     C        00:00:00:09 00:00:03:01 07:01:04:04 07:01:06:20
* FROM CLIP NAME:  204_CTE_0110_CMP_V0036.MOV
* LOC: 01:00:00:12 YELLOW  001_015
016  204_CTE_ V     C        00:00:00:09 00:00:06:00 07:01:06:20 07:01:12:11
* FROM CLIP NAME:  204_CTE_0120_CMP_V0061.MOV
* LOC: 01:00:00:12 YELLOW  001_016
017  204_CTE_ V     C        00:00:00:09 00:00:05:00 07:01:12:11 07:01:17:02
* FROM CLIP NAME:  204_CTE_0130_CMP_V0071.MOV
* LOC: 01:00:00:12 YELLOW  001_017
018  204_CTE_ V     C        00:00:00:09 00:00:04:20 07:01:17:02 07:01:21:13
* FROM CLIP NAME:  204_CTE_0150_CMP_V0029.MOV
* LOC: 01:00:00:12 YELLOW  001_018
019  204_CTE_ V     C        00:00:00:09 00:00:03:17 07:01:21:13 07:01:24:21
* FROM CLIP NAME:  204_CTE_0160_CMP_V0034.MOV
* LOC: 01:00:00:12 YELLOW  001_019
020  204_CTE_ V     C        00:00:00:09 00:00:03:10 07:01:24:21 07:01:27:22
* FROM CLIP NAME:  204_CTE_0170_CMP_V0042.MOV
* LOC: 01:00:00:12 YELLOW  001_020
021  204_CTE_ V     C        00:00:00:09 00:00:02:20 07:01:27:22 07:01:30:09
* FROM CLIP NAME:  204_CTE_0180_CMP_V0034.MOV
* LOC: 01:00:00:12 YELLOW  001_021
022  204_CTE_ V     C        00:00:00:09 00:00:03:13 07:01:30:09 07:01:33:13
* FROM CLIP NAME:  204_CTE_0190_CMP_V0050.MOV
* LOC: 01:00:00:12 YELLOW  001_022
023  204_CTE_ V     C        00:00:00:09 00:00:05:03 07:01:33:13 07:01:38:07
* FROM CLIP NAME:  204_CTE_0200_CMP_V0042.MOV
* LOC: 01:00:00:12 YELLOW  001_023
024  204_CTE_ V     C        00:00:00:09 00:00:09:16 07:01:38:07 07:01:47:14
* FROM CLIP NAME:  204_CTE_0210_CMP_V0041.MOV
* LOC: 01:00:00:12 YELLOW  001_024
025  204_CTE_ V     C        00:00:00:03 00:00:06:11 07:01:47:14 07:01:53:22
* FROM CLIP NAME:  204_CTE_0220_CMP_V0050.MOV
* LOC: 01:00:00:12 YELLOW  001_025
026  204_CTE_ V     C        00:00:00:09 00:00:01:21 07:01:53:22 07:01:55:10
* FROM CLIP NAME:  204_CTE_0230_CMP_V0055.MOV
* LOC: 01:00:00:12 YELLOW  001_026
027  204_CTE_ V     C        00:00:00:09 00:00:03:13 07:01:55:10 07:01:58:14
* FROM CLIP NAME:  204_CTE_0010_ANIM_V0045.MOV
* LOC: 01:00:00:12 YELLOW  001_027
028  204_CTE_ V     C        00:00:00:09 00:00:03:06 07:01:58:14 07:02:01:11
* FROM CLIP NAME:  204_CTE_0250_CMP_V0049.MOV
* LOC: 01:00:00:12 YELLOW  001_028
029  204_CTE_ V     C        00:00:00:03 00:00:04:19 07:02:01:11 07:02:06:03
* FROM CLIP NAME:  204_CTE_0260_ANIM_V0039.MOV
* LOC: 01:00:00:12 YELLOW  001_029
030  204_CTE_ V     C        00:00:00:15 00:00:05:08 07:02:06:03 07:02:10:20
* FROM CLIP NAME:  204_CTE_0270_CMP_V0028.MOV
* LOC: 01:00:00:12 YELLOW  001_030
031  204_CTE_ V     C        00:00:00:09 00:00:05:21 07:02:10:20 07:02:16:08
* FROM CLIP NAME:  204_CTE_0280_CMP_V0060.MOV
* LOC: 01:00:00:12 YELLOW  001_031
032  204_CTE_ V     C        00:00:00:01 00:00:04:23 07:02:16:08 07:02:21:06
* LOC: 01:00:00:12 YELLOW  001_032
* FROM CLIP NAME:  204_CTE_0040_CMP_V0045.MOV