TITLE:   FINALSCHECK_EDL_TEST_140318FCM: NON-DROP FRAME001  001_JOS_ V     C        00:00:00:00 00:00:08:04 00:00:00:00 00:00:08:04* FROM CLIP NAME:  001_JOS_0010_CMP_V0053.MOV002  001_JOS_ V     C        00:00:00:00 00:00:12:13 00:00:08:04 00:00:20:17* FROM CLIP NAME:  001_JOS_0040_CMP_V0029.MOV003  002_MMH_ V     C        00:00:00:00 00:00:05:07 00:00:20:17 00:00:26:00* FROM CLIP NAME:  002_MMH_0030_CMP_V4010.MOV004  002_MMH_ V     C        00:00:00:00 00:00:04:05 00:00:26:00 00:00:30:05* FROM CLIP NAME:  002_MMH_0050_CMP_V4007.MOV005  002_MMH_ V     C        00:00:00:00 00:00:05:21 00:00:30:05 00:00:36:02* FROM CLIP NAME:  002_MMH_0057_CMP_V5001.MOV006  002_MMH_ V     C        00:00:00:00 00:00:04:07 00:00:36:02 00:00:40:09* FROM CLIP NAME:  002_MMH_0063_CMP_V5003.MOV007  002_MMH_ V     C        00:00:00:00 00:00:03:15 00:00:40:09 00:00:44:00* FROM CLIP NAME:  002_MMH_0070_CMP_V5002.MOV008  002_MMH_ V     C        00:00:00:00 00:00:02:08 00:00:44:00 00:00:46:08* FROM CLIP NAME:  002_MMH_0074_CMP_V5001.MOV009  002_MMH_ V     C        00:00:00:00 00:00:02:08 00:00:46:08 00:00:48:16* FROM CLIP NAME:  002_MMH_0077_CMP_V5002.MOV010  003_MNR_ V     C        00:00:00:00 00:00:03:11 00:00:48:16 00:00:52:03* FROM CLIP NAME:  003_MNR_0020_CMP_V5001.MOV011  003_MNR_ V     C        00:00:00:00 00:00:05:12 00:00:52:03 00:00:57:15* FROM CLIP NAME:  003_MNR_0030_CMP_V4004.MOV012  003_MNR_ V     C        00:00:00:00 00:00:02:21 00:00:57:15 00:01:00:12* FROM CLIP NAME:  003_MNR_0050_CMP_V4008.MOV013  003_MNR_ V     C        00:00:00:00 00:00:02:04 00:01:00:12 00:01:02:16* FROM CLIP NAME:  003_MNR_0070_CMP_V4005.MOV014  003_MNR_ V     C        00:00:00:00 00:00:03:21 00:01:02:16 00:01:06:13* FROM CLIP NAME:  003_MNR_0090_CMP_V4007.MOV015  004_MMH_ V     C        00:00:00:00 00:00:01:13 00:01:06:13 00:01:08:02* FROM CLIP NAME:  004_MMH_0090_CMP_V4005.MOV016  004_MMH_ V     C        00:00:00:00 00:00:02:17 00:01:08:02 00:01:10:19* FROM CLIP NAME:  004_MMH_0110_CMP_V4004.MOV017  004_MMH_ V     C        00:00:00:00 00:00:02:07 00:01:10:19 00:01:13:02* FROM CLIP NAME:  004_MMH_0117_CMP_V4002.MOV018  004_MMH_ V     C        00:00:00:00 00:00:03:05 00:01:13:02 00:01:16:07* FROM CLIP NAME:  004_MMH_0140_CMP_V4006.MOV019  004_MMH_ V     C        00:00:00:00 00:00:02:02 00:01:16:07 00:01:18:09* FROM CLIP NAME:  004_MMH_0150_CMP_V5002.MOV020  004_MMH_ V     C        00:00:00:00 00:00:05:19 00:01:18:09 00:01:24:04* FROM CLIP NAME:  004_MMH_0170_CMP_V5002.MOV021  005_PJB_ V     C        00:00:00:00 00:00:04:15 00:01:24:04 00:01:28:19* FROM CLIP NAME:  005_PJB_0010_CMP_V3048.MOV022  006_PJB_ V     C        00:00:00:00 00:00:02:01 00:01:28:19 00:01:30:20* FROM CLIP NAME:  006_PJB_0060_CMP_V5001.MOV023  006_PJB_ V     C        00:00:00:00 00:00:02:12 00:01:30:20 00:01:33:08* FROM CLIP NAME:  006_PJB_0100_CMP_V5001.MOV024  006_PJB_ V     C        00:00:00:00 00:00:02:07 00:01:33:08 00:01:35:15* FROM CLIP NAME:  006_PJB_0110_CMP_V5001.MOV025  007_PJB_ V     C        00:00:00:00 00:00:03:14 00:01:35:15 00:01:39:05* FROM CLIP NAME:  007_PJB_0130_CMP_V3047.MOV026  007_PJB_ V     C        00:00:00:00 00:00:03:07 00:01:39:05 00:01:42:12* FROM CLIP NAME:  007_PJB_0140_CMP_V3047.MOV027  007_PJB_ V     C        00:00:00:00 00:00:02:13 00:01:42:12 00:01:45:01* FROM CLIP NAME:  007_PJB_0150_CMP_V3021.MOV028  007_PJB_ V     C        00:00:00:00 00:00:05:15 00:01:45:01 00:01:50:16* FROM CLIP NAME:  007_PJB_0160_CMP_V5006.MOV029  009_CGM_ V     C        00:00:00:00 00:00:15:09 00:01:50:16 00:02:06:01* FROM CLIP NAME:  009_CGM_0020_CMP_V4004.MOV030  011_CGM_ V     C        00:00:00:00 00:00:04:21 00:02:06:01 00:02:10:22* FROM CLIP NAME:  011_CGM_0070_CMP_V4004.MOV031  012_CRC_ V     C        00:00:00:00 00:00:06:06 00:02:10:22 00:02:17:04* FROM CLIP NAME:  012_CRC_0020_CMP_V4003.MOV032  013_CRC_ V     C        00:00:00:00 00:00:01:22 00:02:17:04 00:02:19:02* FROM CLIP NAME:  013_CRC_0110_CMP_V0012.MOV033  013_CRC_ V     C        00:00:00:00 00:00:03:02 00:02:19:02 00:02:22:04* FROM CLIP NAME:  013_CRC_0120_CMP_V4033.MOV034  013_CRC_ V     C        00:00:00:00 00:00:02:14 00:02:22:04 00:02:24:18* FROM CLIP NAME:  013_CRC_0130_CMP_V0012.MOV035  013_CRC_ V     C        00:00:00:00 00:00:03:08 00:02:24:18 00:02:28:02* FROM CLIP NAME:  013_CRC_0210_CMP_V4002.MOV036  013_CRC_ V     C        00:00:00:00 00:00:03:10 00:02:28:02 00:02:31:12* FROM CLIP NAME:  013_CRC_0230_CMP_V4004.MOV037  014_CRC_ V     C        00:00:00:00 00:00:06:02 00:02:31:12 00:02:37:14* FROM CLIP NAME:  014_CRC_0360_CMP_V5001.MOV038  015_CRC_ V     C        00:00:00:00 00:00:05:09 00:02:37:14 00:02:42:23* FROM CLIP NAME:  015_CRC_0370_CMP_V4011.MOV039  015_CRC_ V     C        00:00:00:00 00:00:03:07 00:02:42:23 00:02:46:06* FROM CLIP NAME:  015_CRC_0420_CMP_V4010.MOV040  015_CRC_ V     C        00:00:00:00 00:00:03:13 00:02:46:06 00:02:49:19* FROM CLIP NAME:  015_CRC_0440_CMP_V0025.MOV041  015_CRC_ V     C        00:00:00:00 00:00:02:22 00:02:49:19 00:02:52:17* FROM CLIP NAME:  015_CRC_0460_CMP_V0059.MOV042  015_CRC_ V     C        00:00:00:00 00:00:03:15 00:02:52:17 00:02:56:08* FROM CLIP NAME:  015_CRC_0470_CMP_V4004.MOV043  016_CRC_ V     C        00:00:00:00 00:00:07:07 00:02:56:08 00:03:03:15* FROM CLIP NAME:  016_CRC_0390_CMP_V5002.MOV044  016_CRC_ V     C        00:00:00:00 00:00:03:22 00:03:03:15 00:03:07:13* FROM CLIP NAME:  016_CRC_0430_CMP_V0040.MOV045  016_CRC_ V     C        00:00:00:00 00:00:02:21 00:03:07:13 00:03:10:10* FROM CLIP NAME:  016_CRC_0978_CMP_V0115.MOV046  016_CRC_ V     C        00:00:00:00 00:00:06:13 00:03:10:10 00:03:16:23* FROM CLIP NAME:  016_CRC_0985_CMP_V0112.MOV047  016_CRC_ V     C        00:00:00:00 00:00:06:02 00:03:16:23 00:03:23:01* FROM CLIP NAME:  016_CRC_0995_CMP_V0088.MOV048  016_CRC_ V     C        00:00:00:00 00:00:03:08 00:03:23:01 00:03:26:09* FROM CLIP NAME:  016_CRC_0996_CMP_V0055.MOV049  017_CRC_ V     C        00:00:00:00 00:00:03:01 00:03:26:09 00:03:29:10* FROM CLIP NAME:  017_CRC_0220_CMP_V0073.MOV050  017_CRC_ V     C        00:00:00:00 00:00:01:06 00:03:29:10 00:03:30:16* FROM CLIP NAME:  017_CRC_0490_CMP_V0053.MOV051  017_CRC_ V     C        00:00:00:00 00:00:01:11 00:03:30:16 00:03:32:03* FROM CLIP NAME:  017_CRC_0505_CMP_V0046.MOV052  017_CRC_ V     C        00:00:00:00 00:00:02:07 00:03:32:03 00:03:34:10* FROM CLIP NAME:  017_CRC_0610_CMP_V0153.MOV053  017_CRC_ V     C        00:00:00:00 00:00:01:11 00:03:34:10 00:03:35:21* FROM CLIP NAME:  017_CRC_0640_CMP_V0044.MOV054  017_CRC_ V     C        00:00:00:00 00:00:02:23 00:03:35:21 00:03:38:20* FROM CLIP NAME:  017_CRC_0675_CMP_V0079.MOV055  018_CCH_ V     C        00:00:00:00 00:00:04:11 00:03:38:20 00:03:43:07* FROM CLIP NAME:  018_CCH_0030_CMP_V4007.MOV056  019_CCH_ V     C        00:00:00:00 00:00:01:23 00:03:43:07 00:03:45:06* FROM CLIP NAME:  019_CCH_0150_CMP_V4005.MOV057  020_CDF_ V     C        00:00:00:00 00:00:02:11 00:03:45:06 00:03:47:17* FROM CLIP NAME:  020_CDF_0035_CMP_V4008.MOV058  024_BFA_ V     C        00:00:00:00 00:00:03:03 00:03:47:17 00:03:50:20* FROM CLIP NAME:  024_BFA_0025_CMP_V4008.MOV059  024_BFA_ V     C        00:00:00:00 00:00:01:20 00:03:50:20 00:03:52:16* FROM CLIP NAME:  024_BFA_0080_CMP_V0006.MOV060  024_BFA_ V     C        00:00:00:00 00:00:01:20 00:03:52:16 00:03:54:12* FROM CLIP NAME:  024_BFA_0085_CMP_V4009.MOV061  024_BFA_ V     C        00:00:00:00 00:00:03:10 00:03:54:12 00:03:57:22* FROM CLIP NAME:  024_BFA_0150_CMP_V0004.MOV062  024_BFA_ V     C        00:00:00:00 00:00:02:21 00:03:57:22 00:04:00:19* FROM CLIP NAME:  024_BFA_0160_CMP_V0005.MOV063  024_BFA_ V     C        00:00:00:00 00:00:03:18 00:04:00:19 00:04:04:13* FROM CLIP NAME:  024_BFA_0190_CMP_V0007.MOV064  024_BFA_ V     C        00:00:00:00 00:00:07:16 00:04:04:13 00:04:12:05* FROM CLIP NAME:  024_BFA_0210_CMP_V4009.MOV065  024_BFA_ V     C        00:00:00:00 00:00:03:10 00:04:12:05 00:04:15:15* FROM CLIP NAME:  024_BFA_0250_CMP_V0005.MOV066  024_BFA_ V     C        00:00:00:00 00:00:04:12 00:04:15:15 00:04:20:03* FROM CLIP NAME:  024_BFA_0310_CMP_V4010.MOV067  024_BFA_ V     C        00:00:00:00 00:00:02:15 00:04:20:03 00:04:22:18* FROM CLIP NAME:  024_BFA_0315_CMP_V4006.MOV068  024_BFA_ V     C        00:00:00:00 00:00:02:10 00:04:22:18 00:04:25:04* FROM CLIP NAME:  024_BFA_0340_CMP_V0008.MOV069  024_BFA_ V     C        00:00:00:00 00:00:02:17 00:04:25:04 00:04:27:21* FROM CLIP NAME:  024_BFA_0360_CMP_V0008.MOV070  024_BFA_ V     C        00:00:00:00 00:00:04:03 00:04:27:21 00:04:32:00* FROM CLIP NAME:  024_BFA_0410_CMP_V4009.MOV071  024_BFA_ V     C        00:00:00:00 00:00:02:07 00:04:32:00 00:04:34:07* FROM CLIP NAME:  024_BFA_0420_CMP_V0006.MOV072  024_BFA_ V     C        00:00:00:00 00:00:02:10 00:04:34:07 00:04:36:17* FROM CLIP NAME:  024_BFA_0440_CMP_V0005.MOV073  024_BFA_ V     C        00:00:00:00 00:00:02:02 00:04:36:17 00:04:38:19* FROM CLIP NAME:  024_BFA_0520_CMP_V4008.MOV074  025_CET_ V     C        00:00:00:00 00:00:02:12 00:04:38:19 00:04:41:07* FROM CLIP NAME:  025_CET_0030_CMP_V4002.MOV075  025_CET_ V     C        00:00:00:00 00:00:10:08 00:04:41:07 00:04:51:15* FROM CLIP NAME:  025_CET_0170_CMP_V4003.MOV076  025_CET_ V     C        00:00:00:00 00:00:03:16 00:04:51:15 00:04:55:07* FROM CLIP NAME:  025_CET_0390_CMP_V4002.MOV077  027_JER_ V     C        00:00:00:00 00:00:02:17 00:04:55:07 00:04:58:00* FROM CLIP NAME:  027_JER_0135_CMP_V0014.MOV078  030_CKD_ V     C        00:00:00:00 00:00:08:17 00:04:58:00 00:05:06:17* FROM CLIP NAME:  030_CKD_0070_CMP_V4003.MOV079  030_CKD_ V     C        00:00:00:00 00:00:03:16 00:05:06:17 00:05:10:09* FROM CLIP NAME:  030_CKD_0090_CMP_V4005.MOV080  030_CKD_ V     C        00:00:00:00 00:00:04:03 00:05:10:09 00:05:14:12* FROM CLIP NAME:  030_CKD_0110_CMP_V4005.MOV081  030_CKD_ V     C        00:00:00:00 00:00:05:08 00:05:14:12 00:05:19:20* FROM CLIP NAME:  030_CKD_0220_CMP_V4003.MOV082  034_CKD_ V     C        00:00:00:00 00:00:07:05 00:05:19:20 00:05:27:01* FROM CLIP NAME:  034_CKD_0225_CMP_V4004.MOV083  034_CKD_ V     C        00:00:00:00 00:00:07:04 00:05:27:01 00:05:34:05* FROM CLIP NAME:  034_CKD_0290_CMP_V4004.MOV084  035_CKA_ V     C        00:00:00:00 00:00:05:11 00:05:34:05 00:05:39:16* FROM CLIP NAME:  035_CKA_0005_CMP_V4006.MOV085  035_CKA_ V     C        00:00:00:00 00:00:02:21 00:05:39:16 00:05:42:13* FROM CLIP NAME:  035_CKA_0020_CMP_V4010.MOV086  035_CKA_ V     C        00:00:00:00 00:00:02:11 00:05:42:13 00:05:45:00* FROM CLIP NAME:  035_CKA_0033_CMP_V4004.MOV087  035_CKA_ V     C        00:00:00:00 00:00:03:09 00:05:45:00 00:05:48:09* FROM CLIP NAME:  035_CKA_0060_CMP_V4004.MOV088  035_CKA_ V     C        00:00:00:00 00:00:04:10 00:05:48:09 00:05:52:19* FROM CLIP NAME:  035_CKA_0070_CMP_V4008.MOV089  035_CKA_ V     C        00:00:00:00 00:00:01:07 00:05:52:19 00:05:54:02* FROM CLIP NAME:  035_CKA_0085_CMP_V4010.MOV090  036_CKD_ V     C        00:00:00:00 00:00:03:01 00:05:54:02 00:05:57:03* FROM CLIP NAME:  036_CKD_0340_CMP_V0005.MOV091  036_CKD_ V     C        00:00:00:00 00:00:04:19 00:05:57:03 00:06:01:22* FROM CLIP NAME:  036_CKD_0350_CMP_V4001.MOV092  044_CKC_ V     C        00:00:00:00 00:00:03:03 00:06:01:22 00:06:05:01* FROM CLIP NAME:  044_CKC_0085_CMP_V1048.MOV093  044_CKC_ V     C        00:00:00:00 00:00:01:15 00:06:05:01 00:06:06:16* FROM CLIP NAME:  044_CKC_0095_CMP_V5002.MOV094  044_CKC_ V     C        00:00:00:00 00:00:02:05 00:06:06:16 00:06:08:21* FROM CLIP NAME:  044_CKC_0110_CMP_V5005.MOV095  044_CKC_ V     C        00:00:00:00 00:00:03:20 00:06:08:21 00:06:12:17* FROM CLIP NAME:  044_CKC_0140_CMP_V5009.MOV096  044_CKC_ V     C        00:00:00:00 00:00:02:19 00:06:12:17 00:06:15:12* FROM CLIP NAME:  044_CKC_0145_CMP_V5003.MOV097  044_CKC_ V     C        00:00:00:00 00:00:01:21 00:06:15:12 00:06:17:09* FROM CLIP NAME:  044_CKC_0155_CMP_V0003.MOV098  044_CKC_ V     C        00:00:00:00 00:00:02:12 00:06:17:09 00:06:19:21* FROM CLIP NAME:  044_CKC_0165_CMP_V1043.MOV099  044_CKC_ V     C        00:00:00:00 00:00:02:10 00:06:19:21 00:06:22:07* FROM CLIP NAME:  044_CKC_0170_CMP_V0002.MOV100  044_CKC_ V     C        00:00:00:00 00:00:02:01 00:06:22:07 00:06:24:08* FROM CLIP NAME:  044_CKC_0196_CMP_V0001.MOV101  044_CKC_ V     C        00:00:00:00 00:00:08:12 00:06:24:08 00:06:32:20* FROM CLIP NAME:  044_CKC_0200_CMP_V1170.MOV102  044_CKC_ V     C        00:00:00:00 00:00:01:23 00:06:32:20 00:06:34:19* FROM CLIP NAME:  044_CKC_0210_CMP_V1232.MOV103  044_CKC_ V     C        00:00:00:00 00:00:02:00 00:06:34:19 00:06:36:19* FROM CLIP NAME:  044_CKC_0220_CMP_V1347.MOV104  044_CKC_ V     C        00:00:00:00 00:00:01:21 00:06:36:19 00:06:38:16* FROM CLIP NAME:  044_CKC_0230_CMP_V1128.MOV105  044_CKC_ V     C        00:00:00:00 00:00:01:16 00:06:38:16 00:06:40:08* FROM CLIP NAME:  044_CKC_0235_CMP_V1131.MOV106  044_CKC_ V     C        00:00:00:00 00:00:01:17 00:06:40:08 00:06:42:01* FROM CLIP NAME:  044_CKC_0250_CMP_V1186.MOV107  044_CKC_ V     C        00:00:00:00 00:00:01:08 00:06:42:01 00:06:43:09* FROM CLIP NAME:  044_CKC_0260_CMP_V1087.MOV108  044_CKC_ V     C        00:00:00:00 00:00:01:11 00:06:43:09 00:06:44:20* FROM CLIP NAME:  044_CKC_0280_CMP_V1127.MOV109  044_CKC_ V     C        00:00:00:00 00:00:03:02 00:06:44:20 00:06:47:22* FROM CLIP NAME:  044_CKC_0300_CMP_V1275.MOV110  044_CKC_ V     C        00:00:00:00 00:00:01:19 00:06:47:22 00:06:49:17* FROM CLIP NAME:  044_CKC_0311_CMP_V1121.MOV111  044_CKC_ V     C        00:00:00:00 00:00:01:20 00:06:49:17 00:06:51:13* FROM CLIP NAME:  044_CKC_0340_CMP_V1159.MOV112  044_CKC_ V     C        00:00:00:00 00:00:02:13 00:06:51:13 00:06:54:02* FROM CLIP NAME:  044_CKC_0350_CMP_V1163.MOV113  044_CKC_ V     C        00:00:00:00 00:00:01:18 00:06:54:02 00:06:55:20* FROM CLIP NAME:  044_CKC_0360_CMP_V1164.MOV114  044_CKC_ V     C        00:00:00:00 00:00:02:08 00:06:55:20 00:06:58:04* FROM CLIP NAME:  044_CKC_0370_CMP_V1233.MOV115  044_CKC_ V     C        00:00:00:00 00:00:02:08 00:06:58:04 00:07:00:12* FROM CLIP NAME:  044_CKC_0380_CMP_V1136.MOV116  044_CKC_ V     C        00:00:00:00 00:00:04:15 00:07:00:12 00:07:05:03* FROM CLIP NAME:  044_CKC_0390_CMP_V1239.MOV117  048_CWC_ V     C        00:00:00:00 00:00:02:14 00:07:05:03 00:07:07:17* FROM CLIP NAME:  048_CWC_0040_CMP_V4012.MOV118  048_CWC_ V     C        00:00:00:00 00:00:03:13 00:07:07:17 00:07:11:06* FROM CLIP NAME:  048_CWC_0070_CMP_V4017.MOV119  048_CWC_ V     C        00:00:00:00 00:00:02:11 00:07:11:06 00:07:13:17* FROM CLIP NAME:  048_CWC_0080_CMP_V4003.MOV120  048_CWC_ V     C        00:00:00:00 00:00:03:19 00:07:13:17 00:07:17:12* FROM CLIP NAME:  048_CWC_0100_CMP_V4006.MOV121  048_CWC_ V     C        00:00:00:00 00:00:02:13 00:07:17:12 00:07:20:01* FROM CLIP NAME:  048_CWC_0130_CMP_V4016.MOV122  048_CWC_ V     C        00:00:00:00 00:00:04:04 00:07:20:01 00:07:24:05* FROM CLIP NAME:  048_CWC_0160_CMP_V4004.MOV123  048_CWC_ V     C        00:00:00:00 00:00:05:09 00:07:24:05 00:07:29:14* FROM CLIP NAME:  048_CWC_0180_CMP_V4003.MOV124  048_CWC_ V     C        00:00:00:00 00:00:05:14 00:07:29:14 00:07:35:04* FROM CLIP NAME:  048_CWC_0270_CMP_V4001.MOV125  048_CWC_ V     C        00:00:00:00 00:00:08:06 00:07:35:04 00:07:43:10* FROM CLIP NAME:  048_CWC_0290_CMP_V4006.MOV126  048_CWC_ V     C        00:00:00:00 00:00:02:11 00:07:43:10 00:07:45:21* FROM CLIP NAME:  048_CWC_0300_CMP_V0003.MOV127  048_CWC_ V     C        00:00:00:00 00:00:02:12 00:07:45:21 00:07:48:09* FROM CLIP NAME:  048_CWC_0361_CMP_V4002.MOV128  048_CWC_ V     C        00:00:00:00 00:00:02:20 00:07:48:09 00:07:51:05* FROM CLIP NAME:  048_CWC_0390_CMP_V0003.MOV129  048_CWC_ V     C        00:00:00:00 00:00:04:21 00:07:51:05 00:07:56:02* FROM CLIP NAME:  048_CWC_0410_CMP_V0002.MOV130  048_CWC_ V     C        00:00:00:00 00:00:07:08 00:07:56:02 00:08:03:10* FROM CLIP NAME:  048_CWC_0430_CMP_V0002.MOV131  048_CWC_ V     C        00:00:00:00 00:00:03:06 00:08:03:10 00:08:06:16* FROM CLIP NAME:  048_CWC_0450_CMP_V0002.MOV132  048_CWC_ V     C        00:00:00:00 00:00:08:14 00:08:06:16 00:08:15:06* FROM CLIP NAME:  048_CWC_0470_CMP_V4005.MOV133  051_CWC_ V     C        00:00:00:00 00:00:04:16 00:08:15:06 00:08:19:22* FROM CLIP NAME:  051_CWC_0620_CMP_V0033.MOV134  052_CSC_ V     C        00:00:00:00 00:00:02:09 00:08:19:22 00:08:22:07* FROM CLIP NAME:  052_CSC_0274_CMP_V0038.MOV135  052_CSC_ V     C        00:00:00:00 00:00:02:08 00:08:22:07 00:08:24:15* FROM CLIP NAME:  052_CSC_0535_CMP_V0051.MOV136  052_CSC_ V     C        00:00:00:00 00:00:02:15 00:08:24:15 00:08:27:06* FROM CLIP NAME:  052_CSC_0540_CMP_V0019.MOV137  052_CSC_ V     C        00:00:00:00 00:00:01:22 00:08:27:06 00:08:29:04* FROM CLIP NAME:  052_CSC_0560_CMP_V0014.MOV138  054_CSC_ V     C        00:00:00:00 00:00:04:19 00:08:29:04 00:08:33:23* FROM CLIP NAME:  054_CSC_1290_CMP_V0005.MOV139  056_CCC_ V     C        00:00:00:00 00:00:03:02 00:08:33:23 00:08:37:01* FROM CLIP NAME:  056_CCC_0050_CMP_V4019.MOV140  071_FLR_ V     C        00:00:00:00 00:00:02:09 00:08:37:01 00:08:39:10* FROM CLIP NAME:  071_FLR_0200_CMP_V2003.MOV141  071_FLR_ V     C        00:00:00:00 00:00:02:08 00:08:39:10 00:08:41:18* FROM CLIP NAME:  071_FLR_0220_CMP_V2003.MOV142  071_FLR_ V     C        00:00:00:00 00:00:01:15 00:08:41:18 00:08:43:09* FROM CLIP NAME:  071_FLR_0240_CMP_V2006.MOV143  071_FLR_ V     C        00:00:00:00 00:00:01:21 00:08:43:09 00:08:45:06* FROM CLIP NAME:  071_FLR_0260_CMP_V2002.MOV144  071_FLR_ V     C        00:00:00:00 00:00:01:12 00:08:45:06 00:08:46:18* FROM CLIP NAME:  071_FLR_0270_CMP_V2006.MOV145  071_FLR_ V     C        00:00:00:00 00:00:01:15 00:08:46:18 00:08:48:09* FROM CLIP NAME:  071_FLR_0280_CMP_V2005.MOV146  075_FCJ_ V     C        00:00:00:00 00:00:02:10 00:08:48:09 00:08:50:19* FROM CLIP NAME:  075_FCJ_0065_CMP_V0002.MOV147  075_FCJ_ V     C        00:00:00:00 00:00:01:22 00:08:50:19 00:08:52:17* FROM CLIP NAME:  075_FCJ_0120_CMP_V5001.MOV148  088_KFB_ V     C        00:00:00:00 00:00:03:12 00:08:52:17 00:08:56:05* FROM CLIP NAME:  088_KFB_0060_CMP_V4003.MOV149  088_KFB_ V     C        00:00:00:00 00:00:04:07 00:08:56:05 00:09:00:12* FROM CLIP NAME:  088_KFB_0120_CMP_V4002.MOV150  089_KHC_ V     C        00:00:00:00 00:00:03:06 00:09:00:12 00:09:03:18* FROM CLIP NAME:  089_KHC_0370_CMP_V4007.MOV151  090_KCH_ V     C        00:00:00:00 00:00:02:16 00:09:03:18 00:09:06:10* FROM CLIP NAME:  090_KCH_0010_CMP_V4011.MOV152  090_KCH_ V     C        00:00:00:00 00:00:02:12 00:09:06:10 00:09:08:22* FROM CLIP NAME:  090_KCH_0085_CMP_V3008.MOV153  093_KMC_ V     C        00:00:00:00 00:00:02:15 00:09:08:22 00:09:11:13* FROM CLIP NAME:  093_KMC_0210_CMP_V4005.MOV154  093_KMC_ V     C        00:00:00:00 00:00:02:17 00:09:11:13 00:09:14:06* FROM CLIP NAME:  093_KMC_0230_CMP_V4007.MOV155  096_KCH_ V     C        00:00:00:00 00:00:05:16 00:09:14:06 00:09:19:22* FROM CLIP NAME:  096_KCH_0290_CMP_V4029.MOV156  096_KCH_ V     C        00:00:00:00 00:00:08:03 00:09:19:22 00:09:28:01* FROM CLIP NAME:  096_KCH_0330_CMP_V4014.MOV157  096_KCH_ V     C        00:00:00:00 00:00:05:20 00:09:28:01 00:09:33:21* FROM CLIP NAME:  096_KCH_0340_CMP_V3008.MOV158  096_KCH_ V     C        00:00:00:00 00:00:01:14 00:09:33:21 00:09:35:11* FROM CLIP NAME:  096_KCH_0410_CMP_V4006.MOV159  096_KCH_ V     C        00:00:00:00 00:00:02:01 00:09:35:11 00:09:37:12* FROM CLIP NAME:  096_KCH_0470_CMP_V0005.MOV160  096_KCH_ V     C        00:00:00:00 00:00:02:11 00:09:37:12 00:09:39:23* FROM CLIP NAME:  096_KCH_0490_CMP_V4006.MOV161  096_KCH_ V     C        00:00:00:00 00:00:03:19 00:09:39:23 00:09:43:18* FROM CLIP NAME:  096_KCH_0620_CMP_V4011.MOV162  096_KCH_ V     C        00:00:00:00 00:00:02:16 00:09:43:18 00:09:46:10* FROM CLIP NAME:  096_KCH_0630_CMP_V0008.MOV163  098_CIA_ V     C        00:00:00:00 00:00:02:18 00:09:46:10 00:09:49:04* FROM CLIP NAME:  098_CIA_0010_CMP_V0004.MOV164  098_CIA_ V     C        00:00:00:00 00:00:04:08 00:09:49:04 00:09:53:12* FROM CLIP NAME:  098_CIA_0150_CMP_V4004.MOV165  099_CIA_ V     C        00:00:00:00 00:00:02:04 00:09:53:12 00:09:55:16* FROM CLIP NAME:  099_CIA_0300_CMP_V4005.MOV166  099_CIA_ V     C        00:00:00:00 00:00:02:15 00:09:55:16 00:09:58:07* FROM CLIP NAME:  099_CIA_0372_CMP_V4004.MOV167  099_CIA_ V     C        00:00:00:00 00:00:08:04 00:09:58:07 00:10:06:11* FROM CLIP NAME:  099_CIA_0382_CMP_V4004.MOV168  099_CIA_ V     C        00:00:00:00 00:00:03:06 00:10:06:11 00:10:09:17* FROM CLIP NAME:  099_CIA_0400_CMP_V4005.MOV169  099_CIA_ V     C        00:00:00:00 00:00:06:19 00:10:09:17 00:10:16:12* FROM CLIP NAME:  099_CIA_0410_CMP_V4011.MOV170  099_CIA_ V     C        00:00:00:00 00:00:03:07 00:10:16:12 00:10:19:19* FROM CLIP NAME:  099_CIA_0420_CMP_V4005.MOV171  099_CIA_ V     C        00:00:00:00 00:00:03:08 00:10:19:19 00:10:23:03* FROM CLIP NAME:  099_CIA_0430_CMP_V4009.MOV172  099_CIA_ V     C        00:00:00:00 00:00:03:20 00:10:23:03 00:10:26:23* FROM CLIP NAME:  099_CIA_0440_CMP_V4007.MOV173  099_CIA_ V     C        00:00:00:00 00:00:03:10 00:10:26:23 00:10:30:09* FROM CLIP NAME:  099_CIA_0450_CMP_V4006.MOV174  099_CIA_ V     C        00:00:00:00 00:00:08:02 00:10:30:09 00:10:38:11* FROM CLIP NAME:  099_CIA_0480_CMP_V4007.MOV175  110_MBM_ V     C        00:00:00:00 00:00:03:18 00:10:38:11 00:10:42:05* FROM CLIP NAME:  110_MBM_0340_CMP_V3011.MOV176  110_MBM_ V     C        00:00:00:00 00:00:05:02 00:10:42:05 00:10:47:07* FROM CLIP NAME:  110_MBM_0360_CMP_V3014.MOV177  110_MBM_ V     C        00:00:00:00 00:00:02:04 00:10:47:07 00:10:49:11* FROM CLIP NAME:  110_MBM_0380_CMP_V3011.MOV178  110_MBM_ V     C        00:00:00:00 00:00:03:08 00:10:49:11 00:10:52:19* FROM CLIP NAME:  110_MBM_0400_CMP_V3020.MOV179  110_MBM_ V     C        00:00:00:00 00:00:02:13 00:10:52:19 00:10:55:08* FROM CLIP NAME:  110_MBM_0410_CMP_V3011.MOV180  110_MBM_ V     C        00:00:00:00 00:00:03:09 00:10:55:08 00:10:58:17* FROM CLIP NAME:  110_MBM_0420_CMP_V3008.MOV181  110_MBM_ V     C        00:00:00:00 00:00:01:03 00:10:58:17 00:10:59:20* FROM CLIP NAME:  110_MBM_0440_CMP_V3011.MOV182  110_MBM_ V     C        00:00:00:00 00:00:02:09 00:10:59:20 00:11:02:05* FROM CLIP NAME:  110_MBM_0530_CMP_V3012.MOV183  110_MBM_ V     C        00:00:00:00 00:00:07:10 00:11:02:05 00:11:09:15* FROM CLIP NAME:  110_MBM_0550_CMP_V3064.MOV184  111_MSS_ V     C        00:00:00:00 00:00:04:22 00:11:09:15 00:11:14:13* FROM CLIP NAME:  111_MSS_0250_CMP_V4002.MOV185  112_MSS_ V     C        00:00:00:00 00:00:09:22 00:11:14:13 00:11:24:11* FROM CLIP NAME:  112_MSS_0390_CMP_V0002.MOV186  112_MSS_ V     C        00:00:00:00 00:00:01:21 00:11:24:11 00:11:26:08* FROM CLIP NAME:  112_MSS_0420_CMP_V0006.MOV187  112_MSS_ V     C        00:00:00:00 00:00:04:00 00:11:26:08 00:11:30:08* FROM CLIP NAME:  112_MSS_0450_CMP_V4004.MOV188  112_MSS_ V     C        00:00:00:00 00:00:05:12 00:11:30:08 00:11:35:20* FROM CLIP NAME:  112_MSS_0470_CMP_V0003.MOV189  112_MSS_ V     C        00:00:00:00 00:00:05:08 00:11:35:20 00:11:41:04* FROM CLIP NAME:  112_MSS_0490_CMP_V0003.MOV190  112_MSS_ V     C        00:00:00:00 00:00:06:08 00:11:41:04 00:11:47:12* FROM CLIP NAME:  112_MSS_0510_CMP_V0003.MOV191  112_MSS_ V     C        00:00:00:00 00:00:03:08 00:11:47:12 00:11:50:20* FROM CLIP NAME:  112_MSS_0530_CMP_V4005.MOV192  112_MSS_ V     C        00:00:00:00 00:00:04:22 00:11:50:20 00:11:55:18* FROM CLIP NAME:  112_MSS_0550_CMP_V4007.MOV193  112_MSS_ V     C        00:00:00:00 00:00:04:06 00:11:55:18 00:12:00:00* FROM CLIP NAME:  112_MSS_0560_CMP_V4006.MOV194  112_MSS_ V     C        00:00:00:00 00:00:02:12 00:12:00:00 00:12:02:12* FROM CLIP NAME:  112_MSS_0580_CMP_V4004.MOV195  112_MSS_ V     C        00:00:00:00 00:00:07:06 00:12:02:12 00:12:09:18* FROM CLIP NAME:  112_MSS_0600_CMP_V4005.MOV196  112_MSS_ V     C        00:00:00:00 00:00:06:21 00:12:09:18 00:12:16:15* FROM CLIP NAME:  112_MSS_0620_CMP_V4007.MOV197  112_MSS_ V     C        00:00:00:00 00:00:03:08 00:12:16:15 00:12:19:23* FROM CLIP NAME:  112_MSS_0640_CMP_V4007.MOV198  112_MSS_ V     C        00:00:00:00 00:00:05:05 00:12:19:23 00:12:25:04* FROM CLIP NAME:  112_MSS_0670_CMP_V4005.MOV199  112_MSS_ V     C        00:00:00:00 00:00:03:14 00:12:25:04 00:12:28:18* FROM CLIP NAME:  112_MSS_0690_CMP_V4005.MOV200  112_MSS_ V     C        00:00:00:00 00:00:01:16 00:12:28:18 00:12:30:10* FROM CLIP NAME:  112_MSS_0710_CMP_V0004.MOV201  112_MSS_ V     C        00:00:00:00 00:00:02:09 00:12:30:10 00:12:32:19* FROM CLIP NAME:  112_MSS_0750_CMP_V4006.MOV202  112_MSS_ V     C        00:00:00:00 00:00:04:16 00:12:32:19 00:12:37:11* FROM CLIP NAME:  112_MSS_0760_CMP_V4004.MOV203  113_GFC_ V     C        00:00:00:00 00:00:01:22 00:12:37:11 00:12:39:09* FROM CLIP NAME:  113_GFC_0010_CMP_V5001.MOV204  113_GFC_ V     C        00:00:00:00 00:00:01:19 00:12:39:09 00:12:41:04* FROM CLIP NAME:  113_GFC_0030_CMP_V4004.MOV205  113_GFC_ V     C        00:00:00:00 00:00:02:14 00:12:41:04 00:12:43:18* FROM CLIP NAME:  113_GFC_0040_CMP_V1059.MOV206  113_GFC_ V     C        00:00:00:00 00:00:03:15 00:12:43:18 00:12:47:09* FROM CLIP NAME:  113_GFC_0043_CMP_V1078.MOV207  113_GFC_ V     C        00:00:00:00 00:00:04:00 00:12:47:09 00:12:51:09* FROM CLIP NAME:  113_GFC_0050_CMP_V1127.MOV208  113_GFC_ V     C        00:00:00:00 00:00:02:06 00:12:51:09 00:12:53:15* FROM CLIP NAME:  113_GFC_0120_CMP_V5002.MOV209  113_GFC_ V     C        00:00:00:00 00:00:04:01 00:12:53:15 00:12:57:16* FROM CLIP NAME:  113_GFC_0140_CMP_V5001.MOV210  113_GFC_ V     C        00:00:00:00 00:00:01:14 00:12:57:16 00:12:59:06* FROM CLIP NAME:  113_GFC_0160_CMP_V5002.MOV211  113_GFC_ V     C        00:00:00:00 00:00:01:23 00:12:59:06 00:13:01:05* FROM CLIP NAME:  113_GFC_0180_CMP_V5001.MOV212  118_TCB_ V     C        00:00:00:00 00:00:04:06 00:13:01:05 00:13:05:11* FROM CLIP NAME:  118_TCB_0060_CMP_V4002.MOV213  120_TMC_ V     C        00:00:00:00 00:00:02:22 00:13:05:11 00:13:08:09* FROM CLIP NAME:  120_TMC_0060_CMP_V3010.MOV214  120_TMC_ V     C        00:00:00:00 00:00:02:21 00:13:08:09 00:13:11:06* FROM CLIP NAME:  120_TMC_0080_CMP_V3016.MOV215  120_TMC_ V     C        00:00:00:00 00:00:04:00 00:13:11:06 00:13:15:06* FROM CLIP NAME:  120_TMC_0120_CMP_V3012.MOV216  120_TMC_ V     C        00:00:00:00 00:00:06:13 00:13:15:06 00:13:21:19* FROM CLIP NAME:  120_TMC_0220_CMP_V3014.MOV217  120_TMC_ V     C        00:00:00:00 00:00:04:02 00:13:21:19 00:13:25:21* FROM CLIP NAME:  120_TMC_0230_CMP_V3010.MOV218  120_TMC_ V     C        00:00:00:00 00:00:03:17 00:13:25:21 00:13:29:14* FROM CLIP NAME:  120_TMC_0240_CMP_V3014.MOV219  120_TMC_ V     C        00:00:00:00 00:00:04:07 00:13:29:14 00:13:33:21* FROM CLIP NAME:  120_TMC_0270_CMP_V3007.MOV220  120_TMC_ V     C        00:00:00:00 00:00:05:19 00:13:33:21 00:13:39:16* FROM CLIP NAME:  120_TMC_0280_CMP_V3015.MOV221  120_TMC_ V     C        00:00:00:00 00:00:01:12 00:13:39:16 00:13:41:04* FROM CLIP NAME:  120_TMC_0320_CMP_V4005.MOV222  120_TMC_ V     C        00:00:00:00 00:00:02:21 00:13:41:04 00:13:44:01* FROM CLIP NAME:  120_TMC_0340_CMP_V4004.MOV223  132_TJW_ V     C        00:00:00:00 00:00:03:03 00:13:44:01 00:13:47:04* FROM CLIP NAME:  132_TJW_0125_CMP_V4009.MOV224  144_GCO_ V     C        00:00:00:00 00:00:05:13 00:13:47:04 00:13:52:17* FROM CLIP NAME:  144_GCO_0280_CMP_V5001.MOV225  173_GLF_ V     C        00:00:00:00 00:00:01:11 00:13:52:17 00:13:54:04* FROM CLIP NAME:  173_GLF_0160_CMP_V5002.MOV226  173_GLF_ V     C        00:00:00:00 00:00:02:10 00:13:54:04 00:13:56:14* FROM CLIP NAME:  173_GLF_0180_CMP_V1066.MOV227  175_GLF_ V     C        00:00:00:00 00:00:01:12 00:13:56:14 00:13:58:02* FROM CLIP NAME:  175_GLF_0560_CMP_V4004.MOV228  175_GLF_ V     C        00:00:00:00 00:00:01:21 00:13:58:02 00:13:59:23* FROM CLIP NAME:  175_GLF_0590_CMP_V4004.MOV229  175_GLF_ V     C        00:00:00:00 00:00:01:10 00:13:59:23 00:14:01:09* FROM CLIP NAME:  175_GLF_0650_CMP_V4005.MOV230  186_JRD_ V     C        00:00:00:00 00:00:01:23 00:14:01:09 00:14:03:08* FROM CLIP NAME:  186_JRD_0055_CMP_V0026.MOV231  189_JRD_ V     C        00:00:00:00 00:00:04:08 00:14:03:08 00:14:07:16* FROM CLIP NAME:  189_JRD_0410_CMP_V4005.MOV232  189_JRD_ V     C        00:00:00:00 00:00:03:05 00:14:07:16 00:14:10:21* FROM CLIP NAME:  189_JRD_0420_CMP_V4003.MOV233  189_JRD_ V     C        00:00:00:00 00:00:01:18 00:14:10:21 00:14:12:15* FROM CLIP NAME:  189_JRD_1590_CMP_V4003.MOV234  189_JRD_ V     C        00:00:00:00 00:00:04:05 00:14:12:15 00:14:16:20* FROM CLIP NAME:  189_JRD_1600_CMP_V0001.MOV235  203_CBT_ V     C        00:00:00:00 00:00:02:04 00:14:16:20 00:14:19:00* FROM CLIP NAME:  203_CBT_0070_CMP_V4006.MOV236  203_CBT_ V     C        00:00:00:00 00:00:02:11 00:14:19:00 00:14:21:11* FROM CLIP NAME:  203_CBT_0120_CMP_V0006.MOV237  203_CBT_ V     C        00:00:00:00 00:00:03:19 00:14:21:11 00:14:25:06* FROM CLIP NAME:  203_CBT_0140_CMP_V0002.MOV238  203_CBT_ V     C        00:00:00:00 00:00:01:20 00:14:25:06 00:14:27:02* FROM CLIP NAME:  203_CBT_0170_CMP_V0006.MOV239  203_CBT_ V     C        00:00:00:00 00:00:05:00 00:14:27:02 00:14:32:02* FROM CLIP NAME:  203_CBT_0180_CMP_V0003.MOV240  203_CBT_ V     C        00:00:00:00 00:00:01:23 00:14:32:02 00:14:34:01* FROM CLIP NAME:  203_CBT_0200_CMP_V0004.MOV241  203_CBT_ V     C        00:00:00:00 00:00:05:15 00:14:34:01 00:14:39:16* FROM CLIP NAME:  203_CBT_0210_CMP_V0003.MOV242  203_CBT_ V     C        00:00:00:00 00:00:05:05 00:14:39:16 00:14:44:21* FROM CLIP NAME:  203_CBT_0230_CMP_V4010.MOV243  203_CBT_ V     C        00:00:00:00 00:00:02:17 00:14:44:21 00:14:47:14* FROM CLIP NAME:  203_CBT_0240_CMP_V0006.MOV244  203_CBT_ V     C        00:00:00:00 00:00:03:00 00:14:47:14 00:14:50:14* FROM CLIP NAME:  203_CBT_0270_CMP_V4003.MOV245  203_CBT_ V     C        00:00:00:00 00:00:02:08 00:14:50:14 00:14:52:22* FROM CLIP NAME:  203_CBT_0300_CMP_V0002.MOV