TITLE:   R7V26.0_TURNOVER001_WIP VFX 
FCM: NON-DROP FRAME 
001  ACADEMY_ V     C        01:00:00:00 01:00:08:00 07:00:00:00 07:00:08:00 
* FROM CLIP NAME:  204_CTE_0005_CMP_V0003.MOV
002  204_CTE_ V     C        00:00:00:09 00:00:05:00 07:00:08:00 07:00:12:15 
* FROM CLIP NAME:  204_CTE_0005_CMP_V0002.MOV
003  204_CTE_ V     C        00:00:00:09 00:00:06:10 07:00:12:15 07:00:18:16 
* FROM CLIP NAME:  204_CTE_0020_CMP_V0052.MOV
004  204_CTE_ V     C        00:00:00:09 00:00:07:16 07:00:18:16 07:00:25:23 
* FROM CLIP NAME:  204_CTE_0023_CMP_V0015.MOV
005  204_CTE_ V     C        00:00:00:09 00:00:03:17 07:00:25:23 07:00:29:07 
* FROM CLIP NAME:  204_CTE_0027_CMP_V0010.MOV
006  204_CTE_ V     C        00:00:00:09 00:00:03:12 07:00:29:07 07:00:32:10 
* FROM CLIP NAME:  204_CTE_0033_CMP_V0009.MOV
007  204_CTE_ V     C        00:00:00:09 00:00:05:17 07:00:32:10 07:00:37:18 
* FROM CLIP NAME:  204_CTE_0037_CMP_V0020.MOV
008  204_CTE_ V     C        00:00:03:18 00:00:07:05 07:00:37:18 07:00:41:05 
* FROM CLIP NAME:  204_CTE_0050_CMP_V0040.MOV
009  204_CTE_ V     C        00:00:00:09 00:00:04:23 07:00:41:05 07:00:45:19 
* FROM CLIP NAME:  204_CTE_0060_CMP_V0021.MOV
010  204_CTE_ V     C        00:00:00:09 00:00:04:00 07:00:45:19 07:00:49:10 
* FROM CLIP NAME:  204_CTE_0070_CMP_V0016.MOV
011  204_CTE_ V     C        00:00:00:09 00:00:01:17 07:00:49:10 07:00:50:18 
* FROM CLIP NAME:  204_CTE_0080_CMP_V0013.MOV
012  204_CTE_ V     C        00:00:00:09 00:00:02:12 07:00:50:18 07:00:52:21 
* FROM CLIP NAME:  204_CTE_0090_CMP_V0017.MOV
013  204_CTE_ V     C        00:00:00:09 00:00:05:14 07:00:52:21 07:00:58:02 
* FROM CLIP NAME:  204_CTE_0100_CMP_V0020.MOV
014  204_CTE_ V     C        00:00:00:09 00:00:06:11 07:00:58:02 07:01:04:04 
* FROM CLIP NAME:  204_CTE_0140_CMP_V0064.MOV
015  204_CTE_ V     C        00:00:00:09 00:00:03:01 07:01:04:04 07:01:06:20 
* FROM CLIP NAME:  204_CTE_0110_CMP_V0036.MOV
016  204_CTE_ V     C        00:00:00:09 00:00:06:00 07:01:06:20 07:01:12:11 
* FROM CLIP NAME:  204_CTE_0120_CMP_V0061.MOV
017  204_CTE_ V     C        00:00:00:09 00:00:05:00 07:01:12:11 07:01:17:02 
* FROM CLIP NAME:  204_CTE_0130_CMP_V0071.MOV
018  204_CTE_ V     C        00:00:00:09 00:00:04:20 07:01:17:02 07:01:21:13 
* FROM CLIP NAME:  204_CTE_0150_CMP_V0029.MOV
019  204_CTE_ V     C        00:00:00:09 00:00:03:17 07:01:21:13 07:01:24:21 
* FROM CLIP NAME:  204_CTE_0160_CMP_V0034.MOV
020  204_CTE_ V     C        00:00:00:09 00:00:03:10 07:01:24:21 07:01:27:22 
* FROM CLIP NAME:  204_CTE_0170_CMP_V0042.MOV
021  204_CTE_ V     C        00:00:00:09 00:00:02:20 07:01:27:22 07:01:30:09 
* FROM CLIP NAME:  204_CTE_0180_CMP_V0034.MOV
022  204_CTE_ V     C        00:00:00:09 00:00:03:13 07:01:30:09 07:01:33:13 
* FROM CLIP NAME:  204_CTE_0190_CMP_V0050.MOV
023  204_CTE_ V     C        00:00:00:09 00:00:05:03 07:01:33:13 07:01:38:07 
* FROM CLIP NAME:  204_CTE_0200_CMP_V0042.MOV
024  204_CTE_ V     C        00:00:00:09 00:00:09:16 07:01:38:07 07:01:47:14 
* FROM CLIP NAME:  204_CTE_0210_CMP_V0041.MOV
025  204_CTE_ V     C        00:00:00:03 00:00:06:11 07:01:47:14 07:01:53:22 
* FROM CLIP NAME:  204_CTE_0220_CMP_V0050.MOV
026  204_CTE_ V     C        00:00:00:09 00:00:01:21 07:01:53:22 07:01:55:10 
* FROM CLIP NAME:  204_CTE_0230_CMP_V0055.MOV
027  204_CTE_ V     C        00:00:00:09 00:00:03:13 07:01:55:10 07:01:58:14 
* FROM CLIP NAME:  204_CTE_0010_ANIM_V0045.MOV
028  204_CTE_ V     C        00:00:00:09 00:00:03:06 07:01:58:14 07:02:01:11 
* FROM CLIP NAME:  204_CTE_0250_CMP_V0049.MOV
029  204_CTE_ V     C        00:00:00:03 00:00:04:19 07:02:01:11 07:02:06:03 
* FROM CLIP NAME:  204_CTE_0260_ANIM_V0039.MOV
030  204_CTE_ V     C        00:00:00:15 00:00:05:08 07:02:06:03 07:02:10:20 
* FROM CLIP NAME:  204_CTE_0270_CMP_V0028.MOV
031  204_CTE_ V     C        00:00:00:09 00:00:05:21 07:02:10:20 07:02:16:08 
* FROM CLIP NAME:  204_CTE_0280_CMP_V0060.MOV
032  204_CTE_ V     C        00:00:00:01 00:00:04:23 07:02:16:08 07:02:21:06 
* FROM CLIP NAME:  204_CTE_0040_CMP_V0045.MOV
