TITLE:   SR_010FCM: NON-DROP FRAME001  B008     V     C        00:01:25:12 00:01:26:16 01:00:00:00 01:00:01:04* FROM CLIP NAME:  246G-3B** LOC: 01:00:00:12 YELLOW  MR0200* SOURCE FILE: LR9907614002  C001     V     C        00:03:42:14 00:03:47:10 01:00:01:04 01:00:06:00* FROM CLIP NAME:  246AA-6* LOC: 01:00:02:19 YELLOW  MR0200* SOURCE FILE: LR9907755003  A034     V     C        00:08:47:21 00:08:48:21 01:00:06:00 01:00:07:00* FROM CLIP NAME:  246J-5** LOC: 01:00:06:06 YELLOW  MR0210* SOURCE FILE: LR9907610004  A034     V     C        00:08:59:06 00:09:00:02 01:00:07:00 01:00:07:20* FROM CLIP NAME:  246J-6BALL* LOC: 01:00:07:06 YELLOW  MR0210* SOURCE FILE: LR9907610005  A036     V     C        00:05:11:07 00:05:13:18 01:00:07:20 01:00:10:07* FROM CLIP NAME:  246N-2** LOC: 01:00:09:07 YELLOW  MR0245* SOURCE FILE: LR9907611006  A036     V     C        00:05:24:04 00:05:25:01 01:00:10:07 01:00:11:04* FROM CLIP NAME:  246N-3BALL* LOC: 01:00:10:13 YELLOW  MR0245* SOURCE FILE: LR9907611007  A037     V     C        00:06:42:14 00:06:43:22 01:00:11:04 01:00:12:12* FROM CLIP NAME:  246P-3** LOC: 01:00:11:11 YELLOW  MR0250* SOURCE FILE: LR9907611008  A037     V     C        00:06:57:16 00:06:58:11 01:00:12:12 01:00:13:07* FROM CLIP NAME:  246P-4BALL* LOC: 01:00:12:16 YELLOW  MR0250* SOURCE FILE: LR9907611009  A037     V     C        00:06:44:17 00:06:46:10 01:00:13:07 01:00:15:00* FROM CLIP NAME:  246P-3** LOC: 01:00:14:01 YELLOW  MR0260* SOURCE FILE: LR9907611010  F013     V     C        00:03:29:20 00:04:21:04 01:00:15:00 01:01:06:08* FROM CLIP NAME:  248AZ-1 MOS* LOC: 01:00:34:11 YELLOW  MR0260* SOURCE FILE: LR9908558011  F014     V     C        00:04:30:14 00:04:56:02 01:01:06:08 01:01:31:20* FROM CLIP NAME:  248AZ-2* MOS* LOC: 01:01:13:16 YELLOW  MR0260* SOURCE FILE: LR9908558012  A037     V     C        00:07:14:22 00:07:16:23 01:01:31:20 01:01:33:21* FROM CLIP NAME:  246P-4BALL* LOC: 01:01:32:12 YELLOW  MR0260* SOURCE FILE: LR9907611013  A041     V     C        00:09:11:06 00:09:12:03 01:01:33:21 01:01:34:18* FROM CLIP NAME:  246W-1** LOC: 01:01:34:04 YELLOW  MR0330* SOURCE FILE: LR9907747014  A047     V     C        00:07:22:21 00:07:33:17 01:01:34:18 01:01:45:14* FROM CLIP NAME:  248G-1* LOC: 01:01:37:03 YELLOW  MR0330* SOURCE FILE: LR9907940015  A041     V     C        00:09:26:07 00:09:31:04 01:01:45:14 01:01:50:11* FROM CLIP NAME:  246W-2* LOC: 01:01:46:05 YELLOW  MR0330* SOURCE FILE: LR9907747016  A040     V     C        00:08:03:06 00:08:04:08 01:01:50:11 01:01:51:13* FROM CLIP NAME:  246V-1** LOC: 01:01:50:18 YELLOW  MR0340* SOURCE FILE: LR9907747017  A040     V     C        00:08:37:08 00:08:37:20 01:01:51:13 01:01:52:01* FROM CLIP NAME:  246V-3* LOC: 01:01:51:16 YELLOW  MR0340* SOURCE FILE: LR9907747018  A042     V     C        00:00:51:09 00:00:53:03 01:01:52:01 01:01:53:19* FROM CLIP NAME:  246AS-2** LOC: 01:01:52:10 YELLOW  MR0510* SOURCE FILE: LR9907936019  A042     V     C        00:01:07:07 00:01:09:17 01:01:53:19 01:01:56:05* FROM CLIP NAME:  246AS-3* LOC: 01:01:54:09 YELLOW  MR0510* SOURCE FILE: LR9907936020  F009     V     C        00:08:42:08 00:08:43:12 01:01:56:05 01:01:57:09* FROM CLIP NAME:  248AR-3* MOS* LOC: 01:01:56:14 YELLOW  MR0600* SOURCE FILE: LR9908433021  C009     V     C        00:09:28:20 00:09:29:22 01:01:57:09 01:01:58:11* FROM CLIP NAME:  246AR-8 BALLS* LOC: 01:01:57:18 YELLOW  MR0600* SOURCE FILE: LR9907954022  F011     V     C        00:03:03:19 00:03:04:18 01:01:58:11 01:01:59:10* FROM CLIP NAME:  248AT-6* MOS* LOC: 01:01:58:22 YELLOW  MR0610* SOURCE FILE: LR9908438023  F011     V     C        00:03:21:20 00:03:23:02 01:01:59:10 01:02:00:16* FROM CLIP NAME:  248AT-7 BALLS* LOC: 01:01:59:17 YELLOW  MR0610* SOURCE FILE: LR9908438024  F011     V     C        00:04:23:19 00:04:24:14 01:02:00:16 01:02:01:11* FROM CLIP NAME:  248AU-4* MOS* LOC: 01:02:00:22 YELLOW  MR0620* SOURCE FILE: LR9908438025  F011     V     C        00:04:48:17 00:05:13:06 01:02:01:11 01:02:26:00* FROM CLIP NAME:  248AU-6 MOS* LOC: 01:02:07:20 YELLOW  MR0620* SOURCE FILE: LR9908438026  F011     V     C        00:04:37:08 00:04:39:13 01:02:26:00 01:02:28:05* FROM CLIP NAME:  248AU-5 BALLS* LOC: 01:02:26:11 YELLOW  MR0620* SOURCE FILE: LR9908438027  A049     V     C        00:05:03:00 00:05:03:22 01:02:28:05 01:02:29:03* FROM CLIP NAME:  248K-2** LOC: 01:02:28:13 YELLOW  MR0720* SOURCE FILE: LR9907941028  A049     V     C        00:05:16:17 00:05:18:22 01:02:29:03 01:02:31:08* FROM CLIP NAME:  248K-3  BALLS* LOC: 01:02:29:17 YELLOW  MR0720* SOURCE FILE: LR9907941029  A050     V     C        00:08:58:23 00:09:00:02 01:02:31:08 01:02:32:11* FROM CLIP NAME:  248M-7** LOC: 01:02:31:17 YELLOW  MR0730* SOURCE FILE: LR9907941030  A050     V     C        00:09:13:10 00:09:17:06 01:02:32:11 01:02:36:07* FROM CLIP NAME:  248M-8  BALLS* LOC: 01:02:33:00 YELLOW  MR0730* SOURCE FILE: LR9907941031  A051     V     C        00:03:51:06 00:03:52:06 01:02:36:07 01:02:37:07* FROM CLIP NAME:  248Q-8** LOC: 01:02:36:18 YELLOW  MR0740* SOURCE FILE: LR9908122032  A052     V     C        00:04:02:23 00:04:04:15 01:02:37:07 01:02:38:23* FROM CLIP NAME:  248Q-9 BALLS* LOC: 01:02:37:17 YELLOW  MR0740* SOURCE FILE: LR9908122033  A064     V     C        00:11:44:05 00:11:51:00 01:02:38:23 01:02:45:18* FROM CLIP NAME:  248AM-5** LOC: 01:02:39:15 YELLOW  MR0930* SOURCE FILE: LR9908244034  A064     V     C        00:12:05:21 00:12:10:08 01:02:45:18 01:02:50:05* FROM CLIP NAME:  248AM-6 BALLS* LOC: 01:02:46:22 YELLOW  MR0930* SOURCE FILE: LR9908244035  A026     V     C        00:05:26:09 00:05:28:05 01:02:50:05 01:02:52:01* FROM CLIP NAME:  249E-4** LOC: 01:02:50:18 YELLOW  MR1000* SOURCE FILE: LR9907457036  A026     V     C        00:05:47:23 00:05:52:18 01:02:52:01 01:02:56:20* FROM CLIP NAME:  249E-5BALL* LOC: 01:02:52:21 YELLOW  MR1000* SOURCE FILE: LR9907457037  A029     V     C        00:05:12:22 00:05:20:19 01:02:56:20 01:03:04:17* FROM CLIP NAME:  249H-4** LOC: 01:02:58:17 YELLOW  MR1220* SOURCE FILE: LR9907609038  A029     V     C        00:05:36:05 00:05:42:11 01:03:04:17 01:03:10:23* FROM CLIP NAME:  249H-5BALL* LOC: 01:03:06:17 YELLOW  MR1220* SOURCE FILE: LR9907609039  A027     V     C        00:09:53:03 00:10:06:07 01:03:10:23 01:03:24:03* FROM CLIP NAME:  249G-5A BALL* LOC: 01:03:15:06 YELLOW  MR1200* SOURCE FILE: LR9907457